# Created by Kenney (www.kenney.nl)

mtllib block-borders.mtl

g block-borders

v -0.49995 0 -0.49995 1 1 1
v -0.49995 0.146652 -0.49995 1 1 1
v -0.49995 0 -0.20005 1 1 1
v -0.49995 0.146652 -0.20005 1 1 1
v 0.49995 0 -0.49995 1 1 1
v 0.49995 0.146652 -0.49995 1 1 1
v 0.29995 0 -5E-05 1 1 1
v -0.29995 0 -5E-05 1 1 1
v 0.29995 0.146652 -5E-05 1 1 1
v -0.29995 0.146652 -5E-05 1 1 1
v 0.49995 0.146652 -0.20005 1 1 1
v 0.49995 0 -0.20005 1 1 1
v -0.4413714 0 -0.05862864 1 1 1
v -0.4413714 0.146652 -0.05862864 1 1 1
v 0.4413714 0 -0.05862864 1 1 1
v 0.4413714 0.146652 -0.05862864 1 1 1

vn -1 0 0
vn -0.9807853 0 0.1950903
vn 0 0 -1
vn 0.1950903 0 0.9807853
vn -0.1950903 0 0.9807853
vn 1 0 0
vn 0.9807853 0 0.1950903
vn -0.7071068 0 0.7071068
vn 0.7071068 0 0.7071068
vn 0 1 0
vn 0 -1 0

vt 0.71875 0.025
vt 0.71875 0.225

usemtl colormap

f 3/1/2 2/2/1 1/1/1
f 2/2/1 3/1/2 4/2/2
f 2/2/3 5/1/3 1/1/3
f 5/1/3 2/2/3 6/2/3
f 9/2/4 8/1/5 7/1/4
f 8/1/5 9/2/4 10/2/5
f 11/2/7 5/1/6 6/2/6
f 5/1/6 11/2/7 12/1/7
f 13/1/8 4/2/2 3/1/2
f 4/2/2 13/1/8 14/2/8
f 16/2/9 7/1/4 15/1/9
f 7/1/4 16/2/9 9/2/4
f 10/2/5 13/1/8 8/1/5
f 13/1/8 10/2/5 14/2/8
f 16/2/9 12/1/7 11/2/7
f 12/1/7 16/2/9 15/1/9
f 2/2/10 11/2/10 6/2/10
f 11/2/10 2/2/10 16/2/10
f 16/2/10 2/2/10 9/2/10
f 9/2/10 2/2/10 10/2/10
f 10/2/10 2/2/10 14/2/10
f 14/2/10 2/2/10 4/2/10
f 12/1/11 1/1/11 5/1/11
f 1/1/11 12/1/11 15/1/11
f 1/1/11 15/1/11 7/1/11
f 1/1/11 7/1/11 8/1/11
f 1/1/11 8/1/11 13/1/11
f 1/1/11 13/1/11 3/1/11

g block-borders




usemtl colormap

f 3/1/2 2/2/1 1/1/1
f 2/2/1 3/1/2 4/2/2
f 2/2/3 5/1/3 1/1/3
f 5/1/3 2/2/3 6/2/3
f 9/2/4 8/1/5 7/1/4
f 8/1/5 9/2/4 10/2/5
f 11/2/7 5/1/6 6/2/6
f 5/1/6 11/2/7 12/1/7
f 13/1/8 4/2/2 3/1/2
f 4/2/2 13/1/8 14/2/8
f 16/2/9 7/1/4 15/1/9
f 7/1/4 16/2/9 9/2/4
f 10/2/5 13/1/8 8/1/5
f 13/1/8 10/2/5 14/2/8
f 16/2/9 12/1/7 11/2/7
f 12/1/7 16/2/9 15/1/9
f 2/2/10 11/2/10 6/2/10
f 11/2/10 2/2/10 16/2/10
f 16/2/10 2/2/10 9/2/10
f 9/2/10 2/2/10 10/2/10
f 10/2/10 2/2/10 14/2/10
f 14/2/10 2/2/10 4/2/10
f 12/1/11 1/1/11 5/1/11
f 1/1/11 12/1/11 15/1/11
f 1/1/11 15/1/11 7/1/11
f 1/1/11 7/1/11 8/1/11
f 1/1/11 8/1/11 13/1/11
f 1/1/11 13/1/11 3/1/11

