# Created by Kenney (www.kenney.nl)

mtllib castle.mtl

g castle

v 0.49995 0 -0.49995 1 1 1
v -0.49995 0 -0.49995 1 1 1
v 0.49995 0 0.49995 1 1 1
v -0.49995 0 0.49995 1 1 1
v 0.49995 0.146652 -0.49995 1 1 1
v 0.49995 0.146652 0.49995 1 1 1
v -0.49995 0.146652 -0.49995 1 1 1
v -0.49995 0.146652 0.49995 1 1 1
v 0.39996 0.146652 -0.49995 1 1 1
v 0.39996 0.146652 0.49995 1 1 1
v 0.39996 0.063327 -0.49995 1 1 1
v 0.39996 0.063327 0.49995 1 1 1
v -0.39996 0.146652 -0.49995 1 1 1
v -0.39996 0.063327 -0.49995 1 1 1
v -0.39996 0.146652 0.49995 1 1 1
v -0.39996 0.063327 0.49995 1 1 1
v -0.2749725 0.596602 -0.1549875 1 1 1
v -0.4038643 0.4934885 -0.1549875 1 1 1
v -0.2749725 0.596602 0.1549875 1 1 1
v -0.4038643 0.4934885 0.1549875 1 1 1
v -0.4233861 0.4778711 -0.1299875 1 1 1
v -0.4233861 0.4778711 0.1299875 1 1 1
v -0.2949823 0.6510286 -0.1549875 1 1 1
v -0.2949823 0.6510286 0.1549875 1 1 1
v -0.4382226 0.5364363 -0.1549875 1 1 1
v -0.4382226 0.5364363 0.1549875 1 1 1
v -0.4577443 0.5208189 -0.1299875 1 1 1
v -0.4577443 0.5208189 0.1299875 1 1 1
v -0.09220071 0.5208189 -0.1299875 1 1 1
v -0.1265589 0.4778711 -0.1299875 1 1 1
v -0.09220071 0.5208189 0.1299875 1 1 1
v -0.1265589 0.4778711 0.1299875 1 1 1
v -0.1460807 0.4934885 0.1549875 1 1 1
v -0.1117224 0.5364363 0.1549875 1 1 1
v -0.2549627 0.6510286 0.1549875 1 1 1
v -0.2549627 0.6510286 -0.1549875 1 1 1
v -0.1117224 0.5364363 -0.1549875 1 1 1
v -0.1460807 0.4934885 -0.1549875 1 1 1
v 0.2749725 0.596602 -0.1549875 1 1 1
v 0.1460807 0.4934885 -0.1549875 1 1 1
v 0.2749725 0.596602 0.1549875 1 1 1
v 0.1460807 0.4934885 0.1549875 1 1 1
v 0.1265589 0.4778711 -0.1299875 1 1 1
v 0.1265589 0.4778711 0.1299875 1 1 1
v 0.2549627 0.6510286 -0.1549875 1 1 1
v 0.2549627 0.6510286 0.1549875 1 1 1
v 0.1117224 0.5364363 -0.1549875 1 1 1
v 0.1117224 0.5364363 0.1549875 1 1 1
v 0.09220071 0.5208189 -0.1299875 1 1 1
v 0.09220071 0.5208189 0.1299875 1 1 1
v 0.4577443 0.5208189 -0.1299875 1 1 1
v 0.4233861 0.4778711 -0.1299875 1 1 1
v 0.4577443 0.5208189 0.1299875 1 1 1
v 0.4233861 0.4778711 0.1299875 1 1 1
v 0.4038643 0.4934885 0.1549875 1 1 1
v 0.4382226 0.5364363 0.1549875 1 1 1
v 0.2949823 0.6510286 0.1549875 1 1 1
v 0.2949823 0.6510286 -0.1549875 1 1 1
v 0.4382226 0.5364363 -0.1549875 1 1 1
v 0.4038643 0.4934885 -0.1549875 1 1 1
v 0.149985 0.363292 -0.1249875 1 1 1
v 0.149985 0.463282 4.331469E-15 1 1 1
v -0.149985 0.363292 -0.1249875 1 1 1
v -0.149985 0.463282 1.443823E-15 1 1 1
v 0.149985 0.363292 0.1249875 1 1 1
v -0.149985 0.363292 0.1249875 1 1 1
v 0.39996 0.063327 0.1249875 1 1 1
v 0.149985 0.063327 0.1249875 1 1 1
v 0.39996 0.496612 0.1249875 1 1 1
v 0.149985 0.1553053 0.1249875 1 1 1
v 0.1339017 0.2073208 0.1249875 1 1 1
v 0.1003366 0.2502395 0.1249875 1 1 1
v 0.0536719 0.2784579 0.1249875 1 1 1
v 3.064514E-13 0.288292 0.1249875 1 1 1
v 0.149985 0.496612 0.1249875 1 1 1
v 0.2749725 0.596602 0.1249875 1 1 1
v -0.0536719 0.2784579 0.1249875 1 1 1
v -0.39996 0.496612 0.1249875 1 1 1
v -0.149985 0.496612 0.1249875 1 1 1
v -0.2749725 0.596602 0.1249875 1 1 1
v -0.1003366 0.2502395 0.1249875 1 1 1
v -0.1339017 0.2073208 0.1249875 1 1 1
v -0.149985 0.1553053 0.1249875 1 1 1
v -0.39996 0.063327 0.1249875 1 1 1
v -0.149985 0.063327 0.1249875 1 1 1
v -0.39996 0.496612 -0.1249875 1 1 1
v -0.39996 0.063327 -0.1249875 1 1 1
v 0.39996 0.496612 -0.1249875 1 1 1
v 0.39996 0.063327 -0.1249875 1 1 1
v 0.149985 0.496612 -0.1249875 1 1 1
v -0.149985 0.496612 -0.1249875 1 1 1
v -0.149985 0.063327 -0.1249875 1 1 1
v -0.149985 0.1553053 -0.1249875 1 1 1
v -0.1339017 0.2073208 -0.1249875 1 1 1
v -0.1003366 0.2502395 -0.1249875 1 1 1
v -0.0536719 0.2784579 -0.1249875 1 1 1
v 3.064514E-13 0.288292 -0.1249875 1 1 1
v -0.2749725 0.596602 -0.1249875 1 1 1
v 0.0536719 0.2784579 -0.1249875 1 1 1
v 0.2749725 0.596602 -0.1249875 1 1 1
v 0.1003366 0.2502395 -0.1249875 1 1 1
v 0.1339017 0.2073208 -0.1249875 1 1 1
v 0.149985 0.1553053 -0.1249875 1 1 1
v 0.149985 0.063327 -0.1249875 1 1 1

vn 0 -1 0
vn 1 0 0
vn -1 0 0
vn 0 1 0
vn 0 0 -1
vn 0 0 1
vn 0.6246951 -0.7808689 0
vn -0.3310069 0.9436284 0
vn -0.6246951 0.7808689 0
vn 0.7214288 -0.577143 -0.3826835
vn 0.7214288 -0.577143 0.3826835
vn 0.2988256 -0.2390604 0.9238795
vn -0.2988256 -0.2390604 0.9238795
vn -0.2988256 -0.2390604 -0.9238795
vn 0.2988256 -0.2390604 -0.9238795
vn -0.7214288 -0.577143 -0.3826835
vn -0.7214288 -0.577143 0.3826835
vn 0.3310069 0.9436284 0
vn -0.6246951 -0.7808689 0
vn 0.6246951 0.7808689 0
vn 0 0.7808688 -0.6246951
vn 0 0.7808688 0.6246951
vn 0.9887803 -0.1493778 0
vn 0.8861656 -0.4633687 0
vn 0.6634952 -0.7481806 0
vn 0.3546545 -0.9349974 0
vn -0.3546545 -0.9349974 0
vn -0.6634952 -0.7481806 0
vn -0.8861656 -0.4633687 0
vn -0.9887803 -0.1493778 0

vt 0.71875 0.025
vt 0.71875 0.225
vt 0.71875 0.1113636
vt 0.71875 0.1621363
vt 0.71875 0.04303836
vt 0.71875 0.09264384
vt 0.71875 0.07460548
vt 0.15625 0.375
vt 0.09375 0.325
vt 0.09375 0.4062498
vt 0.09375 0.3422478
vt 0.09375 0.3520018
vt 0.09375 0.3600499
vt 0.09375 0.3653415
vt 0.09375 0.3812496
vt 0.09375 0.3671855
vt 0.09375 0.425

usemtl colormap

f 3/1/1 2/1/1 1/1/1
f 2/1/1 3/1/1 4/1/1
f 6/2/2 1/1/2 5/2/2
f 1/1/2 6/2/2 3/1/2
f 4/1/3 7/2/3 2/1/3
f 7/2/3 4/1/3 8/2/3
f 9/2/4 6/2/4 5/2/4
f 6/2/4 9/2/4 10/2/4
f 12/3/3 9/2/3 11/3/3
f 9/2/3 12/3/3 10/2/3
f 14/3/5 7/2/5 13/2/5
f 14/3/5 2/1/5 7/2/5
f 2/1/5 14/3/5 1/1/5
f 11/3/5 1/1/5 14/3/5
f 1/1/5 11/3/5 5/2/5
f 5/2/5 11/3/5 9/2/5
f 15/2/2 14/3/2 13/2/2
f 14/3/2 15/2/2 16/3/2
f 12/3/6 6/2/6 10/2/6
f 12/3/6 3/1/6 6/2/6
f 3/1/6 12/3/6 4/1/6
f 16/3/6 4/1/6 12/3/6
f 4/1/6 16/3/6 8/2/6
f 8/2/6 16/3/6 15/2/6
f 7/2/4 15/2/4 13/2/4
f 15/2/4 7/2/4 8/2/4
f 19/4/7 18/5/7 17/4/7
f 18/5/7 19/4/7 20/5/7
f 18/5/7 20/5/7 21/1/7
f 21/1/7 20/5/7 22/1/7
f 25/6/9 24/2/8 23/2/8
f 24/2/8 25/6/9 26/6/9
f 26/6/9 25/6/9 27/7/9
f 26/6/9 27/7/9 28/7/9
f 31/7/11 30/1/10 29/7/10
f 30/1/10 31/7/11 32/1/11
f 34/6/12 19/4/6 33/5/12
f 19/4/6 34/6/12 35/2/6
f 19/4/6 35/2/6 24/2/6
f 26/6/13 19/4/6 24/2/6
f 19/4/6 26/6/13 20/5/13
f 25/6/14 17/4/5 18/5/14
f 17/4/5 25/6/14 23/2/5
f 36/2/5 17/4/5 23/2/5
f 37/6/15 17/4/5 36/2/5
f 17/4/5 37/6/15 38/5/15
f 22/1/17 27/7/16 21/1/16
f 27/7/16 22/1/17 28/7/17
f 38/5/15 29/7/10 30/1/10
f 29/7/10 38/5/15 37/6/15
f 20/5/13 28/7/17 22/1/17
f 28/7/17 20/5/13 26/6/13
f 27/7/16 18/5/14 21/1/16
f 18/5/14 27/7/16 25/6/14
f 23/2/8 35/2/18 36/2/18
f 35/2/18 23/2/8 24/2/8
f 31/7/11 33/5/12 32/1/11
f 33/5/12 31/7/11 34/6/12
f 33/5/19 30/1/19 32/1/19
f 30/1/19 33/5/19 38/5/19
f 38/5/19 33/5/19 17/4/19
f 17/4/19 33/5/19 19/4/19
f 37/6/20 31/7/20 29/7/20
f 31/7/20 37/6/20 34/6/20
f 34/6/20 37/6/20 36/2/18
f 34/6/20 36/2/18 35/2/18
f 41/4/7 40/5/7 39/4/7
f 40/5/7 41/4/7 42/5/7
f 40/5/7 42/5/7 43/1/7
f 43/1/7 42/5/7 44/1/7
f 47/6/9 46/2/8 45/2/8
f 46/2/8 47/6/9 48/6/9
f 48/6/9 47/6/9 49/7/9
f 48/6/9 49/7/9 50/7/9
f 53/7/11 52/1/10 51/7/10
f 52/1/10 53/7/11 54/1/11
f 56/6/12 41/4/6 55/5/12
f 41/4/6 56/6/12 57/2/6
f 41/4/6 57/2/6 46/2/6
f 48/6/13 41/4/6 46/2/6
f 41/4/6 48/6/13 42/5/13
f 47/6/14 39/4/5 40/5/14
f 39/4/5 47/6/14 45/2/5
f 58/2/5 39/4/5 45/2/5
f 59/6/15 39/4/5 58/2/5
f 39/4/5 59/6/15 60/5/15
f 44/1/17 49/7/16 43/1/16
f 49/7/16 44/1/17 50/7/17
f 60/5/15 51/7/10 52/1/10
f 51/7/10 60/5/15 59/6/15
f 42/5/13 50/7/17 44/1/17
f 50/7/17 42/5/13 48/6/13
f 49/7/16 40/5/14 43/1/16
f 40/5/14 49/7/16 47/6/14
f 45/2/8 57/2/18 58/2/18
f 57/2/18 45/2/8 46/2/8
f 53/7/11 55/5/12 54/1/11
f 55/5/12 53/7/11 56/6/12
f 55/5/19 52/1/19 54/1/19
f 52/1/19 55/5/19 60/5/19
f 60/5/19 55/5/19 39/4/19
f 39/4/19 55/5/19 41/4/19
f 59/6/20 53/7/20 51/7/20
f 53/7/20 59/6/20 56/6/20
f 56/6/20 59/6/20 58/2/18
f 56/6/20 58/2/18 57/2/18
f 63/1/21 62/2/4 61/1/21
f 62/2/4 63/1/21 64/2/4
f 64/2/4 65/1/22 62/2/4
f 65/1/22 64/2/4 66/1/22
f 14/8/4 12/8/4 11/8/4
f 12/8/4 14/8/4 16/8/4
f 69/10/6 68/9/6 67/9/6
f 68/9/6 69/10/6 70/11/6
f 70/11/6 69/10/6 71/12/6
f 71/12/6 69/10/6 72/13/6
f 72/13/6 69/10/6 73/14/6
f 73/14/6 69/10/6 65/15/6
f 73/14/6 65/15/6 74/16/6
f 65/15/6 69/10/6 75/10/6
f 75/10/6 69/10/6 76/17/6
f 66/15/6 74/16/6 65/15/6
f 66/15/6 77/14/6 74/16/6
f 78/10/6 77/14/6 66/15/6
f 78/10/6 66/15/6 79/10/6
f 78/10/6 79/10/6 80/17/6
f 78/10/6 81/13/6 77/14/6
f 78/10/6 82/12/6 81/13/6
f 78/10/6 83/11/6 82/12/6
f 84/9/6 83/11/6 78/10/6
f 83/11/6 84/9/6 85/9/6
f 87/9/3 78/10/3 86/10/3
f 78/10/3 87/9/3 84/9/3
f 69/10/2 89/9/2 88/10/2
f 89/9/2 69/10/2 67/9/2
f 63/15/4 65/15/4 61/15/4
f 65/15/4 63/15/4 66/15/4
f 65/15/3 90/10/3 61/15/3
f 90/10/3 65/15/3 75/10/3
f 79/10/2 63/15/2 91/10/2
f 63/15/2 79/10/2 66/15/2
f 86/10/5 92/9/5 87/9/5
f 92/9/5 86/10/5 93/11/5
f 93/11/5 86/10/5 94/12/5
f 94/12/5 86/10/5 95/13/5
f 95/13/5 86/10/5 96/14/5
f 96/14/5 86/10/5 63/15/5
f 96/14/5 63/15/5 97/16/5
f 63/15/5 86/10/5 91/10/5
f 91/10/5 86/10/5 98/17/5
f 61/15/5 97/16/5 63/15/5
f 61/15/5 99/14/5 97/16/5
f 88/10/5 99/14/5 61/15/5
f 88/10/5 61/15/5 90/10/5
f 88/10/5 90/10/5 100/17/5
f 88/10/5 101/13/5 99/14/5
f 88/10/5 102/12/5 101/13/5
f 88/10/5 103/11/5 102/12/5
f 89/9/5 103/11/5 88/10/5
f 103/11/5 89/9/5 104/9/5
f 83/11/23 92/9/2 93/11/23
f 92/9/2 83/11/23 85/9/2
f 82/12/24 93/11/23 94/12/24
f 93/11/23 82/12/24 83/11/23
f 81/13/25 94/12/24 95/13/25
f 94/12/24 81/13/25 82/12/24
f 81/13/25 96/14/26 77/14/26
f 96/14/26 81/13/25 95/13/25
f 77/14/26 97/16/1 74/16/1
f 97/16/1 77/14/26 96/14/26
f 74/16/1 99/14/27 73/14/27
f 99/14/27 74/16/1 97/16/1
f 73/14/27 101/13/28 72/13/28
f 101/13/28 73/14/27 99/14/27
f 71/12/29 101/13/28 102/12/29
f 101/13/28 71/12/29 72/13/28
f 70/11/30 102/12/29 103/11/30
f 102/12/29 70/11/30 71/12/29
f 68/9/3 103/11/30 104/9/3
f 103/11/30 68/9/3 70/11/30

g castle




usemtl colormap

f 3/1/1 2/1/1 1/1/1
f 2/1/1 3/1/1 4/1/1
f 6/2/2 1/1/2 5/2/2
f 1/1/2 6/2/2 3/1/2
f 4/1/3 7/2/3 2/1/3
f 7/2/3 4/1/3 8/2/3
f 9/2/4 6/2/4 5/2/4
f 6/2/4 9/2/4 10/2/4
f 12/3/3 9/2/3 11/3/3
f 9/2/3 12/3/3 10/2/3
f 14/3/5 7/2/5 13/2/5
f 14/3/5 2/1/5 7/2/5
f 2/1/5 14/3/5 1/1/5
f 11/3/5 1/1/5 14/3/5
f 1/1/5 11/3/5 5/2/5
f 5/2/5 11/3/5 9/2/5
f 15/2/2 14/3/2 13/2/2
f 14/3/2 15/2/2 16/3/2
f 12/3/6 6/2/6 10/2/6
f 12/3/6 3/1/6 6/2/6
f 3/1/6 12/3/6 4/1/6
f 16/3/6 4/1/6 12/3/6
f 4/1/6 16/3/6 8/2/6
f 8/2/6 16/3/6 15/2/6
f 7/2/4 15/2/4 13/2/4
f 15/2/4 7/2/4 8/2/4
f 19/4/7 18/5/7 17/4/7
f 18/5/7 19/4/7 20/5/7
f 18/5/7 20/5/7 21/1/7
f 21/1/7 20/5/7 22/1/7
f 25/6/9 24/2/8 23/2/8
f 24/2/8 25/6/9 26/6/9
f 26/6/9 25/6/9 27/7/9
f 26/6/9 27/7/9 28/7/9
f 31/7/11 30/1/10 29/7/10
f 30/1/10 31/7/11 32/1/11
f 34/6/12 19/4/6 33/5/12
f 19/4/6 34/6/12 35/2/6
f 19/4/6 35/2/6 24/2/6
f 26/6/13 19/4/6 24/2/6
f 19/4/6 26/6/13 20/5/13
f 25/6/14 17/4/5 18/5/14
f 17/4/5 25/6/14 23/2/5
f 36/2/5 17/4/5 23/2/5
f 37/6/15 17/4/5 36/2/5
f 17/4/5 37/6/15 38/5/15
f 22/1/17 27/7/16 21/1/16
f 27/7/16 22/1/17 28/7/17
f 38/5/15 29/7/10 30/1/10
f 29/7/10 38/5/15 37/6/15
f 20/5/13 28/7/17 22/1/17
f 28/7/17 20/5/13 26/6/13
f 27/7/16 18/5/14 21/1/16
f 18/5/14 27/7/16 25/6/14
f 23/2/8 35/2/18 36/2/18
f 35/2/18 23/2/8 24/2/8
f 31/7/11 33/5/12 32/1/11
f 33/5/12 31/7/11 34/6/12
f 33/5/19 30/1/19 32/1/19
f 30/1/19 33/5/19 38/5/19
f 38/5/19 33/5/19 17/4/19
f 17/4/19 33/5/19 19/4/19
f 37/6/20 31/7/20 29/7/20
f 31/7/20 37/6/20 34/6/20
f 34/6/20 37/6/20 36/2/18
f 34/6/20 36/2/18 35/2/18
f 41/4/7 40/5/7 39/4/7
f 40/5/7 41/4/7 42/5/7
f 40/5/7 42/5/7 43/1/7
f 43/1/7 42/5/7 44/1/7
f 47/6/9 46/2/8 45/2/8
f 46/2/8 47/6/9 48/6/9
f 48/6/9 47/6/9 49/7/9
f 48/6/9 49/7/9 50/7/9
f 53/7/11 52/1/10 51/7/10
f 52/1/10 53/7/11 54/1/11
f 56/6/12 41/4/6 55/5/12
f 41/4/6 56/6/12 57/2/6
f 41/4/6 57/2/6 46/2/6
f 48/6/13 41/4/6 46/2/6
f 41/4/6 48/6/13 42/5/13
f 47/6/14 39/4/5 40/5/14
f 39/4/5 47/6/14 45/2/5
f 58/2/5 39/4/5 45/2/5
f 59/6/15 39/4/5 58/2/5
f 39/4/5 59/6/15 60/5/15
f 44/1/17 49/7/16 43/1/16
f 49/7/16 44/1/17 50/7/17
f 60/5/15 51/7/10 52/1/10
f 51/7/10 60/5/15 59/6/15
f 42/5/13 50/7/17 44/1/17
f 50/7/17 42/5/13 48/6/13
f 49/7/16 40/5/14 43/1/16
f 40/5/14 49/7/16 47/6/14
f 45/2/8 57/2/18 58/2/18
f 57/2/18 45/2/8 46/2/8
f 53/7/11 55/5/12 54/1/11
f 55/5/12 53/7/11 56/6/12
f 55/5/19 52/1/19 54/1/19
f 52/1/19 55/5/19 60/5/19
f 60/5/19 55/5/19 39/4/19
f 39/4/19 55/5/19 41/4/19
f 59/6/20 53/7/20 51/7/20
f 53/7/20 59/6/20 56/6/20
f 56/6/20 59/6/20 58/2/18
f 56/6/20 58/2/18 57/2/18
f 63/1/21 62/2/4 61/1/21
f 62/2/4 63/1/21 64/2/4
f 64/2/4 65/1/22 62/2/4
f 65/1/22 64/2/4 66/1/22
f 14/8/4 12/8/4 11/8/4
f 12/8/4 14/8/4 16/8/4
f 69/10/6 68/9/6 67/9/6
f 68/9/6 69/10/6 70/11/6
f 70/11/6 69/10/6 71/12/6
f 71/12/6 69/10/6 72/13/6
f 72/13/6 69/10/6 73/14/6
f 73/14/6 69/10/6 65/15/6
f 73/14/6 65/15/6 74/16/6
f 65/15/6 69/10/6 75/10/6
f 75/10/6 69/10/6 76/17/6
f 66/15/6 74/16/6 65/15/6
f 66/15/6 77/14/6 74/16/6
f 78/10/6 77/14/6 66/15/6
f 78/10/6 66/15/6 79/10/6
f 78/10/6 79/10/6 80/17/6
f 78/10/6 81/13/6 77/14/6
f 78/10/6 82/12/6 81/13/6
f 78/10/6 83/11/6 82/12/6
f 84/9/6 83/11/6 78/10/6
f 83/11/6 84/9/6 85/9/6
f 87/9/3 78/10/3 86/10/3
f 78/10/3 87/9/3 84/9/3
f 69/10/2 89/9/2 88/10/2
f 89/9/2 69/10/2 67/9/2
f 63/15/4 65/15/4 61/15/4
f 65/15/4 63/15/4 66/15/4
f 65/15/3 90/10/3 61/15/3
f 90/10/3 65/15/3 75/10/3
f 79/10/2 63/15/2 91/10/2
f 63/15/2 79/10/2 66/15/2
f 86/10/5 92/9/5 87/9/5
f 92/9/5 86/10/5 93/11/5
f 93/11/5 86/10/5 94/12/5
f 94/12/5 86/10/5 95/13/5
f 95/13/5 86/10/5 96/14/5
f 96/14/5 86/10/5 63/15/5
f 96/14/5 63/15/5 97/16/5
f 63/15/5 86/10/5 91/10/5
f 91/10/5 86/10/5 98/17/5
f 61/15/5 97/16/5 63/15/5
f 61/15/5 99/14/5 97/16/5
f 88/10/5 99/14/5 61/15/5
f 88/10/5 61/15/5 90/10/5
f 88/10/5 90/10/5 100/17/5
f 88/10/5 101/13/5 99/14/5
f 88/10/5 102/12/5 101/13/5
f 88/10/5 103/11/5 102/12/5
f 89/9/5 103/11/5 88/10/5
f 103/11/5 89/9/5 104/9/5
f 83/11/23 92/9/2 93/11/23
f 92/9/2 83/11/23 85/9/2
f 82/12/24 93/11/23 94/12/24
f 93/11/23 82/12/24 83/11/23
f 81/13/25 94/12/24 95/13/25
f 94/12/24 81/13/25 82/12/24
f 81/13/25 96/14/26 77/14/26
f 96/14/26 81/13/25 95/13/25
f 77/14/26 97/16/1 74/16/1
f 97/16/1 77/14/26 96/14/26
f 74/16/1 99/14/27 73/14/27
f 99/14/27 74/16/1 97/16/1
f 73/14/27 101/13/28 72/13/28
f 101/13/28 73/14/27 99/14/27
f 71/12/29 101/13/28 102/12/29
f 101/13/28 71/12/29 72/13/28
f 70/11/30 102/12/29 103/11/30
f 102/12/29 70/11/30 71/12/29
f 68/9/3 103/11/30 104/9/3
f 103/11/30 68/9/3 70/11/30

