# Created by Kenney (www.kenney.nl)

mtllib club-green.mtl

g club-green

v -0.0286392 -0.6698399 0.02203015 1 1 1
v -0.0286392 -0.6833969 -0.02203015 1 1 1
v -0.0214794 -0.609963 0.02203015 1 1 1
v 0.0286392 -0.6833969 -0.02203015 1 1 1
v 0.0286392 -0.6698399 0.02203015 1 1 1
v 0.0214794 -0.609963 0.02203015 1 1 1
v 0.0214794 -0.609963 -0.02203015 1 1 1
v -0.0214794 -0.609963 -0.02203015 1 1 1
v 0.0286392 -0.6589669 0.05736724 1 1 1
v -0.0286392 -0.6589669 0.05736724 1 1 1
v 0.0286392 -0.6631008 0.08162061 1 1 1
v -0.0286392 -0.6631008 0.08162061 1 1 1
v -0.0286392 -0.685066 0.0927043 1 1 1
v 0.0286392 -0.685066 0.0927043 1 1 1
v -0.0286392 -0.7597815 -0.1174942 1 1 1
v 0.0286392 -0.7597815 -0.1174942 1 1 1
v -0.0286392 -0.7489045 -0.1174942 1 1 1
v 0.0286392 -0.7489045 -0.1174942 1 1 1
v -0.0286392 -0.7083778 0.0927043 1 1 1
v 0.0286392 -0.7083778 0.0927043 1 1 1
v 0.0286392 -0.7198386 -0.1079241 1 1 1
v 0.0286392 -0.7021438 -0.0829579 1 1 1
v -0.0286392 -0.7198386 -0.1079241 1 1 1
v -0.0286392 -0.7021438 -0.0829579 1 1 1
v 0.0286392 -0.7687296 -0.1060942 1 1 1
v -0.0286392 -0.7687296 -0.1060942 1 1 1
v 0.0286392 -0.7229016 0.0813043 1 1 1
v -0.0286392 -0.7229016 0.0813043 1 1 1
v 0.02767538 0.28176 -0.01698644 1 1 1
v 0.02767538 0.28176 0.01698644 1 1 1
v 0.01698644 0.28176 -0.02767538 1 1 1
v 0.01698644 0.28176 0.02767538 1 1 1
v -0.01698644 0.28176 -0.02767538 1 1 1
v -0.01698644 0.28176 0.02767538 1 1 1
v -0.02767538 0.28176 -0.01698644 1 1 1
v -0.02767538 0.28176 0.01698644 1 1 1
v -0.03690051 0.243 -0.02264859 1 1 1
v -0.03690051 0.243 0.02264859 1 1 1
v 0.02264859 0.243 0.03690051 1 1 1
v 0.03690051 0.243 0.02264859 1 1 1
v -0.02264859 0.243 -0.03690051 1 1 1
v 0.02264859 0.243 -0.03690051 1 1 1
v 0.02753769 -0.09956914 0.01328578 1 1 1
v 0.02753769 -0.09956914 -0.01328578 1 1 1
v 0.01328578 -0.09956914 0.02753769 1 1 1
v 0.01376885 -0.09956914 0.01376885 1 1 1
v -0.01376885 -0.09956914 0.01376885 1 1 1
v -0.01328578 -0.09956914 0.02753769 1 1 1
v -0.02753769 -0.09956914 0.01328578 1 1 1
v 0.01376885 -0.09956914 -0.01376885 1 1 1
v 0.01328578 -0.09956914 -0.02753769 1 1 1
v -0.01376885 -0.09956914 -0.01376885 1 1 1
v -0.02753769 -0.09956914 -0.01328578 1 1 1
v -0.01328578 -0.09956914 -0.02753769 1 1 1
v 0.03690051 0.243 -0.02264859 1 1 1
v -0.02264859 0.243 0.03690051 1 1 1
v 0.0114 -0.09956914 -0.0114 1 1 1
v 0.0114 -0.609963 -0.0114 1 1 1
v 0.0114 -0.09956914 0.0114 1 1 1
v 0.0114 -0.609963 0.0114 1 1 1
v -0.0114 -0.609963 0.0114 1 1 1
v -0.0114 -0.09956914 0.0114 1 1 1
v -0.0114 -0.609963 -0.0114 1 1 1
v -0.0114 -0.09956914 -0.0114 1 1 1

vn -0.9989248 0.04431009 -0.01363387
vn -0.9994808 0.03164275 -0.006091147
vn -0.9944491 0.104471 -0.01252041
vn 0.9994808 0.03164275 -0.006091147
vn 0.9989248 0.04431009 -0.01363387
vn 0.9944491 0.104471 -0.01252041
vn 0.9952804 0.09703984 0
vn -0.9952804 0.09703984 0
vn 0 0.8348761 0.5504379
vn 0 0.9978988 -0.0647916
vn 0 0.8043897 0.5941019
vn 0 0.2315415 0.9728251
vn 0 -0.4373586 -0.8992872
vn 0 0.1583676 -0.9873803
vn 0 -0.3266328 0.9451513
vn 0 0.5941019 -0.8043897
vn 0 0.8971437 -0.441739
vn 0 -0.9774395 -0.2112153
vn 0 -0.8405059 0.5418023
vn 0 0.6128983 -0.7901618
vn 0 0 -1
vn 0 1 0
vn 0 0 1
vn 1 0 0
vn -1 0 0
vn -0.915578 0.1125282 -0.3860755
vn -0.8948896 0.2654031 -0.3587951
vn -0.915578 0.1125282 0.3860755
vn -0.8948896 0.2654031 0.3587951
vn 0.3860755 0.1125282 0.915578
vn 0.3587951 0.2654031 0.8948896
vn 0.915578 0.1125282 0.3860755
vn 0.8948896 0.2654031 0.3587951
vn -0.3860755 0.1125282 -0.915578
vn 0.3860755 0.1125282 -0.915578
vn -0.3587951 0.2654031 -0.8948896
vn 0.3587951 0.2654031 -0.8948896
vn 0 -1 0
vn 0.915578 0.1125282 -0.3860755
vn 0.8948896 0.2654031 -0.3587951
vn -0.3860755 0.1125282 0.915578
vn -0.3587951 0.2654031 0.8948896
vn -0.9246816 -0.03563306 -0.3790702
vn -0.9246816 -0.03563306 0.3790702
vn 0.3790702 -0.03563306 0.9246816
vn 0.9246816 -0.03563306 0.3790702
vn -0.3790702 -0.03563306 0.9246816
vn 0.9246816 -0.03563306 -0.3790702
vn -0.3790702 -0.03563306 -0.9246816
vn 0.3790702 -0.03563306 -0.9246816
vn 0.7071068 0 -0.7071068
vn 0.7071068 0 0.7071068
vn -0.7071068 0 0.7071068
vn -0.7071068 0 -0.7071068

vt 0.09375 0.1495725
vt 0.09375 0.1324946
vt 0.09375 0.225
vt 0.09375 0.1632693
vt 0.09375 0.1580617
vt 0.09375 0.130392
vt 0.09375 0.03627199
vt 0.09375 0.04997386
vt 0.09375 0.1010258
vt 0.09375 0.08658854
vt 0.09375 0.1088788
vt 0.09375 0.025
vt 0.09375 0.08273001
vt 0.21875 0.475
vt 0.21875 0.4546711
vt 0.21875 0.275
vt 0.59375 0.025
vt 0.59375 0.225

usemtl colormap

f 3/3/3 2/2/2 1/1/1
f 6/3/6 5/1/5 4/2/4
f 6/3/6 4/2/4 7/3/7
f 3/3/3 8/3/8 2/2/2
f 1/1/9 9/4/10 5/1/9
f 9/4/10 1/1/9 10/4/10
f 9/4/10 12/5/11 11/5/11
f 12/5/11 9/4/10 10/4/10
f 14/6/12 12/5/11 13/6/12
f 12/5/11 14/6/12 11/5/11
f 17/8/14 16/7/13 15/7/13
f 16/7/13 17/8/14 18/8/14
f 20/9/15 13/6/12 19/9/15
f 13/6/12 20/9/15 14/6/12
f 23/10/16 22/11/17 21/10/16
f 22/11/17 23/10/16 24/11/17
f 23/10/16 18/8/14 17/8/14
f 18/8/14 23/10/16 21/10/16
f 27/13/19 26/12/18 25/12/18
f 26/12/18 27/13/19 28/13/19
f 8/3/21 4/2/20 2/2/20
f 4/2/20 8/3/21 7/3/21
f 24/11/17 4/2/20 22/11/17
f 4/2/20 24/11/17 2/2/20
f 8/3/22 6/3/22 7/3/22
f 6/3/22 8/3/22 3/3/22
f 5/1/9 3/3/23 1/1/9
f 3/3/23 5/1/9 6/3/23
f 26/12/18 16/7/13 25/12/18
f 16/7/13 26/12/18 15/7/13
f 21/10/24 16/7/24 18/8/24
f 16/7/24 21/10/24 25/12/24
f 25/12/24 21/10/24 22/11/24
f 25/12/24 22/11/24 27/13/24
f 27/13/24 22/11/24 4/2/4
f 27/13/24 4/2/4 5/1/5
f 27/13/24 5/1/5 9/4/24
f 27/13/24 9/4/24 11/5/24
f 27/13/24 11/5/24 20/9/24
f 20/9/24 11/5/24 14/6/24
f 26/12/25 17/8/25 15/7/25
f 17/8/25 26/12/25 23/10/25
f 23/10/25 26/12/25 24/11/25
f 24/11/25 26/12/25 28/13/25
f 24/11/25 28/13/25 2/2/2
f 2/2/2 28/13/25 1/1/1
f 1/1/1 28/13/25 10/4/25
f 10/4/25 28/13/25 12/5/25
f 12/5/25 28/13/25 19/9/25
f 12/5/25 19/9/25 13/6/25
f 27/13/19 19/9/15 28/13/19
f 19/9/15 27/13/19 20/9/15
f 31/14/22 30/14/22 29/14/22
f 30/14/22 31/14/22 32/14/22
f 32/14/22 31/14/22 33/14/22
f 32/14/22 33/14/22 34/14/22
f 34/14/22 33/14/22 35/14/22
f 34/14/22 35/14/22 36/14/22
f 38/15/28 35/14/27 37/15/26
f 35/14/27 38/15/28 36/14/29
f 40/15/32 32/14/31 39/15/30
f 32/14/31 40/15/32 30/14/33
f 33/14/36 42/15/35 41/15/34
f 42/15/35 33/14/36 31/14/37
f 45/16/38 44/16/38 43/16/38
f 44/16/38 45/16/38 46/16/38
f 46/16/38 45/16/38 47/16/38
f 47/16/38 45/16/38 48/16/38
f 47/16/38 48/16/38 49/16/38
f 50/16/38 44/16/38 46/16/38
f 47/16/38 50/16/38 46/16/38
f 44/16/38 50/16/38 51/16/38
f 47/16/38 49/16/38 52/16/38
f 50/16/38 47/16/38 52/16/38
f 51/16/38 50/16/38 52/16/38
f 53/16/38 52/16/38 49/16/38
f 51/16/38 52/16/38 54/16/38
f 54/16/38 52/16/38 53/16/38
f 35/14/27 41/15/34 37/15/26
f 41/15/34 35/14/27 33/14/36
f 29/14/40 40/15/32 55/15/39
f 40/15/32 29/14/40 30/14/33
f 56/15/41 36/14/29 38/15/28
f 36/14/29 56/15/41 34/14/42
f 31/14/37 55/15/39 42/15/35
f 55/15/39 31/14/37 29/14/40
f 39/15/30 34/14/42 56/15/41
f 34/14/42 39/15/30 32/14/31
f 53/16/43 38/15/28 37/15/26
f 38/15/28 53/16/43 49/16/44
f 43/16/46 39/15/30 45/16/45
f 39/15/30 43/16/46 40/15/32
f 48/16/47 38/15/28 49/16/44
f 38/15/28 48/16/47 56/15/41
f 40/15/32 44/16/48 55/15/39
f 44/16/48 40/15/32 43/16/46
f 45/16/45 56/15/41 48/16/47
f 56/15/41 45/16/45 39/15/30
f 54/16/49 37/15/26 41/15/34
f 37/15/26 54/16/49 53/16/43
f 41/15/34 51/16/50 54/16/49
f 51/16/50 41/15/34 42/15/35
f 55/15/39 51/16/50 42/15/35
f 51/16/50 55/15/39 44/16/48
f 59/17/52 58/18/51 57/17/51
f 58/18/51 59/17/52 60/18/52
f 59/17/52 61/18/53 60/18/52
f 61/18/53 59/17/52 62/17/53
f 64/17/54 58/18/51 63/18/54
f 58/18/51 64/17/54 57/17/51
f 61/18/53 64/17/54 63/18/54
f 64/17/54 61/18/53 62/17/53

g club-green




usemtl colormap

f 3/3/3 2/2/2 1/1/1
f 6/3/6 5/1/5 4/2/4
f 6/3/6 4/2/4 7/3/7
f 3/3/3 8/3/8 2/2/2
f 1/1/9 9/4/10 5/1/9
f 9/4/10 1/1/9 10/4/10
f 9/4/10 12/5/11 11/5/11
f 12/5/11 9/4/10 10/4/10
f 14/6/12 12/5/11 13/6/12
f 12/5/11 14/6/12 11/5/11
f 17/8/14 16/7/13 15/7/13
f 16/7/13 17/8/14 18/8/14
f 20/9/15 13/6/12 19/9/15
f 13/6/12 20/9/15 14/6/12
f 23/10/16 22/11/17 21/10/16
f 22/11/17 23/10/16 24/11/17
f 23/10/16 18/8/14 17/8/14
f 18/8/14 23/10/16 21/10/16
f 27/13/19 26/12/18 25/12/18
f 26/12/18 27/13/19 28/13/19
f 8/3/21 4/2/20 2/2/20
f 4/2/20 8/3/21 7/3/21
f 24/11/17 4/2/20 22/11/17
f 4/2/20 24/11/17 2/2/20
f 8/3/22 6/3/22 7/3/22
f 6/3/22 8/3/22 3/3/22
f 5/1/9 3/3/23 1/1/9
f 3/3/23 5/1/9 6/3/23
f 26/12/18 16/7/13 25/12/18
f 16/7/13 26/12/18 15/7/13
f 21/10/24 16/7/24 18/8/24
f 16/7/24 21/10/24 25/12/24
f 25/12/24 21/10/24 22/11/24
f 25/12/24 22/11/24 27/13/24
f 27/13/24 22/11/24 4/2/4
f 27/13/24 4/2/4 5/1/5
f 27/13/24 5/1/5 9/4/24
f 27/13/24 9/4/24 11/5/24
f 27/13/24 11/5/24 20/9/24
f 20/9/24 11/5/24 14/6/24
f 26/12/25 17/8/25 15/7/25
f 17/8/25 26/12/25 23/10/25
f 23/10/25 26/12/25 24/11/25
f 24/11/25 26/12/25 28/13/25
f 24/11/25 28/13/25 2/2/2
f 2/2/2 28/13/25 1/1/1
f 1/1/1 28/13/25 10/4/25
f 10/4/25 28/13/25 12/5/25
f 12/5/25 28/13/25 19/9/25
f 12/5/25 19/9/25 13/6/25
f 27/13/19 19/9/15 28/13/19
f 19/9/15 27/13/19 20/9/15
f 31/14/22 30/14/22 29/14/22
f 30/14/22 31/14/22 32/14/22
f 32/14/22 31/14/22 33/14/22
f 32/14/22 33/14/22 34/14/22
f 34/14/22 33/14/22 35/14/22
f 34/14/22 35/14/22 36/14/22
f 38/15/28 35/14/27 37/15/26
f 35/14/27 38/15/28 36/14/29
f 40/15/32 32/14/31 39/15/30
f 32/14/31 40/15/32 30/14/33
f 33/14/36 42/15/35 41/15/34
f 42/15/35 33/14/36 31/14/37
f 45/16/38 44/16/38 43/16/38
f 44/16/38 45/16/38 46/16/38
f 46/16/38 45/16/38 47/16/38
f 47/16/38 45/16/38 48/16/38
f 47/16/38 48/16/38 49/16/38
f 50/16/38 44/16/38 46/16/38
f 47/16/38 50/16/38 46/16/38
f 44/16/38 50/16/38 51/16/38
f 47/16/38 49/16/38 52/16/38
f 50/16/38 47/16/38 52/16/38
f 51/16/38 50/16/38 52/16/38
f 53/16/38 52/16/38 49/16/38
f 51/16/38 52/16/38 54/16/38
f 54/16/38 52/16/38 53/16/38
f 35/14/27 41/15/34 37/15/26
f 41/15/34 35/14/27 33/14/36
f 29/14/40 40/15/32 55/15/39
f 40/15/32 29/14/40 30/14/33
f 56/15/41 36/14/29 38/15/28
f 36/14/29 56/15/41 34/14/42
f 31/14/37 55/15/39 42/15/35
f 55/15/39 31/14/37 29/14/40
f 39/15/30 34/14/42 56/15/41
f 34/14/42 39/15/30 32/14/31
f 53/16/43 38/15/28 37/15/26
f 38/15/28 53/16/43 49/16/44
f 43/16/46 39/15/30 45/16/45
f 39/15/30 43/16/46 40/15/32
f 48/16/47 38/15/28 49/16/44
f 38/15/28 48/16/47 56/15/41
f 40/15/32 44/16/48 55/15/39
f 44/16/48 40/15/32 43/16/46
f 45/16/45 56/15/41 48/16/47
f 56/15/41 45/16/45 39/15/30
f 54/16/49 37/15/26 41/15/34
f 37/15/26 54/16/49 53/16/43
f 41/15/34 51/16/50 54/16/49
f 51/16/50 41/15/34 42/15/35
f 55/15/39 51/16/50 42/15/35
f 51/16/50 55/15/39 44/16/48
f 59/17/52 58/18/51 57/17/51
f 58/18/51 59/17/52 60/18/52
f 59/17/52 61/18/53 60/18/52
f 61/18/53 59/17/52 62/17/53
f 64/17/54 58/18/51 63/18/54
f 58/18/51 64/17/54 57/17/51
f 61/18/53 64/17/54 63/18/54
f 64/17/54 61/18/53 62/17/53

