# Created by Kenney (www.kenney.nl)

mtllib crest.mtl

g crest

v 0.39996 0.146652 0.49995 1 1 1
v 0.49995 0.146652 0.49995 1 1 1
v 0.39996 0.063327 0.49995 1 1 1
v 0.49995 0 0.49995 1 1 1
v -0.49995 0 0.49995 1 1 1
v -0.39996 0.063327 0.49995 1 1 1
v -0.49995 0.146652 0.49995 1 1 1
v -0.39996 0.146652 0.49995 1 1 1
v 0.49995 0.146652 -0.49995 1 1 1
v 0.49995 0 -0.49995 1 1 1
v -0.39996 0.146652 -0.49995 1 1 1
v -0.49995 0.146652 -0.49995 1 1 1
v -0.49995 0 -0.49995 1 1 1
v -0.39996 0.063327 -0.49995 1 1 1
v 0.39996 0.063327 -0.49995 1 1 1
v 0.39996 0.146652 -0.49995 1 1 1
v 0.39996 0.063327 -0.249975 1 1 1
v 0.39996 0.03333 -0.1249875 1 1 1
v 0.39996 0.03333 0.1249875 1 1 1
v 0.39996 0.063327 0.249975 1 1 1
v -0.39996 0.063327 -0.249975 1 1 1
v -0.39996 0.03333 -0.1249875 1 1 1
v -0.39996 0.03333 0.1249875 1 1 1
v -0.39996 0.063327 0.249975 1 1 1
v 0.39996 0.063327 0.249975 1 1 1
v -0.39996 0.063327 0.249975 1 1 1

vn 0 0 1
vn 1 0 0
vn 0 1 0
vn -1 0 0
vn 0 0 -1
vn 0 -1 0
vn 0 0.9930729 0.1175004
vn 0 0.9930729 -0.1175004
vn 0 0.9723873 -0.2333729
vn 0 0.9723873 0.2333729

vt 0.71875 0.225
vt 0.71875 0.1113636
vt 0.71875 0.025
vt 0.71875 0.07045455
vt 0.15625 0.375
vt 0.21875 0.325
vt 0.21875 0.425

usemtl colormap

f 3/2/1 2/1/1 1/1/1
f 3/2/1 4/3/1 2/1/1
f 4/3/1 3/2/1 5/3/1
f 6/2/1 5/3/1 3/2/1
f 5/3/1 6/2/1 7/1/1
f 7/1/1 6/2/1 8/1/1
f 2/1/2 10/3/2 9/1/2
f 10/3/2 2/1/2 4/3/2
f 12/1/3 8/1/3 11/1/3
f 8/1/3 12/1/3 7/1/3
f 5/3/4 12/1/4 13/3/4
f 12/1/4 5/3/4 7/1/4
f 14/2/5 12/1/5 11/1/5
f 14/2/5 13/3/5 12/1/5
f 13/3/5 14/2/5 10/3/5
f 15/2/5 10/3/5 14/2/5
f 10/3/5 15/2/5 9/1/5
f 9/1/5 15/2/5 16/1/5
f 16/1/3 2/1/3 9/1/3
f 2/1/3 16/1/3 1/1/3
f 17/2/4 16/1/4 15/2/4
f 16/1/4 17/2/4 1/1/4
f 1/1/4 17/2/4 18/4/4
f 1/1/4 18/4/4 19/4/4
f 1/1/4 19/4/4 20/2/4
f 1/1/4 20/2/4 3/2/4
f 8/1/2 14/2/2 11/1/2
f 14/2/2 8/1/2 21/2/2
f 21/2/2 8/1/2 22/4/2
f 22/4/2 8/1/2 23/4/2
f 23/4/2 8/1/2 24/2/2
f 24/2/2 8/1/2 6/2/2
f 4/3/6 13/3/6 10/3/6
f 13/3/6 4/3/6 5/3/6
f 14/5/3 17/5/3 15/5/3
f 17/5/3 14/5/3 21/5/3
f 26/5/3 3/5/3 25/5/3
f 3/5/3 26/5/3 6/5/3
f 22/6/7 19/6/8 18/6/7
f 19/6/8 22/6/7 23/6/8
f 23/6/8 20/7/9 19/6/8
f 20/7/9 23/6/8 24/7/9
f 21/7/10 18/6/7 17/7/10
f 18/6/7 21/7/10 22/6/7

g crest




usemtl colormap

f 3/2/1 2/1/1 1/1/1
f 3/2/1 4/3/1 2/1/1
f 4/3/1 3/2/1 5/3/1
f 6/2/1 5/3/1 3/2/1
f 5/3/1 6/2/1 7/1/1
f 7/1/1 6/2/1 8/1/1
f 2/1/2 10/3/2 9/1/2
f 10/3/2 2/1/2 4/3/2
f 12/1/3 8/1/3 11/1/3
f 8/1/3 12/1/3 7/1/3
f 5/3/4 12/1/4 13/3/4
f 12/1/4 5/3/4 7/1/4
f 14/2/5 12/1/5 11/1/5
f 14/2/5 13/3/5 12/1/5
f 13/3/5 14/2/5 10/3/5
f 15/2/5 10/3/5 14/2/5
f 10/3/5 15/2/5 9/1/5
f 9/1/5 15/2/5 16/1/5
f 16/1/3 2/1/3 9/1/3
f 2/1/3 16/1/3 1/1/3
f 17/2/4 16/1/4 15/2/4
f 16/1/4 17/2/4 1/1/4
f 1/1/4 17/2/4 18/4/4
f 1/1/4 18/4/4 19/4/4
f 1/1/4 19/4/4 20/2/4
f 1/1/4 20/2/4 3/2/4
f 8/1/2 14/2/2 11/1/2
f 14/2/2 8/1/2 21/2/2
f 21/2/2 8/1/2 22/4/2
f 22/4/2 8/1/2 23/4/2
f 23/4/2 8/1/2 24/2/2
f 24/2/2 8/1/2 6/2/2
f 4/3/6 13/3/6 10/3/6
f 13/3/6 4/3/6 5/3/6
f 14/5/3 17/5/3 15/5/3
f 17/5/3 14/5/3 21/5/3
f 26/5/3 3/5/3 25/5/3
f 3/5/3 26/5/3 6/5/3
f 22/6/7 19/6/8 18/6/7
f 19/6/8 22/6/7 23/6/8
f 23/6/8 20/7/9 19/6/8
f 20/7/9 23/6/8 24/7/9
f 21/7/10 18/6/7 17/7/10
f 18/6/7 21/7/10 22/6/7

