# Created by Kenney (www.kenney.nl)

mtllib flag-large-red.mtl

g flag-large-red

v 0.039032 0.263327 0.022304 1 1 1
v 0.039032 0.263327 -0.022304 1 1 1
v 0.022304 0.263327 0.039032 1 1 1
v 0.022304 0.263327 -0.039032 1 1 1
v -0.022304 0.263327 0.039032 1 1 1
v -0.022304 0.263327 -0.039032 1 1 1
v -0.039032 0.263327 0.022304 1 1 1
v -0.039032 0.263327 -0.022304 1 1 1
v 0.039032 0.999895 0.022304 1 1 1
v 0.022304 0.999895 0.039032 1 1 1
v -0.039032 0.999895 0.022304 1 1 1
v -0.022304 0.999895 0.039032 1 1 1
v 0.022304 0.999895 -0.039032 1 1 1
v 0.039032 0.999895 -0.022304 1 1 1
v -0.022304 0.999895 -0.039032 1 1 1
v -0.039032 0.999895 -0.022304 1 1 1
v -0.2315204 0.999895 -0.0125 1 1 1
v -0.03903204 0.999895 -0.0125 1 1 1
v -0.2315204 0.999895 0.0125 1 1 1
v -0.03903204 0.999895 0.0125 1 1 1
v -0.2565203 0.2883269 -0.0125 1 1 1
v -0.2565203 0.2883269 0.0125 1 1 1
v -0.2315203 0.2633269 -0.0125 1 1 1
v -0.2315203 0.2633269 0.0125 1 1 1
v -0.03903195 0.263327 -0.0125 1 1 1
v -0.2565205 0.974895 -0.0125 1 1 1
v -0.03903195 0.263327 0.0125 1 1 1
v -0.2565205 0.974895 0.0125 1 1 1
v 0.02 0 0.02 1 1 1
v 0.02 0 -0.02 1 1 1
v -0.02 0 0.02 1 1 1
v -0.02 0 -0.02 1 1 1
v 0.02 1.024895 -0.02 1 1 1
v 0.02 1.024895 0.02 1 1 1
v -0.02 1.024895 -0.02 1 1 1
v -0.02 1.024895 0.02 1 1 1

vn 0 -1 0
vn 0.9238796 0 0.3826834
vn 0.3826834 0 0.9238796
vn -0.9238796 0 0.3826834
vn -0.3826834 0 0.9238796
vn 0.3826834 0 -0.9238796
vn 0.9238796 0 -0.3826834
vn -0.3826834 0 -0.9238796
vn -0.9238796 0 -0.3826834
vn 0 1 0
vn -0.3826836 0.9238796 0
vn -1.192093E-07 1 0
vn -0.9238796 -0.3826836 0
vn -0.3826834 -0.9238797 0
vn 0 0 -1
vn 0 0 1
vn -0.9238797 0.3826834 0
vn 1.192093E-07 -1 0
vn 0.7071068 0 -0.7071068
vn 0.7071068 0 0.7071068
vn -0.7071068 0 0.7071068
vn -0.7071068 0 -0.7071068

vt 0.59375 0.275
vt 0.59375 0.475
vt 0.59375 0.4520102
vt 0.59375 0.025
vt 0.59375 0.225

usemtl colormap

f 3/1/1 2/1/1 1/1/1
f 2/1/1 3/1/1 4/1/1
f 4/1/1 3/1/1 5/1/1
f 4/1/1 5/1/1 6/1/1
f 6/1/1 5/1/1 7/1/1
f 6/1/1 7/1/1 8/1/1
f 10/2/3 1/1/2 9/2/2
f 1/1/2 10/2/3 3/1/3
f 5/1/5 11/2/4 7/1/4
f 11/2/4 5/1/5 12/2/5
f 14/2/7 4/1/6 13/2/6
f 4/1/6 14/2/7 2/1/7
f 8/1/9 15/2/8 6/1/8
f 15/2/8 8/1/9 16/2/9
f 13/2/10 9/2/10 14/2/10
f 9/2/10 13/2/10 10/2/10
f 10/2/10 13/2/10 15/2/10
f 10/2/10 15/2/10 12/2/10
f 12/2/10 15/2/10 16/2/10
f 12/2/10 16/2/10 11/2/10
f 10/2/3 5/1/5 3/1/3
f 5/1/5 10/2/3 12/2/5
f 9/2/2 2/1/7 14/2/7
f 2/1/7 9/2/2 1/1/2
f 15/2/8 4/1/6 6/1/8
f 4/1/6 15/2/8 13/2/6
f 7/1/4 16/2/9 8/1/9
f 16/2/9 7/1/4 11/2/4
f 19/3/11 18/1/12 17/3/11
f 18/1/12 19/3/11 20/1/12
f 23/3/14 22/2/13 21/2/13
f 22/2/13 23/3/14 24/3/14
f 23/3/15 18/1/15 25/1/15
f 18/1/15 23/3/15 17/3/15
f 17/3/15 23/3/15 21/2/15
f 17/3/15 21/2/15 26/2/15
f 20/1/16 24/3/16 27/1/16
f 24/3/16 20/1/16 19/3/16
f 24/3/16 19/3/16 22/2/16
f 22/2/16 19/3/16 28/2/16
f 17/3/11 28/2/17 19/3/11
f 28/2/17 17/3/11 26/2/17
f 27/1/18 23/3/14 25/1/18
f 23/3/14 27/1/18 24/3/14
f 26/2/17 22/2/13 28/2/17
f 22/2/13 26/2/17 21/2/13
f 1/4/10 2/4/10 3/4/10
f 4/4/10 3/4/10 2/4/10
f 5/4/10 3/4/10 4/4/10
f 6/4/10 5/4/10 4/4/10
f 7/4/10 5/4/10 6/4/10
f 8/4/10 7/4/10 6/4/10
f 9/5/9 1/4/9 10/5/8
f 3/4/8 10/5/8 1/4/9
f 7/4/7 11/5/7 5/4/6
f 12/5/6 5/4/6 11/5/7
f 13/5/5 4/4/5 14/5/4
f 2/4/4 14/5/4 4/4/5
f 6/4/3 15/5/3 8/4/2
f 16/5/2 8/4/2 15/5/3
f 14/5/1 9/5/1 13/5/1
f 10/5/1 13/5/1 9/5/1
f 15/5/1 13/5/1 10/5/1
f 12/5/1 15/5/1 10/5/1
f 16/5/1 15/5/1 12/5/1
f 11/5/1 16/5/1 12/5/1
f 3/4/8 5/4/6 10/5/8
f 12/5/6 10/5/8 5/4/6
f 14/5/4 2/4/4 9/5/9
f 1/4/9 9/5/9 2/4/4
f 6/4/3 4/4/5 15/5/3
f 13/5/5 15/5/3 4/4/5
f 8/4/2 16/5/2 7/4/7
f 11/5/7 7/4/7 16/5/2
f 31/5/1 30/5/1 29/5/1
f 30/5/1 31/5/1 32/5/1
f 35/4/10 34/4/10 33/4/10
f 34/4/10 35/4/10 36/4/10
f 34/4/20 30/5/19 33/4/19
f 30/5/19 34/4/20 29/5/20
f 34/4/20 31/5/21 29/5/20
f 31/5/21 34/4/20 36/4/21
f 31/5/21 35/4/22 32/5/22
f 35/4/22 31/5/21 36/4/21
f 35/4/22 30/5/19 32/5/22
f 30/5/19 35/4/22 33/4/19

g flag-large-red




usemtl colormap

f 3/1/1 2/1/1 1/1/1
f 2/1/1 3/1/1 4/1/1
f 4/1/1 3/1/1 5/1/1
f 4/1/1 5/1/1 6/1/1
f 6/1/1 5/1/1 7/1/1
f 6/1/1 7/1/1 8/1/1
f 10/2/3 1/1/2 9/2/2
f 1/1/2 10/2/3 3/1/3
f 5/1/5 11/2/4 7/1/4
f 11/2/4 5/1/5 12/2/5
f 14/2/7 4/1/6 13/2/6
f 4/1/6 14/2/7 2/1/7
f 8/1/9 15/2/8 6/1/8
f 15/2/8 8/1/9 16/2/9
f 13/2/10 9/2/10 14/2/10
f 9/2/10 13/2/10 10/2/10
f 10/2/10 13/2/10 15/2/10
f 10/2/10 15/2/10 12/2/10
f 12/2/10 15/2/10 16/2/10
f 12/2/10 16/2/10 11/2/10
f 10/2/3 5/1/5 3/1/3
f 5/1/5 10/2/3 12/2/5
f 9/2/2 2/1/7 14/2/7
f 2/1/7 9/2/2 1/1/2
f 15/2/8 4/1/6 6/1/8
f 4/1/6 15/2/8 13/2/6
f 7/1/4 16/2/9 8/1/9
f 16/2/9 7/1/4 11/2/4
f 19/3/11 18/1/12 17/3/11
f 18/1/12 19/3/11 20/1/12
f 23/3/14 22/2/13 21/2/13
f 22/2/13 23/3/14 24/3/14
f 23/3/15 18/1/15 25/1/15
f 18/1/15 23/3/15 17/3/15
f 17/3/15 23/3/15 21/2/15
f 17/3/15 21/2/15 26/2/15
f 20/1/16 24/3/16 27/1/16
f 24/3/16 20/1/16 19/3/16
f 24/3/16 19/3/16 22/2/16
f 22/2/16 19/3/16 28/2/16
f 17/3/11 28/2/17 19/3/11
f 28/2/17 17/3/11 26/2/17
f 27/1/18 23/3/14 25/1/18
f 23/3/14 27/1/18 24/3/14
f 26/2/17 22/2/13 28/2/17
f 22/2/13 26/2/17 21/2/13
f 1/4/10 2/4/10 3/4/10
f 4/4/10 3/4/10 2/4/10
f 5/4/10 3/4/10 4/4/10
f 6/4/10 5/4/10 4/4/10
f 7/4/10 5/4/10 6/4/10
f 8/4/10 7/4/10 6/4/10
f 9/5/9 1/4/9 10/5/8
f 3/4/8 10/5/8 1/4/9
f 7/4/7 11/5/7 5/4/6
f 12/5/6 5/4/6 11/5/7
f 13/5/5 4/4/5 14/5/4
f 2/4/4 14/5/4 4/4/5
f 6/4/3 15/5/3 8/4/2
f 16/5/2 8/4/2 15/5/3
f 14/5/1 9/5/1 13/5/1
f 10/5/1 13/5/1 9/5/1
f 15/5/1 13/5/1 10/5/1
f 12/5/1 15/5/1 10/5/1
f 16/5/1 15/5/1 12/5/1
f 11/5/1 16/5/1 12/5/1
f 3/4/8 5/4/6 10/5/8
f 12/5/6 10/5/8 5/4/6
f 14/5/4 2/4/4 9/5/9
f 1/4/9 9/5/9 2/4/4
f 6/4/3 4/4/5 15/5/3
f 13/5/5 15/5/3 4/4/5
f 8/4/2 16/5/2 7/4/7
f 11/5/7 7/4/7 16/5/2
f 31/5/1 30/5/1 29/5/1
f 30/5/1 31/5/1 32/5/1
f 35/4/10 34/4/10 33/4/10
f 34/4/10 35/4/10 36/4/10
f 34/4/20 30/5/19 33/4/19
f 30/5/19 34/4/20 29/5/20
f 34/4/20 31/5/21 29/5/20
f 31/5/21 34/4/20 36/4/21
f 31/5/21 35/4/22 32/5/22
f 35/4/22 31/5/21 36/4/21
f 35/4/22 30/5/19 32/5/22
f 30/5/19 35/4/22 33/4/19

