# Created by Kenney (www.kenney.nl)

mtllib gap.mtl

g gap

v -0.39996 0.146652 0.49995 1 1 1
v -0.39996 0.063327 0.49995 1 1 1
v -0.49995 0.146652 0.49995 1 1 1
v -0.49995 0 0.49995 1 1 1
v 0.39996 0.063327 0.49995 1 1 1
v 0.49995 0 0.49995 1 1 1
v 0.49995 0.146652 0.49995 1 1 1
v 0.39996 0.146652 0.49995 1 1 1
v 0.49995 0.146652 -0.49995 1 1 1
v 0.49995 0 -0.49995 1 1 1
v -0.39996 0.146652 -0.49995 1 1 1
v -0.49995 0.146652 -0.49995 1 1 1
v -0.49995 0 -0.49995 1 1 1
v -0.39996 0.063327 -0.49995 1 1 1
v 0.39996 0.063327 -0.49995 1 1 1
v 0.39996 0.146652 -0.49995 1 1 1
v -0.19998 1.193726E-16 -0.199975 1 1 1
v -0.14998 1.193726E-16 -0.249975 1 1 1
v -0.19998 1.193726E-16 0.199975 1 1 1
v 0.14998 1.193726E-16 -0.249975 1 1 1
v 0.19998 1.193726E-16 -0.199975 1 1 1
v -0.14998 1.193726E-16 0.249975 1 1 1
v 0.14998 1.193726E-16 0.249975 1 1 1
v 0.19998 1.193726E-16 0.199975 1 1 1
v 0.19998 0.063327 -0.199975 1 1 1
v 0.19998 0.063327 0.199975 1 1 1
v 0.14998 0.063327 -0.249975 1 1 1
v -0.14998 0.063327 -0.249975 1 1 1
v -0.19998 0.063327 -0.199975 1 1 1
v -0.19998 0.063327 0.199975 1 1 1
v -0.14998 0.063327 0.249975 1 1 1
v 0.14998 0.063327 0.249975 1 1 1

vn 0 0 1
vn 1 0 0
vn 0 1 0
vn -1 0 0
vn 0 0 -1
vn 0 -1 0
vn -0.9238795 0 0.3826834
vn -0.9238795 0 -0.3826834
vn -0.3826834 0 0.9238795
vn 0.3826834 0 0.9238795
vn 0.9238795 0 0.3826834
vn 0.9238795 0 -0.3826834
vn 0.3826834 0 -0.9238795
vn -0.3826834 0 -0.9238795

vt 0.71875 0.225
vt 0.71875 0.1113636
vt 0.71875 0.025
vt 0.21875 0.275
vt 0.21875 0.3613636
vt 0.15625 0.375

usemtl colormap

f 3/1/1 2/2/1 1/1/1
f 4/3/1 2/2/1 3/1/1
f 2/2/1 4/3/1 5/2/1
f 6/3/1 5/2/1 4/3/1
f 5/2/1 6/3/1 7/1/1
f 5/2/1 7/1/1 8/1/1
f 7/1/2 10/3/2 9/1/2
f 10/3/2 7/1/2 6/3/2
f 12/1/3 1/1/3 11/1/3
f 1/1/3 12/1/3 3/1/3
f 4/3/4 12/1/4 13/3/4
f 12/1/4 4/3/4 3/1/4
f 14/2/5 12/1/5 11/1/5
f 14/2/5 13/3/5 12/1/5
f 13/3/5 14/2/5 10/3/5
f 15/2/5 10/3/5 14/2/5
f 10/3/5 15/2/5 9/1/5
f 9/1/5 15/2/5 16/1/5
f 16/1/3 7/1/3 9/1/3
f 7/1/3 16/1/3 8/1/3
f 5/2/4 16/1/4 15/2/4
f 16/1/4 5/2/4 8/1/4
f 1/1/2 14/2/2 11/1/2
f 14/2/2 1/1/2 2/2/2
f 13/3/6 18/3/6 17/3/6
f 13/3/6 17/3/6 19/3/6
f 13/3/6 20/3/6 18/3/6
f 10/3/6 20/3/6 13/3/6
f 20/3/6 10/3/6 21/3/6
f 19/3/6 4/3/6 13/3/6
f 22/3/6 4/3/6 19/3/6
f 23/3/6 4/3/6 22/3/6
f 21/3/6 10/3/6 6/3/6
f 23/3/6 6/3/6 4/3/6
f 6/3/6 24/3/6 21/3/6
f 24/3/6 6/3/6 23/3/6
f 24/4/8 25/5/7 21/4/7
f 25/5/7 24/4/8 26/5/8
f 27/5/9 18/4/10 20/4/9
f 18/4/10 27/5/9 28/5/10
f 30/5/12 17/4/11 29/5/11
f 17/4/11 30/5/12 19/4/12
f 31/5/13 23/4/14 22/4/13
f 23/4/14 31/5/13 32/5/14
f 21/4/7 27/5/9 20/4/9
f 27/5/9 21/4/7 25/5/7
f 28/5/10 17/4/11 18/4/10
f 17/4/11 28/5/10 29/5/11
f 32/5/14 24/4/8 23/4/14
f 24/4/8 32/5/14 26/5/8
f 31/5/13 19/4/12 30/5/12
f 19/4/12 31/5/13 22/4/13
f 2/6/3 32/6/3 31/6/3
f 2/6/3 31/6/3 30/6/3
f 5/6/3 32/6/3 2/6/3
f 32/6/3 5/6/3 26/6/3
f 26/6/3 5/6/3 25/6/3
f 15/6/3 25/6/3 5/6/3
f 25/6/3 15/6/3 27/6/3
f 2/6/3 30/6/3 14/6/3
f 27/6/3 15/6/3 14/6/3
f 29/6/3 14/6/3 30/6/3
f 27/6/3 14/6/3 28/6/3
f 28/6/3 14/6/3 29/6/3

g gap




usemtl colormap

f 3/1/1 2/2/1 1/1/1
f 4/3/1 2/2/1 3/1/1
f 2/2/1 4/3/1 5/2/1
f 6/3/1 5/2/1 4/3/1
f 5/2/1 6/3/1 7/1/1
f 5/2/1 7/1/1 8/1/1
f 7/1/2 10/3/2 9/1/2
f 10/3/2 7/1/2 6/3/2
f 12/1/3 1/1/3 11/1/3
f 1/1/3 12/1/3 3/1/3
f 4/3/4 12/1/4 13/3/4
f 12/1/4 4/3/4 3/1/4
f 14/2/5 12/1/5 11/1/5
f 14/2/5 13/3/5 12/1/5
f 13/3/5 14/2/5 10/3/5
f 15/2/5 10/3/5 14/2/5
f 10/3/5 15/2/5 9/1/5
f 9/1/5 15/2/5 16/1/5
f 16/1/3 7/1/3 9/1/3
f 7/1/3 16/1/3 8/1/3
f 5/2/4 16/1/4 15/2/4
f 16/1/4 5/2/4 8/1/4
f 1/1/2 14/2/2 11/1/2
f 14/2/2 1/1/2 2/2/2
f 13/3/6 18/3/6 17/3/6
f 13/3/6 17/3/6 19/3/6
f 13/3/6 20/3/6 18/3/6
f 10/3/6 20/3/6 13/3/6
f 20/3/6 10/3/6 21/3/6
f 19/3/6 4/3/6 13/3/6
f 22/3/6 4/3/6 19/3/6
f 23/3/6 4/3/6 22/3/6
f 21/3/6 10/3/6 6/3/6
f 23/3/6 6/3/6 4/3/6
f 6/3/6 24/3/6 21/3/6
f 24/3/6 6/3/6 23/3/6
f 24/4/8 25/5/7 21/4/7
f 25/5/7 24/4/8 26/5/8
f 27/5/9 18/4/10 20/4/9
f 18/4/10 27/5/9 28/5/10
f 30/5/12 17/4/11 29/5/11
f 17/4/11 30/5/12 19/4/12
f 31/5/13 23/4/14 22/4/13
f 23/4/14 31/5/13 32/5/14
f 21/4/7 27/5/9 20/4/9
f 27/5/9 21/4/7 25/5/7
f 28/5/10 17/4/11 18/4/10
f 17/4/11 28/5/10 29/5/11
f 32/5/14 24/4/8 23/4/14
f 24/4/8 32/5/14 26/5/8
f 31/5/13 19/4/12 30/5/12
f 19/4/12 31/5/13 22/4/13
f 2/6/3 32/6/3 31/6/3
f 2/6/3 31/6/3 30/6/3
f 5/6/3 32/6/3 2/6/3
f 32/6/3 5/6/3 26/6/3
f 26/6/3 5/6/3 25/6/3
f 15/6/3 25/6/3 5/6/3
f 25/6/3 15/6/3 27/6/3
f 2/6/3 30/6/3 14/6/3
f 27/6/3 15/6/3 14/6/3
f 29/6/3 14/6/3 30/6/3
f 27/6/3 14/6/3 28/6/3
f 28/6/3 14/6/3 29/6/3

