# Created by Kenney (www.kenney.nl)

mtllib narrow-square.mtl

g narrow-square

v 0.39996 0.146652 0.49995 1 1 1
v 0.49995 0.146652 0.49995 1 1 1
v 0.39996 0.063327 0.49995 1 1 1
v 0.49995 0 0.49995 1 1 1
v -0.49995 0 0.49995 1 1 1
v -0.39996 0.063327 0.49995 1 1 1
v -0.49995 0.146652 0.49995 1 1 1
v -0.39996 0.146652 0.49995 1 1 1
v 0.49995 0 -0.49995 1 1 1
v -0.49995 0 -0.49995 1 1 1
v 0.49995 0.146652 -0.49995 1 1 1
v -0.19998 0.146652 -0.249975 1 1 1
v -0.19998 0.146652 0.249975 1 1 1
v -0.39996 0.146652 -0.49995 1 1 1
v -0.49995 0.146652 -0.49995 1 1 1
v 0.39996 0.146652 -0.49995 1 1 1
v 0.19998 0.146652 -0.249975 1 1 1
v 0.19998 0.146652 0.249975 1 1 1
v -0.39996 0.063327 -0.49995 1 1 1
v 0.39996 0.063327 -0.49995 1 1 1
v 0.19998 0.063327 -0.249975 1 1 1
v -0.19998 0.063327 0.249975 1 1 1
v -0.19998 0.063327 -0.249975 1 1 1
v 0.19998 0.063327 0.249975 1 1 1

vn 0 0 1
vn 0 -1 0
vn 1 0 0
vn 0 1 0
vn -1 0 0
vn 0 0 -1
vn -0.7808689 0 -0.6246951
vn -0.9436284 0 -0.3310069
vn 0.9436284 0 0.3310069
vn 0.7808689 0 0.6246951
vn 0.9436284 0 -0.3310069
vn -0.9436284 0 0.3310069
vn -0.7808689 0 0.6246951
vn 0.7808689 0 -0.6246951

vt 0.71875 0.225
vt 0.71875 0.1113636
vt 0.71875 0.025
vt 0.15625 0.375

usemtl colormap

f 3/2/1 2/1/1 1/1/1
f 3/2/1 4/3/1 2/1/1
f 4/3/1 3/2/1 5/3/1
f 6/2/1 5/3/1 3/2/1
f 5/3/1 6/2/1 7/1/1
f 7/1/1 6/2/1 8/1/1
f 4/3/2 10/3/2 9/3/2
f 10/3/2 4/3/2 5/3/2
f 2/1/3 9/3/3 11/1/3
f 9/3/3 2/1/3 4/3/3
f 14/1/4 13/1/4 12/1/4
f 13/1/4 14/1/4 8/1/4
f 8/1/4 14/1/4 15/1/4
f 8/1/4 15/1/4 7/1/4
f 5/3/5 15/1/5 10/3/5
f 15/1/5 5/3/5 7/1/5
f 16/1/4 2/1/4 11/1/4
f 2/1/4 16/1/4 1/1/4
f 1/1/4 16/1/4 17/1/4
f 1/1/4 17/1/4 18/1/4
f 19/2/6 15/1/6 14/1/6
f 19/2/6 10/3/6 15/1/6
f 10/3/6 19/2/6 9/3/6
f 20/2/6 9/3/6 19/2/6
f 9/3/6 20/2/6 11/1/6
f 11/1/6 20/2/6 16/1/6
f 21/2/8 16/1/7 20/2/7
f 16/1/7 21/2/8 17/1/8
f 8/1/10 22/2/9 13/1/9
f 22/2/9 8/1/10 6/2/10
f 13/1/9 23/2/11 12/1/11
f 23/2/11 13/1/9 22/2/9
f 3/2/13 18/1/12 24/2/12
f 18/1/12 3/2/13 1/1/13
f 12/1/11 19/2/14 14/1/14
f 19/2/14 12/1/11 23/2/11
f 24/2/12 17/1/8 21/2/8
f 17/1/8 24/2/12 18/1/12
f 19/4/4 3/4/4 20/4/4
f 3/4/4 19/4/4 6/4/4

g narrow-square




usemtl colormap

f 3/2/1 2/1/1 1/1/1
f 3/2/1 4/3/1 2/1/1
f 4/3/1 3/2/1 5/3/1
f 6/2/1 5/3/1 3/2/1
f 5/3/1 6/2/1 7/1/1
f 7/1/1 6/2/1 8/1/1
f 4/3/2 10/3/2 9/3/2
f 10/3/2 4/3/2 5/3/2
f 2/1/3 9/3/3 11/1/3
f 9/3/3 2/1/3 4/3/3
f 14/1/4 13/1/4 12/1/4
f 13/1/4 14/1/4 8/1/4
f 8/1/4 14/1/4 15/1/4
f 8/1/4 15/1/4 7/1/4
f 5/3/5 15/1/5 10/3/5
f 15/1/5 5/3/5 7/1/5
f 16/1/4 2/1/4 11/1/4
f 2/1/4 16/1/4 1/1/4
f 1/1/4 16/1/4 17/1/4
f 1/1/4 17/1/4 18/1/4
f 19/2/6 15/1/6 14/1/6
f 19/2/6 10/3/6 15/1/6
f 10/3/6 19/2/6 9/3/6
f 20/2/6 9/3/6 19/2/6
f 9/3/6 20/2/6 11/1/6
f 11/1/6 20/2/6 16/1/6
f 21/2/8 16/1/7 20/2/7
f 16/1/7 21/2/8 17/1/8
f 8/1/10 22/2/9 13/1/9
f 22/2/9 8/1/10 6/2/10
f 13/1/9 23/2/11 12/1/11
f 23/2/11 13/1/9 22/2/9
f 3/2/13 18/1/12 24/2/12
f 18/1/12 3/2/13 1/1/13
f 12/1/11 19/2/14 14/1/14
f 19/2/14 12/1/11 23/2/11
f 24/2/12 17/1/8 21/2/8
f 17/1/8 24/2/12 18/1/12
f 19/4/4 3/4/4 20/4/4
f 3/4/4 19/4/4 6/4/4

