# Created by Kenney (www.kenney.nl)

mtllib ramp-high.mtl

g ramp-high

v -0.49995 0 -0.49995 1 1 1
v -0.49995 0.146652 -0.49995 1 1 1
v -0.49995 0.5 0.49995 1 1 1
v -0.49995 0.646652 0.49995 1 1 1
v -0.39996 0.146652 -0.49995 1 1 1
v -0.39996 0.646652 0.49995 1 1 1
v -0.39996 0.063327 -0.49995 1 1 1
v 0.49995 0 -0.49995 1 1 1
v 0.39996 0.063327 -0.49995 1 1 1
v 0.49995 0.146652 -0.49995 1 1 1
v 0.39996 0.146652 -0.49995 1 1 1
v 0.49995 0.646652 0.49995 1 1 1
v 0.39996 0.646652 0.49995 1 1 1
v -0.39996 0.563327 0.49995 1 1 1
v 0.49995 0.5 0.49995 1 1 1
v 0.39996 0.563327 0.49995 1 1 1

vn -1 0 0
vn 0 0.8944092 -0.4472494
vn 0 0 -1
vn 1 0 0
vn 0 -0.8944092 0.4472494
vn 0 0 1

vt 0.71875 0.025
vt 0.71875 0.07035732
vt 0.71875 0.1796427
vt 0.71875 0.225
vt 0.71875 0.04458611
vt 0.71875 0.1992288
vt 0.15625 0.375

usemtl colormap

f 3/3/1 2/2/1 1/1/1
f 2/2/1 3/3/1 4/4/1
f 2/2/2 6/4/2 5/2/2
f 6/4/2 2/2/2 4/4/2
f 7/5/3 2/2/3 5/2/3
f 7/5/3 1/1/3 2/2/3
f 1/1/3 7/5/3 8/1/3
f 9/5/3 8/1/3 7/5/3
f 8/1/3 9/5/3 10/2/3
f 10/2/3 9/5/3 11/2/3
f 11/2/2 12/4/2 10/2/2
f 12/4/2 11/2/2 13/4/2
f 6/4/4 7/5/4 5/2/4
f 7/5/4 6/4/4 14/6/4
f 15/3/5 1/1/5 8/1/5
f 1/1/5 15/3/5 3/3/5
f 16/6/6 12/4/6 13/4/6
f 16/6/6 15/3/6 12/4/6
f 15/3/6 16/6/6 3/3/6
f 14/6/6 3/3/6 16/6/6
f 3/3/6 14/6/6 4/4/6
f 4/4/6 14/6/6 6/4/6
f 16/6/1 11/2/1 9/5/1
f 11/2/1 16/6/1 13/4/1
f 12/4/4 8/1/4 10/2/4
f 8/1/4 12/4/4 15/3/4
f 7/7/2 16/7/2 9/7/2
f 16/7/2 7/7/2 14/7/2

g ramp-high




usemtl colormap

f 3/3/1 2/2/1 1/1/1
f 2/2/1 3/3/1 4/4/1
f 2/2/2 6/4/2 5/2/2
f 6/4/2 2/2/2 4/4/2
f 7/5/3 2/2/3 5/2/3
f 7/5/3 1/1/3 2/2/3
f 1/1/3 7/5/3 8/1/3
f 9/5/3 8/1/3 7/5/3
f 8/1/3 9/5/3 10/2/3
f 10/2/3 9/5/3 11/2/3
f 11/2/2 12/4/2 10/2/2
f 12/4/2 11/2/2 13/4/2
f 6/4/4 7/5/4 5/2/4
f 7/5/4 6/4/4 14/6/4
f 15/3/5 1/1/5 8/1/5
f 1/1/5 15/3/5 3/3/5
f 16/6/6 12/4/6 13/4/6
f 16/6/6 15/3/6 12/4/6
f 15/3/6 16/6/6 3/3/6
f 14/6/6 3/3/6 16/6/6
f 3/3/6 14/6/6 4/4/6
f 4/4/6 14/6/6 6/4/6
f 16/6/1 11/2/1 9/5/1
f 11/2/1 16/6/1 13/4/1
f 12/4/4 8/1/4 10/2/4
f 8/1/4 12/4/4 15/3/4
f 7/7/2 16/7/2 9/7/2
f 16/7/2 7/7/2 14/7/2

