# Created by Kenney (www.kenney.nl)

mtllib split-t.mtl

g split-t

v 0.49995 0 0.4999501 1 1 1
v 0.4999501 0 -0.49995 1 1 1
v -0.4999501 0 0.49995 1 1 1
v -0.49995 0 -0.4999501 1 1 1
v -0.49995 0.146652 -0.4999501 1 1 1
v -0.39996 0.146652 -0.4999501 1 1 1
v -0.39996 0.063327 -0.4999501 1 1 1
v 0.3999601 0.063327 -0.49995 1 1 1
v 0.4999501 0.146652 -0.49995 1 1 1
v 0.3999601 0.146652 -0.49995 1 1 1
v 0.4999501 0.146652 -0.39996 1 1 1
v 0.4999501 0.063327 -0.39996 1 1 1
v 0.49995 0.063327 0.3999601 1 1 1
v 0.49995 0.146652 0.4999501 1 1 1
v 0.49995 0.146652 0.3999601 1 1 1
v -0.4999501 0.146652 0.49995 1 1 1
v -0.4999501 0.146652 0.39996 1 1 1
v -0.4999501 0.063327 0.39996 1 1 1
v -0.49995 0.146652 -0.3999601 1 1 1
v -0.4292464 0.146652 -0.4292465 1 1 1
v -0.49995 0.063327 -0.3999601 1 1 1
v 0.4292465 0.146652 -0.4292464 1 1 1
v 0.4292465 0.063327 -0.4292464 1 1 1
v -0.4292464 0.063327 -0.4292465 1 1 1
v 0.49995 0.063327 0.4999501 1 1 1
v -0.4999501 0.063327 0.49995 1 1 1
v 0.4999501 0.063327 -0.49995 1 1 1
v -0.49995 0.063327 -0.4999501 1 1 1

vn 0 -1 0
vn 1.192093E-07 0 -1
vn 1 0 1.192093E-07
vn 0 1 0
vn -1.192093E-07 0 1
vn -1 0 -1.192093E-07
vn -0.7071069 0 0.7071068
vn -0.9238797 0 0.3826834
vn 0.9238796 0 0.3826836
vn 0.7071068 0 0.7071069
vn 0.3826834 0 0.9238797
vn -0.3826836 0 0.9238796

vt 0.71875 0.025
vt 0.71875 0.225
vt 0.71875 0.1113636
vt 0.15625 0.375

usemtl colormap

f 3/1/1 2/1/1 1/1/1
f 2/1/1 3/1/1 4/1/1
f 6/2/2 4/1/2 5/2/2
f 7/3/2 4/1/2 6/2/2
f 8/3/2 4/1/2 7/3/2
f 8/3/2 2/1/2 4/1/2
f 2/1/2 8/3/2 9/2/2
f 10/2/2 9/2/2 8/3/2
f 12/3/3 9/2/3 11/2/3
f 12/3/3 2/1/3 9/2/3
f 2/1/3 12/3/3 1/1/3
f 13/3/3 1/1/3 12/3/3
f 1/1/3 13/3/3 14/2/3
f 14/2/3 13/3/3 15/2/3
f 15/2/4 16/2/4 14/2/4
f 16/2/4 15/2/4 17/2/4
f 18/3/2 15/2/2 13/3/2
f 15/2/2 18/3/2 17/2/2
f 20/2/4 5/2/4 19/2/4
f 5/2/4 20/2/4 6/2/4
f 16/2/5 1/1/5 14/2/5
f 1/1/5 16/2/5 3/1/5
f 18/3/6 16/2/6 17/2/6
f 18/3/6 3/1/6 16/2/6
f 3/1/6 18/3/6 4/1/6
f 21/3/6 4/1/6 18/3/6
f 4/1/6 21/3/6 5/2/6
f 5/2/6 21/3/6 19/2/6
f 9/2/4 22/2/4 11/2/4
f 22/2/4 9/2/4 10/2/4
f 22/2/7 8/3/8 23/3/7
f 8/3/8 22/2/7 10/2/8
f 6/2/9 24/3/10 7/3/9
f 24/3/10 6/2/9 20/2/10
f 19/2/11 24/3/10 20/2/10
f 24/3/10 19/2/11 21/3/11
f 22/2/7 12/3/12 11/2/12
f 12/3/12 22/2/7 23/3/7
f 27/4/4 26/4/4 25/4/4
f 26/4/4 27/4/4 28/4/4

g split-t




usemtl colormap

f 3/1/1 2/1/1 1/1/1
f 2/1/1 3/1/1 4/1/1
f 6/2/2 4/1/2 5/2/2
f 7/3/2 4/1/2 6/2/2
f 8/3/2 4/1/2 7/3/2
f 8/3/2 2/1/2 4/1/2
f 2/1/2 8/3/2 9/2/2
f 10/2/2 9/2/2 8/3/2
f 12/3/3 9/2/3 11/2/3
f 12/3/3 2/1/3 9/2/3
f 2/1/3 12/3/3 1/1/3
f 13/3/3 1/1/3 12/3/3
f 1/1/3 13/3/3 14/2/3
f 14/2/3 13/3/3 15/2/3
f 15/2/4 16/2/4 14/2/4
f 16/2/4 15/2/4 17/2/4
f 18/3/2 15/2/2 13/3/2
f 15/2/2 18/3/2 17/2/2
f 20/2/4 5/2/4 19/2/4
f 5/2/4 20/2/4 6/2/4
f 16/2/5 1/1/5 14/2/5
f 1/1/5 16/2/5 3/1/5
f 18/3/6 16/2/6 17/2/6
f 18/3/6 3/1/6 16/2/6
f 3/1/6 18/3/6 4/1/6
f 21/3/6 4/1/6 18/3/6
f 4/1/6 21/3/6 5/2/6
f 5/2/6 21/3/6 19/2/6
f 9/2/4 22/2/4 11/2/4
f 22/2/4 9/2/4 10/2/4
f 22/2/7 8/3/8 23/3/7
f 8/3/8 22/2/7 10/2/8
f 6/2/9 24/3/10 7/3/9
f 24/3/10 6/2/9 20/2/10
f 19/2/11 24/3/10 20/2/10
f 24/3/10 19/2/11 21/3/11
f 22/2/7 12/3/12 11/2/12
f 12/3/12 22/2/7 23/3/7
f 27/4/4 26/4/4 25/4/4
f 26/4/4 27/4/4 28/4/4

