# Created by Kenney (www.kenney.nl)

mtllib spline-default-straight-skew-right-side.mtl

g spline-default-straight-skew-right-side

v -0.4693565 -0.1722053 0.7995079 1 1 1
v 0.4693565 0.1722053 0.7995079 1 1 1
v -0.4911118 -0.09359205 0.3993244 1 1 1
v 0.4911118 0.09359205 0.3993244 1 1 1
v -0.4999499 -9.536743E-07 3.814697E-06 1 1 1
v 0.4999499 9.536743E-07 3.814697E-06 1 1 1
v 0.4188428 0.3098831 0.7995079 1 1 1
v 0.4636579 0.2376513 0.3993244 1 1 1
v 0.4999495 0.1466531 3.814697E-06 1 1 1
v -0.5198698 -0.03452754 0.7995079 1 1 1
v -0.5185652 0.05046737 0.3993244 1 1 1
v -0.4999504 0.146651 3.814697E-06 1 1 1
v 0.3249717 0.2754421 0.7995079 1 1 1
v 0.3654356 0.218933 0.3993244 1 1 1
v 0.3999596 0.1466528 3.814697E-06 1 1 1
v 0.3536725 0.197216 0.7995079 1 1 1
v 0.3810344 0.137081 0.3993244 1 1 1
v 0.39996 0.06332779 3.814697E-06 1 1 1
v -0.3972979 -0.0783124 0.7995079 1 1 1
v -0.4259987 -8.642673E-05 0.7995079 1 1 1
v -0.4047441 -0.01266623 0.3993244 1 1 1
v -0.4203429 0.06918573 0.3993244 1 1 1
v -0.39996 0.06332624 3.814697E-06 1 1 1
v -0.3999605 0.1466511 3.814697E-06 1 1 1
v -0.3994322 -0.3006723 1.599944 1 1 1
v 0.3994322 0.3006723 1.599944 1 1 1
v -0.4382777 -0.2405463 1.199755 1 1 1
v 0.4382777 0.2405463 1.199755 1 1 1
v 0.311235 0.4178391 1.599944 1 1 1
v 0.3677177 0.3691078 1.199755 1 1 1
v -0.4876294 -0.1835054 1.599944 1 1 1
v -0.5088382 -0.1119848 1.199755 1 1 1
v 0.2313485 0.3577046 1.599944 1 1 1
v 0.2800622 0.3209985 1.199755 1 1 1
v 0.2814608 0.2911326 1.599944 1 1 1
v 0.3201532 0.2479522 1.199755 1 1 1
v -0.3576312 -0.1899431 1.599944 1 1 1
v -0.407743 -0.123371 1.599944 1 1 1
v -0.3810916 -0.1369219 1.199755 1 1 1
v -0.4211826 -0.06387556 1.199755 1 1 1
v -0.3810916 -0.1369219 1.199755 1 1 1
v -0.3006725 -0.3994323 2.400056 1 1 1
v 0.3006725 0.3994323 2.400056 1 1 1
v -0.353518 -0.3535179 2 1 1 1
v 0.353518 0.3535179 2 1 1 1
v 0.1835055 0.4876295 2.400056 1 1 1
v 0.2498198 0.4572165 2 1 1 1
v -0.4178391 -0.3112351 2.400056 1 1 1
v -0.4572167 -0.2498192 2 1 1 1
v 0.1233711 0.4077431 2.400056 1 1 1
v 0.1791158 0.386513 2 1 1 1
v 0.1899433 0.357631 2.400056 1 1 1
v 0.2380357 0.3275933 2 1 1 1
v -0.2911325 -0.2814608 2.400056 1 1 1
v -0.3577046 -0.2313486 2.400056 1 1 1
v -0.3275933 -0.2380353 2 1 1 1
v -0.3865132 -0.1791157 2 1 1 1
v 0.2380357 0.3275933 2 1 1 1
v -0.1722059 -0.4693561 3.200492 1 1 1
v 0.1722059 0.4693561 3.200492 1 1 1
v -0.2405467 -0.4382776 2.800245 1 1 1
v 0.2405467 0.4382776 2.800245 1 1 1
v 0.03452778 0.5198698 3.200492 1 1 1
v 0.1119852 0.5088379 2.800245 1 1 1
v -0.3098836 -0.4188424 3.200492 1 1 1
v -0.3691082 -0.3677171 2.800245 1 1 1
v 8.678436E-05 0.4259986 3.200492 1 1 1
v 0.06387615 0.4211825 2.800245 1 1 1
v 0.07831287 0.3972976 3.200492 1 1 1
v 0.1369224 0.3810914 2.800245 1 1 1
v -0.1972165 -0.3536723 3.200492 1 1 1
v -0.2754426 -0.3249712 3.200492 1 1 1
v -0.2479525 -0.3201529 2.800245 1 1 1
v -0.3209987 -0.2800617 2.800245 1 1 1
v -1.430511E-06 -0.4999499 3.999996 1 1 1
v 1.430511E-06 0.4999499 3.999996 1 1 1
v -0.09359217 -0.4911114 3.600676 1 1 1
v 0.09359217 0.4911114 3.600676 1 1 1
v -0.1466508 0.4999503 3.999996 1 1 1
v -0.05046701 0.5185652 3.600676 1 1 1
v -0.1466532 -0.4999495 3.999996 1 1 1
v -0.2376518 -0.4636576 3.600676 1 1 1
v -0.1466508 0.3999604 3.999996 1 1 1
v -0.06918526 0.4203429 3.600676 1 1 1
v -0.06332588 0.3999602 3.999996 1 1 1
v 0.01266623 0.4047441 3.600676 1 1 1
v -0.06332827 -0.3999598 3.999996 1 1 1
v -0.1466532 -0.3999596 3.999996 1 1 1
v -0.1370811 -0.3810341 3.600676 1 1 1
v -0.2189331 -0.3654354 3.600676 1 1 1
v -0.39996 0.146652 -2.887646E-15 1 1 1
v -0.49995 0.146652 -2.887646E-15 1 1 1
v -0.39996 0.06332701 -2.887646E-15 1 1 1
v -0.49995 0 -2.887646E-15 1 1 1
v 0.49995 0 2.887646E-15 1 1 1
v 0.39996 0.06332701 0 1 1 1
v 0.49995 0.146652 2.887646E-15 1 1 1
v 0.39996 0.146652 0 1 1 1
v -0.1466518 0.3999602 4 1 1 1
v -0.1466517 0.4999502 4 1 1 1
v -0.06332679 0.3999601 4 1 1 1
v 2.681941E-07 0.4999501 4 1 1 1
v -2.681941E-07 -0.4999501 4 1 1 1
v -0.06332722 -0.39996 4 1 1 1
v -0.1466523 -0.4999499 4 1 1 1
v -0.1466522 -0.39996 4 1 1 1

vn 0.344445 -0.9388065 0
vn 0.1872028 -0.9823213 0
vn 2.02514E-06 -1 0
vn 0.9388065 0.344445 0
vn 0.9823213 0.1872028 0
vn 1 2.02514E-06 0
vn -0.9388065 -0.344445 0
vn -0.9823213 -0.1872028 0
vn -1 -2.02514E-06 0
vn -0.344445 0.9388065 0
vn -0.1872028 0.9823213 0
vn -2.02514E-06 1 0
vn 0.6014047 -0.7989446 0
vn 0.4811408 -0.8766433 0
vn 0.4811408 -0.8766433 0
vn 0.7989446 0.6014047 0
vn 0.8766433 0.4811408 0
vn -0.7989446 -0.6014047 0
vn -0.8766433 -0.4811408 0
vn -0.6014047 0.7989446 0
vn -0.4811408 0.8766433 0
vn -0.8766433 -0.4811408 0
vn 0.8766433 0.4811408 0
vn -0.4811408 0.8766433 0
vn 0.7989445 -0.6014048 0
vn 0.7071065 -0.7071071 0
vn 0.6014048 0.7989445 0
vn 0.7071071 0.7071065 0
vn -0.6014048 -0.7989445 0
vn -0.7071071 -0.7071065 0
vn -0.7989445 0.6014048 0
vn -0.7071065 0.7071071 0
vn 0.9388062 -0.3444459 0
vn 0.8766428 -0.4811417 0
vn 0.3444459 0.9388062 0
vn 0.4811417 0.8766428 0
vn -0.3444459 -0.9388062 0
vn -0.4811417 -0.8766428 0
vn -0.9388062 0.3444459 0
vn -0.8766428 0.4811417 0
vn 0.9999999 -2.741814E-06 0
vn 0.9823211 -0.1872033 0
vn 2.741814E-06 0.9999999 0
vn 0.1872033 0.9823211 0
vn -2.741814E-06 -0.9999999 0
vn -0.1872033 -0.9823211 0
vn -0.9999999 2.741814E-06 0
vn -0.9823211 0.1872033 0
vn 0 0 -1
vn 0 0 1

vt 0.71875 0.025
vt 0.71875 0.225
vt 0.71875 0.1113636
vt 0.15625 0.375

usemtl colormap

f 3/1/2 2/1/1 1/1/1
f 2/1/1 3/1/2 4/1/2
f 5/1/3 4/1/2 3/1/2
f 4/1/2 5/1/3 6/1/3
f 4/1/5 7/2/4 2/1/4
f 7/2/4 4/1/5 8/2/5
f 6/1/6 8/2/5 4/1/5
f 8/2/5 6/1/6 9/2/6
f 11/2/8 1/1/7 10/2/7
f 1/1/7 11/2/8 3/1/8
f 12/2/9 3/1/8 11/2/8
f 3/1/8 12/2/9 5/1/9
f 7/2/10 14/2/11 13/2/10
f 14/2/11 7/2/10 8/2/11
f 8/2/11 15/2/12 14/2/11
f 15/2/12 8/2/11 9/2/12
f 14/2/8 16/3/7 13/2/7
f 16/3/7 14/2/8 17/3/8
f 15/2/9 17/3/8 14/2/8
f 17/3/8 15/2/9 18/3/9
f 21/3/5 20/2/4 19/3/4
f 20/2/4 21/3/5 22/2/5
f 23/3/6 22/2/5 21/3/5
f 22/2/5 23/3/6 24/2/6
f 20/2/10 11/2/11 10/2/10
f 11/2/11 20/2/10 22/2/11
f 22/2/11 12/2/12 11/2/11
f 12/2/12 22/2/11 24/2/12
f 21/4/11 16/4/10 17/4/11
f 16/4/10 21/4/11 19/4/10
f 23/4/12 17/4/11 18/4/12
f 17/4/11 23/4/12 21/4/11
f 27/1/14 26/1/13 25/1/13
f 26/1/13 27/1/14 28/1/15
f 1/1/1 28/1/15 27/1/14
f 28/1/15 1/1/1 2/1/1
f 28/1/17 29/2/16 26/1/16
f 29/2/16 28/1/17 30/2/17
f 2/1/4 30/2/17 28/1/17
f 30/2/17 2/1/4 7/2/4
f 32/2/19 25/1/18 31/2/18
f 25/1/18 32/2/19 27/1/19
f 10/2/7 27/1/19 32/2/19
f 27/1/19 10/2/7 1/1/7
f 29/2/20 34/2/21 33/2/20
f 34/2/21 29/2/20 30/2/21
f 30/2/21 13/2/10 34/2/21
f 13/2/10 30/2/21 7/2/10
f 34/2/22 35/3/18 33/2/18
f 35/3/18 34/2/22 36/3/22
f 13/2/7 36/3/22 34/2/22
f 36/3/22 13/2/7 16/3/7
f 39/3/23 38/2/16 37/3/16
f 38/2/16 39/3/23 40/2/23
f 19/3/4 40/2/23 39/3/23
f 40/2/23 19/3/4 20/2/4
f 38/2/20 32/2/24 31/2/20
f 32/2/24 38/2/20 40/2/24
f 40/2/24 10/2/10 32/2/24
f 10/2/10 40/2/24 20/2/10
f 39/4/24 35/4/20 36/4/21
f 35/4/20 39/4/24 37/4/20
f 19/4/10 36/4/21 16/4/10
f 36/4/21 19/4/10 41/4/21
f 44/1/26 43/1/25 42/1/25
f 43/1/25 44/1/26 45/1/26
f 25/1/13 45/1/26 44/1/26
f 45/1/26 25/1/13 26/1/13
f 45/1/28 46/2/27 43/1/27
f 46/2/27 45/1/28 47/2/28
f 26/1/16 47/2/28 45/1/28
f 47/2/28 26/1/16 29/2/16
f 49/2/30 42/1/29 48/2/29
f 42/1/29 49/2/30 44/1/30
f 31/2/18 44/1/30 49/2/30
f 44/1/30 31/2/18 25/1/18
f 46/2/31 51/2/32 50/2/31
f 51/2/32 46/2/31 47/2/32
f 47/2/32 33/2/20 51/2/32
f 33/2/20 47/2/32 29/2/20
f 51/2/30 52/3/29 50/2/29
f 52/3/29 51/2/30 53/3/30
f 33/2/18 53/3/30 51/2/30
f 53/3/30 33/2/18 35/3/18
f 56/3/28 55/2/27 54/3/27
f 55/2/27 56/3/28 57/2/28
f 37/3/16 57/2/28 56/3/28
f 57/2/28 37/3/16 38/2/16
f 55/2/31 49/2/32 48/2/31
f 49/2/32 55/2/31 57/2/32
f 57/2/32 31/2/20 49/2/32
f 31/2/20 57/2/32 38/2/20
f 56/4/32 52/4/31 53/4/32
f 52/4/31 56/4/32 54/4/31
f 37/4/20 58/4/32 35/4/20
f 58/4/32 37/4/20 56/4/32
f 61/1/34 60/1/33 59/1/33
f 60/1/33 61/1/34 62/1/34
f 42/1/25 62/1/34 61/1/34
f 62/1/34 42/1/25 43/1/25
f 62/1/36 63/2/35 60/1/35
f 63/2/35 62/1/36 64/2/36
f 43/1/27 64/2/36 62/1/36
f 64/2/36 43/1/27 46/2/27
f 66/2/38 59/1/37 65/2/37
f 59/1/37 66/2/38 61/1/38
f 48/2/29 61/1/38 66/2/38
f 61/1/38 48/2/29 42/1/29
f 63/2/39 68/2/40 67/2/39
f 68/2/40 63/2/39 64/2/40
f 64/2/40 50/2/31 68/2/40
f 50/2/31 64/2/40 46/2/31
f 68/2/38 69/3/37 67/2/37
f 69/3/37 68/2/38 70/3/38
f 50/2/29 70/3/38 68/2/38
f 70/3/38 50/2/29 52/3/29
f 73/3/36 72/2/35 71/3/35
f 72/2/35 73/3/36 74/2/36
f 54/3/27 74/2/36 73/3/36
f 74/2/36 54/3/27 55/2/27
f 72/2/39 66/2/40 65/2/39
f 66/2/40 72/2/39 74/2/40
f 74/2/40 48/2/31 66/2/40
f 48/2/31 74/2/40 55/2/31
f 73/4/40 69/4/39 70/4/40
f 69/4/39 73/4/40 71/4/39
f 54/4/31 70/4/40 52/4/31
f 70/4/40 54/4/31 73/4/40
f 77/1/42 76/1/41 75/1/41
f 76/1/41 77/1/42 78/1/42
f 59/1/33 78/1/42 77/1/42
f 78/1/42 59/1/33 60/1/33
f 78/1/44 79/2/43 76/1/43
f 79/2/43 78/1/44 80/2/44
f 60/1/35 80/2/44 78/1/44
f 80/2/44 60/1/35 63/2/35
f 82/2/46 75/1/45 81/2/45
f 75/1/45 82/2/46 77/1/46
f 65/2/37 77/1/46 82/2/46
f 77/1/46 65/2/37 59/1/37
f 79/2/47 84/2/48 83/2/47
f 84/2/48 79/2/47 80/2/48
f 80/2/48 67/2/39 84/2/48
f 67/2/39 80/2/48 63/2/39
f 84/2/46 85/3/45 83/2/45
f 85/3/45 84/2/46 86/3/46
f 67/2/37 86/3/46 84/2/46
f 86/3/46 67/2/37 69/3/37
f 89/3/44 88/2/43 87/3/43
f 88/2/43 89/3/44 90/2/44
f 71/3/35 90/2/44 89/3/44
f 90/2/44 71/3/35 72/2/35
f 88/2/47 82/2/48 81/2/47
f 82/2/48 88/2/47 90/2/48
f 90/2/48 65/2/39 82/2/48
f 65/2/39 90/2/48 72/2/39
f 89/4/48 85/4/47 86/4/48
f 85/4/47 89/4/48 87/4/47
f 71/4/39 86/4/48 69/4/39
f 86/4/48 71/4/39 89/4/48
f 93/3/49 92/2/49 91/2/49
f 93/3/49 94/1/49 92/2/49
f 94/1/49 93/3/49 95/1/49
f 96/3/49 95/1/49 93/3/49
f 95/1/49 96/3/49 97/2/49
f 97/2/49 96/3/49 98/2/49
f 101/3/50 100/2/50 99/2/50
f 101/3/50 102/1/50 100/2/50
f 102/1/50 101/3/50 103/1/50
f 104/3/50 103/1/50 101/3/50
f 103/1/50 104/3/50 105/2/50
f 105/2/50 104/3/50 106/2/50

g spline-default-straight-skew-right-side




usemtl colormap

f 3/1/2 2/1/1 1/1/1
f 2/1/1 3/1/2 4/1/2
f 5/1/3 4/1/2 3/1/2
f 4/1/2 5/1/3 6/1/3
f 4/1/5 7/2/4 2/1/4
f 7/2/4 4/1/5 8/2/5
f 6/1/6 8/2/5 4/1/5
f 8/2/5 6/1/6 9/2/6
f 11/2/8 1/1/7 10/2/7
f 1/1/7 11/2/8 3/1/8
f 12/2/9 3/1/8 11/2/8
f 3/1/8 12/2/9 5/1/9
f 7/2/10 14/2/11 13/2/10
f 14/2/11 7/2/10 8/2/11
f 8/2/11 15/2/12 14/2/11
f 15/2/12 8/2/11 9/2/12
f 14/2/8 16/3/7 13/2/7
f 16/3/7 14/2/8 17/3/8
f 15/2/9 17/3/8 14/2/8
f 17/3/8 15/2/9 18/3/9
f 21/3/5 20/2/4 19/3/4
f 20/2/4 21/3/5 22/2/5
f 23/3/6 22/2/5 21/3/5
f 22/2/5 23/3/6 24/2/6
f 20/2/10 11/2/11 10/2/10
f 11/2/11 20/2/10 22/2/11
f 22/2/11 12/2/12 11/2/11
f 12/2/12 22/2/11 24/2/12
f 21/4/11 16/4/10 17/4/11
f 16/4/10 21/4/11 19/4/10
f 23/4/12 17/4/11 18/4/12
f 17/4/11 23/4/12 21/4/11
f 27/1/14 26/1/13 25/1/13
f 26/1/13 27/1/14 28/1/15
f 1/1/1 28/1/15 27/1/14
f 28/1/15 1/1/1 2/1/1
f 28/1/17 29/2/16 26/1/16
f 29/2/16 28/1/17 30/2/17
f 2/1/4 30/2/17 28/1/17
f 30/2/17 2/1/4 7/2/4
f 32/2/19 25/1/18 31/2/18
f 25/1/18 32/2/19 27/1/19
f 10/2/7 27/1/19 32/2/19
f 27/1/19 10/2/7 1/1/7
f 29/2/20 34/2/21 33/2/20
f 34/2/21 29/2/20 30/2/21
f 30/2/21 13/2/10 34/2/21
f 13/2/10 30/2/21 7/2/10
f 34/2/22 35/3/18 33/2/18
f 35/3/18 34/2/22 36/3/22
f 13/2/7 36/3/22 34/2/22
f 36/3/22 13/2/7 16/3/7
f 39/3/23 38/2/16 37/3/16
f 38/2/16 39/3/23 40/2/23
f 19/3/4 40/2/23 39/3/23
f 40/2/23 19/3/4 20/2/4
f 38/2/20 32/2/24 31/2/20
f 32/2/24 38/2/20 40/2/24
f 40/2/24 10/2/10 32/2/24
f 10/2/10 40/2/24 20/2/10
f 39/4/24 35/4/20 36/4/21
f 35/4/20 39/4/24 37/4/20
f 19/4/10 36/4/21 16/4/10
f 36/4/21 19/4/10 41/4/21
f 44/1/26 43/1/25 42/1/25
f 43/1/25 44/1/26 45/1/26
f 25/1/13 45/1/26 44/1/26
f 45/1/26 25/1/13 26/1/13
f 45/1/28 46/2/27 43/1/27
f 46/2/27 45/1/28 47/2/28
f 26/1/16 47/2/28 45/1/28
f 47/2/28 26/1/16 29/2/16
f 49/2/30 42/1/29 48/2/29
f 42/1/29 49/2/30 44/1/30
f 31/2/18 44/1/30 49/2/30
f 44/1/30 31/2/18 25/1/18
f 46/2/31 51/2/32 50/2/31
f 51/2/32 46/2/31 47/2/32
f 47/2/32 33/2/20 51/2/32
f 33/2/20 47/2/32 29/2/20
f 51/2/30 52/3/29 50/2/29
f 52/3/29 51/2/30 53/3/30
f 33/2/18 53/3/30 51/2/30
f 53/3/30 33/2/18 35/3/18
f 56/3/28 55/2/27 54/3/27
f 55/2/27 56/3/28 57/2/28
f 37/3/16 57/2/28 56/3/28
f 57/2/28 37/3/16 38/2/16
f 55/2/31 49/2/32 48/2/31
f 49/2/32 55/2/31 57/2/32
f 57/2/32 31/2/20 49/2/32
f 31/2/20 57/2/32 38/2/20
f 56/4/32 52/4/31 53/4/32
f 52/4/31 56/4/32 54/4/31
f 37/4/20 58/4/32 35/4/20
f 58/4/32 37/4/20 56/4/32
f 61/1/34 60/1/33 59/1/33
f 60/1/33 61/1/34 62/1/34
f 42/1/25 62/1/34 61/1/34
f 62/1/34 42/1/25 43/1/25
f 62/1/36 63/2/35 60/1/35
f 63/2/35 62/1/36 64/2/36
f 43/1/27 64/2/36 62/1/36
f 64/2/36 43/1/27 46/2/27
f 66/2/38 59/1/37 65/2/37
f 59/1/37 66/2/38 61/1/38
f 48/2/29 61/1/38 66/2/38
f 61/1/38 48/2/29 42/1/29
f 63/2/39 68/2/40 67/2/39
f 68/2/40 63/2/39 64/2/40
f 64/2/40 50/2/31 68/2/40
f 50/2/31 64/2/40 46/2/31
f 68/2/38 69/3/37 67/2/37
f 69/3/37 68/2/38 70/3/38
f 50/2/29 70/3/38 68/2/38
f 70/3/38 50/2/29 52/3/29
f 73/3/36 72/2/35 71/3/35
f 72/2/35 73/3/36 74/2/36
f 54/3/27 74/2/36 73/3/36
f 74/2/36 54/3/27 55/2/27
f 72/2/39 66/2/40 65/2/39
f 66/2/40 72/2/39 74/2/40
f 74/2/40 48/2/31 66/2/40
f 48/2/31 74/2/40 55/2/31
f 73/4/40 69/4/39 70/4/40
f 69/4/39 73/4/40 71/4/39
f 54/4/31 70/4/40 52/4/31
f 70/4/40 54/4/31 73/4/40
f 77/1/42 76/1/41 75/1/41
f 76/1/41 77/1/42 78/1/42
f 59/1/33 78/1/42 77/1/42
f 78/1/42 59/1/33 60/1/33
f 78/1/44 79/2/43 76/1/43
f 79/2/43 78/1/44 80/2/44
f 60/1/35 80/2/44 78/1/44
f 80/2/44 60/1/35 63/2/35
f 82/2/46 75/1/45 81/2/45
f 75/1/45 82/2/46 77/1/46
f 65/2/37 77/1/46 82/2/46
f 77/1/46 65/2/37 59/1/37
f 79/2/47 84/2/48 83/2/47
f 84/2/48 79/2/47 80/2/48
f 80/2/48 67/2/39 84/2/48
f 67/2/39 80/2/48 63/2/39
f 84/2/46 85/3/45 83/2/45
f 85/3/45 84/2/46 86/3/46
f 67/2/37 86/3/46 84/2/46
f 86/3/46 67/2/37 69/3/37
f 89/3/44 88/2/43 87/3/43
f 88/2/43 89/3/44 90/2/44
f 71/3/35 90/2/44 89/3/44
f 90/2/44 71/3/35 72/2/35
f 88/2/47 82/2/48 81/2/47
f 82/2/48 88/2/47 90/2/48
f 90/2/48 65/2/39 82/2/48
f 65/2/39 90/2/48 72/2/39
f 89/4/48 85/4/47 86/4/48
f 85/4/47 89/4/48 87/4/47
f 71/4/39 86/4/48 69/4/39
f 86/4/48 71/4/39 89/4/48
f 93/3/49 92/2/49 91/2/49
f 93/3/49 94/1/49 92/2/49
f 94/1/49 93/3/49 95/1/49
f 96/3/49 95/1/49 93/3/49
f 95/1/49 96/3/49 97/2/49
f 97/2/49 96/3/49 98/2/49
f 101/3/50 100/2/50 99/2/50
f 101/3/50 102/1/50 100/2/50
f 102/1/50 101/3/50 103/1/50
f 104/3/50 103/1/50 101/3/50
f 103/1/50 104/3/50 105/2/50
f 105/2/50 104/3/50 106/2/50

