# Created by Kenney (www.kenney.nl)

mtllib spline-concave-corner-small.mtl

g spline-concave-corner-small

v 0.39996 0.06332695 3.933907E-06 1 1 1
v 0.39996 0.146652 3.933907E-06 1 1 1
v 0.3411126 0.06332695 0.478322 1 1 1
v 0.3411126 0.146652 0.478322 1 1 1
v 0.1833618 0.06332695 0.9188035 1 1 1
v 0.1833618 0.146652 0.9188035 1 1 1
v -0.4999499 0 2.026558E-06 1 1 1
v -0.4999499 0.146652 2.026558E-06 1 1 1
v -0.5330486 0 0.2645929 1 1 1
v -0.5330486 0.146652 0.2645929 1 1 1
v -0.6294763 0 0.5326269 1 1 1
v -0.6294763 0.146652 0.5326269 1 1 1
v -0.39996 0.146652 2.264977E-06 1 1 1
v -0.4359195 0.146652 0.2883406 1 1 1
v -0.539161 0.146652 0.5755353 1 1 1
v 0.4999499 0 4.172325E-06 1 1 1
v 0.4382417 0 0.5020697 1 1 1
v 0.2736769 0 0.961712 1 1 1
v -0.39996 0.06332695 2.264977E-06 1 1 1
v -0.4359195 0.06332695 0.2883406 1 1 1
v -0.539161 0.06332695 0.5755353 1 1 1
v 0.4999499 0.146652 4.172325E-06 1 1 1
v 0.4382417 0.146652 0.5020697 1 1 1
v 0.2736769 0.146652 0.961712 1 1 1
v 0 0.03166354 3.099442E-06 1 1 1
v -0.04740357 0.03166354 0.3833313 1 1 1
v -0.1003811 0.03364635 2.861023E-06 1 1 1
v -0.1449125 0.03364635 0.3594906 1 1 1
v 0.1003811 0.03364635 3.33786E-06 1 1 1
v 0.05010557 0.03364635 0.4071718 1 1 1
v -0.2006056 0.03959179 2.741814E-06 1 1 1
v -0.2422693 0.03959179 0.3356873 1 1 1
v 0.2006056 0.03959179 3.457069E-06 1 1 1
v 0.1474624 0.03959179 0.4309752 1 1 1
v -0.1778996 0.03166354 0.7471695 1 1 1
v -0.2685683 0.03364635 0.704093 1 1 1
v -0.08723092 0.03364635 0.7902458 1 1 1
v -0.3590955 0.03959179 0.6610839 1 1 1
v 0.003296137 0.03959179 0.833255 1 1 1
v -0.3005173 0.04949045 2.503395E-06 1 1 1
v -0.3393221 0.04949045 0.3119582 1 1 1
v 0.3005173 0.04949045 3.695488E-06 1 1 1
v 0.2445152 0.04949045 0.4547043 1 1 1
v -0.44934 0.04949045 0.6182091 1 1 1
v 0.09354067 0.04949045 0.8761298 1 1 1
v -0.04944229 0.06332695 1.312827 1 1 1
v -0.04944229 0.146652 1.312827 1 1 1
v -0.3421859 0.06332695 1.657815 1 1 1
v -0.3421859 0.146652 1.657815 1 1 1
v -0.7813355 0 0.7892144 1 1 1
v -0.7813355 0.146652 0.7892144 1 1 1
v -0.9785182 0 1.021482 1 1 1
v -0.9785182 0.146652 1.021482 1 1 1
v -0.7000141 0.146652 0.8473935 1 1 1
v -0.9078146 0.146652 1.092186 1 1 1
v 0.03187919 0 1.371006 1 1 1
v -0.2714822 0 1.728518 1 1 1
v -0.7000141 0.06332695 0.8473935 1 1 1
v -0.9078146 0.06332695 1.092186 1 1 1
v 0.03187919 0.146652 1.371006 1 1 1
v -0.2714822 0.146652 1.728518 1 1 1
v -0.3747282 0.03166354 1.08011 1 1 1
v -0.4563677 0.03364635 1.021703 1 1 1
v -0.2930886 0.03364635 1.138517 1 1 1
v -0.5378799 0.03959179 0.9633878 1 1 1
v -0.2115762 0.03959179 1.196833 1 1 1
v -0.6250002 0.03166354 1.375 1 1 1
v -0.6959804 0.03364635 1.30402 1 1 1
v -0.55402 0.03364635 1.44598 1 1 1
v -0.7668499 0.03959179 1.23315 1 1 1
v -0.4831506 0.03959179 1.51685 1 1 1
v -0.6191376 0.04949045 0.9052543 1 1 1
v -0.1303186 0.04949045 1.254966 1 1 1
v -0.8374979 0.04949045 1.162502 1 1 1
v -0.4125025 0.04949045 1.587498 1 1 1
v -0.6871736 0.06332695 1.950558 1 1 1
v -0.6871736 0.146652 1.950558 1 1 1
v -1.081197 0.06332695 2.183362 1 1 1
v -1.081197 0.146652 2.183362 1 1 1
v -1.210786 0 1.218665 1 1 1
v -1.210786 0.146652 1.218665 1 1 1
v -1.467373 0 1.370524 1 1 1
v -1.467373 0.146652 1.370524 1 1 1
v -1.152607 0.146652 1.299986 1 1 1
v -1.424465 0.146652 1.460839 1 1 1
v -0.6289945 0 2.03188 1 1 1
v -1.038288 0 2.273677 1 1 1
v -1.152607 0.06332695 1.299986 1 1 1
v -1.424465 0.06332695 1.460839 1 1 1
v -0.6289945 0.146652 2.03188 1 1 1
v -1.038288 0.146652 2.273677 1 1 1
v -0.9198902 0.03166354 1.625272 1 1 1
v -0.9782969 0.03364635 1.543632 1 1 1
v -0.8614835 0.03364635 1.706912 1 1 1
v -1.036613 0.03959179 1.46212 1 1 1
v -0.8031678 0.03959179 1.788424 1 1 1
v -1.252831 0.03166354 1.8221 1 1 1
v -1.295907 0.03364635 1.731432 1 1 1
v -1.209755 0.03364635 1.912769 1 1 1
v -1.338917 0.03959179 1.640905 1 1 1
v -1.166745 0.03959179 2.003296 1 1 1
v -1.094746 0.04949045 1.380862 1 1 1
v -0.7450342 0.04949045 1.869682 1 1 1
v -1.381791 0.04949045 1.55066 1 1 1
v -1.123871 0.04949045 2.093541 1 1 1
v -1.521678 0.06332695 2.341113 1 1 1
v -1.521678 0.146652 2.341113 1 1 1
v -1.999996 0.06332695 2.39996 1 1 1
v -1.999996 0.146652 2.39996 1 1 1
v -1.735407 0 1.466951 1 1 1
v -1.735407 0.146652 1.466951 1 1 1
v -1.999998 0 1.50005 1 1 1
v -1.999998 0.146652 1.50005 1 1 1
v -1.71166 0.146652 1.56408 1 1 1
v -1.999998 0.146652 1.60004 1 1 1
v -1.49793 0 2.438241 1 1 1
v -1.999996 0 2.49995 1 1 1
v -1.71166 0.06332695 1.56408 1 1 1
v -1.999998 0.06332695 1.60004 1 1 1
v -1.49793 0.146652 2.438241 1 1 1
v -1.999996 0.146652 2.49995 1 1 1
v -1.616669 0.03166354 1.952596 1 1 1
v -1.640509 0.03364635 1.855087 1 1 1
v -1.592828 0.03364635 2.050105 1 1 1
v -1.664313 0.03959179 1.757731 1 1 1
v -1.569025 0.03959179 2.147462 1 1 1
v -1.999997 0.03166354 2 1 1 1
v -1.999997 0.03364635 1.899619 1 1 1
v -1.999997 0.03364635 2.100381 1 1 1
v -1.999997 0.03959179 1.799394 1 1 1
v -1.999997 0.03959179 2.200606 1 1 1
v -1.688042 0.04949045 1.660678 1 1 1
v -1.545296 0.04949045 2.244515 1 1 1
v -1.999998 0.04949045 1.699483 1 1 1
v -1.999996 0.04949045 2.300517 1 1 1
v -0.39996 0.146652 -2.887646E-15 1 1 1
v -0.49995 0.146652 -2.887646E-15 1 1 1
v -0.39996 0.06332701 -2.887646E-15 1 1 1
v -0.49995 0 -2.887646E-15 1 1 1
v -0.3005173 0.04949045 -2.887646E-15 1 1 1
v -0.2006057 0.03959173 -2.887646E-15 1 1 1
v -0.1003812 0.03364635 -2.887646E-15 1 1 1
v 0.49995 0 2.887646E-15 1 1 1
v 3.060904E-13 0.03166348 -2.887646E-15 1 1 1
v 0.1003812 0.03364635 -2.887646E-15 1 1 1
v 0.2006057 0.03959173 -2.165734E-15 1 1 1
v 0.3005173 0.04949045 -2.165734E-15 1 1 1
v 0.39996 0.06332701 0 1 1 1
v 0.49995 0.146652 2.887646E-15 1 1 1
v 0.39996 0.146652 0 1 1 1
v -2 0.146652 2.39996 1 1 1
v -2 0.146652 2.49995 1 1 1
v -2 0.06332701 2.39996 1 1 1
v -2 0 2.49995 1 1 1
v -2 0.04949045 2.300517 1 1 1
v -2 0.03959173 2.200606 1 1 1
v -2 0.03364635 2.100381 1 1 1
v -2 0 1.50005 1 1 1
v -2 0.03166348 2 1 1 1
v -2 0.03364635 1.899619 1 1 1
v -2 0.03959173 1.799394 1 1 1
v -2 0.04949045 1.699483 1 1 1
v -2 0.06332701 1.60004 1 1 1
v -2 0.146652 1.50005 1 1 1
v -2 0.146652 1.60004 1 1 1

vn -1 0 -2.06452E-06
vn -0.9713874 0 -0.2375005
vn -0.9032437 0 -0.4291281
vn 0 1 0
vn 0 -1 0
vn 1 0 2.06452E-06
vn 0.9713874 0 0.2375005
vn 0.9032437 0 0.4291281
vn 0.03949068 0.99922 8.152932E-08
vn 0.03836075 0.99922 0.009379058
vn -0.03949068 0.99922 -8.152932E-08
vn -0.03836075 0.99922 -0.009379058
vn 0.05921677 0.9982452 1.222542E-07
vn 0.05752242 0.9982452 0.01406401
vn -0.05921677 0.9982452 -1.222542E-07
vn -0.05752242 0.9982452 -0.01406401
vn 0.03566971 0.99922 0.01694656
vn -0.03566971 0.99922 -0.01694656
vn 0.05348717 0.9982452 0.02541158
vn -0.05348717 0.9982452 -0.02541158
vn 0.09859195 0.995128 2.035451E-07
vn 0.09577098 0.995128 0.02341564
vn 0.1182257 0.9929868 2.440794E-07
vn 0.114843 0.9929868 0.02807867
vn -0.1378133 0.9904583 -2.845184E-07
vn -0.1338701 0.9904583 -0.03273074
vn -0.1182257 0.9929868 -2.440794E-07
vn -0.114843 0.9929868 -0.02807867
vn 0.1378133 0.9904583 2.845184E-07
vn 0.1338701 0.9904583 0.03273074
vn -0.09859195 0.995128 -2.035451E-07
vn -0.09577098 0.995128 -0.02341564
vn 0.08905255 0.995128 0.04230858
vn 0.1067866 0.9929868 0.05073397
vn -0.124479 0.9904583 -0.05913956
vn -0.1067866 0.9929868 -0.05073397
vn 0.124479 0.9904583 0.05913956
vn -0.08905255 0.995128 -0.04230858
vn -0.8132961 0 -0.5818501
vn -0.7071066 0 -0.7071069
vn 0.8132961 0 0.5818501
vn 0.7071066 0 0.7071069
vn 0.03211762 0.99922 0.02297766
vn -0.03211762 0.99922 -0.02297766
vn 0.04816076 0.9982452 0.03445528
vn -0.04816076 0.9982452 -0.03445528
vn 0.02792412 0.99922 0.02792413
vn -0.02792412 0.99922 -0.02792413
vn 0.04187257 0.9982452 0.04187258
vn -0.04187257 0.9982452 -0.04187258
vn 0.08018444 0.995128 0.05736573
vn 0.0961525 0.9929868 0.06878964
vn -0.112083 0.9904583 -0.08018669
vn -0.0961525 0.9929868 -0.06878964
vn 0.112083 0.9904583 0.08018669
vn -0.08018444 0.995128 -0.05736573
vn 0.06971502 0.995128 0.06971505
vn 0.08359818 0.9929868 0.08359821
vn -0.09744871 0.9904583 -0.09744874
vn -0.08359818 0.9929868 -0.08359821
vn 0.09744871 0.9904583 0.09744874
vn -0.06971502 0.995128 -0.06971505
vn -0.5818497 0 -0.8132964
vn -0.429128 0 -0.9032437
vn 0.5818497 0 0.8132964
vn 0.429128 0 0.9032437
vn 0.02297764 0.99922 0.03211763
vn -0.02297764 0.99922 -0.03211763
vn 0.03445525 0.9982452 0.04816078
vn -0.03445525 0.9982452 -0.04816078
vn 0.01694656 0.99922 0.03566971
vn -0.01694656 0.99922 -0.03566971
vn 0.02541157 0.9982452 0.05348717
vn -0.02541157 0.9982452 -0.05348717
vn 0.05736569 0.995128 0.08018447
vn 0.06878959 0.9929868 0.09615254
vn -0.08018664 0.9904583 -0.1120831
vn -0.06878959 0.9929868 -0.09615254
vn 0.08018664 0.9904583 0.1120831
vn -0.05736569 0.995128 -0.08018447
vn 0.04230856 0.995128 0.08905256
vn 0.05073396 0.9929868 0.1067866
vn -0.05913955 0.9904583 -0.124479
vn -0.05073396 0.9929868 -0.1067866
vn 0.05913955 0.9904583 0.124479
vn -0.04230856 0.995128 -0.08905256
vn -0.2375005 0 -0.9713874
vn -2.205372E-06 0 -0.9999999
vn 0.2375005 0 0.9713874
vn 2.205372E-06 0 0.9999999
vn 0.009379057 0.99922 0.03836075
vn -0.009379057 0.99922 -0.03836075
vn 0.01406402 0.9982452 0.05752242
vn -0.01406402 0.9982452 -0.05752242
vn 8.568168E-08 0.99922 0.03949068
vn -8.568168E-08 0.99922 -0.03949068
vn 1.303852E-07 0.9982452 0.05921676
vn -1.303852E-07 0.9982452 -0.05921676
vn 0.02341564 0.995128 0.09577098
vn 0.02807868 0.9929868 0.114843
vn -0.03273074 0.9904583 -0.1338701
vn -0.02807868 0.9929868 -0.114843
vn 0.03273074 0.9904583 0.1338701
vn -0.02341564 0.995128 -0.09577098
vn 2.160668E-07 0.995128 0.09859193
vn 2.682209E-07 0.9929868 0.1182257
vn -2.980232E-07 0.9904583 -0.1378133
vn -2.682209E-07 0.9929868 -0.1182257
vn 2.980232E-07 0.9904583 0.1378133
vn -2.160668E-07 0.995128 -0.09859193
vn 0 0 -1
vn -0.9999999 0 3.576279E-07

vt 0.71875 0.1113636
vt 0.71875 0.225
vt 0.71875 0.025
vt 0.15625 0.375
vt 0.21875 0.375
vt 0.21875 0.4167046
vt 0.21875 0.475
vt 0.71875 0.09249371
vt 0.71875 0.07899413
vt 0.71875 0.07088595
vt 0.71875 0.06818182

usemtl colormap

f 3/1/2 2/2/1 1/1/1
f 2/2/1 3/1/2 4/2/2
f 5/1/3 4/2/2 3/1/2
f 4/2/2 5/1/3 6/2/3
f 9/3/2 8/2/1 7/3/1
f 8/2/1 9/3/2 10/2/2
f 11/3/3 10/2/2 9/3/2
f 10/2/2 11/3/3 12/2/3
f 8/2/4 14/2/4 13/2/4
f 14/2/4 8/2/4 10/2/4
f 10/2/4 15/2/4 14/2/4
f 15/2/4 10/2/4 12/2/4
f 17/3/5 7/3/5 16/3/5
f 7/3/5 17/3/5 9/3/5
f 18/3/5 9/3/5 17/3/5
f 9/3/5 18/3/5 11/3/5
f 14/2/7 19/1/6 13/2/6
f 19/1/6 14/2/7 20/1/7
f 15/2/8 20/1/7 14/2/7
f 20/1/7 15/2/8 21/1/8
f 23/2/7 16/3/6 22/2/6
f 16/3/6 23/2/7 17/3/7
f 24/2/8 17/3/7 23/2/7
f 17/3/7 24/2/8 18/3/8
f 2/2/4 23/2/4 22/2/4
f 23/2/4 2/2/4 4/2/4
f 4/2/4 24/2/4 23/2/4
f 24/2/4 4/2/4 6/2/4
f 27/4/9 26/4/4 25/4/4
f 26/4/4 27/4/9 28/4/10
f 25/4/4 30/4/12 29/4/11
f 30/4/12 25/4/4 26/4/4
f 31/4/13 28/4/10 27/4/9
f 28/4/10 31/4/13 32/4/14
f 29/4/11 34/4/16 33/4/15
f 34/4/16 29/4/11 30/4/12
f 28/4/10 35/4/4 26/4/4
f 35/4/4 28/4/10 36/4/17
f 26/4/4 37/4/18 30/4/12
f 37/4/18 26/4/4 35/4/4
f 32/4/14 36/4/17 28/4/10
f 36/4/17 32/4/14 38/4/19
f 30/4/12 39/4/20 34/4/16
f 39/4/20 30/4/12 37/4/18
f 40/6/23 32/5/22 31/5/21
f 32/5/22 40/6/23 41/6/24
f 42/6/27 3/7/26 1/7/25
f 3/7/26 42/6/27 43/6/28
f 19/7/29 41/6/24 40/6/23
f 41/6/24 19/7/29 20/7/30
f 33/5/31 43/6/28 42/6/27
f 43/6/28 33/5/31 34/5/32
f 41/6/24 38/5/33 32/5/22
f 38/5/33 41/6/24 44/6/34
f 43/6/28 5/7/35 3/7/26
f 5/7/35 43/6/28 45/6/36
f 20/7/30 44/6/34 41/6/24
f 44/6/34 20/7/30 21/7/37
f 34/5/32 45/6/36 43/6/28
f 45/6/36 34/5/32 39/5/38
f 46/1/39 6/2/3 5/1/3
f 6/2/3 46/1/39 47/2/39
f 48/1/40 47/2/39 46/1/39
f 47/2/39 48/1/40 49/2/40
f 50/3/39 12/2/3 11/3/3
f 12/2/3 50/3/39 51/2/39
f 52/3/40 51/2/39 50/3/39
f 51/2/39 52/3/40 53/2/40
f 12/2/4 54/2/4 15/2/4
f 54/2/4 12/2/4 51/2/4
f 51/2/4 55/2/4 54/2/4
f 55/2/4 51/2/4 53/2/4
f 56/3/5 11/3/5 18/3/5
f 11/3/5 56/3/5 50/3/5
f 57/3/5 50/3/5 56/3/5
f 50/3/5 57/3/5 52/3/5
f 54/2/41 21/1/8 15/2/8
f 21/1/8 54/2/41 58/1/41
f 55/2/42 58/1/41 54/2/41
f 58/1/41 55/2/42 59/1/42
f 60/2/41 18/3/8 24/2/8
f 18/3/8 60/2/41 56/3/41
f 61/2/42 56/3/41 60/2/41
f 56/3/41 61/2/42 57/3/42
f 6/2/4 60/2/4 24/2/4
f 60/2/4 6/2/4 47/2/4
f 47/2/4 61/2/4 60/2/4
f 61/2/4 47/2/4 49/2/4
f 36/4/17 62/4/4 35/4/4
f 62/4/4 36/4/17 63/4/43
f 35/4/4 64/4/44 37/4/18
f 64/4/44 35/4/4 62/4/4
f 38/4/19 63/4/43 36/4/17
f 63/4/43 38/4/19 65/4/45
f 37/4/18 66/4/46 39/4/20
f 66/4/46 37/4/18 64/4/44
f 63/4/43 67/4/4 62/4/4
f 67/4/4 63/4/43 68/4/47
f 62/4/4 69/4/48 64/4/44
f 69/4/48 62/4/4 67/4/4
f 65/4/45 68/4/47 63/4/43
f 68/4/47 65/4/45 70/4/49
f 64/4/44 71/4/50 66/4/46
f 71/4/50 64/4/44 69/4/48
f 44/6/34 65/5/51 38/5/33
f 65/5/51 44/6/34 72/6/52
f 45/6/36 46/7/53 5/7/35
f 46/7/53 45/6/36 73/6/54
f 21/7/37 72/6/52 44/6/34
f 72/6/52 21/7/37 58/7/55
f 39/5/38 73/6/54 45/6/36
f 73/6/54 39/5/38 66/5/56
f 72/6/52 70/5/57 65/5/51
f 70/5/57 72/6/52 74/6/58
f 73/6/54 48/7/59 46/7/53
f 48/7/59 73/6/54 75/6/60
f 58/7/55 74/6/58 72/6/52
f 74/6/58 58/7/55 59/7/61
f 66/5/56 75/6/60 73/6/54
f 75/6/60 66/5/56 71/5/62
f 76/1/63 49/2/40 48/1/40
f 49/2/40 76/1/63 77/2/63
f 78/1/64 77/2/63 76/1/63
f 77/2/63 78/1/64 79/2/64
f 80/3/63 53/2/40 52/3/40
f 53/2/40 80/3/63 81/2/63
f 82/3/64 81/2/63 80/3/63
f 81/2/63 82/3/64 83/2/64
f 53/2/4 84/2/4 55/2/4
f 84/2/4 53/2/4 81/2/4
f 81/2/4 85/2/4 84/2/4
f 85/2/4 81/2/4 83/2/4
f 86/3/5 52/3/5 57/3/5
f 52/3/5 86/3/5 80/3/5
f 87/3/5 80/3/5 86/3/5
f 80/3/5 87/3/5 82/3/5
f 84/2/65 59/1/42 55/2/42
f 59/1/42 84/2/65 88/1/65
f 85/2/66 88/1/65 84/2/65
f 88/1/65 85/2/66 89/1/66
f 90/2/65 57/3/42 61/2/42
f 57/3/42 90/2/65 86/3/65
f 91/2/66 86/3/65 90/2/65
f 86/3/65 91/2/66 87/3/66
f 49/2/4 90/2/4 61/2/4
f 90/2/4 49/2/4 77/2/4
f 77/2/4 91/2/4 90/2/4
f 91/2/4 77/2/4 79/2/4
f 68/4/47 92/4/4 67/4/4
f 92/4/4 68/4/47 93/4/67
f 67/4/4 94/4/68 69/4/48
f 94/4/68 67/4/4 92/4/4
f 70/4/49 93/4/67 68/4/47
f 93/4/67 70/4/49 95/4/69
f 69/4/48 96/4/70 71/4/50
f 96/4/70 69/4/48 94/4/68
f 93/4/67 97/4/4 92/4/4
f 97/4/4 93/4/67 98/4/71
f 92/4/4 99/4/72 94/4/68
f 99/4/72 92/4/4 97/4/4
f 95/4/69 98/4/71 93/4/67
f 98/4/71 95/4/69 100/4/73
f 94/4/68 101/4/74 96/4/70
f 101/4/74 94/4/68 99/4/72
f 74/6/58 95/5/75 70/5/57
f 95/5/75 74/6/58 102/6/76
f 75/6/60 76/7/77 48/7/59
f 76/7/77 75/6/60 103/6/78
f 59/7/61 102/6/76 74/6/58
f 102/6/76 59/7/61 88/7/79
f 71/5/62 103/6/78 75/6/60
f 103/6/78 71/5/62 96/5/80
f 102/6/76 100/5/81 95/5/75
f 100/5/81 102/6/76 104/6/82
f 103/6/78 78/7/83 76/7/77
f 78/7/83 103/6/78 105/6/84
f 88/7/79 104/6/82 102/6/76
f 104/6/82 88/7/79 89/7/85
f 96/5/80 105/6/84 103/6/78
f 105/6/84 96/5/80 101/5/86
f 106/1/87 79/2/64 78/1/64
f 79/2/64 106/1/87 107/2/87
f 108/1/88 107/2/87 106/1/87
f 107/2/87 108/1/88 109/2/88
f 110/3/87 83/2/64 82/3/64
f 83/2/64 110/3/87 111/2/87
f 112/3/88 111/2/87 110/3/87
f 111/2/87 112/3/88 113/2/88
f 83/2/4 114/2/4 85/2/4
f 114/2/4 83/2/4 111/2/4
f 111/2/4 115/2/4 114/2/4
f 115/2/4 111/2/4 113/2/4
f 116/3/5 82/3/5 87/3/5
f 82/3/5 116/3/5 110/3/5
f 117/3/5 110/3/5 116/3/5
f 110/3/5 117/3/5 112/3/5
f 114/2/89 89/1/66 85/2/66
f 89/1/66 114/2/89 118/1/89
f 115/2/90 118/1/89 114/2/89
f 118/1/89 115/2/90 119/1/90
f 120/2/89 87/3/66 91/2/66
f 87/3/66 120/2/89 116/3/89
f 121/2/90 116/3/89 120/2/89
f 116/3/89 121/2/90 117/3/90
f 79/2/4 120/2/4 91/2/4
f 120/2/4 79/2/4 107/2/4
f 107/2/4 121/2/4 120/2/4
f 121/2/4 107/2/4 109/2/4
f 98/4/71 122/4/4 97/4/4
f 122/4/4 98/4/71 123/4/91
f 97/4/4 124/4/92 99/4/72
f 124/4/92 97/4/4 122/4/4
f 100/4/73 123/4/91 98/4/71
f 123/4/91 100/4/73 125/4/93
f 99/4/72 126/4/94 101/4/74
f 126/4/94 99/4/72 124/4/92
f 123/4/91 127/4/4 122/4/4
f 127/4/4 123/4/91 128/4/95
f 122/4/4 129/4/96 124/4/92
f 129/4/96 122/4/4 127/4/4
f 125/4/93 128/4/95 123/4/91
f 128/4/95 125/4/93 130/4/97
f 124/4/92 131/4/98 126/4/94
f 131/4/98 124/4/92 129/4/96
f 104/6/82 125/5/99 100/5/81
f 125/5/99 104/6/82 132/6/100
f 105/6/84 106/7/101 78/7/83
f 106/7/101 105/6/84 133/6/102
f 89/7/85 132/6/100 104/6/82
f 132/6/100 89/7/85 118/7/103
f 101/5/86 133/6/102 105/6/84
f 133/6/102 101/5/86 126/5/104
f 132/6/100 130/5/105 125/5/99
f 130/5/105 132/6/100 134/6/106
f 133/6/102 108/7/107 106/7/101
f 108/7/107 133/6/102 135/6/108
f 118/7/103 134/6/106 132/6/100
f 134/6/106 118/7/103 119/7/109
f 126/5/104 135/6/108 133/6/102
f 135/6/108 126/5/104 131/5/110
f 138/1/111 137/2/111 136/2/111
f 138/1/111 139/3/111 137/2/111
f 140/8/111 139/3/111 138/1/111
f 141/9/111 139/3/111 140/8/111
f 142/10/111 139/3/111 141/9/111
f 139/3/111 142/10/111 143/3/111
f 143/3/111 142/10/111 144/11/111
f 145/10/111 143/3/111 144/11/111
f 146/9/111 143/3/111 145/10/111
f 147/8/111 143/3/111 146/9/111
f 148/1/111 143/3/111 147/8/111
f 143/3/111 148/1/111 149/2/111
f 149/2/111 148/1/111 150/2/111
f 153/1/112 152/2/112 151/2/112
f 153/1/112 154/3/112 152/2/112
f 155/8/112 154/3/112 153/1/112
f 156/9/112 154/3/112 155/8/112
f 157/10/112 154/3/112 156/9/112
f 154/3/112 157/10/112 158/3/112
f 158/3/112 157/10/112 159/11/112
f 160/10/112 158/3/112 159/11/112
f 161/9/112 158/3/112 160/10/112
f 162/8/112 158/3/112 161/9/112
f 163/1/112 158/3/112 162/8/112
f 158/3/112 163/1/112 164/2/112
f 164/2/112 163/1/112 165/2/112

g spline-concave-corner-small




usemtl colormap

f 3/1/2 2/2/1 1/1/1
f 2/2/1 3/1/2 4/2/2
f 5/1/3 4/2/2 3/1/2
f 4/2/2 5/1/3 6/2/3
f 9/3/2 8/2/1 7/3/1
f 8/2/1 9/3/2 10/2/2
f 11/3/3 10/2/2 9/3/2
f 10/2/2 11/3/3 12/2/3
f 8/2/4 14/2/4 13/2/4
f 14/2/4 8/2/4 10/2/4
f 10/2/4 15/2/4 14/2/4
f 15/2/4 10/2/4 12/2/4
f 17/3/5 7/3/5 16/3/5
f 7/3/5 17/3/5 9/3/5
f 18/3/5 9/3/5 17/3/5
f 9/3/5 18/3/5 11/3/5
f 14/2/7 19/1/6 13/2/6
f 19/1/6 14/2/7 20/1/7
f 15/2/8 20/1/7 14/2/7
f 20/1/7 15/2/8 21/1/8
f 23/2/7 16/3/6 22/2/6
f 16/3/6 23/2/7 17/3/7
f 24/2/8 17/3/7 23/2/7
f 17/3/7 24/2/8 18/3/8
f 2/2/4 23/2/4 22/2/4
f 23/2/4 2/2/4 4/2/4
f 4/2/4 24/2/4 23/2/4
f 24/2/4 4/2/4 6/2/4
f 27/4/9 26/4/4 25/4/4
f 26/4/4 27/4/9 28/4/10
f 25/4/4 30/4/12 29/4/11
f 30/4/12 25/4/4 26/4/4
f 31/4/13 28/4/10 27/4/9
f 28/4/10 31/4/13 32/4/14
f 29/4/11 34/4/16 33/4/15
f 34/4/16 29/4/11 30/4/12
f 28/4/10 35/4/4 26/4/4
f 35/4/4 28/4/10 36/4/17
f 26/4/4 37/4/18 30/4/12
f 37/4/18 26/4/4 35/4/4
f 32/4/14 36/4/17 28/4/10
f 36/4/17 32/4/14 38/4/19
f 30/4/12 39/4/20 34/4/16
f 39/4/20 30/4/12 37/4/18
f 40/6/23 32/5/22 31/5/21
f 32/5/22 40/6/23 41/6/24
f 42/6/27 3/7/26 1/7/25
f 3/7/26 42/6/27 43/6/28
f 19/7/29 41/6/24 40/6/23
f 41/6/24 19/7/29 20/7/30
f 33/5/31 43/6/28 42/6/27
f 43/6/28 33/5/31 34/5/32
f 41/6/24 38/5/33 32/5/22
f 38/5/33 41/6/24 44/6/34
f 43/6/28 5/7/35 3/7/26
f 5/7/35 43/6/28 45/6/36
f 20/7/30 44/6/34 41/6/24
f 44/6/34 20/7/30 21/7/37
f 34/5/32 45/6/36 43/6/28
f 45/6/36 34/5/32 39/5/38
f 46/1/39 6/2/3 5/1/3
f 6/2/3 46/1/39 47/2/39
f 48/1/40 47/2/39 46/1/39
f 47/2/39 48/1/40 49/2/40
f 50/3/39 12/2/3 11/3/3
f 12/2/3 50/3/39 51/2/39
f 52/3/40 51/2/39 50/3/39
f 51/2/39 52/3/40 53/2/40
f 12/2/4 54/2/4 15/2/4
f 54/2/4 12/2/4 51/2/4
f 51/2/4 55/2/4 54/2/4
f 55/2/4 51/2/4 53/2/4
f 56/3/5 11/3/5 18/3/5
f 11/3/5 56/3/5 50/3/5
f 57/3/5 50/3/5 56/3/5
f 50/3/5 57/3/5 52/3/5
f 54/2/41 21/1/8 15/2/8
f 21/1/8 54/2/41 58/1/41
f 55/2/42 58/1/41 54/2/41
f 58/1/41 55/2/42 59/1/42
f 60/2/41 18/3/8 24/2/8
f 18/3/8 60/2/41 56/3/41
f 61/2/42 56/3/41 60/2/41
f 56/3/41 61/2/42 57/3/42
f 6/2/4 60/2/4 24/2/4
f 60/2/4 6/2/4 47/2/4
f 47/2/4 61/2/4 60/2/4
f 61/2/4 47/2/4 49/2/4
f 36/4/17 62/4/4 35/4/4
f 62/4/4 36/4/17 63/4/43
f 35/4/4 64/4/44 37/4/18
f 64/4/44 35/4/4 62/4/4
f 38/4/19 63/4/43 36/4/17
f 63/4/43 38/4/19 65/4/45
f 37/4/18 66/4/46 39/4/20
f 66/4/46 37/4/18 64/4/44
f 63/4/43 67/4/4 62/4/4
f 67/4/4 63/4/43 68/4/47
f 62/4/4 69/4/48 64/4/44
f 69/4/48 62/4/4 67/4/4
f 65/4/45 68/4/47 63/4/43
f 68/4/47 65/4/45 70/4/49
f 64/4/44 71/4/50 66/4/46
f 71/4/50 64/4/44 69/4/48
f 44/6/34 65/5/51 38/5/33
f 65/5/51 44/6/34 72/6/52
f 45/6/36 46/7/53 5/7/35
f 46/7/53 45/6/36 73/6/54
f 21/7/37 72/6/52 44/6/34
f 72/6/52 21/7/37 58/7/55
f 39/5/38 73/6/54 45/6/36
f 73/6/54 39/5/38 66/5/56
f 72/6/52 70/5/57 65/5/51
f 70/5/57 72/6/52 74/6/58
f 73/6/54 48/7/59 46/7/53
f 48/7/59 73/6/54 75/6/60
f 58/7/55 74/6/58 72/6/52
f 74/6/58 58/7/55 59/7/61
f 66/5/56 75/6/60 73/6/54
f 75/6/60 66/5/56 71/5/62
f 76/1/63 49/2/40 48/1/40
f 49/2/40 76/1/63 77/2/63
f 78/1/64 77/2/63 76/1/63
f 77/2/63 78/1/64 79/2/64
f 80/3/63 53/2/40 52/3/40
f 53/2/40 80/3/63 81/2/63
f 82/3/64 81/2/63 80/3/63
f 81/2/63 82/3/64 83/2/64
f 53/2/4 84/2/4 55/2/4
f 84/2/4 53/2/4 81/2/4
f 81/2/4 85/2/4 84/2/4
f 85/2/4 81/2/4 83/2/4
f 86/3/5 52/3/5 57/3/5
f 52/3/5 86/3/5 80/3/5
f 87/3/5 80/3/5 86/3/5
f 80/3/5 87/3/5 82/3/5
f 84/2/65 59/1/42 55/2/42
f 59/1/42 84/2/65 88/1/65
f 85/2/66 88/1/65 84/2/65
f 88/1/65 85/2/66 89/1/66
f 90/2/65 57/3/42 61/2/42
f 57/3/42 90/2/65 86/3/65
f 91/2/66 86/3/65 90/2/65
f 86/3/65 91/2/66 87/3/66
f 49/2/4 90/2/4 61/2/4
f 90/2/4 49/2/4 77/2/4
f 77/2/4 91/2/4 90/2/4
f 91/2/4 77/2/4 79/2/4
f 68/4/47 92/4/4 67/4/4
f 92/4/4 68/4/47 93/4/67
f 67/4/4 94/4/68 69/4/48
f 94/4/68 67/4/4 92/4/4
f 70/4/49 93/4/67 68/4/47
f 93/4/67 70/4/49 95/4/69
f 69/4/48 96/4/70 71/4/50
f 96/4/70 69/4/48 94/4/68
f 93/4/67 97/4/4 92/4/4
f 97/4/4 93/4/67 98/4/71
f 92/4/4 99/4/72 94/4/68
f 99/4/72 92/4/4 97/4/4
f 95/4/69 98/4/71 93/4/67
f 98/4/71 95/4/69 100/4/73
f 94/4/68 101/4/74 96/4/70
f 101/4/74 94/4/68 99/4/72
f 74/6/58 95/5/75 70/5/57
f 95/5/75 74/6/58 102/6/76
f 75/6/60 76/7/77 48/7/59
f 76/7/77 75/6/60 103/6/78
f 59/7/61 102/6/76 74/6/58
f 102/6/76 59/7/61 88/7/79
f 71/5/62 103/6/78 75/6/60
f 103/6/78 71/5/62 96/5/80
f 102/6/76 100/5/81 95/5/75
f 100/5/81 102/6/76 104/6/82
f 103/6/78 78/7/83 76/7/77
f 78/7/83 103/6/78 105/6/84
f 88/7/79 104/6/82 102/6/76
f 104/6/82 88/7/79 89/7/85
f 96/5/80 105/6/84 103/6/78
f 105/6/84 96/5/80 101/5/86
f 106/1/87 79/2/64 78/1/64
f 79/2/64 106/1/87 107/2/87
f 108/1/88 107/2/87 106/1/87
f 107/2/87 108/1/88 109/2/88
f 110/3/87 83/2/64 82/3/64
f 83/2/64 110/3/87 111/2/87
f 112/3/88 111/2/87 110/3/87
f 111/2/87 112/3/88 113/2/88
f 83/2/4 114/2/4 85/2/4
f 114/2/4 83/2/4 111/2/4
f 111/2/4 115/2/4 114/2/4
f 115/2/4 111/2/4 113/2/4
f 116/3/5 82/3/5 87/3/5
f 82/3/5 116/3/5 110/3/5
f 117/3/5 110/3/5 116/3/5
f 110/3/5 117/3/5 112/3/5
f 114/2/89 89/1/66 85/2/66
f 89/1/66 114/2/89 118/1/89
f 115/2/90 118/1/89 114/2/89
f 118/1/89 115/2/90 119/1/90
f 120/2/89 87/3/66 91/2/66
f 87/3/66 120/2/89 116/3/89
f 121/2/90 116/3/89 120/2/89
f 116/3/89 121/2/90 117/3/90
f 79/2/4 120/2/4 91/2/4
f 120/2/4 79/2/4 107/2/4
f 107/2/4 121/2/4 120/2/4
f 121/2/4 107/2/4 109/2/4
f 98/4/71 122/4/4 97/4/4
f 122/4/4 98/4/71 123/4/91
f 97/4/4 124/4/92 99/4/72
f 124/4/92 97/4/4 122/4/4
f 100/4/73 123/4/91 98/4/71
f 123/4/91 100/4/73 125/4/93
f 99/4/72 126/4/94 101/4/74
f 126/4/94 99/4/72 124/4/92
f 123/4/91 127/4/4 122/4/4
f 127/4/4 123/4/91 128/4/95
f 122/4/4 129/4/96 124/4/92
f 129/4/96 122/4/4 127/4/4
f 125/4/93 128/4/95 123/4/91
f 128/4/95 125/4/93 130/4/97
f 124/4/92 131/4/98 126/4/94
f 131/4/98 124/4/92 129/4/96
f 104/6/82 125/5/99 100/5/81
f 125/5/99 104/6/82 132/6/100
f 105/6/84 106/7/101 78/7/83
f 106/7/101 105/6/84 133/6/102
f 89/7/85 132/6/100 104/6/82
f 132/6/100 89/7/85 118/7/103
f 101/5/86 133/6/102 105/6/84
f 133/6/102 101/5/86 126/5/104
f 132/6/100 130/5/105 125/5/99
f 130/5/105 132/6/100 134/6/106
f 133/6/102 108/7/107 106/7/101
f 108/7/107 133/6/102 135/6/108
f 118/7/103 134/6/106 132/6/100
f 134/6/106 118/7/103 119/7/109
f 126/5/104 135/6/108 133/6/102
f 135/6/108 126/5/104 131/5/110
f 138/1/111 137/2/111 136/2/111
f 138/1/111 139/3/111 137/2/111
f 140/8/111 139/3/111 138/1/111
f 141/9/111 139/3/111 140/8/111
f 142/10/111 139/3/111 141/9/111
f 139/3/111 142/10/111 143/3/111
f 143/3/111 142/10/111 144/11/111
f 145/10/111 143/3/111 144/11/111
f 146/9/111 143/3/111 145/10/111
f 147/8/111 143/3/111 146/9/111
f 148/1/111 143/3/111 147/8/111
f 143/3/111 148/1/111 149/2/111
f 149/2/111 148/1/111 150/2/111
f 153/1/112 152/2/112 151/2/112
f 153/1/112 154/3/112 152/2/112
f 155/8/112 154/3/112 153/1/112
f 156/9/112 154/3/112 155/8/112
f 157/10/112 154/3/112 156/9/112
f 154/3/112 157/10/112 158/3/112
f 158/3/112 157/10/112 159/11/112
f 160/10/112 158/3/112 159/11/112
f 161/9/112 158/3/112 160/10/112
f 162/8/112 158/3/112 161/9/112
f 163/1/112 158/3/112 162/8/112
f 158/3/112 163/1/112 164/2/112
f 164/2/112 163/1/112 165/2/112

