# Created by Kenney (www.kenney.nl)

mtllib spline-default.mtl

g spline-default

v -0.49995 0 0.49995 1 1 1
v 0.49995 0 0.49995 1 1 1
v -0.49995 0 -2.165734E-15 1 1 1
v 0.49995 0 2.887646E-15 1 1 1
v -0.49995 0 -0.49995 1 1 1
v 0.49995 0 -0.49995 1 1 1
v 0.49995 0.146652 0.49995 1 1 1
v 0.49995 0.146652 2.887646E-15 1 1 1
v 0.49995 0.146652 -0.49995 1 1 1
v -0.49995 0.146652 0.49995 1 1 1
v -0.49995 0.146652 -2.165734E-15 1 1 1
v -0.49995 0.146652 -0.49995 1 1 1
v 0.39996 0.146652 0.49995 1 1 1
v 0.39996 0.146652 1.443823E-15 1 1 1
v 0.39996 0.146652 -0.49995 1 1 1
v 0.39996 0.063327 0.49995 1 1 1
v 0.39996 0.063327 1.443823E-15 1 1 1
v 0.39996 0.063327 -0.49995 1 1 1
v -0.39996 0.063327 0.49995 1 1 1
v -0.39996 0.146652 0.49995 1 1 1
v -0.39996 0.063327 -2.165734E-15 1 1 1
v -0.39996 0.146652 -2.165734E-15 1 1 1
v -0.39996 0.063327 -0.49995 1 1 1
v -0.39996 0.146652 -0.49995 1 1 1
v 0.39996 0.063327 3.609557E-16 1 1 1
v 0.39996 0.063327 0 1 1 1
v -0.39996 0.063327 0 1 1 1

vn 0 -1 0
vn 1 0 0
vn -1 0 0
vn 0 1 0

vt 0.71875 0.025
vt 0.71875 0.225
vt 0.71875 0.1113636
vt 0.15625 0.375

usemtl colormap

f 3/1/1 2/1/1 1/1/1
f 2/1/1 3/1/1 4/1/1
f 5/1/1 4/1/1 3/1/1
f 4/1/1 5/1/1 6/1/1
f 4/1/2 7/2/2 2/1/2
f 7/2/2 4/1/2 8/2/2
f 6/1/2 8/2/2 4/1/2
f 8/2/2 6/1/2 9/2/2
f 11/2/3 1/1/3 10/2/3
f 1/1/3 11/2/3 3/1/3
f 12/2/3 3/1/3 11/2/3
f 3/1/3 12/2/3 5/1/3
f 7/2/4 14/2/4 13/2/4
f 14/2/4 7/2/4 8/2/4
f 8/2/4 15/2/4 14/2/4
f 15/2/4 8/2/4 9/2/4
f 14/2/3 16/3/3 13/2/3
f 16/3/3 14/2/3 17/3/3
f 15/2/3 17/3/3 14/2/3
f 17/3/3 15/2/3 18/3/3
f 21/3/2 20/2/2 19/3/2
f 20/2/2 21/3/2 22/2/2
f 23/3/2 22/2/2 21/3/2
f 22/2/2 23/3/2 24/2/2
f 20/2/4 11/2/4 10/2/4
f 11/2/4 20/2/4 22/2/4
f 22/2/4 12/2/4 11/2/4
f 12/2/4 22/2/4 24/2/4
f 21/4/4 16/4/4 25/4/4
f 16/4/4 21/4/4 19/4/4
f 23/4/4 26/4/4 18/4/4
f 26/4/4 23/4/4 27/4/4

g spline-default




usemtl colormap

f 3/1/1 2/1/1 1/1/1
f 2/1/1 3/1/1 4/1/1
f 5/1/1 4/1/1 3/1/1
f 4/1/1 5/1/1 6/1/1
f 4/1/2 7/2/2 2/1/2
f 7/2/2 4/1/2 8/2/2
f 6/1/2 8/2/2 4/1/2
f 8/2/2 6/1/2 9/2/2
f 11/2/3 1/1/3 10/2/3
f 1/1/3 11/2/3 3/1/3
f 12/2/3 3/1/3 11/2/3
f 3/1/3 12/2/3 5/1/3
f 7/2/4 14/2/4 13/2/4
f 14/2/4 7/2/4 8/2/4
f 8/2/4 15/2/4 14/2/4
f 15/2/4 8/2/4 9/2/4
f 14/2/3 16/3/3 13/2/3
f 16/3/3 14/2/3 17/3/3
f 15/2/3 17/3/3 14/2/3
f 17/3/3 15/2/3 18/3/3
f 21/3/2 20/2/2 19/3/2
f 20/2/2 21/3/2 22/2/2
f 23/3/2 22/2/2 21/3/2
f 22/2/2 23/3/2 24/2/2
f 20/2/4 11/2/4 10/2/4
f 11/2/4 20/2/4 22/2/4
f 22/2/4 12/2/4 11/2/4
f 12/2/4 22/2/4 24/2/4
f 21/4/4 16/4/4 25/4/4
f 16/4/4 21/4/4 19/4/4
f 23/4/4 26/4/4 18/4/4
f 26/4/4 23/4/4 27/4/4

