# Created by Kenney (www.kenney.nl)

mtllib spline-default-straight-hill-complete.mtl

g spline-default-straight-hill-complete

v -0.4999499 0.07013154 0.8310194 1 1 1
v 0.4999499 0.07013154 0.8310194 1 1 1
v -0.4999499 0.0159961 0.417501 1 1 1
v 0.4999499 0.0159961 0.417501 1 1 1
v -0.4999499 0 4.291534E-06 1 1 1
v 0.4999499 0 4.291534E-06 1 1 1
v 0.4999499 0.2143055 0.8041739 1 1 1
v 0.4999499 0.1621758 0.4057398 1 1 1
v 0.4999499 0.146652 4.291534E-06 1 1 1
v -0.4999499 0.2143055 0.8041739 1 1 1
v -0.4999499 0.1621758 0.4057398 1 1 1
v -0.4999499 0.146652 4.291534E-06 1 1 1
v 0.39996 0.2143055 0.8041739 1 1 1
v 0.39996 0.1621758 0.4057398 1 1 1
v 0.39996 0.146652 4.291534E-06 1 1 1
v 0.39996 0.1323885 0.819427 1 1 1
v 0.39996 0.07911909 0.4124222 1 1 1
v 0.39996 0.06332695 4.291534E-06 1 1 1
v -0.39996 0.1323885 0.819427 1 1 1
v -0.39996 0.2143055 0.8041739 1 1 1
v -0.39996 0.07911909 0.4124222 1 1 1
v -0.39996 0.1621758 0.4057398 1 1 1
v -0.39996 0.06332695 4.291534E-06 1 1 1
v -0.39996 0.146652 4.291534E-06 1 1 1
v -0.4999499 0.3194773 1.624133 1 1 1
v 0.4999499 0.3194773 1.624133 1 1 1
v -0.4999499 0.1709521 1.235209 1 1 1
v 0.4999499 0.1709521 1.235209 1 1 1
v 0.4999499 0.4535565 1.564723 1 1 1
v 0.4999499 0.3107742 1.190975 1 1 1
v -0.4999499 0.4535565 1.564723 1 1 1
v -0.4999499 0.3107742 1.190975 1 1 1
v 0.39996 0.4535565 1.564723 1 1 1
v 0.39996 0.3107742 1.190975 1 1 1
v 0.39996 0.3773751 1.598479 1 1 1
v 0.39996 0.2313299 1.216107 1 1 1
v -0.39996 0.3773751 1.598479 1 1 1
v -0.39996 0.4535565 1.564723 1 1 1
v -0.39996 0.2313299 1.216107 1 1 1
v -0.39996 0.3107742 1.190975 1 1 1
v -0.4999499 0.6805227 2.375867 1 1 1
v 0.4999499 0.6805227 2.375867 1 1 1
v -0.4999499 0.5 2 1 1 1
v 0.4999499 0.5 2 1 1 1
v 0.4999499 0.814602 2.316457 1 1 1
v 0.4999499 0.6311696 1.934415 1 1 1
v -0.4999499 0.814602 2.316457 1 1 1
v -0.4999499 0.6311696 1.934415 1 1 1
v 0.39996 0.814602 2.316457 1 1 1
v 0.39996 0.6311696 1.934415 1 1 1
v 0.39996 0.7384205 2.350212 1 1 1
v 0.39996 0.5566413 1.971679 1 1 1
v -0.39996 0.7384205 2.350212 1 1 1
v -0.39996 0.814602 2.316457 1 1 1
v -0.39996 0.5566413 1.971679 1 1 1
v -0.39996 0.6311696 1.934415 1 1 1
v -0.4999499 0.9298685 3.168981 1 1 1
v 0.4999499 0.9298685 3.168981 1 1 1
v -0.4999499 0.8290479 2.764792 1 1 1
v 0.4999499 0.8290479 2.764792 1 1 1
v 0.4999499 1.074042 3.142136 1 1 1
v 0.4999499 0.96887 2.720558 1 1 1
v -0.4999499 1.074042 3.142136 1 1 1
v -0.4999499 0.96887 2.720558 1 1 1
v 0.39996 1.074042 3.142136 1 1 1
v 0.39996 0.96887 2.720558 1 1 1
v 0.39996 0.9921253 3.157389 1 1 1
v 0.39996 0.8894258 2.745691 1 1 1
v -0.39996 0.9921253 3.157389 1 1 1
v -0.39996 1.074042 3.142136 1 1 1
v -0.39996 0.8894258 2.745691 1 1 1
v -0.39996 0.96887 2.720558 1 1 1
v -0.4999499 1 3.999996 1 1 1
v 0.4999499 1 3.999996 1 1 1
v -0.4999499 0.984004 3.582499 1 1 1
v 0.4999499 0.984004 3.582499 1 1 1
v 0.4999499 1.146652 3.999996 1 1 1
v 0.4999499 1.130184 3.570738 1 1 1
v -0.4999499 1.146652 3.999996 1 1 1
v -0.4999499 1.130184 3.570738 1 1 1
v 0.39996 1.146652 3.999996 1 1 1
v 0.39996 1.130184 3.570738 1 1 1
v 0.39996 1.063327 3.999996 1 1 1
v 0.39996 1.047127 3.577421 1 1 1
v -0.39996 1.063327 3.999996 1 1 1
v -0.39996 1.146652 3.999996 1 1 1
v -0.39996 1.047127 3.577421 1 1 1
v -0.39996 1.130184 3.570738 1 1 1
v -0.39996 0.146652 -2.887646E-15 1 1 1
v -0.49995 0.146652 -2.887646E-15 1 1 1
v -0.39996 0.06332701 -2.887646E-15 1 1 1
v -0.49995 0 -2.887646E-15 1 1 1
v 0.49995 0 2.887646E-15 1 1 1
v 0.39996 0.06332701 0 1 1 1
v 0.49995 0.146652 2.887646E-15 1 1 1
v 0.39996 0.146652 0 1 1 1
v 0.39996 1.146652 4 1 1 1
v 0.49995 1.146652 4 1 1 1
v 0.39996 1.063327 4 1 1 1
v 0.49995 1 4 1 1 1
v -0.49995 1 4 1 1 1
v -0.39996 1.063327 4 1 1 1
v -0.49995 1.146652 4 1 1 1
v -0.39996 1.146652 4 1 1 1

vn 0 -0.9831028 0.1830544
vn 0 -0.9967791 0.08019556
vn 0 -1 7.192706E-07
vn 1 0 0
vn -1 0 0
vn 0 0.9831028 -0.1830544
vn 0 0.9967791 -0.08019556
vn 0 1 -7.192706E-07
vn 0 -0.9142686 0.4051086
vn 0 -0.9534276 0.301622
vn 0 0.9142686 -0.4051086
vn 0 0.9534276 -0.301622
vn 0 -0.9142686 0.4051087
vn 0 -0.8944272 0.4472136
vn 0 0.9142686 -0.4051087
vn 0 0.8944272 -0.4472136
vn 0 -0.9534276 0.301622
vn 0 0.9534276 -0.301622
vn 0 -1 7.152568E-07
vn 0 -0.9967791 0.08019554
vn 0 1 -7.152568E-07
vn 0 0.9967791 -0.08019554
vn 0 0 -1
vn 0 0 1

vt 0.71875 0.025
vt 0.71875 0.225
vt 0.71875 0.1113636
vt 0.15625 0.375

usemtl colormap

f 3/1/2 2/1/1 1/1/1
f 2/1/1 3/1/2 4/1/2
f 5/1/3 4/1/2 3/1/2
f 4/1/2 5/1/3 6/1/3
f 4/1/4 7/2/4 2/1/4
f 7/2/4 4/1/4 8/2/4
f 6/1/4 8/2/4 4/1/4
f 8/2/4 6/1/4 9/2/4
f 11/2/5 1/1/5 10/2/5
f 1/1/5 11/2/5 3/1/5
f 12/2/5 3/1/5 11/2/5
f 3/1/5 12/2/5 5/1/5
f 7/2/6 14/2/7 13/2/6
f 14/2/7 7/2/6 8/2/7
f 8/2/7 15/2/8 14/2/7
f 15/2/8 8/2/7 9/2/8
f 14/2/5 16/3/5 13/2/5
f 16/3/5 14/2/5 17/3/5
f 15/2/5 17/3/5 14/2/5
f 17/3/5 15/2/5 18/3/5
f 21/3/4 20/2/4 19/3/4
f 20/2/4 21/3/4 22/2/4
f 23/3/4 22/2/4 21/3/4
f 22/2/4 23/3/4 24/2/4
f 20/2/6 11/2/7 10/2/6
f 11/2/7 20/2/6 22/2/7
f 22/2/7 12/2/8 11/2/7
f 12/2/8 22/2/7 24/2/8
f 21/4/7 16/4/6 17/4/7
f 16/4/6 21/4/7 19/4/6
f 23/4/8 17/4/7 18/4/8
f 17/4/7 23/4/8 21/4/7
f 27/1/10 26/1/9 25/1/9
f 26/1/9 27/1/10 28/1/10
f 1/1/1 28/1/10 27/1/10
f 28/1/10 1/1/1 2/1/1
f 28/1/4 29/2/4 26/1/4
f 29/2/4 28/1/4 30/2/4
f 2/1/4 30/2/4 28/1/4
f 30/2/4 2/1/4 7/2/4
f 32/2/5 25/1/5 31/2/5
f 25/1/5 32/2/5 27/1/5
f 10/2/5 27/1/5 32/2/5
f 27/1/5 10/2/5 1/1/5
f 29/2/11 34/2/12 33/2/11
f 34/2/12 29/2/11 30/2/12
f 30/2/12 13/2/6 34/2/12
f 13/2/6 30/2/12 7/2/6
f 34/2/5 35/3/5 33/2/5
f 35/3/5 34/2/5 36/3/5
f 13/2/5 36/3/5 34/2/5
f 36/3/5 13/2/5 16/3/5
f 39/3/4 38/2/4 37/3/4
f 38/2/4 39/3/4 40/2/4
f 19/3/4 40/2/4 39/3/4
f 40/2/4 19/3/4 20/2/4
f 38/2/11 32/2/12 31/2/11
f 32/2/12 38/2/11 40/2/12
f 40/2/12 10/2/6 32/2/12
f 10/2/6 40/2/12 20/2/6
f 39/4/12 35/4/11 36/4/12
f 35/4/11 39/4/12 37/4/11
f 19/4/6 36/4/12 16/4/6
f 36/4/12 19/4/6 39/4/12
f 43/1/14 42/1/13 41/1/13
f 42/1/13 43/1/14 44/1/14
f 25/1/9 44/1/14 43/1/14
f 44/1/14 25/1/9 26/1/9
f 44/1/4 45/2/4 42/1/4
f 45/2/4 44/1/4 46/2/4
f 26/1/4 46/2/4 44/1/4
f 46/2/4 26/1/4 29/2/4
f 48/2/5 41/1/5 47/2/5
f 41/1/5 48/2/5 43/1/5
f 31/2/5 43/1/5 48/2/5
f 43/1/5 31/2/5 25/1/5
f 45/2/15 50/2/16 49/2/15
f 50/2/16 45/2/15 46/2/16
f 46/2/16 33/2/11 50/2/16
f 33/2/11 46/2/16 29/2/11
f 50/2/5 51/3/5 49/2/5
f 51/3/5 50/2/5 52/3/5
f 33/2/5 52/3/5 50/2/5
f 52/3/5 33/2/5 35/3/5
f 55/3/4 54/2/4 53/3/4
f 54/2/4 55/3/4 56/2/4
f 37/3/4 56/2/4 55/3/4
f 56/2/4 37/3/4 38/2/4
f 54/2/15 48/2/16 47/2/15
f 48/2/16 54/2/15 56/2/16
f 56/2/16 31/2/11 48/2/16
f 31/2/11 56/2/16 38/2/11
f 55/4/16 51/4/15 52/4/16
f 51/4/15 55/4/16 53/4/15
f 37/4/11 52/4/16 35/4/11
f 52/4/16 37/4/11 55/4/16
f 59/1/17 58/1/1 57/1/1
f 58/1/1 59/1/17 60/1/17
f 41/1/13 60/1/17 59/1/17
f 60/1/17 41/1/13 42/1/13
f 60/1/4 61/2/4 58/1/4
f 61/2/4 60/1/4 62/2/4
f 42/1/4 62/2/4 60/1/4
f 62/2/4 42/1/4 45/2/4
f 64/2/5 57/1/5 63/2/5
f 57/1/5 64/2/5 59/1/5
f 47/2/5 59/1/5 64/2/5
f 59/1/5 47/2/5 41/1/5
f 61/2/6 66/2/18 65/2/6
f 66/2/18 61/2/6 62/2/18
f 62/2/18 49/2/15 66/2/18
f 49/2/15 62/2/18 45/2/15
f 66/2/5 67/3/5 65/2/5
f 67/3/5 66/2/5 68/3/5
f 49/2/5 68/3/5 66/2/5
f 68/3/5 49/2/5 51/3/5
f 71/3/4 70/2/4 69/3/4
f 70/2/4 71/3/4 72/2/4
f 53/3/4 72/2/4 71/3/4
f 72/2/4 53/3/4 54/2/4
f 70/2/6 64/2/18 63/2/6
f 64/2/18 70/2/6 72/2/18
f 72/2/18 47/2/15 64/2/18
f 47/2/15 72/2/18 54/2/15
f 71/4/18 67/4/6 68/4/18
f 67/4/6 71/4/18 69/4/6
f 53/4/15 68/4/18 51/4/15
f 68/4/18 53/4/15 71/4/18
f 75/1/20 74/1/19 73/1/19
f 74/1/19 75/1/20 76/1/20
f 57/1/1 76/1/20 75/1/20
f 76/1/20 57/1/1 58/1/1
f 76/1/4 77/2/4 74/1/4
f 77/2/4 76/1/4 78/2/4
f 58/1/4 78/2/4 76/1/4
f 78/2/4 58/1/4 61/2/4
f 80/2/5 73/1/5 79/2/5
f 73/1/5 80/2/5 75/1/5
f 63/2/5 75/1/5 80/2/5
f 75/1/5 63/2/5 57/1/5
f 77/2/21 82/2/22 81/2/21
f 82/2/22 77/2/21 78/2/22
f 78/2/22 65/2/6 82/2/22
f 65/2/6 78/2/22 61/2/6
f 82/2/5 83/3/5 81/2/5
f 83/3/5 82/2/5 84/3/5
f 65/2/5 84/3/5 82/2/5
f 84/3/5 65/2/5 67/3/5
f 87/3/4 86/2/4 85/3/4
f 86/2/4 87/3/4 88/2/4
f 69/3/4 88/2/4 87/3/4
f 88/2/4 69/3/4 70/2/4
f 86/2/21 80/2/22 79/2/21
f 80/2/22 86/2/21 88/2/22
f 88/2/22 63/2/6 80/2/22
f 63/2/6 88/2/22 70/2/6
f 87/4/22 83/4/21 84/4/22
f 83/4/21 87/4/22 85/4/21
f 69/4/6 84/4/22 67/4/6
f 84/4/22 69/4/6 87/4/22
f 91/3/23 90/2/23 89/2/23
f 91/3/23 92/1/23 90/2/23
f 92/1/23 91/3/23 93/1/23
f 94/3/23 93/1/23 91/3/23
f 93/1/23 94/3/23 95/2/23
f 95/2/23 94/3/23 96/2/23
f 99/3/24 98/2/24 97/2/24
f 99/3/24 100/1/24 98/2/24
f 100/1/24 99/3/24 101/1/24
f 102/3/24 101/1/24 99/3/24
f 101/1/24 102/3/24 103/2/24
f 103/2/24 102/3/24 104/2/24

g spline-default-straight-hill-complete




usemtl colormap

f 3/1/2 2/1/1 1/1/1
f 2/1/1 3/1/2 4/1/2
f 5/1/3 4/1/2 3/1/2
f 4/1/2 5/1/3 6/1/3
f 4/1/4 7/2/4 2/1/4
f 7/2/4 4/1/4 8/2/4
f 6/1/4 8/2/4 4/1/4
f 8/2/4 6/1/4 9/2/4
f 11/2/5 1/1/5 10/2/5
f 1/1/5 11/2/5 3/1/5
f 12/2/5 3/1/5 11/2/5
f 3/1/5 12/2/5 5/1/5
f 7/2/6 14/2/7 13/2/6
f 14/2/7 7/2/6 8/2/7
f 8/2/7 15/2/8 14/2/7
f 15/2/8 8/2/7 9/2/8
f 14/2/5 16/3/5 13/2/5
f 16/3/5 14/2/5 17/3/5
f 15/2/5 17/3/5 14/2/5
f 17/3/5 15/2/5 18/3/5
f 21/3/4 20/2/4 19/3/4
f 20/2/4 21/3/4 22/2/4
f 23/3/4 22/2/4 21/3/4
f 22/2/4 23/3/4 24/2/4
f 20/2/6 11/2/7 10/2/6
f 11/2/7 20/2/6 22/2/7
f 22/2/7 12/2/8 11/2/7
f 12/2/8 22/2/7 24/2/8
f 21/4/7 16/4/6 17/4/7
f 16/4/6 21/4/7 19/4/6
f 23/4/8 17/4/7 18/4/8
f 17/4/7 23/4/8 21/4/7
f 27/1/10 26/1/9 25/1/9
f 26/1/9 27/1/10 28/1/10
f 1/1/1 28/1/10 27/1/10
f 28/1/10 1/1/1 2/1/1
f 28/1/4 29/2/4 26/1/4
f 29/2/4 28/1/4 30/2/4
f 2/1/4 30/2/4 28/1/4
f 30/2/4 2/1/4 7/2/4
f 32/2/5 25/1/5 31/2/5
f 25/1/5 32/2/5 27/1/5
f 10/2/5 27/1/5 32/2/5
f 27/1/5 10/2/5 1/1/5
f 29/2/11 34/2/12 33/2/11
f 34/2/12 29/2/11 30/2/12
f 30/2/12 13/2/6 34/2/12
f 13/2/6 30/2/12 7/2/6
f 34/2/5 35/3/5 33/2/5
f 35/3/5 34/2/5 36/3/5
f 13/2/5 36/3/5 34/2/5
f 36/3/5 13/2/5 16/3/5
f 39/3/4 38/2/4 37/3/4
f 38/2/4 39/3/4 40/2/4
f 19/3/4 40/2/4 39/3/4
f 40/2/4 19/3/4 20/2/4
f 38/2/11 32/2/12 31/2/11
f 32/2/12 38/2/11 40/2/12
f 40/2/12 10/2/6 32/2/12
f 10/2/6 40/2/12 20/2/6
f 39/4/12 35/4/11 36/4/12
f 35/4/11 39/4/12 37/4/11
f 19/4/6 36/4/12 16/4/6
f 36/4/12 19/4/6 39/4/12
f 43/1/14 42/1/13 41/1/13
f 42/1/13 43/1/14 44/1/14
f 25/1/9 44/1/14 43/1/14
f 44/1/14 25/1/9 26/1/9
f 44/1/4 45/2/4 42/1/4
f 45/2/4 44/1/4 46/2/4
f 26/1/4 46/2/4 44/1/4
f 46/2/4 26/1/4 29/2/4
f 48/2/5 41/1/5 47/2/5
f 41/1/5 48/2/5 43/1/5
f 31/2/5 43/1/5 48/2/5
f 43/1/5 31/2/5 25/1/5
f 45/2/15 50/2/16 49/2/15
f 50/2/16 45/2/15 46/2/16
f 46/2/16 33/2/11 50/2/16
f 33/2/11 46/2/16 29/2/11
f 50/2/5 51/3/5 49/2/5
f 51/3/5 50/2/5 52/3/5
f 33/2/5 52/3/5 50/2/5
f 52/3/5 33/2/5 35/3/5
f 55/3/4 54/2/4 53/3/4
f 54/2/4 55/3/4 56/2/4
f 37/3/4 56/2/4 55/3/4
f 56/2/4 37/3/4 38/2/4
f 54/2/15 48/2/16 47/2/15
f 48/2/16 54/2/15 56/2/16
f 56/2/16 31/2/11 48/2/16
f 31/2/11 56/2/16 38/2/11
f 55/4/16 51/4/15 52/4/16
f 51/4/15 55/4/16 53/4/15
f 37/4/11 52/4/16 35/4/11
f 52/4/16 37/4/11 55/4/16
f 59/1/17 58/1/1 57/1/1
f 58/1/1 59/1/17 60/1/17
f 41/1/13 60/1/17 59/1/17
f 60/1/17 41/1/13 42/1/13
f 60/1/4 61/2/4 58/1/4
f 61/2/4 60/1/4 62/2/4
f 42/1/4 62/2/4 60/1/4
f 62/2/4 42/1/4 45/2/4
f 64/2/5 57/1/5 63/2/5
f 57/1/5 64/2/5 59/1/5
f 47/2/5 59/1/5 64/2/5
f 59/1/5 47/2/5 41/1/5
f 61/2/6 66/2/18 65/2/6
f 66/2/18 61/2/6 62/2/18
f 62/2/18 49/2/15 66/2/18
f 49/2/15 62/2/18 45/2/15
f 66/2/5 67/3/5 65/2/5
f 67/3/5 66/2/5 68/3/5
f 49/2/5 68/3/5 66/2/5
f 68/3/5 49/2/5 51/3/5
f 71/3/4 70/2/4 69/3/4
f 70/2/4 71/3/4 72/2/4
f 53/3/4 72/2/4 71/3/4
f 72/2/4 53/3/4 54/2/4
f 70/2/6 64/2/18 63/2/6
f 64/2/18 70/2/6 72/2/18
f 72/2/18 47/2/15 64/2/18
f 47/2/15 72/2/18 54/2/15
f 71/4/18 67/4/6 68/4/18
f 67/4/6 71/4/18 69/4/6
f 53/4/15 68/4/18 51/4/15
f 68/4/18 53/4/15 71/4/18
f 75/1/20 74/1/19 73/1/19
f 74/1/19 75/1/20 76/1/20
f 57/1/1 76/1/20 75/1/20
f 76/1/20 57/1/1 58/1/1
f 76/1/4 77/2/4 74/1/4
f 77/2/4 76/1/4 78/2/4
f 58/1/4 78/2/4 76/1/4
f 78/2/4 58/1/4 61/2/4
f 80/2/5 73/1/5 79/2/5
f 73/1/5 80/2/5 75/1/5
f 63/2/5 75/1/5 80/2/5
f 75/1/5 63/2/5 57/1/5
f 77/2/21 82/2/22 81/2/21
f 82/2/22 77/2/21 78/2/22
f 78/2/22 65/2/6 82/2/22
f 65/2/6 78/2/22 61/2/6
f 82/2/5 83/3/5 81/2/5
f 83/3/5 82/2/5 84/3/5
f 65/2/5 84/3/5 82/2/5
f 84/3/5 65/2/5 67/3/5
f 87/3/4 86/2/4 85/3/4
f 86/2/4 87/3/4 88/2/4
f 69/3/4 88/2/4 87/3/4
f 88/2/4 69/3/4 70/2/4
f 86/2/21 80/2/22 79/2/21
f 80/2/22 86/2/21 88/2/22
f 88/2/22 63/2/6 80/2/22
f 63/2/6 88/2/22 70/2/6
f 87/4/22 83/4/21 84/4/22
f 83/4/21 87/4/22 85/4/21
f 69/4/6 84/4/22 67/4/6
f 84/4/22 69/4/6 87/4/22
f 91/3/23 90/2/23 89/2/23
f 91/3/23 92/1/23 90/2/23
f 92/1/23 91/3/23 93/1/23
f 94/3/23 93/1/23 91/3/23
f 93/1/23 94/3/23 95/2/23
f 95/2/23 94/3/23 96/2/23
f 99/3/24 98/2/24 97/2/24
f 99/3/24 100/1/24 98/2/24
f 100/1/24 99/3/24 101/1/24
f 102/3/24 101/1/24 99/3/24
f 101/1/24 102/3/24 103/2/24
f 103/2/24 102/3/24 104/2/24

