# Created by Kenney (www.kenney.nl)

mtllib spline-default-straight-hill-beginning.mtl

g spline-default-straight-hill-beginning

v -0.4999504 0.01972961 0.8442397 1 1 1
v 0.4999504 0.01978076 0.8442373 1 1 1
v -0.4999504 0.004613876 0.4221992 1 1 1
v 0.4999504 0.004638791 0.4221988 1 1 1
v -0.4999504 0 4.291534E-06 1 1 1
v 0.4999504 0 4.291534E-06 1 1 1
v 0.4999428 0.1662499 0.836915 1 1 1
v 0.4999466 0.1512533 0.4188838 1 1 1
v 0.4999504 0.146652 4.291534E-06 1 1 1
v -0.4999571 0.1661987 0.8369179 1 1 1
v -0.4999533 0.1512284 0.4188843 1 1 1
v -0.4999504 0.146652 4.291534E-06 1 1 1
v 0.3999529 0.1662447 0.8369155 1 1 1
v 0.3999567 0.1512508 0.4188838 1 1 1
v 0.3999596 0.146652 4.291534E-06 1 1 1
v 0.3999567 0.08302367 0.8410759 1 1 1
v 0.3999586 0.06794715 0.4207673 1 1 1
v 0.3999596 0.06332695 4.291534E-06 1 1 1
v -0.3999634 0.08298278 0.8410778 1 1 1
v -0.3999672 0.1662039 0.8369174 1 1 1
v -0.3999615 0.06792724 0.4207678 1 1 1
v -0.3999634 0.1512309 0.4188843 1 1 1
v -0.3999596 0.06332695 4.291534E-06 1 1 1
v -0.3999596 0.146652 4.291534E-06 1 1 1
v -0.4999504 0.09111679 1.684839 1 1 1
v 0.4999504 0.09122491 1.684826 1 1 1
v -0.4999504 0.04759109 1.265349 1 1 1
v 0.4999504 0.04766989 1.265343 1 1 1
v 0.4999342 0.2367328 1.666543 1 1 1
v 0.499938 0.193812 1.253124 1 1 1
v -0.4999657 0.2366247 1.666557 1 1 1
v -0.4999619 0.1937331 1.25313 1 1 1
v 0.3999443 0.236722 1.666545 1 1 1
v 0.3999481 0.193804 1.253124 1 1 1
v 0.3999529 0.154047 1.676932 1 1 1
v 0.3999548 0.1107688 1.260067 1 1 1
v -0.3999672 0.1539606 1.676943 1 1 1
v -0.3999758 0.2366356 1.666555 1 1 1
v -0.3999653 0.1107057 1.260072 1 1 1
v -0.399972 0.193741 1.253129 1 1 1
v -0.4999504 0.2421744 2.514888 1 1 1
v 0.4999504 0.2423444 2.514846 1 1 1
v -0.4999504 0.1542549 2.102104 1 1 1
v 0.4999504 0.1543936 2.102079 1 1 1
v 0.4999247 0.3846115 2.479252 1 1 1
v 0.4999294 0.2987399 2.076176 1 1 1
v -0.4999762 0.3844414 2.479295 1 1 1
v -0.4999704 0.2986013 2.076201 1 1 1
v 0.3999348 0.3845944 2.479257 1 1 1
v 0.3999395 0.2987261 2.076179 1 1 1
v 0.3999491 0.303761 2.49948 1 1 1
v 0.399951 0.216711 2.090896 1 1 1
v -0.399971 0.3036249 2.499514 1 1 1
v -0.3999853 0.3844584 2.479291 1 1 1
v -0.3999691 0.2166002 2.090916 1 1 1
v -0.3999805 0.2986151 2.076199 1 1 1
v 0.399951 0.216711 2.090896 1 1 1
v -0.4999504 0.5215456 3.309759 1 1 1
v 0.4999504 0.5217741 3.309649 1 1 1
v -0.4999504 0.3616395 2.919335 1 1 1
v 0.4999504 0.3618406 2.919266 1 1 1
v 0.4999132 0.6538599 3.245929 1 1 1
v 0.4999189 0.5004191 2.871278 1 1 1
v -0.4999876 0.6536313 3.246039 1 1 1
v -0.4999809 0.500218 2.871347 1 1 1
v 0.3999224 0.653837 3.24594 1 1 1
v 0.399929 0.500399 2.871285 1 1 1
v 0.3999443 0.5787883 3.282144 1 1 1
v 0.3999462 0.4216613 2.898551 1 1 1
v -0.3999758 0.5786055 3.282232 1 1 1
v -0.3999968 0.6536542 3.246028 1 1 1
v -0.3999739 0.4215003 2.898606 1 1 1
v -0.399991 0.5002382 2.87134 1 1 1
v -0.3999739 0.4215004 2.898606 1 1 1
v -0.4999504 0.9999969 3.999997 1 1 1
v 0.4999504 0.9999969 3.999997 1 1 1
v -0.4999504 0.7315423 3.675109 1 1 1
v 0.4999504 0.7317884 3.67494 1 1 1
v 0.4999504 1.103696 3.896298 1 1 1
v 0.4999065 0.8528184 3.592124 1 1 1
v -0.4999504 1.103696 3.896298 1 1 1
v -0.4999933 0.8525724 3.592292 1 1 1
v 0.3999596 1.103696 3.896298 1 1 1
v 0.3999166 0.8527938 3.592141 1 1 1
v 0.3999596 1.044776 3.955218 1 1 1
v 0.3999414 0.7840267 3.639196 1 1 1
v -0.3999596 1.044776 3.955218 1 1 1
v -0.3999596 1.103696 3.896298 1 1 1
v -0.3999786 0.7838299 3.63933 1 1 1
v -0.4000034 0.852597 3.592276 1 1 1
v 0.3999414 0.7840266 3.639196 1 1 1
v -0.39996 0.146652 -2.887646E-15 1 1 1
v -0.49995 0.146652 -2.887646E-15 1 1 1
v -0.39996 0.06332701 -2.887646E-15 1 1 1
v -0.49995 0 -2.887646E-15 1 1 1
v 0.49995 0 2.887646E-15 1 1 1
v 0.39996 0.06332701 0 1 1 1
v 0.49995 0.146652 2.887646E-15 1 1 1
v 0.39996 0.146652 0 1 1 1
v 0.39996 1.103699 3.896301 1 1 1
v 0.49995 1.103699 3.896301 1 1 1
v 0.39996 1.044779 3.955221 1 1 1
v 0.49995 1 4 1 1 1
v -0.49995 1 4 1 1 1
v -0.39996 1.044779 3.955221 1 1 1
v -0.49995 1.103699 3.896301 1 1 1
v -0.39996 1.103699 3.896301 1 1 1

vn 5.125063E-05 -0.9987528 0.04992803
vn 2.492945E-05 -0.9997445 0.02260518
vn 2.458389E-10 -1 2.085473E-07
vn 1 5.118671E-05 -2.558843E-06
vn 1 2.492308E-05 -5.635347E-07
vn 1 2.458389E-10 -5.126905E-17
vn -1 -5.118671E-05 2.558843E-06
vn -1 -2.492308E-05 5.635347E-07
vn -1 -2.458389E-10 5.126905E-17
vn -5.125063E-05 0.9987528 -0.04992803
vn -2.492945E-05 0.9997445 -0.02260518
vn -2.458389E-10 1 -2.085473E-07
vn 0.0001088868 -0.9921989 0.124665
vn 7.915149E-05 -0.9965228 0.08332065
vn 1 0.0001080373 -1.357437E-05
vn 1 7.887627E-05 -6.594954E-06
vn -1 -0.0001080373 1.357437E-05
vn -1 -7.887627E-05 6.594954E-06
vn -0.0001088868 0.9921989 -0.124665
vn -7.915149E-05 0.9965228 -0.08332065
vn 0.0001753042 -0.9700996 0.242707
vn 0.0001408135 -0.984278 0.1766264
vn 0.0001408135 -0.984278 0.1766265
vn 1 0.0001700626 -4.254757E-05
vn 1 0.0001385997 -2.48714E-05
vn -1 -0.0001700626 4.254757E-05
vn -1 -0.0001385997 2.487139E-05
vn -0.0001753042 0.9700996 -0.242707
vn -0.0001408135 0.984278 -0.1766265
vn -1 -0.0001385997 2.48714E-05
vn 1 0.0001385997 -2.487139E-05
vn -0.0001408135 0.984278 -0.1766264
vn 0.0002536295 -0.9006742 0.4344951
vn 0.000212767 -0.9449477 0.3272212
vn 0.000212767 -0.9449477 0.3272213
vn 0.9999999 0.0002284376 -0.0001102008
vn 1 0.0002010537 -6.962191E-05
vn -0.9999999 -0.0002284376 0.0001102008
vn -1 -0.0002010537 6.962189E-05
vn -0.0002536295 0.9006742 -0.4344951
vn -0.000212767 0.9449477 -0.3272213
vn -1 -0.0002010537 6.962191E-05
vn 1 0.0002010537 -6.962189E-05
vn -0.000212767 0.9449477 -0.3272212
vn 1.539572E-08 -0.707108 0.7071056
vn 0.0002978958 -0.8252873 0.5647131
vn 1 1.088644E-08 -1.08864E-08
vn 0.9999999 0.0002458497 -0.0001682256
vn -1 -1.088644E-08 1.08864E-08
vn -0.9999999 -0.0002458497 0.0001682256
vn -1.539572E-08 0.707108 -0.7071056
vn -0.0002978958 0.8252873 -0.5647131
vn 0 0 -1
vn 0 0.7071068 0.7071067

vt 0.71875 0.025
vt 0.71875 0.225
vt 0.71875 0.1113636
vt 0.15625 0.375

usemtl colormap

f 3/1/2 2/1/1 1/1/1
f 2/1/1 3/1/2 4/1/2
f 5/1/3 4/1/2 3/1/2
f 4/1/2 5/1/3 6/1/3
f 4/1/5 7/2/4 2/1/4
f 7/2/4 4/1/5 8/2/5
f 6/1/6 8/2/5 4/1/5
f 8/2/5 6/1/6 9/2/6
f 11/2/8 1/1/7 10/2/7
f 1/1/7 11/2/8 3/1/8
f 12/2/9 3/1/8 11/2/8
f 3/1/8 12/2/9 5/1/9
f 7/2/10 14/2/11 13/2/10
f 14/2/11 7/2/10 8/2/11
f 8/2/11 15/2/12 14/2/11
f 15/2/12 8/2/11 9/2/12
f 14/2/8 16/3/7 13/2/7
f 16/3/7 14/2/8 17/3/8
f 15/2/9 17/3/8 14/2/8
f 17/3/8 15/2/9 18/3/9
f 21/3/5 20/2/4 19/3/4
f 20/2/4 21/3/5 22/2/5
f 23/3/6 22/2/5 21/3/5
f 22/2/5 23/3/6 24/2/6
f 20/2/10 11/2/11 10/2/10
f 11/2/11 20/2/10 22/2/11
f 22/2/11 12/2/12 11/2/11
f 12/2/12 22/2/11 24/2/12
f 21/4/11 16/4/10 17/4/11
f 16/4/10 21/4/11 19/4/10
f 23/4/12 17/4/11 18/4/12
f 17/4/11 23/4/12 21/4/11
f 27/1/14 26/1/13 25/1/13
f 26/1/13 27/1/14 28/1/14
f 1/1/1 28/1/14 27/1/14
f 28/1/14 1/1/1 2/1/1
f 28/1/16 29/2/15 26/1/15
f 29/2/15 28/1/16 30/2/16
f 2/1/4 30/2/16 28/1/16
f 30/2/16 2/1/4 7/2/4
f 32/2/18 25/1/17 31/2/17
f 25/1/17 32/2/18 27/1/18
f 10/2/7 27/1/18 32/2/18
f 27/1/18 10/2/7 1/1/7
f 29/2/19 34/2/20 33/2/19
f 34/2/20 29/2/19 30/2/20
f 30/2/20 13/2/10 34/2/20
f 13/2/10 30/2/20 7/2/10
f 34/2/18 35/3/17 33/2/17
f 35/3/17 34/2/18 36/3/18
f 13/2/7 36/3/18 34/2/18
f 36/3/18 13/2/7 16/3/7
f 39/3/16 38/2/15 37/3/15
f 38/2/15 39/3/16 40/2/16
f 19/3/4 40/2/16 39/3/16
f 40/2/16 19/3/4 20/2/4
f 38/2/19 32/2/20 31/2/19
f 32/2/20 38/2/19 40/2/20
f 40/2/20 10/2/10 32/2/20
f 10/2/10 40/2/20 20/2/10
f 39/4/20 35/4/19 36/4/20
f 35/4/19 39/4/20 37/4/19
f 19/4/10 36/4/20 16/4/10
f 36/4/20 19/4/10 39/4/20
f 43/1/22 42/1/21 41/1/21
f 42/1/21 43/1/22 44/1/23
f 25/1/13 44/1/23 43/1/22
f 44/1/23 25/1/13 26/1/13
f 44/1/25 45/2/24 42/1/24
f 45/2/24 44/1/25 46/2/25
f 26/1/15 46/2/25 44/1/25
f 46/2/25 26/1/15 29/2/15
f 48/2/27 41/1/26 47/2/26
f 41/1/26 48/2/27 43/1/27
f 31/2/17 43/1/27 48/2/27
f 43/1/27 31/2/17 25/1/17
f 45/2/28 50/2/29 49/2/28
f 50/2/29 45/2/28 46/2/29
f 46/2/29 33/2/19 50/2/29
f 33/2/19 46/2/29 29/2/19
f 50/2/30 51/3/26 49/2/26
f 51/3/26 50/2/30 52/3/30
f 33/2/17 52/3/30 50/2/30
f 52/3/30 33/2/17 35/3/17
f 55/3/31 54/2/24 53/3/24
f 54/2/24 55/3/31 56/2/31
f 37/3/15 56/2/31 55/3/31
f 56/2/31 37/3/15 38/2/15
f 54/2/28 48/2/32 47/2/28
f 48/2/32 54/2/28 56/2/32
f 56/2/32 31/2/19 48/2/32
f 31/2/19 56/2/32 38/2/19
f 55/4/32 51/4/28 52/4/29
f 51/4/28 55/4/32 53/4/28
f 37/4/19 57/4/32 35/4/19
f 57/4/32 37/4/19 55/4/32
f 60/1/34 59/1/33 58/1/33
f 59/1/33 60/1/34 61/1/35
f 41/1/21 61/1/35 60/1/34
f 61/1/35 41/1/21 42/1/21
f 61/1/37 62/2/36 59/1/36
f 62/2/36 61/1/37 63/2/37
f 42/1/24 63/2/37 61/1/37
f 63/2/37 42/1/24 45/2/24
f 65/2/39 58/1/38 64/2/38
f 58/1/38 65/2/39 60/1/39
f 47/2/26 60/1/39 65/2/39
f 60/1/39 47/2/26 41/1/26
f 62/2/40 67/2/41 66/2/40
f 67/2/41 62/2/40 63/2/41
f 63/2/41 49/2/28 67/2/41
f 49/2/28 63/2/41 45/2/28
f 67/2/42 68/3/38 66/2/38
f 68/3/38 67/2/42 69/3/42
f 49/2/26 69/3/42 67/2/42
f 69/3/42 49/2/26 51/3/26
f 72/3/43 71/2/36 70/3/36
f 71/2/36 72/3/43 73/2/43
f 53/3/24 73/2/43 72/3/43
f 73/2/43 53/3/24 54/2/24
f 71/2/40 65/2/44 64/2/40
f 65/2/44 71/2/40 73/2/44
f 73/2/44 47/2/28 65/2/44
f 47/2/28 73/2/44 54/2/28
f 72/4/44 68/4/40 69/4/41
f 68/4/40 72/4/44 70/4/40
f 53/4/28 69/4/41 51/4/28
f 69/4/41 53/4/28 74/4/41
f 77/1/46 76/1/45 75/1/45
f 76/1/45 77/1/46 78/1/46
f 58/1/33 78/1/46 77/1/46
f 78/1/46 58/1/33 59/1/33
f 78/1/48 79/2/47 76/1/47
f 79/2/47 78/1/48 80/2/48
f 59/1/36 80/2/48 78/1/48
f 80/2/48 59/1/36 62/2/36
f 82/2/50 75/1/49 81/2/49
f 75/1/49 82/2/50 77/1/50
f 64/2/38 77/1/50 82/2/50
f 77/1/50 64/2/38 58/1/38
f 79/2/51 84/2/52 83/2/51
f 84/2/52 79/2/51 80/2/52
f 80/2/52 66/2/40 84/2/52
f 66/2/40 80/2/52 62/2/40
f 84/2/50 85/3/49 83/2/49
f 85/3/49 84/2/50 86/3/50
f 66/2/38 86/3/50 84/2/50
f 86/3/50 66/2/38 68/3/38
f 89/3/48 88/2/47 87/3/47
f 88/2/47 89/3/48 90/2/48
f 70/3/36 90/2/48 89/3/48
f 90/2/48 70/3/36 71/2/36
f 88/2/51 82/2/52 81/2/51
f 82/2/52 88/2/51 90/2/52
f 90/2/52 64/2/40 82/2/52
f 64/2/40 90/2/52 71/2/40
f 89/4/52 85/4/51 86/4/52
f 85/4/51 89/4/52 87/4/51
f 70/4/40 91/4/52 68/4/40
f 91/4/52 70/4/40 89/4/52
f 94/3/53 93/2/53 92/2/53
f 94/3/53 95/1/53 93/2/53
f 95/1/53 94/3/53 96/1/53
f 97/3/53 96/1/53 94/3/53
f 96/1/53 97/3/53 98/2/53
f 98/2/53 97/3/53 99/2/53
f 102/3/54 101/2/54 100/2/54
f 102/3/54 103/1/54 101/2/54
f 103/1/54 102/3/54 104/1/54
f 105/3/54 104/1/54 102/3/54
f 104/1/54 105/3/54 106/2/54
f 106/2/54 105/3/54 107/2/54

g spline-default-straight-hill-beginning




usemtl colormap

f 3/1/2 2/1/1 1/1/1
f 2/1/1 3/1/2 4/1/2
f 5/1/3 4/1/2 3/1/2
f 4/1/2 5/1/3 6/1/3
f 4/1/5 7/2/4 2/1/4
f 7/2/4 4/1/5 8/2/5
f 6/1/6 8/2/5 4/1/5
f 8/2/5 6/1/6 9/2/6
f 11/2/8 1/1/7 10/2/7
f 1/1/7 11/2/8 3/1/8
f 12/2/9 3/1/8 11/2/8
f 3/1/8 12/2/9 5/1/9
f 7/2/10 14/2/11 13/2/10
f 14/2/11 7/2/10 8/2/11
f 8/2/11 15/2/12 14/2/11
f 15/2/12 8/2/11 9/2/12
f 14/2/8 16/3/7 13/2/7
f 16/3/7 14/2/8 17/3/8
f 15/2/9 17/3/8 14/2/8
f 17/3/8 15/2/9 18/3/9
f 21/3/5 20/2/4 19/3/4
f 20/2/4 21/3/5 22/2/5
f 23/3/6 22/2/5 21/3/5
f 22/2/5 23/3/6 24/2/6
f 20/2/10 11/2/11 10/2/10
f 11/2/11 20/2/10 22/2/11
f 22/2/11 12/2/12 11/2/11
f 12/2/12 22/2/11 24/2/12
f 21/4/11 16/4/10 17/4/11
f 16/4/10 21/4/11 19/4/10
f 23/4/12 17/4/11 18/4/12
f 17/4/11 23/4/12 21/4/11
f 27/1/14 26/1/13 25/1/13
f 26/1/13 27/1/14 28/1/14
f 1/1/1 28/1/14 27/1/14
f 28/1/14 1/1/1 2/1/1
f 28/1/16 29/2/15 26/1/15
f 29/2/15 28/1/16 30/2/16
f 2/1/4 30/2/16 28/1/16
f 30/2/16 2/1/4 7/2/4
f 32/2/18 25/1/17 31/2/17
f 25/1/17 32/2/18 27/1/18
f 10/2/7 27/1/18 32/2/18
f 27/1/18 10/2/7 1/1/7
f 29/2/19 34/2/20 33/2/19
f 34/2/20 29/2/19 30/2/20
f 30/2/20 13/2/10 34/2/20
f 13/2/10 30/2/20 7/2/10
f 34/2/18 35/3/17 33/2/17
f 35/3/17 34/2/18 36/3/18
f 13/2/7 36/3/18 34/2/18
f 36/3/18 13/2/7 16/3/7
f 39/3/16 38/2/15 37/3/15
f 38/2/15 39/3/16 40/2/16
f 19/3/4 40/2/16 39/3/16
f 40/2/16 19/3/4 20/2/4
f 38/2/19 32/2/20 31/2/19
f 32/2/20 38/2/19 40/2/20
f 40/2/20 10/2/10 32/2/20
f 10/2/10 40/2/20 20/2/10
f 39/4/20 35/4/19 36/4/20
f 35/4/19 39/4/20 37/4/19
f 19/4/10 36/4/20 16/4/10
f 36/4/20 19/4/10 39/4/20
f 43/1/22 42/1/21 41/1/21
f 42/1/21 43/1/22 44/1/23
f 25/1/13 44/1/23 43/1/22
f 44/1/23 25/1/13 26/1/13
f 44/1/25 45/2/24 42/1/24
f 45/2/24 44/1/25 46/2/25
f 26/1/15 46/2/25 44/1/25
f 46/2/25 26/1/15 29/2/15
f 48/2/27 41/1/26 47/2/26
f 41/1/26 48/2/27 43/1/27
f 31/2/17 43/1/27 48/2/27
f 43/1/27 31/2/17 25/1/17
f 45/2/28 50/2/29 49/2/28
f 50/2/29 45/2/28 46/2/29
f 46/2/29 33/2/19 50/2/29
f 33/2/19 46/2/29 29/2/19
f 50/2/30 51/3/26 49/2/26
f 51/3/26 50/2/30 52/3/30
f 33/2/17 52/3/30 50/2/30
f 52/3/30 33/2/17 35/3/17
f 55/3/31 54/2/24 53/3/24
f 54/2/24 55/3/31 56/2/31
f 37/3/15 56/2/31 55/3/31
f 56/2/31 37/3/15 38/2/15
f 54/2/28 48/2/32 47/2/28
f 48/2/32 54/2/28 56/2/32
f 56/2/32 31/2/19 48/2/32
f 31/2/19 56/2/32 38/2/19
f 55/4/32 51/4/28 52/4/29
f 51/4/28 55/4/32 53/4/28
f 37/4/19 57/4/32 35/4/19
f 57/4/32 37/4/19 55/4/32
f 60/1/34 59/1/33 58/1/33
f 59/1/33 60/1/34 61/1/35
f 41/1/21 61/1/35 60/1/34
f 61/1/35 41/1/21 42/1/21
f 61/1/37 62/2/36 59/1/36
f 62/2/36 61/1/37 63/2/37
f 42/1/24 63/2/37 61/1/37
f 63/2/37 42/1/24 45/2/24
f 65/2/39 58/1/38 64/2/38
f 58/1/38 65/2/39 60/1/39
f 47/2/26 60/1/39 65/2/39
f 60/1/39 47/2/26 41/1/26
f 62/2/40 67/2/41 66/2/40
f 67/2/41 62/2/40 63/2/41
f 63/2/41 49/2/28 67/2/41
f 49/2/28 63/2/41 45/2/28
f 67/2/42 68/3/38 66/2/38
f 68/3/38 67/2/42 69/3/42
f 49/2/26 69/3/42 67/2/42
f 69/3/42 49/2/26 51/3/26
f 72/3/43 71/2/36 70/3/36
f 71/2/36 72/3/43 73/2/43
f 53/3/24 73/2/43 72/3/43
f 73/2/43 53/3/24 54/2/24
f 71/2/40 65/2/44 64/2/40
f 65/2/44 71/2/40 73/2/44
f 73/2/44 47/2/28 65/2/44
f 47/2/28 73/2/44 54/2/28
f 72/4/44 68/4/40 69/4/41
f 68/4/40 72/4/44 70/4/40
f 53/4/28 69/4/41 51/4/28
f 69/4/41 53/4/28 74/4/41
f 77/1/46 76/1/45 75/1/45
f 76/1/45 77/1/46 78/1/46
f 58/1/33 78/1/46 77/1/46
f 78/1/46 58/1/33 59/1/33
f 78/1/48 79/2/47 76/1/47
f 79/2/47 78/1/48 80/2/48
f 59/1/36 80/2/48 78/1/48
f 80/2/48 59/1/36 62/2/36
f 82/2/50 75/1/49 81/2/49
f 75/1/49 82/2/50 77/1/50
f 64/2/38 77/1/50 82/2/50
f 77/1/50 64/2/38 58/1/38
f 79/2/51 84/2/52 83/2/51
f 84/2/52 79/2/51 80/2/52
f 80/2/52 66/2/40 84/2/52
f 66/2/40 80/2/52 62/2/40
f 84/2/50 85/3/49 83/2/49
f 85/3/49 84/2/50 86/3/50
f 66/2/38 86/3/50 84/2/50
f 86/3/50 66/2/38 68/3/38
f 89/3/48 88/2/47 87/3/47
f 88/2/47 89/3/48 90/2/48
f 70/3/36 90/2/48 89/3/48
f 90/2/48 70/3/36 71/2/36
f 88/2/51 82/2/52 81/2/51
f 82/2/52 88/2/51 90/2/52
f 90/2/52 64/2/40 82/2/52
f 64/2/40 90/2/52 71/2/40
f 89/4/52 85/4/51 86/4/52
f 85/4/51 89/4/52 87/4/51
f 70/4/40 91/4/52 68/4/40
f 91/4/52 70/4/40 89/4/52
f 94/3/53 93/2/53 92/2/53
f 94/3/53 95/1/53 93/2/53
f 95/1/53 94/3/53 96/1/53
f 97/3/53 96/1/53 94/3/53
f 96/1/53 97/3/53 98/2/53
f 98/2/53 97/3/53 99/2/53
f 102/3/54 101/2/54 100/2/54
f 102/3/54 103/1/54 101/2/54
f 103/1/54 102/3/54 104/1/54
f 105/3/54 104/1/54 102/3/54
f 104/1/54 105/3/54 106/2/54
f 106/2/54 105/3/54 107/2/54

