# Created by Kenney (www.kenney.nl)

mtllib spline-default-corner-small-ramp.mtl

g spline-default-corner-small-ramp

v -0.6349163 0.1830446 0.5444137 1 1 1
v 0.258703 0.1571512 0.9922686 1 1 1
v -0.5352808 0.06459069 0.2745657 1 1 1
v 0.431206 0.03458905 0.5291302 1 1 1
v -0.4999499 3.576279E-07 2.145767E-06 1 1 1
v 0.4999499 -2.384186E-07 4.410744E-06 1 1 1
v 0.2848613 0.2944981 0.948015 1 1 1
v 0.4437325 0.1774386 0.4984075 1 1 1
v 0.4999502 0.1466517 4.053116E-06 1 1 1
v -0.608758 0.3203914 0.5001601 1 1 1
v -0.5227544 0.2074403 0.243843 1 1 1
v -0.4999499 0.1466523 1.907349E-06 1 1 1
v 0.1954994 0.2970874 0.9032295 1 1 1
v 0.3470838 0.1804388 0.4729511 1 1 1
v 0.39996 0.1466517 3.814697E-06 1 1 1
v 0.1806369 0.2190495 0.9283736 1 1 1
v 0.3399665 0.09927428 0.4904071 1 1 1
v 0.39996 0.06332672 4.053116E-06 1 1 1
v -0.5342587 0.2397641 0.5700896 1 1 1
v -0.5193961 0.3178022 0.5449456 1 1 1
v -0.433223 0.1232755 0.2867556 1 1 1
v -0.4261057 0.2044401 0.2692995 1 1 1
v -0.39996 0.06332719 2.264977E-06 1 1 1
v -0.3999599 0.1466522 2.026558E-06 1 1 1
v -0.9785182 0.4999994 1.021482 1 1 1
v -0.2714818 0.5000006 1.728518 1 1 1
v -0.7864316 0.3341588 0.7963977 1 1 1
v 0.01932549 0.3207407 1.388323 1 1 1
v -0.2272646 0.6326523 1.6843 1 1 1
v 0.05628538 0.4545523 1.341044 1 1 1
v -0.9343011 0.6326511 0.9772646 1 1 1
v -0.7494717 0.4679704 0.7491193 1 1 1
v -0.2979684 0.6326522 1.613597 1 1 1
v -0.02429032 0.4558941 1.281852 1 1 1
v -0.3230916 0.557282 1.63872 1 1 1
v -0.04529023 0.3798648 1.308715 1 1 1
v -0.8887208 0.557281 1.073092 1 1 1
v -0.8635974 0.6326513 1.047968 1 1 1
v -0.6898959 0.3905993 0.8351746 1 1 1
v -0.668896 0.4666286 0.8083119 1 1 1
v -0.04528999 0.3798647 1.308714 1 1 1
v -1.455587 0.8169545 1.365084 1 1 1
v -1.007731 0.8428496 2.258703 1 1 1
v -1.203602 0.6658401 1.213568 1 1 1
v -0.6116768 0.6792603 2.019325 1 1 1
v -0.9634775 0.9801965 2.232544 1 1 1
v -0.5643988 0.8130718 1.982365 1 1 1
v -1.411333 0.9543014 1.338925 1 1 1
v -1.156324 0.7996517 1.176608 1 1 1
v -1.008263 0.977607 2.143182 1 1 1
v -0.6235912 0.8117299 1.901789 1 1 1
v -1.033407 0.899569 2.158045 1 1 1
v -0.6504538 0.7357006 1.92279 1 1 1
v -1.391691 0.8788528 1.44315 1 1 1
v -1.366548 0.9568909 1.428287 1 1 1
v -1.123994 0.7249645 1.278184 1 1 1
v -1.097132 0.8009938 1.257184 1 1 1
v -1.999998 0.9999996 1.50005 1 1 1
v -1.999995 1 2.49995 1 1 1
v -1.725434 0.9354086 1.464719 1 1 1
v -1.47087 0.9654117 2.431206 1 1 1
v -1.999995 1.146652 2.49995 1 1 1
v -1.440147 1.108261 2.418679 1 1 1
v -1.999998 1.146652 1.50005 1 1 1
v -1.694712 1.078258 1.452192 1 1 1
v -1.999995 1.146652 2.39996 1 1 1
v -1.465603 1.105261 2.322031 1 1 1
v -1.999995 1.063327 2.39996 1 1 1
v -1.483059 1.024096 2.329148 1 1 1
v -1.999998 1.063327 1.60004 1 1 1
v -1.999997 1.146652 1.60004 1 1 1
v -1.686711 1.000094 1.555959 1 1 1
v -1.669255 1.081258 1.548841 1 1 1
v -0.39996 0.146652 -2.887646E-15 1 1 1
v -0.49995 0.146652 -2.887646E-15 1 1 1
v -0.39996 0.06332701 -2.887646E-15 1 1 1
v -0.49995 0 -2.887646E-15 1 1 1
v 0.49995 0 2.887646E-15 1 1 1
v 0.39996 0.06332701 0 1 1 1
v 0.49995 0.146652 2.887646E-15 1 1 1
v 0.39996 0.146652 0 1 1 1
v -2 1.146652 2.39996 1 1 1
v -2 1.146652 2.49995 1 1 1
v -2 1.063327 2.39996 1 1 1
v -2 1 2.49995 1 1 1
v -2 0.9999999 1.50005 1 1 1
v -2 1.063327 1.60004 1 1 1
v -2 1.146652 1.50005 1 1 1
v -2 1.146652 1.60004 1 1 1

vn -0.1783697 -0.9365499 0.301759
vn -0.08541615 -0.974072 0.2094943
vn -6.090656E-07 -1 2.185581E-06
vn 0.8937087 -0.02589595 0.4478996
vn 0.9665835 -0.03000467 0.2545899
vn 1 -6.090609E-07 2.185584E-06
vn -0.8937087 0.02589595 -0.4478996
vn -0.9665835 0.03000467 -0.2545899
vn -1 6.090609E-07 -2.185584E-06
vn 0.1783697 0.9365499 -0.301759
vn 0.08541615 0.974072 -0.2094943
vn 6.090656E-07 1 -2.185581E-06
vn -0.3015105 -0.904534 0.3015123
vn -0.2520245 -0.9124429 0.3223843
vn -0.2520246 -0.9124429 0.3223843
vn 0.7071071 1.177192E-06 0.7071065
vn 0.8058378 -0.01341946 0.5919843
vn -0.7071071 -1.177192E-06 -0.7071065
vn -0.8058379 0.01341945 -0.5919842
vn 0.3015105 0.904534 -0.3015123
vn 0.2520246 0.9124429 -0.3223843
vn -0.8058378 0.01341946 -0.5919843
vn 0.8058379 -0.01341945 0.5919842
vn 0.2520245 0.9124429 -0.3223843
vn -0.3017582 -0.9365498 0.1783715
vn -0.322383 -0.9124429 0.2520263
vn 0.4479004 0.02589774 0.8937083
vn 0.5919849 0.01342146 0.8058373
vn -0.4479004 -0.02589774 -0.8937083
vn -0.5919849 -0.01342146 -0.8058373
vn 0.3017582 0.9365498 -0.1783715
vn 0.322383 0.9124429 -0.2520263
vn -2.304711E-06 -1 7.20561E-07
vn -0.2094939 -0.9740719 0.0854177
vn 2.741814E-06 7.205546E-07 1
vn 0.2545903 0.03000618 0.9665835
vn -2.741814E-06 -7.205546E-07 -1
vn -0.2545903 -0.03000618 -0.9665835
vn 2.304711E-06 1 -7.20561E-07
vn 0.2094939 0.9740719 -0.0854177
vn 0 0 -1
vn -0.9999999 0 3.576279E-07

vt 0.71875 0.025
vt 0.71875 0.225
vt 0.71875 0.1113636
vt 0.15625 0.375

usemtl colormap

f 3/1/2 2/1/1 1/1/1
f 2/1/1 3/1/2 4/1/2
f 5/1/3 4/1/2 3/1/2
f 4/1/2 5/1/3 6/1/3
f 4/1/5 7/2/4 2/1/4
f 7/2/4 4/1/5 8/2/5
f 6/1/6 8/2/5 4/1/5
f 8/2/5 6/1/6 9/2/6
f 11/2/8 1/1/7 10/2/7
f 1/1/7 11/2/8 3/1/8
f 12/2/9 3/1/8 11/2/8
f 3/1/8 12/2/9 5/1/9
f 7/2/10 14/2/11 13/2/10
f 14/2/11 7/2/10 8/2/11
f 8/2/11 15/2/12 14/2/11
f 15/2/12 8/2/11 9/2/12
f 14/2/8 16/3/7 13/2/7
f 16/3/7 14/2/8 17/3/8
f 15/2/9 17/3/8 14/2/8
f 17/3/8 15/2/9 18/3/9
f 21/3/5 20/2/4 19/3/4
f 20/2/4 21/3/5 22/2/5
f 23/3/6 22/2/5 21/3/5
f 22/2/5 23/3/6 24/2/6
f 20/2/10 11/2/11 10/2/10
f 11/2/11 20/2/10 22/2/11
f 22/2/11 12/2/12 11/2/11
f 12/2/12 22/2/11 24/2/12
f 21/4/11 16/4/10 17/4/11
f 16/4/10 21/4/11 19/4/10
f 23/4/12 17/4/11 18/4/12
f 17/4/11 23/4/12 21/4/11
f 27/1/14 26/1/13 25/1/13
f 26/1/13 27/1/14 28/1/15
f 1/1/1 28/1/15 27/1/14
f 28/1/15 1/1/1 2/1/1
f 28/1/17 29/2/16 26/1/16
f 29/2/16 28/1/17 30/2/17
f 2/1/4 30/2/17 28/1/17
f 30/2/17 2/1/4 7/2/4
f 32/2/19 25/1/18 31/2/18
f 25/1/18 32/2/19 27/1/19
f 10/2/7 27/1/19 32/2/19
f 27/1/19 10/2/7 1/1/7
f 29/2/20 34/2/21 33/2/20
f 34/2/21 29/2/20 30/2/21
f 30/2/21 13/2/10 34/2/21
f 13/2/10 30/2/21 7/2/10
f 34/2/22 35/3/18 33/2/18
f 35/3/18 34/2/22 36/3/22
f 13/2/7 36/3/22 34/2/22
f 36/3/22 13/2/7 16/3/7
f 39/3/23 38/2/16 37/3/16
f 38/2/16 39/3/23 40/2/23
f 19/3/4 40/2/23 39/3/23
f 40/2/23 19/3/4 20/2/4
f 38/2/20 32/2/24 31/2/20
f 32/2/24 38/2/20 40/2/24
f 40/2/24 10/2/10 32/2/24
f 10/2/10 40/2/24 20/2/10
f 39/4/24 35/4/20 36/4/21
f 35/4/20 39/4/24 37/4/20
f 19/4/10 41/4/24 16/4/10
f 41/4/24 19/4/10 39/4/24
f 44/1/26 43/1/25 42/1/25
f 43/1/25 44/1/26 45/1/26
f 25/1/13 45/1/26 44/1/26
f 45/1/26 25/1/13 26/1/13
f 45/1/28 46/2/27 43/1/27
f 46/2/27 45/1/28 47/2/28
f 26/1/16 47/2/28 45/1/28
f 47/2/28 26/1/16 29/2/16
f 49/2/30 42/1/29 48/2/29
f 42/1/29 49/2/30 44/1/30
f 31/2/18 44/1/30 49/2/30
f 44/1/30 31/2/18 25/1/18
f 46/2/31 51/2/32 50/2/31
f 51/2/32 46/2/31 47/2/32
f 47/2/32 33/2/20 51/2/32
f 33/2/20 47/2/32 29/2/20
f 51/2/30 52/3/29 50/2/29
f 52/3/29 51/2/30 53/3/30
f 33/2/18 53/3/30 51/2/30
f 53/3/30 33/2/18 35/3/18
f 56/3/28 55/2/27 54/3/27
f 55/2/27 56/3/28 57/2/28
f 37/3/16 57/2/28 56/3/28
f 57/2/28 37/3/16 38/2/16
f 55/2/31 49/2/32 48/2/31
f 49/2/32 55/2/31 57/2/32
f 57/2/32 31/2/20 49/2/32
f 31/2/20 57/2/32 38/2/20
f 56/4/32 52/4/31 53/4/32
f 52/4/31 56/4/32 54/4/31
f 37/4/20 53/4/32 35/4/20
f 53/4/32 37/4/20 56/4/32
f 60/1/34 59/1/33 58/1/33
f 59/1/33 60/1/34 61/1/34
f 42/1/25 61/1/34 60/1/34
f 61/1/34 42/1/25 43/1/25
f 61/1/36 62/2/35 59/1/35
f 62/2/35 61/1/36 63/2/36
f 43/1/27 63/2/36 61/1/36
f 63/2/36 43/1/27 46/2/27
f 65/2/38 58/1/37 64/2/37
f 58/1/37 65/2/38 60/1/38
f 48/2/29 60/1/38 65/2/38
f 60/1/38 48/2/29 42/1/29
f 62/2/39 67/2/40 66/2/39
f 67/2/40 62/2/39 63/2/40
f 63/2/40 50/2/31 67/2/40
f 50/2/31 63/2/40 46/2/31
f 67/2/38 68/3/37 66/2/37
f 68/3/37 67/2/38 69/3/38
f 50/2/29 69/3/38 67/2/38
f 69/3/38 50/2/29 52/3/29
f 72/3/36 71/2/35 70/3/35
f 71/2/35 72/3/36 73/2/36
f 54/3/27 73/2/36 72/3/36
f 73/2/36 54/3/27 55/2/27
f 71/2/39 65/2/40 64/2/39
f 65/2/40 71/2/39 73/2/40
f 73/2/40 48/2/31 65/2/40
f 48/2/31 73/2/40 55/2/31
f 72/4/40 68/4/39 69/4/40
f 68/4/39 72/4/40 70/4/39
f 54/4/31 69/4/40 52/4/31
f 69/4/40 54/4/31 72/4/40
f 76/3/41 75/2/41 74/2/41
f 76/3/41 77/1/41 75/2/41
f 77/1/41 76/3/41 78/1/41
f 79/3/41 78/1/41 76/3/41
f 78/1/41 79/3/41 80/2/41
f 80/2/41 79/3/41 81/2/41
f 84/3/42 83/2/42 82/2/42
f 84/3/42 85/1/42 83/2/42
f 85/1/42 84/3/42 86/1/42
f 87/3/42 86/1/42 84/3/42
f 86/1/42 87/3/42 88/2/42
f 88/2/42 87/3/42 89/2/42

g spline-default-corner-small-ramp




usemtl colormap

f 3/1/2 2/1/1 1/1/1
f 2/1/1 3/1/2 4/1/2
f 5/1/3 4/1/2 3/1/2
f 4/1/2 5/1/3 6/1/3
f 4/1/5 7/2/4 2/1/4
f 7/2/4 4/1/5 8/2/5
f 6/1/6 8/2/5 4/1/5
f 8/2/5 6/1/6 9/2/6
f 11/2/8 1/1/7 10/2/7
f 1/1/7 11/2/8 3/1/8
f 12/2/9 3/1/8 11/2/8
f 3/1/8 12/2/9 5/1/9
f 7/2/10 14/2/11 13/2/10
f 14/2/11 7/2/10 8/2/11
f 8/2/11 15/2/12 14/2/11
f 15/2/12 8/2/11 9/2/12
f 14/2/8 16/3/7 13/2/7
f 16/3/7 14/2/8 17/3/8
f 15/2/9 17/3/8 14/2/8
f 17/3/8 15/2/9 18/3/9
f 21/3/5 20/2/4 19/3/4
f 20/2/4 21/3/5 22/2/5
f 23/3/6 22/2/5 21/3/5
f 22/2/5 23/3/6 24/2/6
f 20/2/10 11/2/11 10/2/10
f 11/2/11 20/2/10 22/2/11
f 22/2/11 12/2/12 11/2/11
f 12/2/12 22/2/11 24/2/12
f 21/4/11 16/4/10 17/4/11
f 16/4/10 21/4/11 19/4/10
f 23/4/12 17/4/11 18/4/12
f 17/4/11 23/4/12 21/4/11
f 27/1/14 26/1/13 25/1/13
f 26/1/13 27/1/14 28/1/15
f 1/1/1 28/1/15 27/1/14
f 28/1/15 1/1/1 2/1/1
f 28/1/17 29/2/16 26/1/16
f 29/2/16 28/1/17 30/2/17
f 2/1/4 30/2/17 28/1/17
f 30/2/17 2/1/4 7/2/4
f 32/2/19 25/1/18 31/2/18
f 25/1/18 32/2/19 27/1/19
f 10/2/7 27/1/19 32/2/19
f 27/1/19 10/2/7 1/1/7
f 29/2/20 34/2/21 33/2/20
f 34/2/21 29/2/20 30/2/21
f 30/2/21 13/2/10 34/2/21
f 13/2/10 30/2/21 7/2/10
f 34/2/22 35/3/18 33/2/18
f 35/3/18 34/2/22 36/3/22
f 13/2/7 36/3/22 34/2/22
f 36/3/22 13/2/7 16/3/7
f 39/3/23 38/2/16 37/3/16
f 38/2/16 39/3/23 40/2/23
f 19/3/4 40/2/23 39/3/23
f 40/2/23 19/3/4 20/2/4
f 38/2/20 32/2/24 31/2/20
f 32/2/24 38/2/20 40/2/24
f 40/2/24 10/2/10 32/2/24
f 10/2/10 40/2/24 20/2/10
f 39/4/24 35/4/20 36/4/21
f 35/4/20 39/4/24 37/4/20
f 19/4/10 41/4/24 16/4/10
f 41/4/24 19/4/10 39/4/24
f 44/1/26 43/1/25 42/1/25
f 43/1/25 44/1/26 45/1/26
f 25/1/13 45/1/26 44/1/26
f 45/1/26 25/1/13 26/1/13
f 45/1/28 46/2/27 43/1/27
f 46/2/27 45/1/28 47/2/28
f 26/1/16 47/2/28 45/1/28
f 47/2/28 26/1/16 29/2/16
f 49/2/30 42/1/29 48/2/29
f 42/1/29 49/2/30 44/1/30
f 31/2/18 44/1/30 49/2/30
f 44/1/30 31/2/18 25/1/18
f 46/2/31 51/2/32 50/2/31
f 51/2/32 46/2/31 47/2/32
f 47/2/32 33/2/20 51/2/32
f 33/2/20 47/2/32 29/2/20
f 51/2/30 52/3/29 50/2/29
f 52/3/29 51/2/30 53/3/30
f 33/2/18 53/3/30 51/2/30
f 53/3/30 33/2/18 35/3/18
f 56/3/28 55/2/27 54/3/27
f 55/2/27 56/3/28 57/2/28
f 37/3/16 57/2/28 56/3/28
f 57/2/28 37/3/16 38/2/16
f 55/2/31 49/2/32 48/2/31
f 49/2/32 55/2/31 57/2/32
f 57/2/32 31/2/20 49/2/32
f 31/2/20 57/2/32 38/2/20
f 56/4/32 52/4/31 53/4/32
f 52/4/31 56/4/32 54/4/31
f 37/4/20 53/4/32 35/4/20
f 53/4/32 37/4/20 56/4/32
f 60/1/34 59/1/33 58/1/33
f 59/1/33 60/1/34 61/1/34
f 42/1/25 61/1/34 60/1/34
f 61/1/34 42/1/25 43/1/25
f 61/1/36 62/2/35 59/1/35
f 62/2/35 61/1/36 63/2/36
f 43/1/27 63/2/36 61/1/36
f 63/2/36 43/1/27 46/2/27
f 65/2/38 58/1/37 64/2/37
f 58/1/37 65/2/38 60/1/38
f 48/2/29 60/1/38 65/2/38
f 60/1/38 48/2/29 42/1/29
f 62/2/39 67/2/40 66/2/39
f 67/2/40 62/2/39 63/2/40
f 63/2/40 50/2/31 67/2/40
f 50/2/31 63/2/40 46/2/31
f 67/2/38 68/3/37 66/2/37
f 68/3/37 67/2/38 69/3/38
f 50/2/29 69/3/38 67/2/38
f 69/3/38 50/2/29 52/3/29
f 72/3/36 71/2/35 70/3/35
f 71/2/35 72/3/36 73/2/36
f 54/3/27 73/2/36 72/3/36
f 73/2/36 54/3/27 55/2/27
f 71/2/39 65/2/40 64/2/39
f 65/2/40 71/2/39 73/2/40
f 73/2/40 48/2/31 65/2/40
f 48/2/31 73/2/40 55/2/31
f 72/4/40 68/4/39 69/4/40
f 68/4/39 72/4/40 70/4/39
f 54/4/31 69/4/40 52/4/31
f 69/4/40 54/4/31 72/4/40
f 76/3/41 75/2/41 74/2/41
f 76/3/41 77/1/41 75/2/41
f 77/1/41 76/3/41 78/1/41
f 79/3/41 78/1/41 76/3/41
f 78/1/41 79/3/41 80/2/41
f 80/2/41 79/3/41 81/2/41
f 84/3/42 83/2/42 82/2/42
f 84/3/42 85/1/42 83/2/42
f 85/1/42 84/3/42 86/1/42
f 87/3/42 86/1/42 84/3/42
f 86/1/42 87/3/42 88/2/42
f 88/2/42 87/3/42 89/2/42

