# Created by Kenney (www.kenney.nl)

mtllib spline-default-corner-large-ramp.mtl

g spline-default-corner-large-ramp

v -0.606631 0.06815827 0.7479079 1 1 1
v 0.3552471 0.05098987 1.02048 1 1 1
v -0.5273376 0.02222705 0.3753171 1 1 1
v 0.4620653 0.009575844 0.5192673 1 1 1
v -0.4999499 1.192093E-07 5.245209E-06 1 1 1
v 0.4999499 -2.384186E-07 7.390976E-06 1 1 1
v 0.3625896 0.1964976 1.003735 1 1 1
v 0.4653461 0.1558704 0.5095749 1 1 1
v 0.4999501 0.1466519 7.152557E-06 1 1 1
v -0.5992885 0.213666 0.7311623 1 1 1
v -0.5240569 0.1685216 0.3656244 1 1 1
v -0.4999499 0.1466521 5.00679E-06 1 1 1
v 0.2664018 0.1982144 0.9764776 1 1 1
v 0.3664058 0.1571355 0.4951797 1 1 1
v 0.39996 0.1466519 6.914139E-06 1 1 1
v 0.2622299 0.1155396 0.985992 1 1 1
v 0.3645418 0.07401359 0.5006869 1 1 1
v 0.39996 0.06332684 7.152557E-06 1 1 1
v -0.5072727 0.1292744 0.7679341 1 1 1
v -0.5031009 0.2119491 0.7584195 1 1 1
v -0.4269807 0.08413458 0.3855267 1 1 1
v -0.4251165 0.1672566 0.3800194 1 1 1
v -0.39996 0.06332707 5.483627E-06 1 1 1
v -0.39996 0.1466521 5.245209E-06 1 1 1
v -0.9000826 0.21295 1.461787 1 1 1
v -0.02360678 0.199091 1.942825 1 1 1
v -0.7326951 0.1332412 1.11169 1 1 1
v 0.1902237 0.1164343 1.496057 1 1 1
v -0.008123875 0.3429239 1.918759 1 1 1
v 0.2017689 0.2610569 1.47466 1 1 1
v -0.8845997 0.3567829 1.43772 1 1 1
v -0.7211499 0.2778637 1.090292 1 1 1
v -0.09577131 0.3443098 1.870655 1 1 1
v 0.109477 0.2627375 1.436223 1 1 1
v -0.1045685 0.2625866 1.884329 1 1 1
v 0.1029172 0.1805656 1.44838 1 1 1
v -0.8057492 0.2736738 1.499498 1 1 1
v -0.796952 0.355397 1.485824 1 1 1
v -0.6354179 0.1940112 1.140887 1 1 1
v -0.6288581 0.276183 1.128729 1 1 1
v -1.339424 0.3999259 2.10692 1 1 1
v -0.5711324 0.3949958 2.746845 1 1 1
v -1.10376 0.3031001 1.7945 1 1 1
v -0.2790728 0.293434 2.35983 1 1 1
v -0.5494034 0.5378604 2.721858 1 1 1
v -0.260149 0.4366676 2.334673 1 1 1
v -1.317695 0.5427907 2.081933 1 1 1
v -1.084836 0.4463336 1.769343 1 1 1
v -0.6262326 0.5383534 2.657866 1 1 1
v -0.3426175 0.4376342 2.27814 1 1 1
v -0.6385784 0.4571804 2.672063 1 1 1
v -0.3533697 0.3562515 2.292434 1 1 1
v -1.253211 0.4611245 2.160122 1 1 1
v -1.240865 0.5422976 2.145926 1 1 1
v -1.013119 0.3639843 1.84017 1 1 1
v -1.002367 0.445367 1.825876 1 1 1
v -1.89308 0.6000732 2.660576 1 1 1
v -1.253155 0.605005 3.428867 1 1 1
v -1.603518 0.4999994 2.396482 1 1 1
v -0.896482 0.5000006 3.103518 1 1 1
v -1.228168 0.7478697 3.407138 1 1 1
v -0.8726919 0.6427412 3.079727 1 1 1
v -1.868093 0.7429378 2.638847 1 1 1
v -1.579728 0.64274 2.372692 1 1 1
v -1.29216 0.7473764 3.330309 1 1 1
v -0.9433956 0.642741 3.009024 1 1 1
v -1.306357 0.6662034 3.342655 1 1 1
v -0.9569125 0.5616384 3.022541 1 1 1
v -1.818298 0.6622579 2.728022 1 1 1
v -1.804101 0.7434311 2.715676 1 1 1
v -1.522542 0.5616375 2.456912 1 1 1
v -1.509025 0.6427401 2.443395 1 1 1
v -2.538213 0.7870498 3.099917 1 1 1
v -2.057174 0.8009088 3.976393 1 1 1
v -2.2055 0.6968994 2.89624 1 1 1
v -1.64017 0.7065666 3.720927 1 1 1
v -2.033107 0.9447417 3.96091 1 1 1
v -1.615013 0.8498001 3.702003 1 1 1
v -2.514146 0.9308827 3.084435 1 1 1
v -2.180344 0.840133 2.877316 1 1 1
v -2.081211 0.9433558 3.873262 1 1 1
v -1.671546 0.8488334 3.619534 1 1 1
v -2.094885 0.8616326 3.88206 1 1 1
v -1.68584 0.7674508 3.630287 1 1 1
v -2.479716 0.8505454 3.180879 1 1 1
v -2.466042 0.9322686 3.172082 1 1 1
v -2.138104 0.759717 2.970537 1 1 1
v -2.123811 0.8410996 2.959785 1 1 1
v -3.252092 0.9318415 3.393369 1 1 1
v -2.979519 0.9490103 4.355247 1 1 1
v -2.88831 0.8667588 3.267304 1 1 1
v -2.503942 0.8835657 4.190223 1 1 1
v -2.962774 1.094518 4.347904 1 1 1
v -2.482545 1.028188 4.178679 1 1 1
v -3.235346 1.077349 3.386026 1 1 1
v -2.866913 1.011381 3.25576 1 1 1
v -2.990031 1.092801 4.251717 1 1 1
v -2.520982 1.026507 4.086387 1 1 1
v -2.999546 1.010126 4.255888 1 1 1
v -2.533139 0.9443356 4.092946 1 1 1
v -3.217604 0.9963913 3.486386 1 1 1
v -3.208089 1.079066 3.482214 1 1 1
v -2.840633 0.9308901 3.354611 1 1 1
v -2.828476 1.013062 3.348052 1 1 1
v -3.999995 0.9999998 3.50005 1 1 1
v -3.999992 1 4.49995 1 1 1
v -3.624683 0.9777726 3.472662 1 1 1
v -3.480732 0.9904244 4.462065 1 1 1
v -3.252092 0.9318416 3.393369 1 1 1
v -2.97952 0.9490104 4.355247 1 1 1
v -3.999992 1.146652 4.49995 1 1 1
v -3.47104 1.136719 4.458785 1 1 1
v -2.962774 1.094518 4.347904 1 1 1
v -3.999995 1.146652 3.50005 1 1 1
v -3.614991 1.124067 3.469381 1 1 1
v -3.235347 1.077349 3.386026 1 1 1
v -3.999992 1.146652 4.39996 1 1 1
v -3.485435 1.135454 4.359844 1 1 1
v -2.990032 1.092801 4.251717 1 1 1
v -3.999993 1.063327 4.39996 1 1 1
v -3.490942 1.052332 4.361708 1 1 1
v -2.999546 1.010126 4.255888 1 1 1
v -3.999995 1.063327 3.60004 1 1 1
v -3.999995 1.146652 3.60004 1 1 1
v -3.606103 1.04221 3.570186 1 1 1
v -3.600595 1.125332 3.568322 1 1 1
v -3.217604 0.9963913 3.486386 1 1 1
v -3.20809 1.079066 3.482214 1 1 1
v -0.39996 0.146652 -2.887646E-15 1 1 1
v -0.49995 0.146652 -2.887646E-15 1 1 1
v -0.39996 0.06332701 -2.887646E-15 1 1 1
v -0.49995 0 -2.887646E-15 1 1 1
v 0.49995 0 2.887646E-15 1 1 1
v 0.39996 0.06332701 0 1 1 1
v 0.49995 0.146652 2.887646E-15 1 1 1
v 0.39996 0.146652 0 1 1 1
v -4 1.146652 4.39996 1 1 1
v -4 1.146652 4.49995 1 1 1
v -4 1.063327 4.39996 1 1 1
v -4 1 4.49995 1 1 1
v -4 1 3.50005 1 1 1
v -4 1.063327 3.60004 1 1 1
v -4 1.146652 3.50005 1 1 1
v -4 1.146652 3.60004 1 1 1

vn -0.05006683 -0.9921971 0.1141852
vn -0.02237157 -0.9975626 0.06609262
vn -3.03891E-07 -1 1.047857E-06
vn 0.9619743 -0.01717015 0.2725996
vn 0.9895019 -0.01265253 0.1439648
vn 1 -3.038888E-07 2.095716E-06
vn -0.9619743 0.01717015 -0.2725996
vn -0.9895019 0.01265253 -0.1439648
vn -1 3.038888E-07 -2.095716E-06
vn 0.05006683 0.9921971 -0.1141852
vn 0.02237157 0.9975626 -0.06609262
vn 3.03891E-07 1 -1.047857E-06
vn -0.1055753 -0.9807767 0.1641065
vn -0.07872368 -0.9861614 0.1459053
vn -0.07872369 -0.9861614 0.1459053
vn 0.8765635 -0.01386045 0.4810866
vn 0.9230111 -0.01680858 0.384406
vn -0.8765635 0.01386045 -0.4810866
vn -0.9230111 0.01680857 -0.3844059
vn 0.1055753 0.9807767 -0.1641065
vn 0.07872369 0.9861614 -0.1459053
vn -0.9230111 0.01680858 -0.384406
vn 0.9230111 -0.01680857 0.3844059
vn 0.07872368 0.9861614 -0.1459053
vn -0.148167 -0.9741746 0.1703832
vn -0.129039 -0.97669 0.1715389
vn 0.7683679 -0.00493066 0.6399894
vn 0.8247694 -0.009666998 0.5653866
vn -0.7683679 0.00493066 -0.6399894
vn -0.8247694 0.009666998 -0.5653866
vn 0.148167 0.9741746 -0.1703832
vn 0.129039 0.97669 -0.1715389
vn -0.1703821 -0.9741746 0.1481682
vn -0.1622206 -0.9733285 0.1622223
vn 0.6399895 0.004932292 0.7683678
vn 0.7071069 1.162291E-06 0.7071066
vn -0.6399895 -0.004932292 -0.7683678
vn -0.7071069 -1.162291E-06 -0.7071066
vn 0.1703821 0.9741746 -0.1481682
vn 0.1622206 0.9733285 -0.1622223
vn -0.1641065 -0.9807767 0.1055754
vn -0.1715381 -0.97669 0.1290401
vn 0.4810867 0.01386048 0.8765635
vn 0.5653869 0.009668261 0.8247691
vn -0.4810867 -0.01386048 -0.8765635
vn -0.5653869 -0.009668261 -0.8247691
vn 0.1641065 0.9807767 -0.1055754
vn 0.1715381 0.97669 -0.1290401
vn -0.114185 -0.9921971 0.05006719
vn -0.1459053 -0.9861614 0.07872368
vn 0.2725998 0.01717052 0.9619743
vn 0.3844063 0.01680852 0.923011
vn -0.2725998 -0.01717052 -0.9619743
vn -0.3844063 -0.01680852 -0.923011
vn 0.114185 0.9921971 -0.05006719
vn 0.1459053 0.9861614 -0.07872368
vn -9.934099E-07 -1 3.403611E-07
vn -0.06609251 -0.9975626 0.02237215
vn -0.114185 -0.9921971 0.05006716
vn 2.384186E-06 3.403589E-07 0.9999999
vn 0.1439651 0.01265312 0.9895019
vn 0.2725998 0.01717051 0.9619743
vn -2.384186E-06 -3.403589E-07 -0.9999999
vn -0.1439651 -0.01265312 -0.9895019
vn -0.2725998 -0.01717051 -0.9619743
vn 9.934099E-07 1 -3.403611E-07
vn 0.06609251 0.9975626 -0.02237215
vn 0.114185 0.9921971 -0.05006716
vn 0 0 -1
vn -0.9999999 0 3.576279E-07

vt 0.71875 0.025
vt 0.71875 0.225
vt 0.71875 0.1113636
vt 0.15625 0.375

usemtl colormap

f 3/1/2 2/1/1 1/1/1
f 2/1/1 3/1/2 4/1/2
f 5/1/3 4/1/2 3/1/2
f 4/1/2 5/1/3 6/1/3
f 4/1/5 7/2/4 2/1/4
f 7/2/4 4/1/5 8/2/5
f 6/1/6 8/2/5 4/1/5
f 8/2/5 6/1/6 9/2/6
f 11/2/8 1/1/7 10/2/7
f 1/1/7 11/2/8 3/1/8
f 12/2/9 3/1/8 11/2/8
f 3/1/8 12/2/9 5/1/9
f 7/2/10 14/2/11 13/2/10
f 14/2/11 7/2/10 8/2/11
f 8/2/11 15/2/12 14/2/11
f 15/2/12 8/2/11 9/2/12
f 14/2/8 16/3/7 13/2/7
f 16/3/7 14/2/8 17/3/8
f 15/2/9 17/3/8 14/2/8
f 17/3/8 15/2/9 18/3/9
f 21/3/5 20/2/4 19/3/4
f 20/2/4 21/3/5 22/2/5
f 23/3/6 22/2/5 21/3/5
f 22/2/5 23/3/6 24/2/6
f 20/2/10 11/2/11 10/2/10
f 11/2/11 20/2/10 22/2/11
f 22/2/11 12/2/12 11/2/11
f 12/2/12 22/2/11 24/2/12
f 21/4/11 16/4/10 17/4/11
f 16/4/10 21/4/11 19/4/10
f 23/4/12 17/4/11 18/4/12
f 17/4/11 23/4/12 21/4/11
f 27/1/14 26/1/13 25/1/13
f 26/1/13 27/1/14 28/1/15
f 1/1/1 28/1/15 27/1/14
f 28/1/15 1/1/1 2/1/1
f 28/1/17 29/2/16 26/1/16
f 29/2/16 28/1/17 30/2/17
f 2/1/4 30/2/17 28/1/17
f 30/2/17 2/1/4 7/2/4
f 32/2/19 25/1/18 31/2/18
f 25/1/18 32/2/19 27/1/19
f 10/2/7 27/1/19 32/2/19
f 27/1/19 10/2/7 1/1/7
f 29/2/20 34/2/21 33/2/20
f 34/2/21 29/2/20 30/2/21
f 30/2/21 13/2/10 34/2/21
f 13/2/10 30/2/21 7/2/10
f 34/2/22 35/3/18 33/2/18
f 35/3/18 34/2/22 36/3/22
f 13/2/7 36/3/22 34/2/22
f 36/3/22 13/2/7 16/3/7
f 39/3/23 38/2/16 37/3/16
f 38/2/16 39/3/23 40/2/23
f 19/3/4 40/2/23 39/3/23
f 40/2/23 19/3/4 20/2/4
f 38/2/20 32/2/24 31/2/20
f 32/2/24 38/2/20 40/2/24
f 40/2/24 10/2/10 32/2/24
f 10/2/10 40/2/24 20/2/10
f 39/4/24 35/4/20 36/4/21
f 35/4/20 39/4/24 37/4/20
f 19/4/10 36/4/21 16/4/10
f 36/4/21 19/4/10 39/4/21
f 43/1/26 42/1/25 41/1/25
f 42/1/25 43/1/26 44/1/26
f 25/1/13 44/1/26 43/1/26
f 44/1/26 25/1/13 26/1/13
f 44/1/28 45/2/27 42/1/27
f 45/2/27 44/1/28 46/2/28
f 26/1/16 46/2/28 44/1/28
f 46/2/28 26/1/16 29/2/16
f 48/2/30 41/1/29 47/2/29
f 41/1/29 48/2/30 43/1/30
f 31/2/18 43/1/30 48/2/30
f 43/1/30 31/2/18 25/1/18
f 45/2/31 50/2/32 49/2/31
f 50/2/32 45/2/31 46/2/32
f 46/2/32 33/2/20 50/2/32
f 33/2/20 46/2/32 29/2/20
f 50/2/30 51/3/29 49/2/29
f 51/3/29 50/2/30 52/3/30
f 33/2/18 52/3/30 50/2/30
f 52/3/30 33/2/18 35/3/18
f 55/3/28 54/2/27 53/3/27
f 54/2/27 55/3/28 56/2/28
f 37/3/16 56/2/28 55/3/28
f 56/2/28 37/3/16 38/2/16
f 54/2/31 48/2/32 47/2/31
f 48/2/32 54/2/31 56/2/32
f 56/2/32 31/2/20 48/2/32
f 31/2/20 56/2/32 38/2/20
f 55/4/32 51/4/31 52/4/32
f 51/4/31 55/4/32 53/4/31
f 37/4/20 52/4/32 35/4/20
f 52/4/32 37/4/20 55/4/32
f 59/1/34 58/1/33 57/1/33
f 58/1/33 59/1/34 60/1/34
f 41/1/25 60/1/34 59/1/34
f 60/1/34 41/1/25 42/1/25
f 60/1/36 61/2/35 58/1/35
f 61/2/35 60/1/36 62/2/36
f 42/1/27 62/2/36 60/1/36
f 62/2/36 42/1/27 45/2/27
f 64/2/38 57/1/37 63/2/37
f 57/1/37 64/2/38 59/1/38
f 47/2/29 59/1/38 64/2/38
f 59/1/38 47/2/29 41/1/29
f 61/2/39 66/2/40 65/2/39
f 66/2/40 61/2/39 62/2/40
f 62/2/40 49/2/31 66/2/40
f 49/2/31 62/2/40 45/2/31
f 66/2/38 67/3/37 65/2/37
f 67/3/37 66/2/38 68/3/38
f 49/2/29 68/3/38 66/2/38
f 68/3/38 49/2/29 51/3/29
f 71/3/36 70/2/35 69/3/35
f 70/2/35 71/3/36 72/2/36
f 53/3/27 72/2/36 71/3/36
f 72/2/36 53/3/27 54/2/27
f 70/2/39 64/2/40 63/2/39
f 64/2/40 70/2/39 72/2/40
f 72/2/40 47/2/31 64/2/40
f 47/2/31 72/2/40 54/2/31
f 71/4/40 67/4/39 68/4/40
f 67/4/39 71/4/40 69/4/39
f 53/4/31 68/4/40 51/4/31
f 68/4/40 53/4/31 71/4/40
f 75/1/42 74/1/41 73/1/41
f 74/1/41 75/1/42 76/1/42
f 57/1/33 76/1/42 75/1/42
f 76/1/42 57/1/33 58/1/33
f 76/1/44 77/2/43 74/1/43
f 77/2/43 76/1/44 78/2/44
f 58/1/35 78/2/44 76/1/44
f 78/2/44 58/1/35 61/2/35
f 80/2/46 73/1/45 79/2/45
f 73/1/45 80/2/46 75/1/46
f 63/2/37 75/1/46 80/2/46
f 75/1/46 63/2/37 57/1/37
f 77/2/47 82/2/48 81/2/47
f 82/2/48 77/2/47 78/2/48
f 78/2/48 65/2/39 82/2/48
f 65/2/39 78/2/48 61/2/39
f 82/2/46 83/3/45 81/2/45
f 83/3/45 82/2/46 84/3/46
f 65/2/37 84/3/46 82/2/46
f 84/3/46 65/2/37 67/3/37
f 87/3/44 86/2/43 85/3/43
f 86/2/43 87/3/44 88/2/44
f 69/3/35 88/2/44 87/3/44
f 88/2/44 69/3/35 70/2/35
f 86/2/47 80/2/48 79/2/47
f 80/2/48 86/2/47 88/2/48
f 88/2/48 63/2/39 80/2/48
f 63/2/39 88/2/48 70/2/39
f 87/4/48 83/4/47 84/4/48
f 83/4/47 87/4/48 85/4/47
f 69/4/39 84/4/48 67/4/39
f 84/4/48 69/4/39 87/4/48
f 91/1/50 90/1/49 89/1/49
f 90/1/49 91/1/50 92/1/50
f 73/1/41 92/1/50 91/1/50
f 92/1/50 73/1/41 74/1/41
f 92/1/52 93/2/51 90/1/51
f 93/2/51 92/1/52 94/2/52
f 74/1/43 94/2/52 92/1/52
f 94/2/52 74/1/43 77/2/43
f 96/2/54 89/1/53 95/2/53
f 89/1/53 96/2/54 91/1/54
f 79/2/45 91/1/54 96/2/54
f 91/1/54 79/2/45 73/1/45
f 93/2/55 98/2/56 97/2/55
f 98/2/56 93/2/55 94/2/56
f 94/2/56 81/2/47 98/2/56
f 81/2/47 94/2/56 77/2/47
f 98/2/54 99/3/53 97/2/53
f 99/3/53 98/2/54 100/3/54
f 81/2/45 100/3/54 98/2/54
f 100/3/54 81/2/45 83/3/45
f 103/3/52 102/2/51 101/3/51
f 102/2/51 103/3/52 104/2/52
f 85/3/43 104/2/52 103/3/52
f 104/2/52 85/3/43 86/2/43
f 102/2/55 96/2/56 95/2/55
f 96/2/56 102/2/55 104/2/56
f 104/2/56 79/2/47 96/2/56
f 79/2/47 104/2/56 86/2/47
f 103/4/56 99/4/55 100/4/56
f 99/4/55 103/4/56 101/4/55
f 85/4/47 100/4/56 83/4/47
f 100/4/56 85/4/47 103/4/56
f 107/1/58 106/1/57 105/1/57
f 106/1/57 107/1/58 108/1/58
f 109/1/59 108/1/58 107/1/58
f 108/1/58 109/1/59 110/1/59
f 108/1/61 111/2/60 106/1/60
f 111/2/60 108/1/61 112/2/61
f 110/1/62 112/2/61 108/1/61
f 112/2/61 110/1/62 113/2/62
f 115/2/64 105/1/63 114/2/63
f 105/1/63 115/2/64 107/1/64
f 116/2/65 107/1/64 115/2/64
f 107/1/64 116/2/65 109/1/65
f 111/2/66 118/2/67 117/2/66
f 118/2/67 111/2/66 112/2/67
f 112/2/67 119/2/68 118/2/67
f 119/2/68 112/2/67 113/2/68
f 118/2/64 120/3/63 117/2/63
f 120/3/63 118/2/64 121/3/64
f 119/2/65 121/3/64 118/2/64
f 121/3/64 119/2/65 122/3/65
f 125/3/61 124/2/60 123/3/60
f 124/2/60 125/3/61 126/2/61
f 127/3/62 126/2/61 125/3/61
f 126/2/61 127/3/62 128/2/62
f 124/2/66 115/2/67 114/2/66
f 115/2/67 124/2/66 126/2/67
f 126/2/67 116/2/68 115/2/67
f 116/2/68 126/2/67 128/2/68
f 125/4/67 120/4/66 121/4/67
f 120/4/66 125/4/67 123/4/66
f 127/4/68 121/4/67 122/4/68
f 121/4/67 127/4/68 125/4/67
f 131/3/69 130/2/69 129/2/69
f 131/3/69 132/1/69 130/2/69
f 132/1/69 131/3/69 133/1/69
f 134/3/69 133/1/69 131/3/69
f 133/1/69 134/3/69 135/2/69
f 135/2/69 134/3/69 136/2/69
f 139/3/70 138/2/70 137/2/70
f 139/3/70 140/1/70 138/2/70
f 140/1/70 139/3/70 141/1/70
f 142/3/70 141/1/70 139/3/70
f 141/1/70 142/3/70 143/2/70
f 143/2/70 142/3/70 144/2/70

g spline-default-corner-large-ramp




usemtl colormap

f 3/1/2 2/1/1 1/1/1
f 2/1/1 3/1/2 4/1/2
f 5/1/3 4/1/2 3/1/2
f 4/1/2 5/1/3 6/1/3
f 4/1/5 7/2/4 2/1/4
f 7/2/4 4/1/5 8/2/5
f 6/1/6 8/2/5 4/1/5
f 8/2/5 6/1/6 9/2/6
f 11/2/8 1/1/7 10/2/7
f 1/1/7 11/2/8 3/1/8
f 12/2/9 3/1/8 11/2/8
f 3/1/8 12/2/9 5/1/9
f 7/2/10 14/2/11 13/2/10
f 14/2/11 7/2/10 8/2/11
f 8/2/11 15/2/12 14/2/11
f 15/2/12 8/2/11 9/2/12
f 14/2/8 16/3/7 13/2/7
f 16/3/7 14/2/8 17/3/8
f 15/2/9 17/3/8 14/2/8
f 17/3/8 15/2/9 18/3/9
f 21/3/5 20/2/4 19/3/4
f 20/2/4 21/3/5 22/2/5
f 23/3/6 22/2/5 21/3/5
f 22/2/5 23/3/6 24/2/6
f 20/2/10 11/2/11 10/2/10
f 11/2/11 20/2/10 22/2/11
f 22/2/11 12/2/12 11/2/11
f 12/2/12 22/2/11 24/2/12
f 21/4/11 16/4/10 17/4/11
f 16/4/10 21/4/11 19/4/10
f 23/4/12 17/4/11 18/4/12
f 17/4/11 23/4/12 21/4/11
f 27/1/14 26/1/13 25/1/13
f 26/1/13 27/1/14 28/1/15
f 1/1/1 28/1/15 27/1/14
f 28/1/15 1/1/1 2/1/1
f 28/1/17 29/2/16 26/1/16
f 29/2/16 28/1/17 30/2/17
f 2/1/4 30/2/17 28/1/17
f 30/2/17 2/1/4 7/2/4
f 32/2/19 25/1/18 31/2/18
f 25/1/18 32/2/19 27/1/19
f 10/2/7 27/1/19 32/2/19
f 27/1/19 10/2/7 1/1/7
f 29/2/20 34/2/21 33/2/20
f 34/2/21 29/2/20 30/2/21
f 30/2/21 13/2/10 34/2/21
f 13/2/10 30/2/21 7/2/10
f 34/2/22 35/3/18 33/2/18
f 35/3/18 34/2/22 36/3/22
f 13/2/7 36/3/22 34/2/22
f 36/3/22 13/2/7 16/3/7
f 39/3/23 38/2/16 37/3/16
f 38/2/16 39/3/23 40/2/23
f 19/3/4 40/2/23 39/3/23
f 40/2/23 19/3/4 20/2/4
f 38/2/20 32/2/24 31/2/20
f 32/2/24 38/2/20 40/2/24
f 40/2/24 10/2/10 32/2/24
f 10/2/10 40/2/24 20/2/10
f 39/4/24 35/4/20 36/4/21
f 35/4/20 39/4/24 37/4/20
f 19/4/10 36/4/21 16/4/10
f 36/4/21 19/4/10 39/4/21
f 43/1/26 42/1/25 41/1/25
f 42/1/25 43/1/26 44/1/26
f 25/1/13 44/1/26 43/1/26
f 44/1/26 25/1/13 26/1/13
f 44/1/28 45/2/27 42/1/27
f 45/2/27 44/1/28 46/2/28
f 26/1/16 46/2/28 44/1/28
f 46/2/28 26/1/16 29/2/16
f 48/2/30 41/1/29 47/2/29
f 41/1/29 48/2/30 43/1/30
f 31/2/18 43/1/30 48/2/30
f 43/1/30 31/2/18 25/1/18
f 45/2/31 50/2/32 49/2/31
f 50/2/32 45/2/31 46/2/32
f 46/2/32 33/2/20 50/2/32
f 33/2/20 46/2/32 29/2/20
f 50/2/30 51/3/29 49/2/29
f 51/3/29 50/2/30 52/3/30
f 33/2/18 52/3/30 50/2/30
f 52/3/30 33/2/18 35/3/18
f 55/3/28 54/2/27 53/3/27
f 54/2/27 55/3/28 56/2/28
f 37/3/16 56/2/28 55/3/28
f 56/2/28 37/3/16 38/2/16
f 54/2/31 48/2/32 47/2/31
f 48/2/32 54/2/31 56/2/32
f 56/2/32 31/2/20 48/2/32
f 31/2/20 56/2/32 38/2/20
f 55/4/32 51/4/31 52/4/32
f 51/4/31 55/4/32 53/4/31
f 37/4/20 52/4/32 35/4/20
f 52/4/32 37/4/20 55/4/32
f 59/1/34 58/1/33 57/1/33
f 58/1/33 59/1/34 60/1/34
f 41/1/25 60/1/34 59/1/34
f 60/1/34 41/1/25 42/1/25
f 60/1/36 61/2/35 58/1/35
f 61/2/35 60/1/36 62/2/36
f 42/1/27 62/2/36 60/1/36
f 62/2/36 42/1/27 45/2/27
f 64/2/38 57/1/37 63/2/37
f 57/1/37 64/2/38 59/1/38
f 47/2/29 59/1/38 64/2/38
f 59/1/38 47/2/29 41/1/29
f 61/2/39 66/2/40 65/2/39
f 66/2/40 61/2/39 62/2/40
f 62/2/40 49/2/31 66/2/40
f 49/2/31 62/2/40 45/2/31
f 66/2/38 67/3/37 65/2/37
f 67/3/37 66/2/38 68/3/38
f 49/2/29 68/3/38 66/2/38
f 68/3/38 49/2/29 51/3/29
f 71/3/36 70/2/35 69/3/35
f 70/2/35 71/3/36 72/2/36
f 53/3/27 72/2/36 71/3/36
f 72/2/36 53/3/27 54/2/27
f 70/2/39 64/2/40 63/2/39
f 64/2/40 70/2/39 72/2/40
f 72/2/40 47/2/31 64/2/40
f 47/2/31 72/2/40 54/2/31
f 71/4/40 67/4/39 68/4/40
f 67/4/39 71/4/40 69/4/39
f 53/4/31 68/4/40 51/4/31
f 68/4/40 53/4/31 71/4/40
f 75/1/42 74/1/41 73/1/41
f 74/1/41 75/1/42 76/1/42
f 57/1/33 76/1/42 75/1/42
f 76/1/42 57/1/33 58/1/33
f 76/1/44 77/2/43 74/1/43
f 77/2/43 76/1/44 78/2/44
f 58/1/35 78/2/44 76/1/44
f 78/2/44 58/1/35 61/2/35
f 80/2/46 73/1/45 79/2/45
f 73/1/45 80/2/46 75/1/46
f 63/2/37 75/1/46 80/2/46
f 75/1/46 63/2/37 57/1/37
f 77/2/47 82/2/48 81/2/47
f 82/2/48 77/2/47 78/2/48
f 78/2/48 65/2/39 82/2/48
f 65/2/39 78/2/48 61/2/39
f 82/2/46 83/3/45 81/2/45
f 83/3/45 82/2/46 84/3/46
f 65/2/37 84/3/46 82/2/46
f 84/3/46 65/2/37 67/3/37
f 87/3/44 86/2/43 85/3/43
f 86/2/43 87/3/44 88/2/44
f 69/3/35 88/2/44 87/3/44
f 88/2/44 69/3/35 70/2/35
f 86/2/47 80/2/48 79/2/47
f 80/2/48 86/2/47 88/2/48
f 88/2/48 63/2/39 80/2/48
f 63/2/39 88/2/48 70/2/39
f 87/4/48 83/4/47 84/4/48
f 83/4/47 87/4/48 85/4/47
f 69/4/39 84/4/48 67/4/39
f 84/4/48 69/4/39 87/4/48
f 91/1/50 90/1/49 89/1/49
f 90/1/49 91/1/50 92/1/50
f 73/1/41 92/1/50 91/1/50
f 92/1/50 73/1/41 74/1/41
f 92/1/52 93/2/51 90/1/51
f 93/2/51 92/1/52 94/2/52
f 74/1/43 94/2/52 92/1/52
f 94/2/52 74/1/43 77/2/43
f 96/2/54 89/1/53 95/2/53
f 89/1/53 96/2/54 91/1/54
f 79/2/45 91/1/54 96/2/54
f 91/1/54 79/2/45 73/1/45
f 93/2/55 98/2/56 97/2/55
f 98/2/56 93/2/55 94/2/56
f 94/2/56 81/2/47 98/2/56
f 81/2/47 94/2/56 77/2/47
f 98/2/54 99/3/53 97/2/53
f 99/3/53 98/2/54 100/3/54
f 81/2/45 100/3/54 98/2/54
f 100/3/54 81/2/45 83/3/45
f 103/3/52 102/2/51 101/3/51
f 102/2/51 103/3/52 104/2/52
f 85/3/43 104/2/52 103/3/52
f 104/2/52 85/3/43 86/2/43
f 102/2/55 96/2/56 95/2/55
f 96/2/56 102/2/55 104/2/56
f 104/2/56 79/2/47 96/2/56
f 79/2/47 104/2/56 86/2/47
f 103/4/56 99/4/55 100/4/56
f 99/4/55 103/4/56 101/4/55
f 85/4/47 100/4/56 83/4/47
f 100/4/56 85/4/47 103/4/56
f 107/1/58 106/1/57 105/1/57
f 106/1/57 107/1/58 108/1/58
f 109/1/59 108/1/58 107/1/58
f 108/1/58 109/1/59 110/1/59
f 108/1/61 111/2/60 106/1/60
f 111/2/60 108/1/61 112/2/61
f 110/1/62 112/2/61 108/1/61
f 112/2/61 110/1/62 113/2/62
f 115/2/64 105/1/63 114/2/63
f 105/1/63 115/2/64 107/1/64
f 116/2/65 107/1/64 115/2/64
f 107/1/64 116/2/65 109/1/65
f 111/2/66 118/2/67 117/2/66
f 118/2/67 111/2/66 112/2/67
f 112/2/67 119/2/68 118/2/67
f 119/2/68 112/2/67 113/2/68
f 118/2/64 120/3/63 117/2/63
f 120/3/63 118/2/64 121/3/64
f 119/2/65 121/3/64 118/2/64
f 121/3/64 119/2/65 122/3/65
f 125/3/61 124/2/60 123/3/60
f 124/2/60 125/3/61 126/2/61
f 127/3/62 126/2/61 125/3/61
f 126/2/61 127/3/62 128/2/62
f 124/2/66 115/2/67 114/2/66
f 115/2/67 124/2/66 126/2/67
f 126/2/67 116/2/68 115/2/67
f 116/2/68 126/2/67 128/2/68
f 125/4/67 120/4/66 121/4/67
f 120/4/66 125/4/67 123/4/66
f 127/4/68 121/4/67 122/4/68
f 121/4/67 127/4/68 125/4/67
f 131/3/69 130/2/69 129/2/69
f 131/3/69 132/1/69 130/2/69
f 132/1/69 131/3/69 133/1/69
f 134/3/69 133/1/69 131/3/69
f 133/1/69 134/3/69 135/2/69
f 135/2/69 134/3/69 136/2/69
f 139/3/70 138/2/70 137/2/70
f 139/3/70 140/1/70 138/2/70
f 140/1/70 139/3/70 141/1/70
f 142/3/70 141/1/70 139/3/70
f 141/1/70 142/3/70 143/2/70
f 143/2/70 142/3/70 144/2/70

