# Created by Kenney (www.kenney.nl)

mtllib spline-default-straight.mtl

g spline-default-straight

v -0.4999499 0 0.7987037 1 1 1
v 0.4999499 0 0.7987037 1 1 1
v -0.4999499 0 0.3980331 1 1 1
v 0.4999499 0 0.3980331 1 1 1
v -0.4999499 0 0 1 1 1
v 0.4999499 0 0 1 1 1
v 0.4999499 0.146652 0.7987037 1 1 1
v 0.4999499 0.146652 0.3980331 1 1 1
v 0.4999499 0.146652 0 1 1 1
v -0.4999499 0.146652 0.7987037 1 1 1
v -0.4999499 0.146652 0.3980331 1 1 1
v -0.4999499 0.146652 0 1 1 1
v 0.39996 0.146652 0.7987037 1 1 1
v 0.39996 0.146652 0.3980331 1 1 1
v 0.39996 0.146652 0 1 1 1
v 0.39996 0.06332695 0.7987037 1 1 1
v 0.39996 0.06332695 0.3980331 1 1 1
v 0.39996 0.06332695 0 1 1 1
v -0.39996 0.06332695 0.7987037 1 1 1
v -0.39996 0.146652 0.7987037 1 1 1
v -0.39996 0.06332695 0.3980331 1 1 1
v -0.39996 0.146652 0.3980331 1 1 1
v -0.39996 0.06332695 0 1 1 1
v -0.39996 0.146652 0 1 1 1
v -0.4999499 0 1.599518 1 1 1
v 0.4999499 0 1.599518 1 1 1
v -0.4999499 0 1.199022 1 1 1
v 0.4999499 0 1.199022 1 1 1
v 0.4999499 0.146652 1.599518 1 1 1
v 0.4999499 0.146652 1.199022 1 1 1
v -0.4999499 0.146652 1.599518 1 1 1
v -0.4999499 0.146652 1.199022 1 1 1
v 0.39996 0.146652 1.599518 1 1 1
v 0.39996 0.146652 1.199022 1 1 1
v 0.39996 0.06332695 1.599518 1 1 1
v 0.39996 0.06332695 1.199022 1 1 1
v -0.39996 0.06332695 1.599518 1 1 1
v -0.39996 0.146652 1.599518 1 1 1
v -0.39996 0.06332695 1.199022 1 1 1
v -0.39996 0.146652 1.199022 1 1 1
v -0.4999499 0 2.400483 1 1 1
v 0.4999499 0 2.400483 1 1 1
v -0.4999499 0 2 1 1 1
v 0.4999499 0 2 1 1 1
v 0.4999499 0.146652 2.400483 1 1 1
v 0.4999499 0.146652 2 1 1 1
v -0.4999499 0.146652 2.400483 1 1 1
v -0.4999499 0.146652 2 1 1 1
v 0.39996 0.146652 2.400483 1 1 1
v 0.39996 0.146652 2 1 1 1
v 0.39996 0.06332695 2.400483 1 1 1
v 0.39996 0.06332695 2 1 1 1
v -0.39996 0.06332695 2.400483 1 1 1
v -0.39996 0.146652 2.400483 1 1 1
v -0.39996 0.06332695 2 1 1 1
v -0.39996 0.146652 2 1 1 1
v -0.4999499 0 3.201297 1 1 1
v 0.4999499 0 3.201297 1 1 1
v -0.4999499 0 2.800979 1 1 1
v 0.4999499 0 2.800979 1 1 1
v 0.4999499 0.146652 3.201297 1 1 1
v 0.4999499 0.146652 2.800979 1 1 1
v -0.4999499 0.146652 3.201297 1 1 1
v -0.4999499 0.146652 2.800979 1 1 1
v 0.39996 0.146652 3.201297 1 1 1
v 0.39996 0.146652 2.800979 1 1 1
v 0.39996 0.06332695 3.201297 1 1 1
v 0.39996 0.06332695 2.800979 1 1 1
v -0.39996 0.06332695 3.201297 1 1 1
v -0.39996 0.146652 3.201297 1 1 1
v -0.39996 0.06332695 2.800979 1 1 1
v -0.39996 0.146652 2.800979 1 1 1
v -0.4999499 0 4 1 1 1
v 0.4999499 0 4 1 1 1
v -0.4999499 0 3.601967 1 1 1
v 0.4999499 0 3.601967 1 1 1
v 0.4999499 0.146652 4 1 1 1
v 0.4999499 0.146652 3.601967 1 1 1
v -0.4999499 0.146652 4 1 1 1
v -0.4999499 0.146652 3.601967 1 1 1
v 0.39996 0.146652 4 1 1 1
v 0.39996 0.146652 3.601967 1 1 1
v 0.39996 0.06332695 4 1 1 1
v 0.39996 0.06332695 3.601967 1 1 1
v -0.39996 0.06332695 4 1 1 1
v -0.39996 0.146652 4 1 1 1
v -0.39996 0.06332695 3.601967 1 1 1
v -0.39996 0.146652 3.601967 1 1 1
v -0.39996 0.146652 -2.887646E-15 1 1 1
v -0.49995 0.146652 -2.887646E-15 1 1 1
v -0.39996 0.06332701 -2.887646E-15 1 1 1
v -0.49995 0 -2.887646E-15 1 1 1
v 0.49995 0 2.887646E-15 1 1 1
v 0.39996 0.06332701 0 1 1 1
v 0.49995 0.146652 2.887646E-15 1 1 1
v 0.39996 0.146652 0 1 1 1
v 0.39996 0.146652 4 1 1 1
v 0.49995 0.146652 4 1 1 1
v 0.39996 0.06332701 4 1 1 1
v 0.49995 0 4 1 1 1
v -0.49995 0 4 1 1 1
v -0.39996 0.06332701 4 1 1 1
v -0.49995 0.146652 4 1 1 1
v -0.39996 0.146652 4 1 1 1

vn 0 -1 0
vn 1 0 0
vn -1 0 0
vn 0 1 0
vn 0 0 -1
vn 0 0 1

vt 0.71875 0.025
vt 0.71875 0.225
vt 0.71875 0.1113636
vt 0.15625 0.375

usemtl colormap

f 3/1/1 2/1/1 1/1/1
f 2/1/1 3/1/1 4/1/1
f 5/1/1 4/1/1 3/1/1
f 4/1/1 5/1/1 6/1/1
f 4/1/2 7/2/2 2/1/2
f 7/2/2 4/1/2 8/2/2
f 6/1/2 8/2/2 4/1/2
f 8/2/2 6/1/2 9/2/2
f 11/2/3 1/1/3 10/2/3
f 1/1/3 11/2/3 3/1/3
f 12/2/3 3/1/3 11/2/3
f 3/1/3 12/2/3 5/1/3
f 7/2/4 14/2/4 13/2/4
f 14/2/4 7/2/4 8/2/4
f 8/2/4 15/2/4 14/2/4
f 15/2/4 8/2/4 9/2/4
f 14/2/3 16/3/3 13/2/3
f 16/3/3 14/2/3 17/3/3
f 15/2/3 17/3/3 14/2/3
f 17/3/3 15/2/3 18/3/3
f 21/3/2 20/2/2 19/3/2
f 20/2/2 21/3/2 22/2/2
f 23/3/2 22/2/2 21/3/2
f 22/2/2 23/3/2 24/2/2
f 20/2/4 11/2/4 10/2/4
f 11/2/4 20/2/4 22/2/4
f 22/2/4 12/2/4 11/2/4
f 12/2/4 22/2/4 24/2/4
f 21/4/4 16/4/4 17/4/4
f 16/4/4 21/4/4 19/4/4
f 23/4/4 17/4/4 18/4/4
f 17/4/4 23/4/4 21/4/4
f 27/1/1 26/1/1 25/1/1
f 26/1/1 27/1/1 28/1/1
f 1/1/1 28/1/1 27/1/1
f 28/1/1 1/1/1 2/1/1
f 28/1/2 29/2/2 26/1/2
f 29/2/2 28/1/2 30/2/2
f 2/1/2 30/2/2 28/1/2
f 30/2/2 2/1/2 7/2/2
f 32/2/3 25/1/3 31/2/3
f 25/1/3 32/2/3 27/1/3
f 10/2/3 27/1/3 32/2/3
f 27/1/3 10/2/3 1/1/3
f 29/2/4 34/2/4 33/2/4
f 34/2/4 29/2/4 30/2/4
f 30/2/4 13/2/4 34/2/4
f 13/2/4 30/2/4 7/2/4
f 34/2/3 35/3/3 33/2/3
f 35/3/3 34/2/3 36/3/3
f 13/2/3 36/3/3 34/2/3
f 36/3/3 13/2/3 16/3/3
f 39/3/2 38/2/2 37/3/2
f 38/2/2 39/3/2 40/2/2
f 19/3/2 40/2/2 39/3/2
f 40/2/2 19/3/2 20/2/2
f 38/2/4 32/2/4 31/2/4
f 32/2/4 38/2/4 40/2/4
f 40/2/4 10/2/4 32/2/4
f 10/2/4 40/2/4 20/2/4
f 39/4/4 35/4/4 36/4/4
f 35/4/4 39/4/4 37/4/4
f 19/4/4 36/4/4 16/4/4
f 36/4/4 19/4/4 39/4/4
f 43/1/1 42/1/1 41/1/1
f 42/1/1 43/1/1 44/1/1
f 25/1/1 44/1/1 43/1/1
f 44/1/1 25/1/1 26/1/1
f 44/1/2 45/2/2 42/1/2
f 45/2/2 44/1/2 46/2/2
f 26/1/2 46/2/2 44/1/2
f 46/2/2 26/1/2 29/2/2
f 48/2/3 41/1/3 47/2/3
f 41/1/3 48/2/3 43/1/3
f 31/2/3 43/1/3 48/2/3
f 43/1/3 31/2/3 25/1/3
f 45/2/4 50/2/4 49/2/4
f 50/2/4 45/2/4 46/2/4
f 46/2/4 33/2/4 50/2/4
f 33/2/4 46/2/4 29/2/4
f 50/2/3 51/3/3 49/2/3
f 51/3/3 50/2/3 52/3/3
f 33/2/3 52/3/3 50/2/3
f 52/3/3 33/2/3 35/3/3
f 55/3/2 54/2/2 53/3/2
f 54/2/2 55/3/2 56/2/2
f 37/3/2 56/2/2 55/3/2
f 56/2/2 37/3/2 38/2/2
f 54/2/4 48/2/4 47/2/4
f 48/2/4 54/2/4 56/2/4
f 56/2/4 31/2/4 48/2/4
f 31/2/4 56/2/4 38/2/4
f 55/4/4 51/4/4 52/4/4
f 51/4/4 55/4/4 53/4/4
f 37/4/4 52/4/4 35/4/4
f 52/4/4 37/4/4 55/4/4
f 59/1/1 58/1/1 57/1/1
f 58/1/1 59/1/1 60/1/1
f 41/1/1 60/1/1 59/1/1
f 60/1/1 41/1/1 42/1/1
f 60/1/2 61/2/2 58/1/2
f 61/2/2 60/1/2 62/2/2
f 42/1/2 62/2/2 60/1/2
f 62/2/2 42/1/2 45/2/2
f 64/2/3 57/1/3 63/2/3
f 57/1/3 64/2/3 59/1/3
f 47/2/3 59/1/3 64/2/3
f 59/1/3 47/2/3 41/1/3
f 61/2/4 66/2/4 65/2/4
f 66/2/4 61/2/4 62/2/4
f 62/2/4 49/2/4 66/2/4
f 49/2/4 62/2/4 45/2/4
f 66/2/3 67/3/3 65/2/3
f 67/3/3 66/2/3 68/3/3
f 49/2/3 68/3/3 66/2/3
f 68/3/3 49/2/3 51/3/3
f 71/3/2 70/2/2 69/3/2
f 70/2/2 71/3/2 72/2/2
f 53/3/2 72/2/2 71/3/2
f 72/2/2 53/3/2 54/2/2
f 70/2/4 64/2/4 63/2/4
f 64/2/4 70/2/4 72/2/4
f 72/2/4 47/2/4 64/2/4
f 47/2/4 72/2/4 54/2/4
f 71/4/4 67/4/4 68/4/4
f 67/4/4 71/4/4 69/4/4
f 53/4/4 68/4/4 51/4/4
f 68/4/4 53/4/4 71/4/4
f 75/1/1 74/1/1 73/1/1
f 74/1/1 75/1/1 76/1/1
f 57/1/1 76/1/1 75/1/1
f 76/1/1 57/1/1 58/1/1
f 76/1/2 77/2/2 74/1/2
f 77/2/2 76/1/2 78/2/2
f 58/1/2 78/2/2 76/1/2
f 78/2/2 58/1/2 61/2/2
f 80/2/3 73/1/3 79/2/3
f 73/1/3 80/2/3 75/1/3
f 63/2/3 75/1/3 80/2/3
f 75/1/3 63/2/3 57/1/3
f 77/2/4 82/2/4 81/2/4
f 82/2/4 77/2/4 78/2/4
f 78/2/4 65/2/4 82/2/4
f 65/2/4 78/2/4 61/2/4
f 82/2/3 83/3/3 81/2/3
f 83/3/3 82/2/3 84/3/3
f 65/2/3 84/3/3 82/2/3
f 84/3/3 65/2/3 67/3/3
f 87/3/2 86/2/2 85/3/2
f 86/2/2 87/3/2 88/2/2
f 69/3/2 88/2/2 87/3/2
f 88/2/2 69/3/2 70/2/2
f 86/2/4 80/2/4 79/2/4
f 80/2/4 86/2/4 88/2/4
f 88/2/4 63/2/4 80/2/4
f 63/2/4 88/2/4 70/2/4
f 87/4/4 83/4/4 84/4/4
f 83/4/4 87/4/4 85/4/4
f 69/4/4 84/4/4 67/4/4
f 84/4/4 69/4/4 87/4/4
f 91/3/5 90/2/5 89/2/5
f 91/3/5 92/1/5 90/2/5
f 92/1/5 91/3/5 93/1/5
f 94/3/5 93/1/5 91/3/5
f 93/1/5 94/3/5 95/2/5
f 95/2/5 94/3/5 96/2/5
f 99/3/6 98/2/6 97/2/6
f 99/3/6 100/1/6 98/2/6
f 100/1/6 99/3/6 101/1/6
f 102/3/6 101/1/6 99/3/6
f 101/1/6 102/3/6 103/2/6
f 103/2/6 102/3/6 104/2/6

g spline-default-straight




usemtl colormap

f 3/1/1 2/1/1 1/1/1
f 2/1/1 3/1/1 4/1/1
f 5/1/1 4/1/1 3/1/1
f 4/1/1 5/1/1 6/1/1
f 4/1/2 7/2/2 2/1/2
f 7/2/2 4/1/2 8/2/2
f 6/1/2 8/2/2 4/1/2
f 8/2/2 6/1/2 9/2/2
f 11/2/3 1/1/3 10/2/3
f 1/1/3 11/2/3 3/1/3
f 12/2/3 3/1/3 11/2/3
f 3/1/3 12/2/3 5/1/3
f 7/2/4 14/2/4 13/2/4
f 14/2/4 7/2/4 8/2/4
f 8/2/4 15/2/4 14/2/4
f 15/2/4 8/2/4 9/2/4
f 14/2/3 16/3/3 13/2/3
f 16/3/3 14/2/3 17/3/3
f 15/2/3 17/3/3 14/2/3
f 17/3/3 15/2/3 18/3/3
f 21/3/2 20/2/2 19/3/2
f 20/2/2 21/3/2 22/2/2
f 23/3/2 22/2/2 21/3/2
f 22/2/2 23/3/2 24/2/2
f 20/2/4 11/2/4 10/2/4
f 11/2/4 20/2/4 22/2/4
f 22/2/4 12/2/4 11/2/4
f 12/2/4 22/2/4 24/2/4
f 21/4/4 16/4/4 17/4/4
f 16/4/4 21/4/4 19/4/4
f 23/4/4 17/4/4 18/4/4
f 17/4/4 23/4/4 21/4/4
f 27/1/1 26/1/1 25/1/1
f 26/1/1 27/1/1 28/1/1
f 1/1/1 28/1/1 27/1/1
f 28/1/1 1/1/1 2/1/1
f 28/1/2 29/2/2 26/1/2
f 29/2/2 28/1/2 30/2/2
f 2/1/2 30/2/2 28/1/2
f 30/2/2 2/1/2 7/2/2
f 32/2/3 25/1/3 31/2/3
f 25/1/3 32/2/3 27/1/3
f 10/2/3 27/1/3 32/2/3
f 27/1/3 10/2/3 1/1/3
f 29/2/4 34/2/4 33/2/4
f 34/2/4 29/2/4 30/2/4
f 30/2/4 13/2/4 34/2/4
f 13/2/4 30/2/4 7/2/4
f 34/2/3 35/3/3 33/2/3
f 35/3/3 34/2/3 36/3/3
f 13/2/3 36/3/3 34/2/3
f 36/3/3 13/2/3 16/3/3
f 39/3/2 38/2/2 37/3/2
f 38/2/2 39/3/2 40/2/2
f 19/3/2 40/2/2 39/3/2
f 40/2/2 19/3/2 20/2/2
f 38/2/4 32/2/4 31/2/4
f 32/2/4 38/2/4 40/2/4
f 40/2/4 10/2/4 32/2/4
f 10/2/4 40/2/4 20/2/4
f 39/4/4 35/4/4 36/4/4
f 35/4/4 39/4/4 37/4/4
f 19/4/4 36/4/4 16/4/4
f 36/4/4 19/4/4 39/4/4
f 43/1/1 42/1/1 41/1/1
f 42/1/1 43/1/1 44/1/1
f 25/1/1 44/1/1 43/1/1
f 44/1/1 25/1/1 26/1/1
f 44/1/2 45/2/2 42/1/2
f 45/2/2 44/1/2 46/2/2
f 26/1/2 46/2/2 44/1/2
f 46/2/2 26/1/2 29/2/2
f 48/2/3 41/1/3 47/2/3
f 41/1/3 48/2/3 43/1/3
f 31/2/3 43/1/3 48/2/3
f 43/1/3 31/2/3 25/1/3
f 45/2/4 50/2/4 49/2/4
f 50/2/4 45/2/4 46/2/4
f 46/2/4 33/2/4 50/2/4
f 33/2/4 46/2/4 29/2/4
f 50/2/3 51/3/3 49/2/3
f 51/3/3 50/2/3 52/3/3
f 33/2/3 52/3/3 50/2/3
f 52/3/3 33/2/3 35/3/3
f 55/3/2 54/2/2 53/3/2
f 54/2/2 55/3/2 56/2/2
f 37/3/2 56/2/2 55/3/2
f 56/2/2 37/3/2 38/2/2
f 54/2/4 48/2/4 47/2/4
f 48/2/4 54/2/4 56/2/4
f 56/2/4 31/2/4 48/2/4
f 31/2/4 56/2/4 38/2/4
f 55/4/4 51/4/4 52/4/4
f 51/4/4 55/4/4 53/4/4
f 37/4/4 52/4/4 35/4/4
f 52/4/4 37/4/4 55/4/4
f 59/1/1 58/1/1 57/1/1
f 58/1/1 59/1/1 60/1/1
f 41/1/1 60/1/1 59/1/1
f 60/1/1 41/1/1 42/1/1
f 60/1/2 61/2/2 58/1/2
f 61/2/2 60/1/2 62/2/2
f 42/1/2 62/2/2 60/1/2
f 62/2/2 42/1/2 45/2/2
f 64/2/3 57/1/3 63/2/3
f 57/1/3 64/2/3 59/1/3
f 47/2/3 59/1/3 64/2/3
f 59/1/3 47/2/3 41/1/3
f 61/2/4 66/2/4 65/2/4
f 66/2/4 61/2/4 62/2/4
f 62/2/4 49/2/4 66/2/4
f 49/2/4 62/2/4 45/2/4
f 66/2/3 67/3/3 65/2/3
f 67/3/3 66/2/3 68/3/3
f 49/2/3 68/3/3 66/2/3
f 68/3/3 49/2/3 51/3/3
f 71/3/2 70/2/2 69/3/2
f 70/2/2 71/3/2 72/2/2
f 53/3/2 72/2/2 71/3/2
f 72/2/2 53/3/2 54/2/2
f 70/2/4 64/2/4 63/2/4
f 64/2/4 70/2/4 72/2/4
f 72/2/4 47/2/4 64/2/4
f 47/2/4 72/2/4 54/2/4
f 71/4/4 67/4/4 68/4/4
f 67/4/4 71/4/4 69/4/4
f 53/4/4 68/4/4 51/4/4
f 68/4/4 53/4/4 71/4/4
f 75/1/1 74/1/1 73/1/1
f 74/1/1 75/1/1 76/1/1
f 57/1/1 76/1/1 75/1/1
f 76/1/1 57/1/1 58/1/1
f 76/1/2 77/2/2 74/1/2
f 77/2/2 76/1/2 78/2/2
f 58/1/2 78/2/2 76/1/2
f 78/2/2 58/1/2 61/2/2
f 80/2/3 73/1/3 79/2/3
f 73/1/3 80/2/3 75/1/3
f 63/2/3 75/1/3 80/2/3
f 75/1/3 63/2/3 57/1/3
f 77/2/4 82/2/4 81/2/4
f 82/2/4 77/2/4 78/2/4
f 78/2/4 65/2/4 82/2/4
f 65/2/4 78/2/4 61/2/4
f 82/2/3 83/3/3 81/2/3
f 83/3/3 82/2/3 84/3/3
f 65/2/3 84/3/3 82/2/3
f 84/3/3 65/2/3 67/3/3
f 87/3/2 86/2/2 85/3/2
f 86/2/2 87/3/2 88/2/2
f 69/3/2 88/2/2 87/3/2
f 88/2/2 69/3/2 70/2/2
f 86/2/4 80/2/4 79/2/4
f 80/2/4 86/2/4 88/2/4
f 88/2/4 63/2/4 80/2/4
f 63/2/4 88/2/4 70/2/4
f 87/4/4 83/4/4 84/4/4
f 83/4/4 87/4/4 85/4/4
f 69/4/4 84/4/4 67/4/4
f 84/4/4 69/4/4 87/4/4
f 91/3/5 90/2/5 89/2/5
f 91/3/5 92/1/5 90/2/5
f 92/1/5 91/3/5 93/1/5
f 94/3/5 93/1/5 91/3/5
f 93/1/5 94/3/5 95/2/5
f 95/2/5 94/3/5 96/2/5
f 99/3/6 98/2/6 97/2/6
f 99/3/6 100/1/6 98/2/6
f 100/1/6 99/3/6 101/1/6
f 102/3/6 101/1/6 99/3/6
f 101/1/6 102/3/6 103/2/6
f 103/2/6 102/3/6 104/2/6

