# Created by Kenney (www.kenney.nl)

mtllib spline-default-straight-bump-down.mtl

g spline-default-straight-bump-down

v -0.4999499 -0.1597387 0.8120666 1 1 1
v 0.4999499 -0.1597387 0.8120666 1 1 1
v -0.4999499 -0.03506577 0.4155097 1 1 1
v 0.4999499 -0.03506577 0.4155097 1 1 1
v -0.4999499 0 4.291534E-06 1 1 1
v 0.4999499 0 4.291534E-06 1 1 1
v 0.4999499 -0.02565932 0.8714767 1 1 1
v 0.4999499 0.1091082 0.4423547 1 1 1
v 0.4999499 0.146652 4.291534E-06 1 1 1
v -0.4999499 -0.02565932 0.8714767 1 1 1
v -0.4999499 0.1091082 0.4423547 1 1 1
v -0.4999499 0.146652 4.291534E-06 1 1 1
v 0.39996 -0.02565932 0.8714767 1 1 1
v 0.39996 0.1091082 0.4423547 1 1 1
v 0.39996 0.146652 4.291534E-06 1 1 1
v 0.39996 -0.1018407 0.8377209 1 1 1
v 0.39996 0.02719116 0.4271021 1 1 1
v 0.39996 0.06332695 4.291534E-06 1 1 1
v -0.39996 -0.1018407 0.8377209 1 1 1
v -0.39996 -0.02565932 0.8714767 1 1 1
v -0.39996 0.02719116 0.4271021 1 1 1
v -0.39996 0.1091082 0.4423547 1 1 1
v -0.39996 0.06332695 4.291534E-06 1 1 1
v -0.39996 0.146652 4.291534E-06 1 1 1
v -0.4999499 -0.4649342 1.584491 1 1 1
v 0.4999499 -0.4649342 1.584491 1 1 1
v -0.4999499 -0.3402613 1.187933 1 1 1
v 0.4999499 -0.3402613 1.187933 1 1 1
v 0.4999499 -0.3207603 1.611336 1 1 1
v 0.4999499 -0.206182 1.247343 1 1 1
v -0.4999499 -0.3207603 1.611336 1 1 1
v -0.4999499 -0.206182 1.247343 1 1 1
v 0.39996 -0.3207603 1.611336 1 1 1
v 0.39996 -0.206182 1.247343 1 1 1
v 0.39996 -0.4026773 1.596083 1 1 1
v 0.39996 -0.2823634 1.213588 1 1 1
v -0.39996 -0.4026773 1.596083 1 1 1
v -0.39996 -0.3207603 1.611336 1 1 1
v -0.39996 -0.2823634 1.213588 1 1 1
v -0.39996 -0.206182 1.247343 1 1 1
v -0.4999499 -0.4649342 2.41551 1 1 1
v 0.4999499 -0.4649342 2.41551 1 1 1
v -0.4999499 -0.5 2 1 1 1
v 0.4999499 -0.5 2 1 1 1
v 0.4999499 -0.3207603 2.388664 1 1 1
v 0.4999499 -0.353348 2 1 1 1
v -0.4999499 -0.3207603 2.388664 1 1 1
v -0.4999499 -0.353348 2 1 1 1
v 0.39996 -0.3207603 2.388664 1 1 1
v 0.39996 -0.353348 2 1 1 1
v 0.39996 -0.4026773 2.403917 1 1 1
v 0.39996 -0.4366729 2 1 1 1
v -0.39996 -0.4026773 2.403917 1 1 1
v -0.39996 -0.3207603 2.388664 1 1 1
v -0.39996 -0.4366729 2 1 1 1
v -0.39996 -0.353348 2 1 1 1
v -0.4999499 -0.1597387 3.187933 1 1 1
v 0.4999499 -0.1597387 3.187933 1 1 1
v -0.4999499 -0.3402613 2.812067 1 1 1
v 0.4999499 -0.3402613 2.812067 1 1 1
v 0.4999499 -0.02565932 3.128523 1 1 1
v 0.4999499 -0.206182 2.752657 1 1 1
v -0.4999499 -0.02565932 3.128523 1 1 1
v -0.4999499 -0.206182 2.752657 1 1 1
v 0.39996 -0.02565932 3.128523 1 1 1
v 0.39996 -0.206182 2.752657 1 1 1
v 0.39996 -0.1018407 3.162279 1 1 1
v 0.39996 -0.2823634 2.786413 1 1 1
v -0.39996 -0.1018407 3.162279 1 1 1
v -0.39996 -0.02565932 3.128523 1 1 1
v -0.39996 -0.2823634 2.786413 1 1 1
v -0.39996 -0.206182 2.752657 1 1 1
v -0.4999499 0 3.999995 1 1 1
v 0.4999499 0 3.999995 1 1 1
v -0.4999499 -0.03506577 3.584491 1 1 1
v 0.4999499 -0.03506577 3.584491 1 1 1
v 0.4999499 0.146652 3.999995 1 1 1
v 0.4999499 0.1091082 3.557645 1 1 1
v -0.4999499 0.146652 3.999995 1 1 1
v -0.4999499 0.1091082 3.557645 1 1 1
v 0.39996 0.146652 3.999995 1 1 1
v 0.39996 0.1091082 3.557645 1 1 1
v 0.39996 0.06332695 3.999995 1 1 1
v 0.39996 0.02719116 3.572898 1 1 1
v -0.39996 0.06332695 3.999995 1 1 1
v -0.39996 0.146652 3.999995 1 1 1
v -0.39996 0.02719116 3.572898 1 1 1
v -0.39996 0.1091082 3.557645 1 1 1
v -0.39996 0.146652 -2.887646E-15 1 1 1
v -0.49995 0.146652 -2.887646E-15 1 1 1
v -0.39996 0.06332701 -2.887646E-15 1 1 1
v -0.49995 0 -2.887646E-15 1 1 1
v 0.49995 0 2.887646E-15 1 1 1
v 0.39996 0.06332701 0 1 1 1
v 0.49995 0.146652 2.887646E-15 1 1 1
v 0.39996 0.146652 0 1 1 1
v 0.39996 0.146652 4 1 1 1
v 0.49995 0.146652 4 1 1 1
v 0.39996 0.06332701 4 1 1 1
v 0.49995 0 4 1 1 1
v -0.49995 0 4 1 1 1
v -0.39996 0.06332701 4 1 1 1
v -0.49995 0.146652 4 1 1 1
v -0.39996 0.146652 4 1 1 1

vn 0 -0.9142686 -0.4051086
vn 0 -0.9831028 -0.1830544
vn 0 -1 -1.438542E-06
vn 1 0 0
vn -1 0 0
vn 0 0.9142686 0.4051086
vn 0 0.9831028 0.1830544
vn 0 1 1.438542E-06
vn 0 -0.9142686 -0.4051087
vn 0 0.9142686 0.4051087
vn 0 -0.9831027 0.1830545
vn 0 -1 0
vn 0 0.9831027 -0.1830545
vn 0 1 0
vn 0 -0.9142686 0.4051086
vn 0 -0.9142686 0.4051086
vn 0 0.9142686 -0.4051086
vn 0 0.9142686 -0.4051086
vn 0 -1 1.490121E-06
vn 0 1 -1.490121E-06
vn 0 0 -1
vn 0 0 1

vt 0.71875 0.025
vt 0.71875 0.225
vt 0.71875 0.1113636
vt 0.15625 0.375

usemtl colormap

f 3/1/2 2/1/1 1/1/1
f 2/1/1 3/1/2 4/1/2
f 5/1/3 4/1/2 3/1/2
f 4/1/2 5/1/3 6/1/3
f 4/1/4 7/2/4 2/1/4
f 7/2/4 4/1/4 8/2/4
f 6/1/4 8/2/4 4/1/4
f 8/2/4 6/1/4 9/2/4
f 11/2/5 1/1/5 10/2/5
f 1/1/5 11/2/5 3/1/5
f 12/2/5 3/1/5 11/2/5
f 3/1/5 12/2/5 5/1/5
f 7/2/6 14/2/7 13/2/6
f 14/2/7 7/2/6 8/2/7
f 8/2/7 15/2/8 14/2/7
f 15/2/8 8/2/7 9/2/8
f 14/2/5 16/3/5 13/2/5
f 16/3/5 14/2/5 17/3/5
f 15/2/5 17/3/5 14/2/5
f 17/3/5 15/2/5 18/3/5
f 21/3/4 20/2/4 19/3/4
f 20/2/4 21/3/4 22/2/4
f 23/3/4 22/2/4 21/3/4
f 22/2/4 23/3/4 24/2/4
f 20/2/6 11/2/7 10/2/6
f 11/2/7 20/2/6 22/2/7
f 22/2/7 12/2/8 11/2/7
f 12/2/8 22/2/7 24/2/8
f 21/4/7 16/4/6 17/4/7
f 16/4/6 21/4/7 19/4/6
f 23/4/8 17/4/7 18/4/8
f 17/4/7 23/4/8 21/4/7
f 27/1/9 26/1/2 25/1/2
f 26/1/2 27/1/9 28/1/9
f 1/1/1 28/1/9 27/1/9
f 28/1/9 1/1/1 2/1/1
f 28/1/4 29/2/4 26/1/4
f 29/2/4 28/1/4 30/2/4
f 2/1/4 30/2/4 28/1/4
f 30/2/4 2/1/4 7/2/4
f 32/2/5 25/1/5 31/2/5
f 25/1/5 32/2/5 27/1/5
f 10/2/5 27/1/5 32/2/5
f 27/1/5 10/2/5 1/1/5
f 29/2/7 34/2/10 33/2/7
f 34/2/10 29/2/7 30/2/10
f 30/2/10 13/2/6 34/2/10
f 13/2/6 30/2/10 7/2/6
f 34/2/5 35/3/5 33/2/5
f 35/3/5 34/2/5 36/3/5
f 13/2/5 36/3/5 34/2/5
f 36/3/5 13/2/5 16/3/5
f 39/3/4 38/2/4 37/3/4
f 38/2/4 39/3/4 40/2/4
f 19/3/4 40/2/4 39/3/4
f 40/2/4 19/3/4 20/2/4
f 38/2/7 32/2/10 31/2/7
f 32/2/10 38/2/7 40/2/10
f 40/2/10 10/2/6 32/2/10
f 10/2/6 40/2/10 20/2/6
f 39/4/10 35/4/7 36/4/10
f 35/4/7 39/4/10 37/4/7
f 19/4/6 36/4/10 16/4/6
f 36/4/10 19/4/6 39/4/10
f 43/1/12 42/1/11 41/1/11
f 42/1/11 43/1/12 44/1/12
f 25/1/2 44/1/12 43/1/12
f 44/1/12 25/1/2 26/1/2
f 44/1/4 45/2/4 42/1/4
f 45/2/4 44/1/4 46/2/4
f 26/1/4 46/2/4 44/1/4
f 46/2/4 26/1/4 29/2/4
f 48/2/5 41/1/5 47/2/5
f 41/1/5 48/2/5 43/1/5
f 31/2/5 43/1/5 48/2/5
f 43/1/5 31/2/5 25/1/5
f 45/2/13 50/2/14 49/2/13
f 50/2/14 45/2/13 46/2/14
f 46/2/14 33/2/7 50/2/14
f 33/2/7 46/2/14 29/2/7
f 50/2/5 51/3/5 49/2/5
f 51/3/5 50/2/5 52/3/5
f 33/2/5 52/3/5 50/2/5
f 52/3/5 33/2/5 35/3/5
f 55/3/4 54/2/4 53/3/4
f 54/2/4 55/3/4 56/2/4
f 37/3/4 56/2/4 55/3/4
f 56/2/4 37/3/4 38/2/4
f 54/2/13 48/2/14 47/2/13
f 48/2/14 54/2/13 56/2/14
f 56/2/14 31/2/7 48/2/14
f 31/2/7 56/2/14 38/2/7
f 55/4/14 51/4/13 52/4/14
f 51/4/13 55/4/14 53/4/13
f 37/4/7 52/4/14 35/4/7
f 52/4/14 37/4/7 55/4/14
f 59/1/16 58/1/15 57/1/15
f 58/1/15 59/1/16 60/1/16
f 41/1/11 60/1/16 59/1/16
f 60/1/16 41/1/11 42/1/11
f 60/1/4 61/2/4 58/1/4
f 61/2/4 60/1/4 62/2/4
f 42/1/4 62/2/4 60/1/4
f 62/2/4 42/1/4 45/2/4
f 64/2/5 57/1/5 63/2/5
f 57/1/5 64/2/5 59/1/5
f 47/2/5 59/1/5 64/2/5
f 59/1/5 47/2/5 41/1/5
f 61/2/17 66/2/18 65/2/17
f 66/2/18 61/2/17 62/2/18
f 62/2/18 49/2/13 66/2/18
f 49/2/13 62/2/18 45/2/13
f 66/2/5 67/3/5 65/2/5
f 67/3/5 66/2/5 68/3/5
f 49/2/5 68/3/5 66/2/5
f 68/3/5 49/2/5 51/3/5
f 71/3/4 70/2/4 69/3/4
f 70/2/4 71/3/4 72/2/4
f 53/3/4 72/2/4 71/3/4
f 72/2/4 53/3/4 54/2/4
f 70/2/17 64/2/18 63/2/17
f 64/2/18 70/2/17 72/2/18
f 72/2/18 47/2/13 64/2/18
f 47/2/13 72/2/18 54/2/13
f 71/4/18 67/4/17 68/4/18
f 67/4/17 71/4/18 69/4/17
f 53/4/13 68/4/18 51/4/13
f 68/4/18 53/4/13 71/4/18
f 75/1/11 74/1/19 73/1/19
f 74/1/19 75/1/11 76/1/11
f 57/1/15 76/1/11 75/1/11
f 76/1/11 57/1/15 58/1/15
f 76/1/4 77/2/4 74/1/4
f 77/2/4 76/1/4 78/2/4
f 58/1/4 78/2/4 76/1/4
f 78/2/4 58/1/4 61/2/4
f 80/2/5 73/1/5 79/2/5
f 73/1/5 80/2/5 75/1/5
f 63/2/5 75/1/5 80/2/5
f 75/1/5 63/2/5 57/1/5
f 77/2/20 82/2/13 81/2/20
f 82/2/13 77/2/20 78/2/13
f 78/2/13 65/2/17 82/2/13
f 65/2/17 78/2/13 61/2/17
f 82/2/5 83/3/5 81/2/5
f 83/3/5 82/2/5 84/3/5
f 65/2/5 84/3/5 82/2/5
f 84/3/5 65/2/5 67/3/5
f 87/3/4 86/2/4 85/3/4
f 86/2/4 87/3/4 88/2/4
f 69/3/4 88/2/4 87/3/4
f 88/2/4 69/3/4 70/2/4
f 86/2/20 80/2/13 79/2/20
f 80/2/13 86/2/20 88/2/13
f 88/2/13 63/2/17 80/2/13
f 63/2/17 88/2/13 70/2/17
f 87/4/13 83/4/20 84/4/13
f 83/4/20 87/4/13 85/4/20
f 69/4/17 84/4/13 67/4/17
f 84/4/13 69/4/17 87/4/13
f 91/3/21 90/2/21 89/2/21
f 91/3/21 92/1/21 90/2/21
f 92/1/21 91/3/21 93/1/21
f 94/3/21 93/1/21 91/3/21
f 93/1/21 94/3/21 95/2/21
f 95/2/21 94/3/21 96/2/21
f 99/3/22 98/2/22 97/2/22
f 99/3/22 100/1/22 98/2/22
f 100/1/22 99/3/22 101/1/22
f 102/3/22 101/1/22 99/3/22
f 101/1/22 102/3/22 103/2/22
f 103/2/22 102/3/22 104/2/22

g spline-default-straight-bump-down




usemtl colormap

f 3/1/2 2/1/1 1/1/1
f 2/1/1 3/1/2 4/1/2
f 5/1/3 4/1/2 3/1/2
f 4/1/2 5/1/3 6/1/3
f 4/1/4 7/2/4 2/1/4
f 7/2/4 4/1/4 8/2/4
f 6/1/4 8/2/4 4/1/4
f 8/2/4 6/1/4 9/2/4
f 11/2/5 1/1/5 10/2/5
f 1/1/5 11/2/5 3/1/5
f 12/2/5 3/1/5 11/2/5
f 3/1/5 12/2/5 5/1/5
f 7/2/6 14/2/7 13/2/6
f 14/2/7 7/2/6 8/2/7
f 8/2/7 15/2/8 14/2/7
f 15/2/8 8/2/7 9/2/8
f 14/2/5 16/3/5 13/2/5
f 16/3/5 14/2/5 17/3/5
f 15/2/5 17/3/5 14/2/5
f 17/3/5 15/2/5 18/3/5
f 21/3/4 20/2/4 19/3/4
f 20/2/4 21/3/4 22/2/4
f 23/3/4 22/2/4 21/3/4
f 22/2/4 23/3/4 24/2/4
f 20/2/6 11/2/7 10/2/6
f 11/2/7 20/2/6 22/2/7
f 22/2/7 12/2/8 11/2/7
f 12/2/8 22/2/7 24/2/8
f 21/4/7 16/4/6 17/4/7
f 16/4/6 21/4/7 19/4/6
f 23/4/8 17/4/7 18/4/8
f 17/4/7 23/4/8 21/4/7
f 27/1/9 26/1/2 25/1/2
f 26/1/2 27/1/9 28/1/9
f 1/1/1 28/1/9 27/1/9
f 28/1/9 1/1/1 2/1/1
f 28/1/4 29/2/4 26/1/4
f 29/2/4 28/1/4 30/2/4
f 2/1/4 30/2/4 28/1/4
f 30/2/4 2/1/4 7/2/4
f 32/2/5 25/1/5 31/2/5
f 25/1/5 32/2/5 27/1/5
f 10/2/5 27/1/5 32/2/5
f 27/1/5 10/2/5 1/1/5
f 29/2/7 34/2/10 33/2/7
f 34/2/10 29/2/7 30/2/10
f 30/2/10 13/2/6 34/2/10
f 13/2/6 30/2/10 7/2/6
f 34/2/5 35/3/5 33/2/5
f 35/3/5 34/2/5 36/3/5
f 13/2/5 36/3/5 34/2/5
f 36/3/5 13/2/5 16/3/5
f 39/3/4 38/2/4 37/3/4
f 38/2/4 39/3/4 40/2/4
f 19/3/4 40/2/4 39/3/4
f 40/2/4 19/3/4 20/2/4
f 38/2/7 32/2/10 31/2/7
f 32/2/10 38/2/7 40/2/10
f 40/2/10 10/2/6 32/2/10
f 10/2/6 40/2/10 20/2/6
f 39/4/10 35/4/7 36/4/10
f 35/4/7 39/4/10 37/4/7
f 19/4/6 36/4/10 16/4/6
f 36/4/10 19/4/6 39/4/10
f 43/1/12 42/1/11 41/1/11
f 42/1/11 43/1/12 44/1/12
f 25/1/2 44/1/12 43/1/12
f 44/1/12 25/1/2 26/1/2
f 44/1/4 45/2/4 42/1/4
f 45/2/4 44/1/4 46/2/4
f 26/1/4 46/2/4 44/1/4
f 46/2/4 26/1/4 29/2/4
f 48/2/5 41/1/5 47/2/5
f 41/1/5 48/2/5 43/1/5
f 31/2/5 43/1/5 48/2/5
f 43/1/5 31/2/5 25/1/5
f 45/2/13 50/2/14 49/2/13
f 50/2/14 45/2/13 46/2/14
f 46/2/14 33/2/7 50/2/14
f 33/2/7 46/2/14 29/2/7
f 50/2/5 51/3/5 49/2/5
f 51/3/5 50/2/5 52/3/5
f 33/2/5 52/3/5 50/2/5
f 52/3/5 33/2/5 35/3/5
f 55/3/4 54/2/4 53/3/4
f 54/2/4 55/3/4 56/2/4
f 37/3/4 56/2/4 55/3/4
f 56/2/4 37/3/4 38/2/4
f 54/2/13 48/2/14 47/2/13
f 48/2/14 54/2/13 56/2/14
f 56/2/14 31/2/7 48/2/14
f 31/2/7 56/2/14 38/2/7
f 55/4/14 51/4/13 52/4/14
f 51/4/13 55/4/14 53/4/13
f 37/4/7 52/4/14 35/4/7
f 52/4/14 37/4/7 55/4/14
f 59/1/16 58/1/15 57/1/15
f 58/1/15 59/1/16 60/1/16
f 41/1/11 60/1/16 59/1/16
f 60/1/16 41/1/11 42/1/11
f 60/1/4 61/2/4 58/1/4
f 61/2/4 60/1/4 62/2/4
f 42/1/4 62/2/4 60/1/4
f 62/2/4 42/1/4 45/2/4
f 64/2/5 57/1/5 63/2/5
f 57/1/5 64/2/5 59/1/5
f 47/2/5 59/1/5 64/2/5
f 59/1/5 47/2/5 41/1/5
f 61/2/17 66/2/18 65/2/17
f 66/2/18 61/2/17 62/2/18
f 62/2/18 49/2/13 66/2/18
f 49/2/13 62/2/18 45/2/13
f 66/2/5 67/3/5 65/2/5
f 67/3/5 66/2/5 68/3/5
f 49/2/5 68/3/5 66/2/5
f 68/3/5 49/2/5 51/3/5
f 71/3/4 70/2/4 69/3/4
f 70/2/4 71/3/4 72/2/4
f 53/3/4 72/2/4 71/3/4
f 72/2/4 53/3/4 54/2/4
f 70/2/17 64/2/18 63/2/17
f 64/2/18 70/2/17 72/2/18
f 72/2/18 47/2/13 64/2/18
f 47/2/13 72/2/18 54/2/13
f 71/4/18 67/4/17 68/4/18
f 67/4/17 71/4/18 69/4/17
f 53/4/13 68/4/18 51/4/13
f 68/4/18 53/4/13 71/4/18
f 75/1/11 74/1/19 73/1/19
f 74/1/19 75/1/11 76/1/11
f 57/1/15 76/1/11 75/1/11
f 76/1/11 57/1/15 58/1/15
f 76/1/4 77/2/4 74/1/4
f 77/2/4 76/1/4 78/2/4
f 58/1/4 78/2/4 76/1/4
f 78/2/4 58/1/4 61/2/4
f 80/2/5 73/1/5 79/2/5
f 73/1/5 80/2/5 75/1/5
f 63/2/5 75/1/5 80/2/5
f 75/1/5 63/2/5 57/1/5
f 77/2/20 82/2/13 81/2/20
f 82/2/13 77/2/20 78/2/13
f 78/2/13 65/2/17 82/2/13
f 65/2/17 78/2/13 61/2/17
f 82/2/5 83/3/5 81/2/5
f 83/3/5 82/2/5 84/3/5
f 65/2/5 84/3/5 82/2/5
f 84/3/5 65/2/5 67/3/5
f 87/3/4 86/2/4 85/3/4
f 86/2/4 87/3/4 88/2/4
f 69/3/4 88/2/4 87/3/4
f 88/2/4 69/3/4 70/2/4
f 86/2/20 80/2/13 79/2/20
f 80/2/13 86/2/20 88/2/13
f 88/2/13 63/2/17 80/2/13
f 63/2/17 88/2/13 70/2/17
f 87/4/13 83/4/20 84/4/13
f 83/4/20 87/4/13 85/4/20
f 69/4/17 84/4/13 67/4/17
f 84/4/13 69/4/17 87/4/13
f 91/3/21 90/2/21 89/2/21
f 91/3/21 92/1/21 90/2/21
f 92/1/21 91/3/21 93/1/21
f 94/3/21 93/1/21 91/3/21
f 93/1/21 94/3/21 95/2/21
f 95/2/21 94/3/21 96/2/21
f 99/3/22 98/2/22 97/2/22
f 99/3/22 100/1/22 98/2/22
f 100/1/22 99/3/22 101/1/22
f 102/3/22 101/1/22 99/3/22
f 101/1/22 102/3/22 103/2/22
f 103/2/22 102/3/22 104/2/22

