# Created by Kenney (www.kenney.nl)

mtllib structure-gate.mtl

g structure-gate

v -0.39996 8.234302E-16 -0.39996 1 1 1
v -0.39996 0.23331 -0.39996 1 1 1
v -0.39996 0 0.39996 1 1 1
v -0.39996 0.23331 0.39996 1 1 1
v 0.39996 0.23331 -0.39996 1 1 1
v 0.39996 8.234302E-16 -0.39996 1 1 1
v 0.39996 0.23331 0.39996 1 1 1
v 0.39996 0 0.39996 1 1 1
v -0.09999 8.234302E-16 -0.39996 1 1 1
v -0.09999 0 0.39996 1 1 1
v -0.09999 0.06666 -0.39996 1 1 1
v -0.09999 0.06666 0.39996 1 1 1
v 0.09999 8.234302E-16 -0.39996 1 1 1
v 0.09999 0.06666 -0.39996 1 1 1
v 0.09999 0 0.39996 1 1 1
v 0.09999 0.06666 0.39996 1 1 1
v -0.08659388 0.116655 -0.39996 1 1 1
v -0.049995 0.1532539 -0.39996 1 1 1
v 7.449866E-10 0.16665 -0.39996 1 1 1
v 0.049995 0.1532539 -0.39996 1 1 1
v 0.08659388 0.116655 -0.39996 1 1 1
v 0.08659388 0.116655 0.39996 1 1 1
v 0.049995 0.1532539 0.39996 1 1 1
v 7.449808E-10 0.16665 0.39996 1 1 1
v -0.049995 0.1532539 0.39996 1 1 1
v -0.08659388 0.116655 0.39996 1 1 1

vn -1 0 0
vn 1 0 0
vn 0 1 0
vn 0.9914449 -0.1305262 0
vn -0.9914449 -0.1305262 0
vn 0 0 -1
vn 0 0 1
vn -0.8660254 -0.5 0
vn 0.5 -0.8660254 0
vn 0.8660254 -0.5 0
vn -0.5 -0.8660254 0
vn 0 -1 0

vt 0.09375 0.325
vt 0.09375 0.425
vt 0.09375 0.3535714
vt 0.09375 0.375
vt 0.09375 0.3906868
vt 0.09375 0.3964286

usemtl colormap

f 3/1/1 2/2/1 1/1/1
f 2/2/1 3/1/1 4/2/1
f 7/2/2 6/1/2 5/2/2
f 6/1/2 7/2/2 8/1/2
f 2/2/3 7/2/3 5/2/3
f 7/2/3 2/2/3 4/2/3
f 11/3/4 10/1/2 9/1/2
f 10/1/2 11/3/4 12/3/4
f 15/1/1 14/3/5 13/1/1
f 14/3/5 15/1/1 16/3/5
f 2/2/6 9/1/6 1/1/6
f 9/1/6 2/2/6 11/3/6
f 11/3/6 2/2/6 17/4/6
f 17/4/6 2/2/6 18/5/6
f 18/5/6 2/2/6 19/6/6
f 5/2/6 19/6/6 2/2/6
f 5/2/6 20/5/6 19/6/6
f 5/2/6 21/4/6 20/5/6
f 5/2/6 14/3/6 21/4/6
f 6/1/6 14/3/6 5/2/6
f 14/3/6 6/1/6 13/1/6
f 7/2/7 15/1/7 8/1/7
f 15/1/7 7/2/7 16/3/7
f 16/3/7 7/2/7 22/4/7
f 22/4/7 7/2/7 23/5/7
f 23/5/7 7/2/7 24/6/7
f 4/2/7 24/6/7 7/2/7
f 4/2/7 25/5/7 24/6/7
f 4/2/7 26/4/7 25/5/7
f 4/2/7 12/3/7 26/4/7
f 3/1/7 12/3/7 4/2/7
f 12/3/7 3/1/7 10/1/7
f 16/3/5 21/4/8 14/3/5
f 21/4/8 16/3/5 22/4/8
f 25/5/9 17/4/10 18/5/9
f 17/4/10 25/5/9 26/4/10
f 22/4/8 20/5/11 21/4/8
f 20/5/11 22/4/8 23/5/11
f 24/6/12 18/5/9 19/6/12
f 18/5/9 24/6/12 25/5/9
f 23/5/11 19/6/12 20/5/11
f 19/6/12 23/5/11 24/6/12
f 26/4/10 11/3/4 17/4/10
f 11/3/4 26/4/10 12/3/4

g structure-gate




usemtl colormap

f 3/1/1 2/2/1 1/1/1
f 2/2/1 3/1/1 4/2/1
f 7/2/2 6/1/2 5/2/2
f 6/1/2 7/2/2 8/1/2
f 2/2/3 7/2/3 5/2/3
f 7/2/3 2/2/3 4/2/3
f 11/3/4 10/1/2 9/1/2
f 10/1/2 11/3/4 12/3/4
f 15/1/1 14/3/5 13/1/1
f 14/3/5 15/1/1 16/3/5
f 2/2/6 9/1/6 1/1/6
f 9/1/6 2/2/6 11/3/6
f 11/3/6 2/2/6 17/4/6
f 17/4/6 2/2/6 18/5/6
f 18/5/6 2/2/6 19/6/6
f 5/2/6 19/6/6 2/2/6
f 5/2/6 20/5/6 19/6/6
f 5/2/6 21/4/6 20/5/6
f 5/2/6 14/3/6 21/4/6
f 6/1/6 14/3/6 5/2/6
f 14/3/6 6/1/6 13/1/6
f 7/2/7 15/1/7 8/1/7
f 15/1/7 7/2/7 16/3/7
f 16/3/7 7/2/7 22/4/7
f 22/4/7 7/2/7 23/5/7
f 23/5/7 7/2/7 24/6/7
f 4/2/7 24/6/7 7/2/7
f 4/2/7 25/5/7 24/6/7
f 4/2/7 26/4/7 25/5/7
f 4/2/7 12/3/7 26/4/7
f 3/1/7 12/3/7 4/2/7
f 12/3/7 3/1/7 10/1/7
f 16/3/5 21/4/8 14/3/5
f 21/4/8 16/3/5 22/4/8
f 25/5/9 17/4/10 18/5/9
f 17/4/10 25/5/9 26/4/10
f 22/4/8 20/5/11 21/4/8
f 20/5/11 22/4/8 23/5/11
f 24/6/12 18/5/9 19/6/12
f 18/5/9 24/6/12 25/5/9
f 23/5/11 19/6/12 20/5/11
f 19/6/12 23/5/11 24/6/12
f 26/4/10 11/3/4 17/4/10
f 11/3/4 26/4/10 12/3/4

