# Created by Kenney (www.kenney.nl)

mtllib structure-gate-building.mtl

g structure-gate-building

v -0.2749725 0.5332749 -0.1549875 1 1 1
v -0.4038643 0.4301615 -0.1549875 1 1 1
v -0.2749725 0.5332749 0.1549875 1 1 1
v -0.4038643 0.4301615 0.1549875 1 1 1
v -0.4233861 0.4145441 -0.1299875 1 1 1
v -0.4233861 0.4145441 0.1299875 1 1 1
v -0.2949823 0.5877015 -0.1549875 1 1 1
v -0.2949823 0.5877015 0.1549875 1 1 1
v -0.4382226 0.4731093 -0.1549875 1 1 1
v -0.4382226 0.4731093 0.1549875 1 1 1
v -0.4577443 0.4574919 -0.1299875 1 1 1
v -0.4577443 0.4574919 0.1299875 1 1 1
v -0.09220071 0.4574919 -0.1299875 1 1 1
v -0.1265589 0.4145441 -0.1299875 1 1 1
v -0.09220071 0.4574919 0.1299875 1 1 1
v -0.1265589 0.4145441 0.1299875 1 1 1
v -0.1460807 0.4301615 0.1549875 1 1 1
v -0.1117224 0.4731093 0.1549875 1 1 1
v -0.2549627 0.5877015 0.1549875 1 1 1
v -0.2549627 0.5877015 -0.1549875 1 1 1
v -0.1117224 0.4731093 -0.1549875 1 1 1
v -0.1460807 0.4301615 -0.1549875 1 1 1
v 0.149985 0.299965 -0.1249875 1 1 1
v 0.149985 0.399955 5.775291E-15 1 1 1
v -0.149985 0.299965 -0.1249875 1 1 1
v -0.149985 0.399955 2.887646E-15 1 1 1
v 0.149985 0.299965 0.1249875 1 1 1
v -0.149985 0.299965 0.1249875 1 1 1
v 0.2749725 0.5332749 -0.1549875 1 1 1
v 0.1460807 0.4301615 -0.1549875 1 1 1
v 0.2749725 0.5332749 0.1549875 1 1 1
v 0.1460807 0.4301615 0.1549875 1 1 1
v 0.1265589 0.4145441 -0.1299875 1 1 1
v 0.1265589 0.4145441 0.1299875 1 1 1
v 0.2549627 0.5877015 -0.1549875 1 1 1
v 0.2549627 0.5877015 0.1549875 1 1 1
v 0.1117224 0.4731093 -0.1549875 1 1 1
v 0.1117224 0.4731093 0.1549875 1 1 1
v 0.09220071 0.4574919 -0.1299875 1 1 1
v 0.09220071 0.4574919 0.1299875 1 1 1
v 0.4577443 0.4574919 -0.1299875 1 1 1
v 0.4233861 0.4145441 -0.1299875 1 1 1
v 0.4577443 0.4574919 0.1299875 1 1 1
v 0.4233861 0.4145441 0.1299875 1 1 1
v 0.4038643 0.4301615 0.1549875 1 1 1
v 0.4382226 0.4731093 0.1549875 1 1 1
v 0.2949823 0.5877015 0.1549875 1 1 1
v 0.2949823 0.5877015 -0.1549875 1 1 1
v 0.4382226 0.4731093 -0.1549875 1 1 1
v 0.4038643 0.4301615 -0.1549875 1 1 1
v 0.39996 0 0.1249875 1 1 1
v 0.149985 0 0.1249875 1 1 1
v 0.39996 0.433285 0.1249875 1 1 1
v 0.149985 0.0919783 0.1249875 1 1 1
v 0.1339017 0.1439938 0.1249875 1 1 1
v 0.1003366 0.1869125 0.1249875 1 1 1
v 0.0536719 0.2151309 0.1249875 1 1 1
v 1.804779E-15 0.224965 0.1249875 1 1 1
v 0.149985 0.433285 0.1249875 1 1 1
v 0.2749725 0.533275 0.1249875 1 1 1
v -0.0536719 0.2151309 0.1249875 1 1 1
v -0.39996 0.433285 0.1249875 1 1 1
v -0.149985 0.433285 0.1249875 1 1 1
v -0.2749725 0.533275 0.1249875 1 1 1
v -0.1003366 0.1869125 0.1249875 1 1 1
v -0.1339017 0.1439938 0.1249875 1 1 1
v -0.149985 0.0919783 0.1249875 1 1 1
v -0.39996 2.255973E-16 0.1249875 1 1 1
v -0.149985 0 0.1249875 1 1 1
v -0.39996 0.433285 -0.1249875 1 1 1
v -0.39996 0 -0.1249875 1 1 1
v 0.39996 0.433285 -0.1249875 1 1 1
v 0.39996 0 -0.1249875 1 1 1
v 0.149985 0.433285 -0.1249875 1 1 1
v -0.149985 0.433285 -0.1249875 1 1 1
v -0.149985 0 -0.1249875 1 1 1
v -0.149985 0.0919783 -0.1249875 1 1 1
v -0.1339017 0.1439938 -0.1249875 1 1 1
v -0.1003366 0.1869125 -0.1249875 1 1 1
v -0.0536719 0.2151309 -0.1249875 1 1 1
v 1.804779E-15 0.224965 -0.1249875 1 1 1
v -0.2749725 0.533275 -0.1249875 1 1 1
v 0.0536719 0.2151309 -0.1249875 1 1 1
v 0.2749725 0.533275 -0.1249875 1 1 1
v 0.1003366 0.1869125 -0.1249875 1 1 1
v 0.1339017 0.1439938 -0.1249875 1 1 1
v 0.149985 0.0919783 -0.1249875 1 1 1
v 0.149985 0 -0.1249875 1 1 1

vn 0.6246951 -0.7808689 0
vn -0.3310069 0.9436284 0
vn -0.6246951 0.7808689 0
vn 0.7214288 -0.577143 -0.3826835
vn 0.7214288 -0.577143 0.3826835
vn 0.2988256 -0.2390604 0.9238795
vn 0 0 1
vn -0.2988256 -0.2390604 0.9238795
vn -0.2988256 -0.2390604 -0.9238795
vn 0 0 -1
vn 0.2988256 -0.2390604 -0.9238795
vn -0.7214288 -0.577143 -0.3826835
vn -0.7214288 -0.577143 0.3826835
vn 0.3310069 0.9436284 0
vn -0.6246951 -0.7808689 0
vn 0.6246951 0.7808689 0
vn 0 0.7808688 -0.6246951
vn 0 1 0
vn 0 0.7808688 0.6246951
vn -1 0 0
vn 1 0 0
vn 0.9887803 -0.1493778 0
vn 0.8861656 -0.4633687 0
vn 0.6634952 -0.7481806 0
vn 0.3546545 -0.9349974 0
vn 0 -1 0
vn -0.3546545 -0.9349974 0
vn -0.6634952 -0.7481806 0
vn -0.8861656 -0.4633687 0
vn -0.9887803 -0.1493778 0

vt 0.71875 0.1621363
vt 0.71875 0.04303836
vt 0.71875 0.025
vt 0.71875 0.225
vt 0.71875 0.09264384
vt 0.71875 0.07460548
vt 0.09375 0.325
vt 0.09375 0.4062498
vt 0.09375 0.3422478
vt 0.09375 0.3520018
vt 0.09375 0.3600499
vt 0.09375 0.3653415
vt 0.09375 0.3812496
vt 0.09375 0.3671855
vt 0.09375 0.425

usemtl colormap

f 3/1/1 2/2/1 1/1/1
f 2/2/1 3/1/1 4/2/1
f 2/2/1 4/2/1 5/3/1
f 5/3/1 4/2/1 6/3/1
f 9/5/3 8/4/2 7/4/2
f 8/4/2 9/5/3 10/5/3
f 10/5/3 9/5/3 11/6/3
f 10/5/3 11/6/3 12/6/3
f 15/6/5 14/3/4 13/6/4
f 14/3/4 15/6/5 16/3/5
f 18/5/6 3/1/7 17/2/6
f 3/1/7 18/5/6 19/4/7
f 3/1/7 19/4/7 8/4/7
f 10/5/8 3/1/7 8/4/7
f 3/1/7 10/5/8 4/2/8
f 9/5/9 1/1/10 2/2/9
f 1/1/10 9/5/9 7/4/10
f 20/4/10 1/1/10 7/4/10
f 21/5/11 1/1/10 20/4/10
f 1/1/10 21/5/11 22/2/11
f 6/3/13 11/6/12 5/3/12
f 11/6/12 6/3/13 12/6/13
f 22/2/11 13/6/4 14/3/4
f 13/6/4 22/2/11 21/5/11
f 4/2/8 12/6/13 6/3/13
f 12/6/13 4/2/8 10/5/8
f 11/6/12 2/2/9 5/3/12
f 2/2/9 11/6/12 9/5/9
f 7/4/2 19/4/14 20/4/14
f 19/4/14 7/4/2 8/4/2
f 15/6/5 17/2/6 16/3/5
f 17/2/6 15/6/5 18/5/6
f 17/2/15 14/3/15 16/3/15
f 14/3/15 17/2/15 22/2/15
f 22/2/15 17/2/15 1/1/15
f 1/1/15 17/2/15 3/1/15
f 21/5/16 15/6/16 13/6/16
f 15/6/16 21/5/16 18/5/16
f 18/5/16 21/5/16 20/4/14
f 18/5/16 20/4/14 19/4/14
f 25/3/17 24/4/18 23/3/17
f 24/4/18 25/3/17 26/4/18
f 26/4/18 27/3/19 24/4/18
f 27/3/19 26/4/18 28/3/19
f 31/1/1 30/2/1 29/1/1
f 30/2/1 31/1/1 32/2/1
f 30/2/1 32/2/1 33/3/1
f 33/3/1 32/2/1 34/3/1
f 37/5/3 36/4/2 35/4/2
f 36/4/2 37/5/3 38/5/3
f 38/5/3 37/5/3 39/6/3
f 38/5/3 39/6/3 40/6/3
f 43/6/5 42/3/4 41/6/4
f 42/3/4 43/6/5 44/3/5
f 46/5/6 31/1/7 45/2/6
f 31/1/7 46/5/6 47/4/7
f 31/1/7 47/4/7 36/4/7
f 38/5/8 31/1/7 36/4/7
f 31/1/7 38/5/8 32/2/8
f 37/5/9 29/1/10 30/2/9
f 29/1/10 37/5/9 35/4/10
f 48/4/10 29/1/10 35/4/10
f 49/5/11 29/1/10 48/4/10
f 29/1/10 49/5/11 50/2/11
f 34/3/13 39/6/12 33/3/12
f 39/6/12 34/3/13 40/6/13
f 50/2/11 41/6/4 42/3/4
f 41/6/4 50/2/11 49/5/11
f 32/2/8 40/6/13 34/3/13
f 40/6/13 32/2/8 38/5/8
f 39/6/12 30/2/9 33/3/12
f 30/2/9 39/6/12 37/5/9
f 35/4/2 47/4/14 48/4/14
f 47/4/14 35/4/2 36/4/2
f 43/6/5 45/2/6 44/3/5
f 45/2/6 43/6/5 46/5/6
f 45/2/15 42/3/15 44/3/15
f 42/3/15 45/2/15 50/2/15
f 50/2/15 45/2/15 29/1/15
f 29/1/15 45/2/15 31/1/15
f 49/5/16 43/6/16 41/6/16
f 43/6/16 49/5/16 46/5/16
f 46/5/16 49/5/16 48/4/14
f 46/5/16 48/4/14 47/4/14
f 53/8/7 52/7/7 51/7/7
f 52/7/7 53/8/7 54/9/7
f 54/9/7 53/8/7 55/10/7
f 55/10/7 53/8/7 56/11/7
f 56/11/7 53/8/7 57/12/7
f 57/12/7 53/8/7 27/13/7
f 57/12/7 27/13/7 58/14/7
f 27/13/7 53/8/7 59/8/7
f 59/8/7 53/8/7 60/15/7
f 28/13/7 58/14/7 27/13/7
f 28/13/7 61/12/7 58/14/7
f 62/8/7 61/12/7 28/13/7
f 62/8/7 28/13/7 63/8/7
f 62/8/7 63/8/7 64/15/7
f 62/8/7 65/11/7 61/12/7
f 62/8/7 66/10/7 65/11/7
f 62/8/7 67/9/7 66/10/7
f 68/7/7 67/9/7 62/8/7
f 67/9/7 68/7/7 69/7/7
f 71/7/20 62/8/20 70/8/20
f 62/8/20 71/7/20 68/7/20
f 53/8/21 73/7/21 72/8/21
f 73/7/21 53/8/21 51/7/21
f 25/13/18 27/13/18 23/13/18
f 27/13/18 25/13/18 28/13/18
f 27/13/20 74/8/20 23/13/20
f 74/8/20 27/13/20 59/8/20
f 63/8/21 25/13/21 75/8/21
f 25/13/21 63/8/21 28/13/21
f 70/8/10 76/7/10 71/7/10
f 76/7/10 70/8/10 77/9/10
f 77/9/10 70/8/10 78/10/10
f 78/10/10 70/8/10 79/11/10
f 79/11/10 70/8/10 80/12/10
f 80/12/10 70/8/10 25/13/10
f 80/12/10 25/13/10 81/14/10
f 25/13/10 70/8/10 75/8/10
f 75/8/10 70/8/10 82/15/10
f 23/13/10 81/14/10 25/13/10
f 23/13/10 83/12/10 81/14/10
f 72/8/10 83/12/10 23/13/10
f 72/8/10 23/13/10 74/8/10
f 72/8/10 74/8/10 84/15/10
f 72/8/10 85/11/10 83/12/10
f 72/8/10 86/10/10 85/11/10
f 72/8/10 87/9/10 86/10/10
f 73/7/10 87/9/10 72/8/10
f 87/9/10 73/7/10 88/7/10
f 67/9/22 76/7/21 77/9/22
f 76/7/21 67/9/22 69/7/21
f 66/10/23 77/9/22 78/10/23
f 77/9/22 66/10/23 67/9/22
f 65/11/24 78/10/23 79/11/24
f 78/10/23 65/11/24 66/10/23
f 65/11/24 80/12/25 61/12/25
f 80/12/25 65/11/24 79/11/24
f 61/12/25 81/14/26 58/14/26
f 81/14/26 61/12/25 80/12/25
f 58/14/26 83/12/27 57/12/27
f 83/12/27 58/14/26 81/14/26
f 57/12/27 85/11/28 56/11/28
f 85/11/28 57/12/27 83/12/27
f 55/10/29 85/11/28 86/10/29
f 85/11/28 55/10/29 56/11/28
f 54/9/30 86/10/29 87/9/30
f 86/10/29 54/9/30 55/10/29
f 52/7/20 87/9/30 88/7/20
f 87/9/30 52/7/20 54/9/30

g structure-gate-building




usemtl colormap

f 3/1/1 2/2/1 1/1/1
f 2/2/1 3/1/1 4/2/1
f 2/2/1 4/2/1 5/3/1
f 5/3/1 4/2/1 6/3/1
f 9/5/3 8/4/2 7/4/2
f 8/4/2 9/5/3 10/5/3
f 10/5/3 9/5/3 11/6/3
f 10/5/3 11/6/3 12/6/3
f 15/6/5 14/3/4 13/6/4
f 14/3/4 15/6/5 16/3/5
f 18/5/6 3/1/7 17/2/6
f 3/1/7 18/5/6 19/4/7
f 3/1/7 19/4/7 8/4/7
f 10/5/8 3/1/7 8/4/7
f 3/1/7 10/5/8 4/2/8
f 9/5/9 1/1/10 2/2/9
f 1/1/10 9/5/9 7/4/10
f 20/4/10 1/1/10 7/4/10
f 21/5/11 1/1/10 20/4/10
f 1/1/10 21/5/11 22/2/11
f 6/3/13 11/6/12 5/3/12
f 11/6/12 6/3/13 12/6/13
f 22/2/11 13/6/4 14/3/4
f 13/6/4 22/2/11 21/5/11
f 4/2/8 12/6/13 6/3/13
f 12/6/13 4/2/8 10/5/8
f 11/6/12 2/2/9 5/3/12
f 2/2/9 11/6/12 9/5/9
f 7/4/2 19/4/14 20/4/14
f 19/4/14 7/4/2 8/4/2
f 15/6/5 17/2/6 16/3/5
f 17/2/6 15/6/5 18/5/6
f 17/2/15 14/3/15 16/3/15
f 14/3/15 17/2/15 22/2/15
f 22/2/15 17/2/15 1/1/15
f 1/1/15 17/2/15 3/1/15
f 21/5/16 15/6/16 13/6/16
f 15/6/16 21/5/16 18/5/16
f 18/5/16 21/5/16 20/4/14
f 18/5/16 20/4/14 19/4/14
f 25/3/17 24/4/18 23/3/17
f 24/4/18 25/3/17 26/4/18
f 26/4/18 27/3/19 24/4/18
f 27/3/19 26/4/18 28/3/19
f 31/1/1 30/2/1 29/1/1
f 30/2/1 31/1/1 32/2/1
f 30/2/1 32/2/1 33/3/1
f 33/3/1 32/2/1 34/3/1
f 37/5/3 36/4/2 35/4/2
f 36/4/2 37/5/3 38/5/3
f 38/5/3 37/5/3 39/6/3
f 38/5/3 39/6/3 40/6/3
f 43/6/5 42/3/4 41/6/4
f 42/3/4 43/6/5 44/3/5
f 46/5/6 31/1/7 45/2/6
f 31/1/7 46/5/6 47/4/7
f 31/1/7 47/4/7 36/4/7
f 38/5/8 31/1/7 36/4/7
f 31/1/7 38/5/8 32/2/8
f 37/5/9 29/1/10 30/2/9
f 29/1/10 37/5/9 35/4/10
f 48/4/10 29/1/10 35/4/10
f 49/5/11 29/1/10 48/4/10
f 29/1/10 49/5/11 50/2/11
f 34/3/13 39/6/12 33/3/12
f 39/6/12 34/3/13 40/6/13
f 50/2/11 41/6/4 42/3/4
f 41/6/4 50/2/11 49/5/11
f 32/2/8 40/6/13 34/3/13
f 40/6/13 32/2/8 38/5/8
f 39/6/12 30/2/9 33/3/12
f 30/2/9 39/6/12 37/5/9
f 35/4/2 47/4/14 48/4/14
f 47/4/14 35/4/2 36/4/2
f 43/6/5 45/2/6 44/3/5
f 45/2/6 43/6/5 46/5/6
f 45/2/15 42/3/15 44/3/15
f 42/3/15 45/2/15 50/2/15
f 50/2/15 45/2/15 29/1/15
f 29/1/15 45/2/15 31/1/15
f 49/5/16 43/6/16 41/6/16
f 43/6/16 49/5/16 46/5/16
f 46/5/16 49/5/16 48/4/14
f 46/5/16 48/4/14 47/4/14
f 53/8/7 52/7/7 51/7/7
f 52/7/7 53/8/7 54/9/7
f 54/9/7 53/8/7 55/10/7
f 55/10/7 53/8/7 56/11/7
f 56/11/7 53/8/7 57/12/7
f 57/12/7 53/8/7 27/13/7
f 57/12/7 27/13/7 58/14/7
f 27/13/7 53/8/7 59/8/7
f 59/8/7 53/8/7 60/15/7
f 28/13/7 58/14/7 27/13/7
f 28/13/7 61/12/7 58/14/7
f 62/8/7 61/12/7 28/13/7
f 62/8/7 28/13/7 63/8/7
f 62/8/7 63/8/7 64/15/7
f 62/8/7 65/11/7 61/12/7
f 62/8/7 66/10/7 65/11/7
f 62/8/7 67/9/7 66/10/7
f 68/7/7 67/9/7 62/8/7
f 67/9/7 68/7/7 69/7/7
f 71/7/20 62/8/20 70/8/20
f 62/8/20 71/7/20 68/7/20
f 53/8/21 73/7/21 72/8/21
f 73/7/21 53/8/21 51/7/21
f 25/13/18 27/13/18 23/13/18
f 27/13/18 25/13/18 28/13/18
f 27/13/20 74/8/20 23/13/20
f 74/8/20 27/13/20 59/8/20
f 63/8/21 25/13/21 75/8/21
f 25/13/21 63/8/21 28/13/21
f 70/8/10 76/7/10 71/7/10
f 76/7/10 70/8/10 77/9/10
f 77/9/10 70/8/10 78/10/10
f 78/10/10 70/8/10 79/11/10
f 79/11/10 70/8/10 80/12/10
f 80/12/10 70/8/10 25/13/10
f 80/12/10 25/13/10 81/14/10
f 25/13/10 70/8/10 75/8/10
f 75/8/10 70/8/10 82/15/10
f 23/13/10 81/14/10 25/13/10
f 23/13/10 83/12/10 81/14/10
f 72/8/10 83/12/10 23/13/10
f 72/8/10 23/13/10 74/8/10
f 72/8/10 74/8/10 84/15/10
f 72/8/10 85/11/10 83/12/10
f 72/8/10 86/10/10 85/11/10
f 72/8/10 87/9/10 86/10/10
f 73/7/10 87/9/10 72/8/10
f 87/9/10 73/7/10 88/7/10
f 67/9/22 76/7/21 77/9/22
f 76/7/21 67/9/22 69/7/21
f 66/10/23 77/9/22 78/10/23
f 77/9/22 66/10/23 67/9/22
f 65/11/24 78/10/23 79/11/24
f 78/10/23 65/11/24 66/10/23
f 65/11/24 80/12/25 61/12/25
f 80/12/25 65/11/24 79/11/24
f 61/12/25 81/14/26 58/14/26
f 81/14/26 61/12/25 80/12/25
f 58/14/26 83/12/27 57/12/27
f 83/12/27 58/14/26 81/14/26
f 57/12/27 85/11/28 56/11/28
f 85/11/28 57/12/27 83/12/27
f 55/10/29 85/11/28 86/10/29
f 85/11/28 55/10/29 56/11/28
f 54/9/30 86/10/29 87/9/30
f 86/10/29 54/9/30 55/10/29
f 52/7/20 87/9/30 88/7/20
f 87/9/30 52/7/20 54/9/30

