# Created by Kenney (www.kenney.nl)

mtllib structure-windmill.mtl

g structure-windmill

v -5.775291E-15 1.06656 0.44996 1 1 1
v -6.497203E-15 1.06656 -0.39996 1 1 1
v -0.2207813 0.9193725 0.44996 1 1 1
v -0.2207813 0.9193725 -0.39996 1 1 1
v -0.2415825 0.905505 0.42496 1 1 1
v -0.2415825 0.905505 -0.37496 1 1 1
v 0.2207813 0.9193725 0.44996 1 1 1
v 0.2512898 0.9651353 0.44996 1 1 1
v 0.02253469 1.117639 0.44996 1 1 1
v -0.02253469 1.117639 0.44996 1 1 1
v -0.2512898 0.9651353 0.44996 1 1 1
v -0.2512898 0.9651353 -0.39996 1 1 1
v -0.02253469 1.117639 -0.39996 1 1 1
v 0.02253469 1.117639 -0.39996 1 1 1
v 0.2512898 0.9651353 -0.39996 1 1 1
v 0.2207813 0.9193725 -0.39996 1 1 1
v 0.272091 0.9512678 -0.37496 1 1 1
v 0.2415825 0.905505 -0.37496 1 1 1
v 0.272091 0.9512678 0.42496 1 1 1
v 0.2415825 0.905505 0.42496 1 1 1
v -0.272091 0.9512678 -0.37496 1 1 1
v -0.272091 0.9512678 0.42496 1 1 1
v 0.39996 0.23331 -0.39996 1 1 1
v 0.39996 0 -0.39996 1 1 1
v 0.39996 0.23331 0.39996 1 1 1
v 0.39996 0 0.39996 1 1 1
v -0.39996 4.511946E-17 -0.39996 1 1 1
v -0.39996 0.23331 -0.39996 1 1 1
v -0.39996 4.511946E-17 0.39996 1 1 1
v -0.39996 0.23331 0.39996 1 1 1
v -0.19998 0.93324 -0.39996 1 1 1
v -0.19998 0.93324 0.39996 1 1 1
v 0.19998 0.93324 -0.39996 1 1 1
v 0.19998 0.93324 0.39996 1 1 1
v 0.19998 3.936673E-15 0.39996 1 1 1
v 0.1625311 0.08548374 0.39996 1 1 1
v 0.09083544 0.1452301 0.39996 1 1 1
v -2.887646E-15 0.16665 0.39996 1 1 1
v -0.09083544 0.1452301 0.39996 1 1 1
v -0.1625311 0.08548374 0.39996 1 1 1
v -0.19998 3.936673E-15 0.39996 1 1 1
v -2.887646E-15 1.06656 0.39996 1 1 1
v 0.1625311 0.08548374 -0.39996 1 1 1
v 0.19998 4.511946E-17 -0.39996 1 1 1
v 0.09083544 0.1452301 -0.39996 1 1 1
v 2.887646E-15 0.16665 -0.39996 1 1 1
v -0.09083544 0.1452301 -0.39996 1 1 1
v -0.1625311 0.08548374 -0.39996 1 1 1
v -0.19998 4.511946E-17 -0.39996 1 1 1
v -2.887646E-15 1.06656 -0.39996 1 1 1

vn 0.5547002 -0.8320503 0
vn 0.3184119 -0.2122746 0.9238795
vn 0 0 1
vn -0.3184119 -0.2122746 0.9238795
vn -0.3184119 -0.2122746 -0.9238795
vn 0 0 -1
vn 0.3184119 -0.2122746 -0.9238795
vn 0.7687142 -0.5124761 -0.3826834
vn 0.7687142 -0.5124761 0.3826834
vn -0.7687142 -0.5124761 -0.3826834
vn -0.7687142 -0.5124761 0.3826834
vn 0.2897842 0.957092 0
vn -0.2897842 0.957092 0
vn 0.5547002 0.8320503 0
vn -0.5547002 -0.8320503 0
vn -0.5547002 0.8320503 0
vn 1 0 0
vn -1 0 0
vn -0.961524 0.2747211 0
vn 0.961524 0.2747211 0
vn -0.799413 -0.6007817 0
vn -0.9159613 -0.4012665 0
vn -0.4467764 -0.8946456 0
vn 0 -1 0
vn 0.4467764 -0.8946456 0
vn 0.799413 -0.6007817 0
vn 0.9159613 -0.4012665 0

vt 0.71875 0.1768429
vt 0.71875 0.03807431
vt 0.71875 0.025
vt 0.71875 0.08121952
vt 0.71875 0.225
vt 0.71875 0.06814522
vt 0.09375 0.346875
vt 0.09375 0.325
vt 0.09375 0.4125
vt 0.09375 0.3330149
vt 0.09375 0.3386167
vt 0.09375 0.340625
vt 0.09375 0.425

usemtl colormap

f 3/2/1 2/1/1 1/1/1
f 2/1/1 3/2/1 4/2/1
f 4/2/1 3/2/1 5/3/1
f 4/2/1 5/3/1 6/3/1
f 8/4/2 1/1/3 7/2/2
f 1/1/3 8/4/2 9/5/3
f 10/5/3 1/1/3 9/5/3
f 11/4/4 1/1/3 10/5/3
f 1/1/3 11/4/4 3/2/4
f 12/4/5 2/1/6 4/2/5
f 2/1/6 12/4/5 13/5/6
f 14/5/6 2/1/6 13/5/6
f 15/4/7 2/1/6 14/5/6
f 2/1/6 15/4/7 16/2/7
f 19/6/9 18/3/8 17/6/8
f 18/3/8 19/6/9 20/3/9
f 5/3/11 21/6/10 6/3/10
f 21/6/10 5/3/11 22/6/11
f 19/6/9 7/2/2 20/3/9
f 7/2/2 19/6/9 8/4/2
f 16/2/7 17/6/8 18/3/8
f 17/6/8 16/2/7 15/4/7
f 13/5/13 9/5/12 14/5/12
f 9/5/12 13/5/13 10/5/13
f 21/6/10 4/2/5 6/3/10
f 4/2/5 21/6/10 12/4/5
f 3/2/4 22/6/11 5/3/11
f 22/6/11 3/2/4 11/4/4
f 17/6/14 8/4/14 19/6/14
f 8/4/14 17/6/14 15/4/14
f 8/4/14 15/4/14 9/5/12
f 9/5/12 15/4/14 14/5/12
f 7/2/15 18/3/15 20/3/15
f 18/3/15 7/2/15 16/2/15
f 16/2/15 7/2/15 1/1/15
f 16/2/15 1/1/15 2/1/15
f 12/4/16 10/5/13 13/5/13
f 10/5/13 12/4/16 11/4/16
f 11/4/16 12/4/16 22/6/16
f 22/6/16 12/4/16 21/6/16
f 25/7/17 24/8/17 23/7/17
f 24/8/17 25/7/17 26/8/17
f 29/8/18 28/7/18 27/8/18
f 28/7/18 29/8/18 30/7/18
f 30/7/19 31/9/19 28/7/19
f 31/9/19 30/7/19 32/9/19
f 34/9/20 23/7/20 33/9/20
f 23/7/20 34/9/20 25/7/20
f 25/7/3 35/8/3 26/8/3
f 35/8/3 25/7/3 36/10/3
f 36/10/3 25/7/3 37/11/3
f 37/11/3 25/7/3 38/12/3
f 30/7/3 38/12/3 25/7/3
f 30/7/3 39/11/3 38/12/3
f 30/7/3 40/10/3 39/11/3
f 30/7/3 41/8/3 40/10/3
f 41/8/3 30/7/3 29/8/3
f 30/7/3 25/7/3 34/9/3
f 30/7/3 34/9/3 32/9/3
f 32/9/3 34/9/3 42/13/3
f 44/8/22 36/10/21 43/10/21
f 36/10/21 44/8/22 35/8/22
f 37/11/23 46/12/24 45/11/23
f 46/12/24 37/11/23 38/12/24
f 38/12/24 47/11/25 46/12/24
f 47/11/25 38/12/24 39/11/25
f 39/11/25 48/10/26 47/11/25
f 48/10/26 39/11/25 40/10/26
f 40/10/26 49/8/27 48/10/26
f 49/8/27 40/10/26 41/8/27
f 36/10/21 45/11/23 43/10/21
f 45/11/23 36/10/21 37/11/23
f 28/7/6 49/8/6 27/8/6
f 49/8/6 28/7/6 48/10/6
f 48/10/6 28/7/6 47/11/6
f 47/11/6 28/7/6 46/12/6
f 23/7/6 46/12/6 28/7/6
f 23/7/6 45/11/6 46/12/6
f 23/7/6 43/10/6 45/11/6
f 23/7/6 44/8/6 43/10/6
f 44/8/6 23/7/6 24/8/6
f 23/7/6 28/7/6 31/9/6
f 23/7/6 31/9/6 33/9/6
f 33/9/6 31/9/6 50/13/6
f 41/8/24 27/8/24 49/8/24
f 27/8/24 41/8/24 29/8/24
f 26/8/24 44/8/24 24/8/24
f 44/8/24 26/8/24 35/8/24

g structure-windmill




usemtl colormap

f 3/2/1 2/1/1 1/1/1
f 2/1/1 3/2/1 4/2/1
f 4/2/1 3/2/1 5/3/1
f 4/2/1 5/3/1 6/3/1
f 8/4/2 1/1/3 7/2/2
f 1/1/3 8/4/2 9/5/3
f 10/5/3 1/1/3 9/5/3
f 11/4/4 1/1/3 10/5/3
f 1/1/3 11/4/4 3/2/4
f 12/4/5 2/1/6 4/2/5
f 2/1/6 12/4/5 13/5/6
f 14/5/6 2/1/6 13/5/6
f 15/4/7 2/1/6 14/5/6
f 2/1/6 15/4/7 16/2/7
f 19/6/9 18/3/8 17/6/8
f 18/3/8 19/6/9 20/3/9
f 5/3/11 21/6/10 6/3/10
f 21/6/10 5/3/11 22/6/11
f 19/6/9 7/2/2 20/3/9
f 7/2/2 19/6/9 8/4/2
f 16/2/7 17/6/8 18/3/8
f 17/6/8 16/2/7 15/4/7
f 13/5/13 9/5/12 14/5/12
f 9/5/12 13/5/13 10/5/13
f 21/6/10 4/2/5 6/3/10
f 4/2/5 21/6/10 12/4/5
f 3/2/4 22/6/11 5/3/11
f 22/6/11 3/2/4 11/4/4
f 17/6/14 8/4/14 19/6/14
f 8/4/14 17/6/14 15/4/14
f 8/4/14 15/4/14 9/5/12
f 9/5/12 15/4/14 14/5/12
f 7/2/15 18/3/15 20/3/15
f 18/3/15 7/2/15 16/2/15
f 16/2/15 7/2/15 1/1/15
f 16/2/15 1/1/15 2/1/15
f 12/4/16 10/5/13 13/5/13
f 10/5/13 12/4/16 11/4/16
f 11/4/16 12/4/16 22/6/16
f 22/6/16 12/4/16 21/6/16
f 25/7/17 24/8/17 23/7/17
f 24/8/17 25/7/17 26/8/17
f 29/8/18 28/7/18 27/8/18
f 28/7/18 29/8/18 30/7/18
f 30/7/19 31/9/19 28/7/19
f 31/9/19 30/7/19 32/9/19
f 34/9/20 23/7/20 33/9/20
f 23/7/20 34/9/20 25/7/20
f 25/7/3 35/8/3 26/8/3
f 35/8/3 25/7/3 36/10/3
f 36/10/3 25/7/3 37/11/3
f 37/11/3 25/7/3 38/12/3
f 30/7/3 38/12/3 25/7/3
f 30/7/3 39/11/3 38/12/3
f 30/7/3 40/10/3 39/11/3
f 30/7/3 41/8/3 40/10/3
f 41/8/3 30/7/3 29/8/3
f 30/7/3 25/7/3 34/9/3
f 30/7/3 34/9/3 32/9/3
f 32/9/3 34/9/3 42/13/3
f 44/8/22 36/10/21 43/10/21
f 36/10/21 44/8/22 35/8/22
f 37/11/23 46/12/24 45/11/23
f 46/12/24 37/11/23 38/12/24
f 38/12/24 47/11/25 46/12/24
f 47/11/25 38/12/24 39/11/25
f 39/11/25 48/10/26 47/11/25
f 48/10/26 39/11/25 40/10/26
f 40/10/26 49/8/27 48/10/26
f 49/8/27 40/10/26 41/8/27
f 36/10/21 45/11/23 43/10/21
f 45/11/23 36/10/21 37/11/23
f 28/7/6 49/8/6 27/8/6
f 49/8/6 28/7/6 48/10/6
f 48/10/6 28/7/6 47/11/6
f 47/11/6 28/7/6 46/12/6
f 23/7/6 46/12/6 28/7/6
f 23/7/6 45/11/6 46/12/6
f 23/7/6 43/10/6 45/11/6
f 23/7/6 44/8/6 43/10/6
f 44/8/6 23/7/6 24/8/6
f 23/7/6 28/7/6 31/9/6
f 23/7/6 31/9/6 33/9/6
f 33/9/6 31/9/6 50/13/6
f 41/8/24 27/8/24 49/8/24
f 27/8/24 41/8/24 29/8/24
f 26/8/24 44/8/24 24/8/24
f 44/8/24 26/8/24 35/8/24

g blades

v 0.1098576 0.9299408 -0.4582899 1 1 1
v 0.03661921 1.003179 -0.4582898 1 1 1
v 0.0732384 0.8933216 -0.4582899 1 1 1
v 4.603576E-09 0.96656 -0.4582898 1 1 1
v 0.1098576 0.8567024 -0.4582899 1 1 1
v -0.03661919 1.003179 -0.4582898 1 1 1
v 0.03661919 0.783464 -0.4582899 1 1 1
v -2.847004E-09 0.8200833 -0.4582899 1 1 1
v -0.0732384 0.8933216 -0.4582898 1 1 1
v -0.1098576 0.9299408 -0.4582898 1 1 1
v -0.03661921 0.783464 -0.4582899 1 1 1
v -0.1098576 0.8567024 -0.4582898 1 1 1
v 0.03661921 1.003179 -0.4249598 1 1 1
v 0.1098576 0.9299408 -0.4249598 1 1 1
v 4.603576E-09 0.96656 -0.4249598 1 1 1
v 0.0732384 0.8933216 -0.4249598 1 1 1
v -0.03661919 1.003179 -0.4249598 1 1 1
v 0.1098576 0.8567024 -0.4249598 1 1 1
v -0.1098576 0.9299408 -0.4249598 1 1 1
v -0.0732384 0.8933216 -0.4249598 1 1 1
v -2.847004E-09 0.8200833 -0.4249598 1 1 1
v 0.03661919 0.7834641 -0.4249598 1 1 1
v -0.1098576 0.8567024 -0.4249598 1 1 1
v -0.03661921 0.7834641 -0.4249598 1 1 1
v -0.02589367 0.8674279 -0.4916198 1 1 1
v -0.02589367 0.8674279 -0.4582898 1 1 1
v 1.019151E-08 0.8567024 -0.4916198 1 1 1
v 1.019151E-08 0.8567024 -0.4582898 1 1 1
v 0.02589369 0.8674279 -0.4916198 1 1 1
v 0.02589369 0.8674279 -0.4582898 1 1 1
v 0.0366192 0.8933216 -0.4916198 1 1 1
v 0.0366192 0.8933216 -0.4582898 1 1 1
v 0.02589368 0.9192153 -0.4916198 1 1 1
v 0.02589368 0.9192153 -0.4582898 1 1 1
v 2.740931E-09 0.9299408 -0.4916198 1 1 1
v 2.740931E-09 0.9299408 -0.4582898 1 1 1
v -0.02589368 0.9192153 -0.4916198 1 1 1
v -0.02589368 0.9192153 -0.4582898 1 1 1
v -0.03661919 0.8933216 -0.4916198 1 1 1
v -0.03661919 0.8933216 -0.4582898 1 1 1
v 0.1098576 0.9299408 -0.4832898 1 1 1
v 0.183096 0.9299408 -0.4832898 1 1 1
v 0.03661917 1.003179 -0.4832898 1 1 1
v 0.03661917 1.076418 -0.4832898 1 1 1
v 0.6022195 1.349064 -0.4832898 1 1 1
v 0.4557427 1.495541 -0.4832898 1 1 1
v 0.6022195 1.38442 -0.4832898 1 1 1
v 0.491098 1.495541 -0.4832898 1 1 1
v 0.1098576 0.9299408 -0.3999598 1 1 1
v 0.03661917 1.003179 -0.3999598 1 1 1
v 0.183096 0.9299408 -0.3999598 1 1 1
v 0.03661917 1.076418 -0.3999598 1 1 1
v 0.6022195 1.349064 -0.3999598 1 1 1
v 0.4557427 1.495541 -0.3999598 1 1 1
v 0.6022195 1.38442 -0.3999598 1 1 1
v 0.491098 1.495541 -0.3999598 1 1 1
v -0.03661917 1.003179 -0.3999598 1 1 1
v -0.1098576 0.9299408 -0.3999598 1 1 1
v -0.03661917 1.076418 -0.3999598 1 1 1
v -0.183096 0.9299408 -0.3999598 1 1 1
v -0.4557427 1.495541 -0.3999598 1 1 1
v -0.6022195 1.349064 -0.3999598 1 1 1
v -0.491098 1.495541 -0.3999598 1 1 1
v -0.6022195 1.38442 -0.3999598 1 1 1
v -0.03661917 1.003179 -0.4832898 1 1 1
v -0.03661917 1.076418 -0.4832898 1 1 1
v -0.1098576 0.9299408 -0.4832898 1 1 1
v -0.183096 0.9299408 -0.4832898 1 1 1
v -0.4557427 1.495541 -0.4832898 1 1 1
v -0.6022195 1.349064 -0.4832898 1 1 1
v -0.491098 1.495541 -0.4832898 1 1 1
v -0.6022195 1.38442 -0.4832898 1 1 1
v -0.1098576 0.8567024 -0.3999598 1 1 1
v -0.03661918 0.7834641 -0.3999598 1 1 1
v -0.1830959 0.8567024 -0.3999598 1 1 1
v -0.03661919 0.7102256 -0.3999598 1 1 1
v -0.6022195 0.4375788 -0.3999598 1 1 1
v -0.4557427 0.2911021 -0.3999598 1 1 1
v -0.6022195 0.4022234 -0.3999598 1 1 1
v -0.4910981 0.2911021 -0.3999598 1 1 1
v -0.1098576 0.8567024 -0.4832898 1 1 1
v -0.1830959 0.8567024 -0.4832898 1 1 1
v -0.03661918 0.7834641 -0.4832898 1 1 1
v -0.03661919 0.7102256 -0.4832898 1 1 1
v -0.6022195 0.4375788 -0.4832898 1 1 1
v -0.4557427 0.2911021 -0.4832898 1 1 1
v -0.6022195 0.4022234 -0.4832898 1 1 1
v -0.4910981 0.2911021 -0.4832898 1 1 1
v 0.03661918 0.7834641 -0.4832898 1 1 1
v 0.03661919 0.7102256 -0.4832898 1 1 1
v 0.1098576 0.8567024 -0.4832898 1 1 1
v 0.1830959 0.8567024 -0.4832898 1 1 1
v 0.4557427 0.2911021 -0.4832898 1 1 1
v 0.6022195 0.4375788 -0.4832898 1 1 1
v 0.4910981 0.2911021 -0.4832898 1 1 1
v 0.6022195 0.4022234 -0.4832898 1 1 1
v 0.03661918 0.7834641 -0.3999598 1 1 1
v 0.1098576 0.8567024 -0.3999598 1 1 1
v 0.03661919 0.7102256 -0.3999598 1 1 1
v 0.1830959 0.8567024 -0.3999598 1 1 1
v 0.4557427 0.2911021 -0.3999598 1 1 1
v 0.6022195 0.4375788 -0.3999598 1 1 1
v 0.4910981 0.2911021 -0.3999598 1 1 1
v 0.6022195 0.4022234 -0.3999598 1 1 1

vn 0 -1.192093E-07 -1
vn 0 1.192093E-07 1
vn 0.7071068 -0.7071068 -1.192093E-07
vn -0.7071069 -0.7071068 0
vn 0.7071069 0.7071068 0
vn -0.7071068 0.7071068 1.192093E-07
vn -0.7071066 -0.7071068 0
vn 5.960464E-08 -0.9999999 0
vn 0.7071068 -0.7071066 0
vn 0.9999999 5.960464E-08 0
vn 0.7071066 0.7071068 0
vn -5.960464E-08 0.9999999 0
vn -0.7071068 0.7071066 0
vn -0.9999999 -5.960464E-08 0
vn -2.107266E-08 2.107301E-08 -1
vn 2.107266E-08 -2.107301E-08 1
vn -0.3826835 0.9238794 2.753308E-08
vn -0.9238796 0.3826835 2.753289E-08
vn 0.3826834 0.9238794 1.140476E-08
vn 0.9238795 0.3826833 -1.140431E-08
vn 0.9238796 -0.3826835 -2.753289E-08
vn 0.3826835 -0.9238794 -2.753308E-08
vn -0.3826834 -0.9238794 -1.140476E-08
vn -0.9238795 -0.3826833 1.140431E-08
vn 2.107266E-08 -2.107301E-08 1
vn -2.107266E-08 2.107301E-08 -1
vn -0.9238796 -0.3826835 1.140431E-08
vn -0.3826835 -0.9238794 -1.140476E-08
vn -0.9238795 0.3826833 2.753289E-08
vn -0.3826834 0.9238794 2.753308E-08
vn 0.3826835 0.9238794 1.140476E-08
vn 0.9238796 0.3826835 -1.140431E-08
vn 0.9238795 -0.3826833 -2.753289E-08
vn 0.3826834 -0.9238794 -2.753308E-08
vn 0.3826833 -0.9238795 -2.753308E-08
vn 0.9238794 -0.3826834 -2.753289E-08
vn -0.3826835 -0.9238796 -1.140476E-08
vn -0.9238794 -0.3826835 1.140431E-08
vn -0.9238794 0.3826834 2.753289E-08
vn -0.3826833 0.9238795 2.753308E-08
vn 0.3826835 0.9238796 1.140476E-08
vn 0.9238794 0.3826835 -1.140431E-08
vn 0.9238794 0.3826834 -1.140431E-08
vn 0.3826833 0.9238795 1.140476E-08
vn 0.9238794 -0.3826835 -2.753289E-08
vn 0.3826835 -0.9238796 -2.753308E-08
vn -0.3826833 -0.9238795 -1.140476E-08
vn -0.9238794 -0.3826834 1.140431E-08
vn -0.9238794 0.3826835 2.753289E-08
vn -0.3826835 0.9238796 2.753308E-08

vt 0.59375 0.225
vt 0.59375 0.025
vt 0.71875 0.125
vt 0.71875 0.05428932
vt 0.71875 0.1957107
vt 0.71875 0.04047005
vt 0.71875 0.2175319
vt 0.71875 0.121266
vt 0.71875 0.03273503

usemtl colormap

f 53/14/28 52/14/28 51/14/28
f 52/14/28 53/14/28 54/14/28
f 55/14/28 54/14/28 53/14/28
f 55/14/28 56/14/28 54/14/28
f 57/14/28 56/14/28 55/14/28
f 58/14/28 56/14/28 57/14/28
f 59/14/28 56/14/28 58/14/28
f 56/14/28 59/14/28 60/14/28
f 61/14/28 59/14/28 58/14/28
f 59/14/28 61/14/28 62/14/28
f 65/15/29 64/15/29 63/15/29
f 64/15/29 65/15/29 66/15/29
f 67/15/29 66/15/29 65/15/29
f 67/15/29 68/15/29 66/15/29
f 69/15/29 68/15/29 67/15/29
f 70/15/29 68/15/29 69/15/29
f 71/15/29 68/15/29 70/15/29
f 68/15/29 71/15/29 72/15/29
f 73/15/29 71/15/29 70/15/29
f 71/15/29 73/15/29 74/15/29
f 74/15/30 58/14/30 71/15/30
f 58/14/30 74/15/30 61/14/30
f 57/14/31 71/15/31 58/14/31
f 71/15/31 57/14/31 72/15/31
f 66/15/32 55/14/32 53/14/32
f 55/14/32 66/15/32 68/15/32
f 53/14/30 64/15/30 66/15/30
f 64/15/30 53/14/30 51/14/30
f 63/15/33 54/14/33 65/15/33
f 54/14/33 63/15/33 52/14/33
f 67/15/32 54/14/32 56/14/32
f 54/14/32 67/15/32 65/15/32
f 59/14/31 69/15/31 60/14/31
f 69/15/31 59/14/31 70/15/31
f 59/14/33 73/15/33 70/15/33
f 73/15/33 59/14/33 62/14/33
f 77/17/35 76/16/34 75/16/34
f 76/16/34 77/17/35 78/17/35
f 80/3/36 77/17/35 79/3/36
f 77/17/35 80/3/36 78/17/35
f 82/17/37 79/3/36 81/17/37
f 79/3/36 82/17/37 80/3/36
f 84/16/38 81/17/37 83/16/38
f 81/17/37 84/16/38 82/17/37
f 86/18/39 83/16/38 85/18/39
f 83/16/38 86/18/39 84/16/38
f 87/5/40 86/18/39 85/18/39
f 86/18/39 87/5/40 88/5/40
f 89/18/41 88/5/40 87/5/40
f 88/5/40 89/18/41 90/18/41
f 77/17/6 81/17/6 79/3/6
f 81/17/6 77/17/6 83/16/6
f 83/16/6 77/17/6 75/16/6
f 83/16/6 75/16/6 85/18/6
f 85/18/6 75/16/6 89/18/6
f 85/18/6 89/18/6 87/5/6
f 75/16/34 90/18/41 89/18/41
f 90/18/41 75/16/34 76/16/34
f 93/3/42 92/19/42 91/3/42
f 92/19/42 93/3/42 94/19/42
f 92/19/42 94/19/42 95/20/42
f 95/20/42 94/19/42 96/20/42
f 95/20/42 96/20/42 97/5/42
f 97/5/42 96/20/42 98/5/42
f 101/19/43 100/3/43 99/3/43
f 100/3/43 101/19/43 102/19/43
f 102/19/43 101/19/43 103/20/43
f 102/19/43 103/20/43 104/20/43
f 104/20/43 103/20/43 105/5/43
f 104/20/43 105/5/43 106/5/43
f 96/21/44 102/22/45 104/21/44
f 102/22/45 96/21/44 94/22/45
f 106/16/46 97/16/47 98/16/46
f 97/16/47 106/16/46 105/16/47
f 101/22/49 95/21/48 103/21/48
f 95/21/48 101/22/49 92/22/49
f 104/21/44 98/16/46 96/21/44
f 98/16/46 104/21/44 106/16/46
f 103/21/48 97/16/47 105/16/47
f 97/16/47 103/21/48 95/21/48
f 92/22/49 99/3/50 91/3/50
f 99/3/50 92/22/49 101/22/49
f 91/3/50 100/3/51 93/3/51
f 100/3/51 91/3/50 99/3/50
f 94/22/45 100/3/51 102/22/45
f 100/3/51 94/22/45 93/3/51
f 109/19/52 108/3/52 107/3/52
f 108/3/52 109/19/52 110/19/52
f 110/19/52 109/19/52 111/20/52
f 110/19/52 111/20/52 112/20/52
f 112/20/52 111/20/52 113/5/52
f 112/20/52 113/5/52 114/5/52
f 117/3/53 116/19/53 115/3/53
f 116/19/53 117/3/53 118/19/53
f 116/19/53 118/19/53 119/20/53
f 119/20/53 118/19/53 120/20/53
f 119/20/53 120/20/53 121/5/53
f 121/5/53 120/20/53 122/5/53
f 120/21/54 110/22/55 112/21/54
f 110/22/55 120/21/54 118/22/55
f 114/16/56 121/16/57 122/16/56
f 121/16/57 114/16/56 113/16/57
f 109/22/59 119/21/58 111/21/58
f 119/21/58 109/22/59 116/22/59
f 112/21/54 122/16/56 120/21/54
f 122/16/56 112/21/54 114/16/56
f 111/21/58 121/16/57 113/16/57
f 121/16/57 111/21/58 119/21/58
f 116/22/59 107/3/60 115/3/60
f 107/3/60 116/22/59 109/22/59
f 115/3/60 108/3/61 117/3/61
f 108/3/61 115/3/60 107/3/60
f 118/22/55 108/3/61 110/22/55
f 108/3/61 118/22/55 117/3/61
f 125/19/43 124/3/43 123/3/43
f 124/3/43 125/19/43 126/19/43
f 126/19/43 125/19/43 127/20/43
f 126/19/43 127/20/43 128/20/43
f 128/20/43 127/20/43 129/5/43
f 128/20/43 129/5/43 130/5/43
f 133/3/42 132/19/42 131/3/42
f 132/19/42 133/3/42 134/19/42
f 132/19/42 134/19/42 135/20/42
f 135/20/42 134/19/42 136/20/42
f 135/20/42 136/20/42 137/5/42
f 137/5/42 136/20/42 138/5/42
f 136/21/62 126/22/63 128/21/62
f 126/22/63 136/21/62 134/22/63
f 130/16/64 137/16/65 138/16/64
f 137/16/65 130/16/64 129/16/65
f 125/22/67 135/21/66 127/21/66
f 135/21/66 125/22/67 132/22/67
f 128/21/62 138/16/64 136/21/62
f 138/16/64 128/21/62 130/16/64
f 127/21/66 137/16/65 129/16/65
f 137/16/65 127/21/66 135/21/66
f 132/22/67 123/3/68 131/3/68
f 123/3/68 132/22/67 125/22/67
f 131/3/68 124/3/69 133/3/69
f 124/3/69 131/3/68 123/3/68
f 134/22/63 124/3/69 126/22/63
f 124/3/69 134/22/63 133/3/69
f 141/3/53 140/19/53 139/3/53
f 140/19/53 141/3/53 142/19/53
f 140/19/53 142/19/53 143/20/53
f 143/20/53 142/19/53 144/20/53
f 143/20/53 144/20/53 145/5/53
f 145/5/53 144/20/53 146/5/53
f 149/19/52 148/3/52 147/3/52
f 148/3/52 149/19/52 150/19/52
f 150/19/52 149/19/52 151/20/52
f 150/19/52 151/20/52 152/20/52
f 152/20/52 151/20/52 153/5/52
f 152/20/52 153/5/52 154/5/52
f 144/21/70 150/22/71 152/21/70
f 150/22/71 144/21/70 142/22/71
f 154/16/72 145/16/73 146/16/72
f 145/16/73 154/16/72 153/16/73
f 149/22/75 143/21/74 151/21/74
f 143/21/74 149/22/75 140/22/75
f 152/21/70 146/16/72 144/21/70
f 146/16/72 152/21/70 154/16/72
f 151/21/74 145/16/73 153/16/73
f 145/16/73 151/21/74 143/21/74
f 140/22/75 147/3/76 139/3/76
f 147/3/76 140/22/75 149/22/75
f 139/3/76 148/3/77 141/3/77
f 148/3/77 139/3/76 147/3/76
f 142/22/71 148/3/77 150/22/71
f 148/3/77 142/22/71 141/3/77

