# Created by Kenney (www.kenney.nl)

mtllib supports-low-bottom.mtl

g supports-low-bottom

v 0.3125 0 -0.5 1 1 1
v 0.3125 0.1 -0.5 1 1 1
v 0.25 0 -0.4375 1 1 1
v 0.25 0.1 -0.4375 1 1 1
v 0.5 0.1 -0.4375 1 1 1
v 0.5 0.1 -0.3125 1 1 1
v 0.475 0.2 -0.425 1 1 1
v 0.475 0.2 -0.325 1 1 1
v 0.5 0 -0.3125 1 1 1
v 0.4375 0 -0.25 1 1 1
v 0.4375 0.1 -0.25 1 1 1
v 0.4375 0.1 -0.5 1 1 1
v 0.325 0.2 -0.475 1 1 1
v 0.425 0.2 -0.475 1 1 1
v 0.275 0.2 -0.425 1 1 1
v 0.25 0.1 -0.3125 1 1 1
v 0.275 0.2 -0.325 1 1 1
v 0.3125 0 -0.25 1 1 1
v 0.25 0 -0.3125 1 1 1
v 0.3125 0.1 -0.25 1 1 1
v 0.425 0.2 -0.275 1 1 1
v 0.325 0.2 -0.275 1 1 1
v 0.425 0.5 -0.275 1 1 1
v 0.325 0.5 -0.275 1 1 1
v 0.5 0 -0.4375 1 1 1
v 0.4375 0 -0.5 1 1 1
v 0.475 0.5 -0.425 1 1 1
v 0.475 0.5 -0.325 1 1 1
v 0.425 0.5 -0.475 1 1 1
v 0.325 0.5 -0.475 1 1 1
v 0.275 0.5 -0.425 1 1 1
v 0.275 0.5 -0.325 1 1 1
v 0.3125 0 0.25 1 1 1
v 0.3125 0.1 0.25 1 1 1
v 0.25 0 0.3125 1 1 1
v 0.25 0.1 0.3125 1 1 1
v 0.5 0.1 0.3125 1 1 1
v 0.5 0.1 0.4375 1 1 1
v 0.475 0.2 0.325 1 1 1
v 0.475 0.2 0.425 1 1 1
v 0.5 0 0.4375 1 1 1
v 0.4375 0 0.5 1 1 1
v 0.4375 0.1 0.5 1 1 1
v 0.4375 0.1 0.25 1 1 1
v 0.325 0.2 0.275 1 1 1
v 0.425 0.2 0.275 1 1 1
v 0.275 0.2 0.325 1 1 1
v 0.25 0.1 0.4375 1 1 1
v 0.275 0.2 0.425 1 1 1
v 0.3125 0 0.5 1 1 1
v 0.25 0 0.4375 1 1 1
v 0.3125 0.1 0.5 1 1 1
v 0.425 0.2 0.475 1 1 1
v 0.325 0.2 0.475 1 1 1
v 0.425 0.5 0.475 1 1 1
v 0.325 0.5 0.475 1 1 1
v 0.5 0 0.3125 1 1 1
v 0.4375 0 0.25 1 1 1
v 0.475 0.5 0.325 1 1 1
v 0.475 0.5 0.425 1 1 1
v 0.425 0.5 0.275 1 1 1
v 0.325 0.5 0.275 1 1 1
v 0.275 0.5 0.325 1 1 1
v 0.275 0.5 0.425 1 1 1
v -0.4375 0 0.25 1 1 1
v -0.4375 0.1 0.25 1 1 1
v -0.5 0 0.3125 1 1 1
v -0.5 0.1 0.3125 1 1 1
v -0.25 0.1 0.3125 1 1 1
v -0.25 0.1 0.4375 1 1 1
v -0.275 0.2 0.325 1 1 1
v -0.275 0.2 0.425 1 1 1
v -0.25 0 0.4375 1 1 1
v -0.3125 0 0.5 1 1 1
v -0.3125 0.1 0.5 1 1 1
v -0.3125 0.1 0.25 1 1 1
v -0.425 0.2 0.275 1 1 1
v -0.325 0.2 0.275 1 1 1
v -0.475 0.2 0.325 1 1 1
v -0.5 0.1 0.4375 1 1 1
v -0.475 0.2 0.425 1 1 1
v -0.4375 0 0.5 1 1 1
v -0.5 0 0.4375 1 1 1
v -0.4375 0.1 0.5 1 1 1
v -0.325 0.2 0.475 1 1 1
v -0.425 0.2 0.475 1 1 1
v -0.325 0.5 0.475 1 1 1
v -0.425 0.5 0.475 1 1 1
v -0.25 0 0.3125 1 1 1
v -0.3125 0 0.25 1 1 1
v -0.275 0.5 0.325 1 1 1
v -0.275 0.5 0.425 1 1 1
v -0.325 0.5 0.275 1 1 1
v -0.425 0.5 0.275 1 1 1
v -0.475 0.5 0.325 1 1 1
v -0.475 0.5 0.425 1 1 1
v -0.4375 0 -0.5 1 1 1
v -0.4375 0.1 -0.5 1 1 1
v -0.5 0 -0.4375 1 1 1
v -0.5 0.1 -0.4375 1 1 1
v -0.25 0.1 -0.4375 1 1 1
v -0.25 0.1 -0.3125 1 1 1
v -0.275 0.2 -0.425 1 1 1
v -0.275 0.2 -0.325 1 1 1
v -0.25 0 -0.3125 1 1 1
v -0.3125 0 -0.25 1 1 1
v -0.3125 0.1 -0.25 1 1 1
v -0.3125 0.1 -0.5 1 1 1
v -0.425 0.2 -0.475 1 1 1
v -0.325 0.2 -0.475 1 1 1
v -0.475 0.2 -0.425 1 1 1
v -0.5 0.1 -0.3125 1 1 1
v -0.475 0.2 -0.325 1 1 1
v -0.4375 0 -0.25 1 1 1
v -0.5 0 -0.3125 1 1 1
v -0.4375 0.1 -0.25 1 1 1
v -0.325 0.2 -0.275 1 1 1
v -0.425 0.2 -0.275 1 1 1
v -0.325 0.5 -0.275 1 1 1
v -0.425 0.5 -0.275 1 1 1
v -0.25 0 -0.4375 1 1 1
v -0.3125 0 -0.5 1 1 1
v -0.275 0.5 -0.425 1 1 1
v -0.275 0.5 -0.325 1 1 1
v -0.325 0.5 -0.475 1 1 1
v -0.425 0.5 -0.475 1 1 1
v -0.475 0.5 -0.425 1 1 1
v -0.475 0.5 -0.325 1 1 1

vn -0.3826834 0 -0.9238795
vn -0.9238795 0 -0.3826834
vn 0.8883473 0.2686355 -0.3723895
vn 0.8883473 0.2686355 0.3723895
vn 0.8918474 0.2684682 -0.3640509
vn 0.8918474 0.2684682 0.3640509
vn 0.9238795 0 0.3826834
vn 0.3826834 0 0.9238795
vn -0.3723895 0.2686355 -0.8883473
vn 0.3723895 0.2686355 -0.8883473
vn -0.3640509 0.2684682 -0.8918474
vn 0.3640509 0.2684682 -0.8918474
vn -0.8883473 0.2686355 -0.3723895
vn -0.8918474 0.2684682 -0.3640509
vn -0.8883473 0.2686355 0.3723895
vn -0.8918474 0.2684682 0.3640509
vn -0.3826834 0 0.9238795
vn -0.9238795 0 0.3826834
vn 0 -1 0
vn 0.3826834 0 -0.9238795
vn 0.3723895 0.2686355 0.8883473
vn -0.3723895 0.2686355 0.8883473
vn 0.3640509 0.2684682 0.8918474
vn -0.3640509 0.2684682 0.8918474
vn 0 1 0
vn 0.9238795 0 -0.3826834

vt 0.71875 0.025
vt 0.71875 0.065
vt 0.71875 0.105
vt 0.71875 0.225

usemtl colormap

f 3/1/2 2/2/1 1/1/1
f 2/2/1 3/1/2 4/2/2
f 7/3/5 6/2/4 5/2/3
f 6/2/4 7/3/5 8/3/6
f 6/2/7 10/1/8 9/1/7
f 10/1/8 6/2/7 11/2/8
f 13/3/11 12/2/10 2/2/9
f 12/2/10 13/3/11 14/3/12
f 16/2/15 15/3/14 4/2/13
f 15/3/14 16/2/15 17/3/16
f 15/3/14 2/2/9 4/2/13
f 2/2/9 15/3/14 13/3/11
f 20/2/17 19/1/18 18/1/17
f 19/1/18 20/2/17 16/2/18
f 23/4/8 22/3/17 21/3/8
f 22/3/17 23/4/8 24/4/17
f 19/1/18 4/2/2 3/1/2
f 4/2/2 19/1/18 16/2/18
f 10/1/19 25/1/19 9/1/19
f 25/1/19 10/1/19 26/1/19
f 26/1/19 10/1/19 1/1/19
f 1/1/19 10/1/19 18/1/19
f 1/1/19 18/1/19 19/1/19
f 1/1/19 19/1/19 3/1/19
f 2/2/1 26/1/20 1/1/1
f 26/1/20 2/2/1 12/2/20
f 21/3/23 20/2/22 11/2/21
f 20/2/22 21/3/23 22/3/24
f 21/3/23 6/2/4 8/3/6
f 6/2/4 21/3/23 11/2/21
f 29/4/25 28/4/25 27/4/25
f 28/4/25 29/4/25 23/4/25
f 23/4/25 29/4/25 30/4/25
f 23/4/25 30/4/25 24/4/25
f 24/4/25 30/4/25 31/4/25
f 24/4/25 31/4/25 32/4/25
f 6/2/7 25/1/26 5/2/26
f 25/1/26 6/2/7 9/1/7
f 22/3/24 16/2/15 20/2/22
f 16/2/15 22/3/24 17/3/16
f 14/3/12 5/2/3 12/2/10
f 5/2/3 14/3/12 7/3/5
f 5/2/26 26/1/20 12/2/20
f 26/1/20 5/2/26 25/1/26
f 27/4/26 14/3/20 29/4/20
f 14/3/20 27/4/26 7/3/26
f 30/4/1 14/3/20 13/3/1
f 14/3/20 30/4/1 29/4/20
f 17/3/18 31/4/2 15/3/2
f 31/4/2 17/3/18 32/4/18
f 23/4/8 8/3/7 28/4/7
f 8/3/7 23/4/8 21/3/8
f 31/4/2 13/3/1 15/3/2
f 13/3/1 31/4/2 30/4/1
f 28/4/7 7/3/26 27/4/26
f 7/3/26 28/4/7 8/3/7
f 22/3/17 32/4/18 17/3/18
f 32/4/18 22/3/17 24/4/17
f 11/2/8 18/1/17 10/1/8
f 18/1/17 11/2/8 20/2/17
f 35/1/2 34/2/1 33/1/1
f 34/2/1 35/1/2 36/2/2
f 39/3/5 38/2/4 37/2/3
f 38/2/4 39/3/5 40/3/6
f 38/2/7 42/1/8 41/1/7
f 42/1/8 38/2/7 43/2/8
f 45/3/11 44/2/10 34/2/9
f 44/2/10 45/3/11 46/3/12
f 48/2/15 47/3/14 36/2/13
f 47/3/14 48/2/15 49/3/16
f 47/3/14 34/2/9 36/2/13
f 34/2/9 47/3/14 45/3/11
f 52/2/17 51/1/18 50/1/17
f 51/1/18 52/2/17 48/2/18
f 55/4/8 54/3/17 53/3/8
f 54/3/17 55/4/8 56/4/17
f 51/1/18 36/2/2 35/1/2
f 36/2/2 51/1/18 48/2/18
f 42/1/19 57/1/19 41/1/19
f 57/1/19 42/1/19 58/1/19
f 58/1/19 42/1/19 33/1/19
f 33/1/19 42/1/19 50/1/19
f 33/1/19 50/1/19 51/1/19
f 33/1/19 51/1/19 35/1/19
f 34/2/1 58/1/20 33/1/1
f 58/1/20 34/2/1 44/2/20
f 53/3/23 52/2/22 43/2/21
f 52/2/22 53/3/23 54/3/24
f 53/3/23 38/2/4 40/3/6
f 38/2/4 53/3/23 43/2/21
f 61/4/25 60/4/25 59/4/25
f 60/4/25 61/4/25 55/4/25
f 55/4/25 61/4/25 62/4/25
f 55/4/25 62/4/25 56/4/25
f 56/4/25 62/4/25 63/4/25
f 56/4/25 63/4/25 64/4/25
f 38/2/7 57/1/26 37/2/26
f 57/1/26 38/2/7 41/1/7
f 54/3/24 48/2/15 52/2/22
f 48/2/15 54/3/24 49/3/16
f 46/3/12 37/2/3 44/2/10
f 37/2/3 46/3/12 39/3/5
f 37/2/26 58/1/20 44/2/20
f 58/1/20 37/2/26 57/1/26
f 59/4/26 46/3/20 61/4/20
f 46/3/20 59/4/26 39/3/26
f 62/4/1 46/3/20 45/3/1
f 46/3/20 62/4/1 61/4/20
f 49/3/18 63/4/2 47/3/2
f 63/4/2 49/3/18 64/4/18
f 55/4/8 40/3/7 60/4/7
f 40/3/7 55/4/8 53/3/8
f 63/4/2 45/3/1 47/3/2
f 45/3/1 63/4/2 62/4/1
f 60/4/7 39/3/26 59/4/26
f 39/3/26 60/4/7 40/3/7
f 54/3/17 64/4/18 49/3/18
f 64/4/18 54/3/17 56/4/17
f 43/2/8 50/1/17 42/1/8
f 50/1/17 43/2/8 52/2/17
f 67/1/2 66/2/1 65/1/1
f 66/2/1 67/1/2 68/2/2
f 71/3/5 70/2/4 69/2/3
f 70/2/4 71/3/5 72/3/6
f 70/2/7 74/1/8 73/1/7
f 74/1/8 70/2/7 75/2/8
f 77/3/11 76/2/10 66/2/9
f 76/2/10 77/3/11 78/3/12
f 80/2/15 79/3/14 68/2/13
f 79/3/14 80/2/15 81/3/16
f 79/3/14 66/2/9 68/2/13
f 66/2/9 79/3/14 77/3/11
f 84/2/17 83/1/18 82/1/17
f 83/1/18 84/2/17 80/2/18
f 87/4/8 86/3/17 85/3/8
f 86/3/17 87/4/8 88/4/17
f 83/1/18 68/2/2 67/1/2
f 68/2/2 83/1/18 80/2/18
f 74/1/19 89/1/19 73/1/19
f 89/1/19 74/1/19 90/1/19
f 90/1/19 74/1/19 65/1/19
f 65/1/19 74/1/19 82/1/19
f 65/1/19 82/1/19 83/1/19
f 65/1/19 83/1/19 67/1/19
f 66/2/1 90/1/20 65/1/1
f 90/1/20 66/2/1 76/2/20
f 85/3/23 84/2/22 75/2/21
f 84/2/22 85/3/23 86/3/24
f 85/3/23 70/2/4 72/3/6
f 70/2/4 85/3/23 75/2/21
f 93/4/25 92/4/25 91/4/25
f 92/4/25 93/4/25 87/4/25
f 87/4/25 93/4/25 94/4/25
f 87/4/25 94/4/25 88/4/25
f 88/4/25 94/4/25 95/4/25
f 88/4/25 95/4/25 96/4/25
f 70/2/7 89/1/26 69/2/26
f 89/1/26 70/2/7 73/1/7
f 86/3/24 80/2/15 84/2/22
f 80/2/15 86/3/24 81/3/16
f 78/3/12 69/2/3 76/2/10
f 69/2/3 78/3/12 71/3/5
f 69/2/26 90/1/20 76/2/20
f 90/1/20 69/2/26 89/1/26
f 91/4/26 78/3/20 93/4/20
f 78/3/20 91/4/26 71/3/26
f 94/4/1 78/3/20 77/3/1
f 78/3/20 94/4/1 93/4/20
f 81/3/18 95/4/2 79/3/2
f 95/4/2 81/3/18 96/4/18
f 87/4/8 72/3/7 92/4/7
f 72/3/7 87/4/8 85/3/8
f 95/4/2 77/3/1 79/3/2
f 77/3/1 95/4/2 94/4/1
f 92/4/7 71/3/26 91/4/26
f 71/3/26 92/4/7 72/3/7
f 86/3/17 96/4/18 81/3/18
f 96/4/18 86/3/17 88/4/17
f 75/2/8 82/1/17 74/1/8
f 82/1/17 75/2/8 84/2/17
f 99/1/2 98/2/1 97/1/1
f 98/2/1 99/1/2 100/2/2
f 103/3/5 102/2/4 101/2/3
f 102/2/4 103/3/5 104/3/6
f 102/2/7 106/1/8 105/1/7
f 106/1/8 102/2/7 107/2/8
f 109/3/11 108/2/10 98/2/9
f 108/2/10 109/3/11 110/3/12
f 112/2/15 111/3/14 100/2/13
f 111/3/14 112/2/15 113/3/16
f 111/3/14 98/2/9 100/2/13
f 98/2/9 111/3/14 109/3/11
f 116/2/17 115/1/18 114/1/17
f 115/1/18 116/2/17 112/2/18
f 119/4/8 118/3/17 117/3/8
f 118/3/17 119/4/8 120/4/17
f 115/1/18 100/2/2 99/1/2
f 100/2/2 115/1/18 112/2/18
f 106/1/19 121/1/19 105/1/19
f 121/1/19 106/1/19 122/1/19
f 122/1/19 106/1/19 97/1/19
f 97/1/19 106/1/19 114/1/19
f 97/1/19 114/1/19 115/1/19
f 97/1/19 115/1/19 99/1/19
f 98/2/1 122/1/20 97/1/1
f 122/1/20 98/2/1 108/2/20
f 117/3/23 116/2/22 107/2/21
f 116/2/22 117/3/23 118/3/24
f 117/3/23 102/2/4 104/3/6
f 102/2/4 117/3/23 107/2/21
f 125/4/25 124/4/25 123/4/25
f 124/4/25 125/4/25 119/4/25
f 119/4/25 125/4/25 126/4/25
f 119/4/25 126/4/25 120/4/25
f 120/4/25 126/4/25 127/4/25
f 120/4/25 127/4/25 128/4/25
f 102/2/7 121/1/26 101/2/26
f 121/1/26 102/2/7 105/1/7
f 118/3/24 112/2/15 116/2/22
f 112/2/15 118/3/24 113/3/16
f 110/3/12 101/2/3 108/2/10
f 101/2/3 110/3/12 103/3/5
f 101/2/26 122/1/20 108/2/20
f 122/1/20 101/2/26 121/1/26
f 123/4/26 110/3/20 125/4/20
f 110/3/20 123/4/26 103/3/26
f 126/4/1 110/3/20 109/3/1
f 110/3/20 126/4/1 125/4/20
f 113/3/18 127/4/2 111/3/2
f 127/4/2 113/3/18 128/4/18
f 119/4/8 104/3/7 124/4/7
f 104/3/7 119/4/8 117/3/8
f 127/4/2 109/3/1 111/3/2
f 109/3/1 127/4/2 126/4/1
f 124/4/7 103/3/26 123/4/26
f 103/3/26 124/4/7 104/3/7
f 118/3/17 128/4/18 113/3/18
f 128/4/18 118/3/17 120/4/17
f 107/2/8 114/1/17 106/1/8
f 114/1/17 107/2/8 116/2/17

g supports-low-bottom




usemtl colormap

f 3/1/2 2/2/1 1/1/1
f 2/2/1 3/1/2 4/2/2
f 7/3/5 6/2/4 5/2/3
f 6/2/4 7/3/5 8/3/6
f 6/2/7 10/1/8 9/1/7
f 10/1/8 6/2/7 11/2/8
f 13/3/11 12/2/10 2/2/9
f 12/2/10 13/3/11 14/3/12
f 16/2/15 15/3/14 4/2/13
f 15/3/14 16/2/15 17/3/16
f 15/3/14 2/2/9 4/2/13
f 2/2/9 15/3/14 13/3/11
f 20/2/17 19/1/18 18/1/17
f 19/1/18 20/2/17 16/2/18
f 23/4/8 22/3/17 21/3/8
f 22/3/17 23/4/8 24/4/17
f 19/1/18 4/2/2 3/1/2
f 4/2/2 19/1/18 16/2/18
f 10/1/19 25/1/19 9/1/19
f 25/1/19 10/1/19 26/1/19
f 26/1/19 10/1/19 1/1/19
f 1/1/19 10/1/19 18/1/19
f 1/1/19 18/1/19 19/1/19
f 1/1/19 19/1/19 3/1/19
f 2/2/1 26/1/20 1/1/1
f 26/1/20 2/2/1 12/2/20
f 21/3/23 20/2/22 11/2/21
f 20/2/22 21/3/23 22/3/24
f 21/3/23 6/2/4 8/3/6
f 6/2/4 21/3/23 11/2/21
f 29/4/25 28/4/25 27/4/25
f 28/4/25 29/4/25 23/4/25
f 23/4/25 29/4/25 30/4/25
f 23/4/25 30/4/25 24/4/25
f 24/4/25 30/4/25 31/4/25
f 24/4/25 31/4/25 32/4/25
f 6/2/7 25/1/26 5/2/26
f 25/1/26 6/2/7 9/1/7
f 22/3/24 16/2/15 20/2/22
f 16/2/15 22/3/24 17/3/16
f 14/3/12 5/2/3 12/2/10
f 5/2/3 14/3/12 7/3/5
f 5/2/26 26/1/20 12/2/20
f 26/1/20 5/2/26 25/1/26
f 27/4/26 14/3/20 29/4/20
f 14/3/20 27/4/26 7/3/26
f 30/4/1 14/3/20 13/3/1
f 14/3/20 30/4/1 29/4/20
f 17/3/18 31/4/2 15/3/2
f 31/4/2 17/3/18 32/4/18
f 23/4/8 8/3/7 28/4/7
f 8/3/7 23/4/8 21/3/8
f 31/4/2 13/3/1 15/3/2
f 13/3/1 31/4/2 30/4/1
f 28/4/7 7/3/26 27/4/26
f 7/3/26 28/4/7 8/3/7
f 22/3/17 32/4/18 17/3/18
f 32/4/18 22/3/17 24/4/17
f 11/2/8 18/1/17 10/1/8
f 18/1/17 11/2/8 20/2/17
f 35/1/2 34/2/1 33/1/1
f 34/2/1 35/1/2 36/2/2
f 39/3/5 38/2/4 37/2/3
f 38/2/4 39/3/5 40/3/6
f 38/2/7 42/1/8 41/1/7
f 42/1/8 38/2/7 43/2/8
f 45/3/11 44/2/10 34/2/9
f 44/2/10 45/3/11 46/3/12
f 48/2/15 47/3/14 36/2/13
f 47/3/14 48/2/15 49/3/16
f 47/3/14 34/2/9 36/2/13
f 34/2/9 47/3/14 45/3/11
f 52/2/17 51/1/18 50/1/17
f 51/1/18 52/2/17 48/2/18
f 55/4/8 54/3/17 53/3/8
f 54/3/17 55/4/8 56/4/17
f 51/1/18 36/2/2 35/1/2
f 36/2/2 51/1/18 48/2/18
f 42/1/19 57/1/19 41/1/19
f 57/1/19 42/1/19 58/1/19
f 58/1/19 42/1/19 33/1/19
f 33/1/19 42/1/19 50/1/19
f 33/1/19 50/1/19 51/1/19
f 33/1/19 51/1/19 35/1/19
f 34/2/1 58/1/20 33/1/1
f 58/1/20 34/2/1 44/2/20
f 53/3/23 52/2/22 43/2/21
f 52/2/22 53/3/23 54/3/24
f 53/3/23 38/2/4 40/3/6
f 38/2/4 53/3/23 43/2/21
f 61/4/25 60/4/25 59/4/25
f 60/4/25 61/4/25 55/4/25
f 55/4/25 61/4/25 62/4/25
f 55/4/25 62/4/25 56/4/25
f 56/4/25 62/4/25 63/4/25
f 56/4/25 63/4/25 64/4/25
f 38/2/7 57/1/26 37/2/26
f 57/1/26 38/2/7 41/1/7
f 54/3/24 48/2/15 52/2/22
f 48/2/15 54/3/24 49/3/16
f 46/3/12 37/2/3 44/2/10
f 37/2/3 46/3/12 39/3/5
f 37/2/26 58/1/20 44/2/20
f 58/1/20 37/2/26 57/1/26
f 59/4/26 46/3/20 61/4/20
f 46/3/20 59/4/26 39/3/26
f 62/4/1 46/3/20 45/3/1
f 46/3/20 62/4/1 61/4/20
f 49/3/18 63/4/2 47/3/2
f 63/4/2 49/3/18 64/4/18
f 55/4/8 40/3/7 60/4/7
f 40/3/7 55/4/8 53/3/8
f 63/4/2 45/3/1 47/3/2
f 45/3/1 63/4/2 62/4/1
f 60/4/7 39/3/26 59/4/26
f 39/3/26 60/4/7 40/3/7
f 54/3/17 64/4/18 49/3/18
f 64/4/18 54/3/17 56/4/17
f 43/2/8 50/1/17 42/1/8
f 50/1/17 43/2/8 52/2/17
f 67/1/2 66/2/1 65/1/1
f 66/2/1 67/1/2 68/2/2
f 71/3/5 70/2/4 69/2/3
f 70/2/4 71/3/5 72/3/6
f 70/2/7 74/1/8 73/1/7
f 74/1/8 70/2/7 75/2/8
f 77/3/11 76/2/10 66/2/9
f 76/2/10 77/3/11 78/3/12
f 80/2/15 79/3/14 68/2/13
f 79/3/14 80/2/15 81/3/16
f 79/3/14 66/2/9 68/2/13
f 66/2/9 79/3/14 77/3/11
f 84/2/17 83/1/18 82/1/17
f 83/1/18 84/2/17 80/2/18
f 87/4/8 86/3/17 85/3/8
f 86/3/17 87/4/8 88/4/17
f 83/1/18 68/2/2 67/1/2
f 68/2/2 83/1/18 80/2/18
f 74/1/19 89/1/19 73/1/19
f 89/1/19 74/1/19 90/1/19
f 90/1/19 74/1/19 65/1/19
f 65/1/19 74/1/19 82/1/19
f 65/1/19 82/1/19 83/1/19
f 65/1/19 83/1/19 67/1/19
f 66/2/1 90/1/20 65/1/1
f 90/1/20 66/2/1 76/2/20
f 85/3/23 84/2/22 75/2/21
f 84/2/22 85/3/23 86/3/24
f 85/3/23 70/2/4 72/3/6
f 70/2/4 85/3/23 75/2/21
f 93/4/25 92/4/25 91/4/25
f 92/4/25 93/4/25 87/4/25
f 87/4/25 93/4/25 94/4/25
f 87/4/25 94/4/25 88/4/25
f 88/4/25 94/4/25 95/4/25
f 88/4/25 95/4/25 96/4/25
f 70/2/7 89/1/26 69/2/26
f 89/1/26 70/2/7 73/1/7
f 86/3/24 80/2/15 84/2/22
f 80/2/15 86/3/24 81/3/16
f 78/3/12 69/2/3 76/2/10
f 69/2/3 78/3/12 71/3/5
f 69/2/26 90/1/20 76/2/20
f 90/1/20 69/2/26 89/1/26
f 91/4/26 78/3/20 93/4/20
f 78/3/20 91/4/26 71/3/26
f 94/4/1 78/3/20 77/3/1
f 78/3/20 94/4/1 93/4/20
f 81/3/18 95/4/2 79/3/2
f 95/4/2 81/3/18 96/4/18
f 87/4/8 72/3/7 92/4/7
f 72/3/7 87/4/8 85/3/8
f 95/4/2 77/3/1 79/3/2
f 77/3/1 95/4/2 94/4/1
f 92/4/7 71/3/26 91/4/26
f 71/3/26 92/4/7 72/3/7
f 86/3/17 96/4/18 81/3/18
f 96/4/18 86/3/17 88/4/17
f 75/2/8 82/1/17 74/1/8
f 82/1/17 75/2/8 84/2/17
f 99/1/2 98/2/1 97/1/1
f 98/2/1 99/1/2 100/2/2
f 103/3/5 102/2/4 101/2/3
f 102/2/4 103/3/5 104/3/6
f 102/2/7 106/1/8 105/1/7
f 106/1/8 102/2/7 107/2/8
f 109/3/11 108/2/10 98/2/9
f 108/2/10 109/3/11 110/3/12
f 112/2/15 111/3/14 100/2/13
f 111/3/14 112/2/15 113/3/16
f 111/3/14 98/2/9 100/2/13
f 98/2/9 111/3/14 109/3/11
f 116/2/17 115/1/18 114/1/17
f 115/1/18 116/2/17 112/2/18
f 119/4/8 118/3/17 117/3/8
f 118/3/17 119/4/8 120/4/17
f 115/1/18 100/2/2 99/1/2
f 100/2/2 115/1/18 112/2/18
f 106/1/19 121/1/19 105/1/19
f 121/1/19 106/1/19 122/1/19
f 122/1/19 106/1/19 97/1/19
f 97/1/19 106/1/19 114/1/19
f 97/1/19 114/1/19 115/1/19
f 97/1/19 115/1/19 99/1/19
f 98/2/1 122/1/20 97/1/1
f 122/1/20 98/2/1 108/2/20
f 117/3/23 116/2/22 107/2/21
f 116/2/22 117/3/23 118/3/24
f 117/3/23 102/2/4 104/3/6
f 102/2/4 117/3/23 107/2/21
f 125/4/25 124/4/25 123/4/25
f 124/4/25 125/4/25 119/4/25
f 119/4/25 125/4/25 126/4/25
f 119/4/25 126/4/25 120/4/25
f 120/4/25 126/4/25 127/4/25
f 120/4/25 127/4/25 128/4/25
f 102/2/7 121/1/26 101/2/26
f 121/1/26 102/2/7 105/1/7
f 118/3/24 112/2/15 116/2/22
f 112/2/15 118/3/24 113/3/16
f 110/3/12 101/2/3 108/2/10
f 101/2/3 110/3/12 103/3/5
f 101/2/26 122/1/20 108/2/20
f 122/1/20 101/2/26 121/1/26
f 123/4/26 110/3/20 125/4/20
f 110/3/20 123/4/26 103/3/26
f 126/4/1 110/3/20 109/3/1
f 110/3/20 126/4/1 125/4/20
f 113/3/18 127/4/2 111/3/2
f 127/4/2 113/3/18 128/4/18
f 119/4/8 104/3/7 124/4/7
f 104/3/7 119/4/8 117/3/8
f 127/4/2 109/3/1 111/3/2
f 109/3/1 127/4/2 126/4/1
f 124/4/7 103/3/26 123/4/26
f 103/3/26 124/4/7 104/3/7
f 118/3/17 128/4/18 113/3/18
f 128/4/18 118/3/17 120/4/17
f 107/2/8 114/1/17 106/1/8
f 114/1/17 107/2/8 116/2/17

