# Created by Kenney (www.kenney.nl)

mtllib supports.mtl

g supports

v -0.275 1 0.325 1 1 1
v -0.275 1 0.425 1 1 1
v -0.325 1 0.275 1 1 1
v -0.325 1 0.475 1 1 1
v -0.425 1 0.275 1 1 1
v -0.425 1 0.475 1 1 1
v -0.475 1 0.325 1 1 1
v -0.475 1 0.425 1 1 1
v -0.325 0 0.275 1 1 1
v -0.275 0 0.325 1 1 1
v -0.425 0 0.275 1 1 1
v -0.475 0 0.325 1 1 1
v -0.475 0 0.425 1 1 1
v -0.425 0 0.475 1 1 1
v -0.275 0 0.425 1 1 1
v -0.325 0 0.475 1 1 1
v 0.475 1 0.325 1 1 1
v 0.475 1 0.425 1 1 1
v 0.425 1 0.275 1 1 1
v 0.425 1 0.475 1 1 1
v 0.325 1 0.275 1 1 1
v 0.325 1 0.475 1 1 1
v 0.275 1 0.325 1 1 1
v 0.275 1 0.425 1 1 1
v 0.425 0 0.275 1 1 1
v 0.475 0 0.325 1 1 1
v 0.325 0 0.275 1 1 1
v 0.275 0 0.325 1 1 1
v 0.275 0 0.425 1 1 1
v 0.325 0 0.475 1 1 1
v 0.475 0 0.425 1 1 1
v 0.425 0 0.475 1 1 1
v -0.275 1 -0.425 1 1 1
v -0.275 1 -0.325 1 1 1
v -0.325 1 -0.475 1 1 1
v -0.325 1 -0.275 1 1 1
v -0.425 1 -0.475 1 1 1
v -0.425 1 -0.275 1 1 1
v -0.475 1 -0.425 1 1 1
v -0.475 1 -0.325 1 1 1
v -0.325 0 -0.475 1 1 1
v -0.275 0 -0.425 1 1 1
v -0.425 0 -0.475 1 1 1
v -0.475 0 -0.425 1 1 1
v -0.475 0 -0.325 1 1 1
v -0.425 0 -0.275 1 1 1
v -0.275 0 -0.325 1 1 1
v -0.325 0 -0.275 1 1 1
v 0.475 1 -0.425 1 1 1
v 0.475 1 -0.325 1 1 1
v 0.425 1 -0.475 1 1 1
v 0.425 1 -0.275 1 1 1
v 0.325 1 -0.475 1 1 1
v 0.325 1 -0.275 1 1 1
v 0.275 1 -0.425 1 1 1
v 0.275 1 -0.325 1 1 1
v 0.425 0 -0.475 1 1 1
v 0.475 0 -0.425 1 1 1
v 0.325 0 -0.475 1 1 1
v 0.275 0 -0.425 1 1 1
v 0.275 0 -0.325 1 1 1
v 0.325 0 -0.275 1 1 1
v 0.475 0 -0.325 1 1 1
v 0.425 0 -0.275 1 1 1

vn 0 1 0
vn 0 -1 0
vn 0.3826834 0 -0.9238795
vn 0.9238795 0 -0.3826834
vn -0.9238795 0 0.3826834
vn -0.3826834 0 0.9238795
vn -0.3826834 0 -0.9238795
vn 0.3826834 0 0.9238795
vn -0.9238795 0 -0.3826834
vn 0.9238795 0 0.3826834

vt 0.71875 0.225
vt 0.71875 0.025

usemtl colormap

f 3/1/1 2/1/1 1/1/1
f 2/1/1 3/1/1 4/1/1
f 4/1/1 3/1/1 5/1/1
f 4/1/1 5/1/1 6/1/1
f 6/1/1 5/1/1 7/1/1
f 6/1/1 7/1/1 8/1/1
f 1/1/2 2/1/2 3/1/2
f 4/1/2 3/1/2 2/1/2
f 5/1/2 3/1/2 4/1/2
f 6/1/2 5/1/2 4/1/2
f 7/1/2 5/1/2 6/1/2
f 8/1/2 7/1/2 6/1/2
f 1/1/4 9/2/3 3/1/3
f 9/2/3 1/1/4 10/2/4
f 3/1/6 9/2/6 1/1/5
f 10/2/5 1/1/5 9/2/6
f 5/1/7 9/2/3 11/2/7
f 9/2/3 5/1/7 3/1/3
f 11/2/8 9/2/6 5/1/8
f 3/1/6 5/1/8 9/2/6
f 13/2/5 7/1/9 12/2/9
f 7/1/9 13/2/5 8/1/5
f 12/2/10 7/1/10 13/2/4
f 8/1/4 13/2/4 7/1/10
f 14/2/6 8/1/5 13/2/5
f 8/1/5 14/2/6 6/1/6
f 13/2/4 8/1/4 14/2/3
f 6/1/3 14/2/3 8/1/4
f 4/1/8 15/2/10 2/1/10
f 15/2/10 4/1/8 16/2/8
f 2/1/9 15/2/9 4/1/7
f 16/2/7 4/1/7 15/2/9
f 2/1/10 10/2/4 1/1/4
f 10/2/4 2/1/10 15/2/10
f 1/1/5 10/2/5 2/1/9
f 15/2/9 2/1/9 10/2/5
f 4/1/8 14/2/6 16/2/8
f 14/2/6 4/1/8 6/1/6
f 16/2/7 14/2/3 4/1/7
f 6/1/3 4/1/7 14/2/3
f 12/2/9 5/1/7 11/2/7
f 5/1/7 12/2/9 7/1/9
f 11/2/8 5/1/8 12/2/10
f 7/1/10 12/2/10 5/1/8
f 16/2/2 10/2/2 15/2/2
f 10/2/2 16/2/2 9/2/2
f 9/2/2 16/2/2 14/2/2
f 9/2/2 14/2/2 11/2/2
f 11/2/2 14/2/2 13/2/2
f 11/2/2 13/2/2 12/2/2
f 15/2/1 10/2/1 16/2/1
f 9/2/1 16/2/1 10/2/1
f 14/2/1 16/2/1 9/2/1
f 11/2/1 14/2/1 9/2/1
f 13/2/1 14/2/1 11/2/1
f 12/2/1 13/2/1 11/2/1
f 19/1/1 18/1/1 17/1/1
f 18/1/1 19/1/1 20/1/1
f 20/1/1 19/1/1 21/1/1
f 20/1/1 21/1/1 22/1/1
f 22/1/1 21/1/1 23/1/1
f 22/1/1 23/1/1 24/1/1
f 17/1/2 18/1/2 19/1/2
f 20/1/2 19/1/2 18/1/2
f 21/1/2 19/1/2 20/1/2
f 22/1/2 21/1/2 20/1/2
f 23/1/2 21/1/2 22/1/2
f 24/1/2 23/1/2 22/1/2
f 17/1/4 25/2/3 19/1/3
f 25/2/3 17/1/4 26/2/4
f 19/1/6 25/2/6 17/1/5
f 26/2/5 17/1/5 25/2/6
f 21/1/7 25/2/3 27/2/7
f 25/2/3 21/1/7 19/1/3
f 27/2/8 25/2/6 21/1/8
f 19/1/6 21/1/8 25/2/6
f 29/2/5 23/1/9 28/2/9
f 23/1/9 29/2/5 24/1/5
f 28/2/10 23/1/10 29/2/4
f 24/1/4 29/2/4 23/1/10
f 30/2/6 24/1/5 29/2/5
f 24/1/5 30/2/6 22/1/6
f 29/2/4 24/1/4 30/2/3
f 22/1/3 30/2/3 24/1/4
f 20/1/8 31/2/10 18/1/10
f 31/2/10 20/1/8 32/2/8
f 18/1/9 31/2/9 20/1/7
f 32/2/7 20/1/7 31/2/9
f 18/1/10 26/2/4 17/1/4
f 26/2/4 18/1/10 31/2/10
f 17/1/5 26/2/5 18/1/9
f 31/2/9 18/1/9 26/2/5
f 20/1/8 30/2/6 32/2/8
f 30/2/6 20/1/8 22/1/6
f 32/2/7 30/2/3 20/1/7
f 22/1/3 20/1/7 30/2/3
f 28/2/9 21/1/7 27/2/7
f 21/1/7 28/2/9 23/1/9
f 27/2/8 21/1/8 28/2/10
f 23/1/10 28/2/10 21/1/8
f 32/2/2 26/2/2 31/2/2
f 26/2/2 32/2/2 25/2/2
f 25/2/2 32/2/2 30/2/2
f 25/2/2 30/2/2 27/2/2
f 27/2/2 30/2/2 29/2/2
f 27/2/2 29/2/2 28/2/2
f 31/2/1 26/2/1 32/2/1
f 25/2/1 32/2/1 26/2/1
f 30/2/1 32/2/1 25/2/1
f 27/2/1 30/2/1 25/2/1
f 29/2/1 30/2/1 27/2/1
f 28/2/1 29/2/1 27/2/1
f 35/1/1 34/1/1 33/1/1
f 34/1/1 35/1/1 36/1/1
f 36/1/1 35/1/1 37/1/1
f 36/1/1 37/1/1 38/1/1
f 38/1/1 37/1/1 39/1/1
f 38/1/1 39/1/1 40/1/1
f 33/1/2 34/1/2 35/1/2
f 36/1/2 35/1/2 34/1/2
f 37/1/2 35/1/2 36/1/2
f 38/1/2 37/1/2 36/1/2
f 39/1/2 37/1/2 38/1/2
f 40/1/2 39/1/2 38/1/2
f 33/1/4 41/2/3 35/1/3
f 41/2/3 33/1/4 42/2/4
f 35/1/6 41/2/6 33/1/5
f 42/2/5 33/1/5 41/2/6
f 37/1/7 41/2/3 43/2/7
f 41/2/3 37/1/7 35/1/3
f 43/2/8 41/2/6 37/1/8
f 35/1/6 37/1/8 41/2/6
f 45/2/5 39/1/9 44/2/9
f 39/1/9 45/2/5 40/1/5
f 44/2/10 39/1/10 45/2/4
f 40/1/4 45/2/4 39/1/10
f 46/2/6 40/1/5 45/2/5
f 40/1/5 46/2/6 38/1/6
f 45/2/4 40/1/4 46/2/3
f 38/1/3 46/2/3 40/1/4
f 36/1/8 47/2/10 34/1/10
f 47/2/10 36/1/8 48/2/8
f 34/1/9 47/2/9 36/1/7
f 48/2/7 36/1/7 47/2/9
f 34/1/10 42/2/4 33/1/4
f 42/2/4 34/1/10 47/2/10
f 33/1/5 42/2/5 34/1/9
f 47/2/9 34/1/9 42/2/5
f 36/1/8 46/2/6 48/2/8
f 46/2/6 36/1/8 38/1/6
f 48/2/7 46/2/3 36/1/7
f 38/1/3 36/1/7 46/2/3
f 44/2/9 37/1/7 43/2/7
f 37/1/7 44/2/9 39/1/9
f 43/2/8 37/1/8 44/2/10
f 39/1/10 44/2/10 37/1/8
f 48/2/2 42/2/2 47/2/2
f 42/2/2 48/2/2 41/2/2
f 41/2/2 48/2/2 46/2/2
f 41/2/2 46/2/2 43/2/2
f 43/2/2 46/2/2 45/2/2
f 43/2/2 45/2/2 44/2/2
f 47/2/1 42/2/1 48/2/1
f 41/2/1 48/2/1 42/2/1
f 46/2/1 48/2/1 41/2/1
f 43/2/1 46/2/1 41/2/1
f 45/2/1 46/2/1 43/2/1
f 44/2/1 45/2/1 43/2/1
f 51/1/1 50/1/1 49/1/1
f 50/1/1 51/1/1 52/1/1
f 52/1/1 51/1/1 53/1/1
f 52/1/1 53/1/1 54/1/1
f 54/1/1 53/1/1 55/1/1
f 54/1/1 55/1/1 56/1/1
f 49/1/2 50/1/2 51/1/2
f 52/1/2 51/1/2 50/1/2
f 53/1/2 51/1/2 52/1/2
f 54/1/2 53/1/2 52/1/2
f 55/1/2 53/1/2 54/1/2
f 56/1/2 55/1/2 54/1/2
f 49/1/4 57/2/3 51/1/3
f 57/2/3 49/1/4 58/2/4
f 51/1/6 57/2/6 49/1/5
f 58/2/5 49/1/5 57/2/6
f 53/1/7 57/2/3 59/2/7
f 57/2/3 53/1/7 51/1/3
f 59/2/8 57/2/6 53/1/8
f 51/1/6 53/1/8 57/2/6
f 61/2/5 55/1/9 60/2/9
f 55/1/9 61/2/5 56/1/5
f 60/2/10 55/1/10 61/2/4
f 56/1/4 61/2/4 55/1/10
f 62/2/6 56/1/5 61/2/5
f 56/1/5 62/2/6 54/1/6
f 61/2/4 56/1/4 62/2/3
f 54/1/3 62/2/3 56/1/4
f 52/1/8 63/2/10 50/1/10
f 63/2/10 52/1/8 64/2/8
f 50/1/9 63/2/9 52/1/7
f 64/2/7 52/1/7 63/2/9
f 50/1/10 58/2/4 49/1/4
f 58/2/4 50/1/10 63/2/10
f 49/1/5 58/2/5 50/1/9
f 63/2/9 50/1/9 58/2/5
f 52/1/8 62/2/6 64/2/8
f 62/2/6 52/1/8 54/1/6
f 64/2/7 62/2/3 52/1/7
f 54/1/3 52/1/7 62/2/3
f 60/2/9 53/1/7 59/2/7
f 53/1/7 60/2/9 55/1/9
f 59/2/8 53/1/8 60/2/10
f 55/1/10 60/2/10 53/1/8
f 64/2/2 58/2/2 63/2/2
f 58/2/2 64/2/2 57/2/2
f 57/2/2 64/2/2 62/2/2
f 57/2/2 62/2/2 59/2/2
f 59/2/2 62/2/2 61/2/2
f 59/2/2 61/2/2 60/2/2
f 63/2/1 58/2/1 64/2/1
f 57/2/1 64/2/1 58/2/1
f 62/2/1 64/2/1 57/2/1
f 59/2/1 62/2/1 57/2/1
f 61/2/1 62/2/1 59/2/1
f 60/2/1 61/2/1 59/2/1

g supports




usemtl colormap

f 3/1/1 2/1/1 1/1/1
f 2/1/1 3/1/1 4/1/1
f 4/1/1 3/1/1 5/1/1
f 4/1/1 5/1/1 6/1/1
f 6/1/1 5/1/1 7/1/1
f 6/1/1 7/1/1 8/1/1
f 1/1/2 2/1/2 3/1/2
f 4/1/2 3/1/2 2/1/2
f 5/1/2 3/1/2 4/1/2
f 6/1/2 5/1/2 4/1/2
f 7/1/2 5/1/2 6/1/2
f 8/1/2 7/1/2 6/1/2
f 1/1/4 9/2/3 3/1/3
f 9/2/3 1/1/4 10/2/4
f 3/1/6 9/2/6 1/1/5
f 10/2/5 1/1/5 9/2/6
f 5/1/7 9/2/3 11/2/7
f 9/2/3 5/1/7 3/1/3
f 11/2/8 9/2/6 5/1/8
f 3/1/6 5/1/8 9/2/6
f 13/2/5 7/1/9 12/2/9
f 7/1/9 13/2/5 8/1/5
f 12/2/10 7/1/10 13/2/4
f 8/1/4 13/2/4 7/1/10
f 14/2/6 8/1/5 13/2/5
f 8/1/5 14/2/6 6/1/6
f 13/2/4 8/1/4 14/2/3
f 6/1/3 14/2/3 8/1/4
f 4/1/8 15/2/10 2/1/10
f 15/2/10 4/1/8 16/2/8
f 2/1/9 15/2/9 4/1/7
f 16/2/7 4/1/7 15/2/9
f 2/1/10 10/2/4 1/1/4
f 10/2/4 2/1/10 15/2/10
f 1/1/5 10/2/5 2/1/9
f 15/2/9 2/1/9 10/2/5
f 4/1/8 14/2/6 16/2/8
f 14/2/6 4/1/8 6/1/6
f 16/2/7 14/2/3 4/1/7
f 6/1/3 4/1/7 14/2/3
f 12/2/9 5/1/7 11/2/7
f 5/1/7 12/2/9 7/1/9
f 11/2/8 5/1/8 12/2/10
f 7/1/10 12/2/10 5/1/8
f 16/2/2 10/2/2 15/2/2
f 10/2/2 16/2/2 9/2/2
f 9/2/2 16/2/2 14/2/2
f 9/2/2 14/2/2 11/2/2
f 11/2/2 14/2/2 13/2/2
f 11/2/2 13/2/2 12/2/2
f 15/2/1 10/2/1 16/2/1
f 9/2/1 16/2/1 10/2/1
f 14/2/1 16/2/1 9/2/1
f 11/2/1 14/2/1 9/2/1
f 13/2/1 14/2/1 11/2/1
f 12/2/1 13/2/1 11/2/1
f 19/1/1 18/1/1 17/1/1
f 18/1/1 19/1/1 20/1/1
f 20/1/1 19/1/1 21/1/1
f 20/1/1 21/1/1 22/1/1
f 22/1/1 21/1/1 23/1/1
f 22/1/1 23/1/1 24/1/1
f 17/1/2 18/1/2 19/1/2
f 20/1/2 19/1/2 18/1/2
f 21/1/2 19/1/2 20/1/2
f 22/1/2 21/1/2 20/1/2
f 23/1/2 21/1/2 22/1/2
f 24/1/2 23/1/2 22/1/2
f 17/1/4 25/2/3 19/1/3
f 25/2/3 17/1/4 26/2/4
f 19/1/6 25/2/6 17/1/5
f 26/2/5 17/1/5 25/2/6
f 21/1/7 25/2/3 27/2/7
f 25/2/3 21/1/7 19/1/3
f 27/2/8 25/2/6 21/1/8
f 19/1/6 21/1/8 25/2/6
f 29/2/5 23/1/9 28/2/9
f 23/1/9 29/2/5 24/1/5
f 28/2/10 23/1/10 29/2/4
f 24/1/4 29/2/4 23/1/10
f 30/2/6 24/1/5 29/2/5
f 24/1/5 30/2/6 22/1/6
f 29/2/4 24/1/4 30/2/3
f 22/1/3 30/2/3 24/1/4
f 20/1/8 31/2/10 18/1/10
f 31/2/10 20/1/8 32/2/8
f 18/1/9 31/2/9 20/1/7
f 32/2/7 20/1/7 31/2/9
f 18/1/10 26/2/4 17/1/4
f 26/2/4 18/1/10 31/2/10
f 17/1/5 26/2/5 18/1/9
f 31/2/9 18/1/9 26/2/5
f 20/1/8 30/2/6 32/2/8
f 30/2/6 20/1/8 22/1/6
f 32/2/7 30/2/3 20/1/7
f 22/1/3 20/1/7 30/2/3
f 28/2/9 21/1/7 27/2/7
f 21/1/7 28/2/9 23/1/9
f 27/2/8 21/1/8 28/2/10
f 23/1/10 28/2/10 21/1/8
f 32/2/2 26/2/2 31/2/2
f 26/2/2 32/2/2 25/2/2
f 25/2/2 32/2/2 30/2/2
f 25/2/2 30/2/2 27/2/2
f 27/2/2 30/2/2 29/2/2
f 27/2/2 29/2/2 28/2/2
f 31/2/1 26/2/1 32/2/1
f 25/2/1 32/2/1 26/2/1
f 30/2/1 32/2/1 25/2/1
f 27/2/1 30/2/1 25/2/1
f 29/2/1 30/2/1 27/2/1
f 28/2/1 29/2/1 27/2/1
f 35/1/1 34/1/1 33/1/1
f 34/1/1 35/1/1 36/1/1
f 36/1/1 35/1/1 37/1/1
f 36/1/1 37/1/1 38/1/1
f 38/1/1 37/1/1 39/1/1
f 38/1/1 39/1/1 40/1/1
f 33/1/2 34/1/2 35/1/2
f 36/1/2 35/1/2 34/1/2
f 37/1/2 35/1/2 36/1/2
f 38/1/2 37/1/2 36/1/2
f 39/1/2 37/1/2 38/1/2
f 40/1/2 39/1/2 38/1/2
f 33/1/4 41/2/3 35/1/3
f 41/2/3 33/1/4 42/2/4
f 35/1/6 41/2/6 33/1/5
f 42/2/5 33/1/5 41/2/6
f 37/1/7 41/2/3 43/2/7
f 41/2/3 37/1/7 35/1/3
f 43/2/8 41/2/6 37/1/8
f 35/1/6 37/1/8 41/2/6
f 45/2/5 39/1/9 44/2/9
f 39/1/9 45/2/5 40/1/5
f 44/2/10 39/1/10 45/2/4
f 40/1/4 45/2/4 39/1/10
f 46/2/6 40/1/5 45/2/5
f 40/1/5 46/2/6 38/1/6
f 45/2/4 40/1/4 46/2/3
f 38/1/3 46/2/3 40/1/4
f 36/1/8 47/2/10 34/1/10
f 47/2/10 36/1/8 48/2/8
f 34/1/9 47/2/9 36/1/7
f 48/2/7 36/1/7 47/2/9
f 34/1/10 42/2/4 33/1/4
f 42/2/4 34/1/10 47/2/10
f 33/1/5 42/2/5 34/1/9
f 47/2/9 34/1/9 42/2/5
f 36/1/8 46/2/6 48/2/8
f 46/2/6 36/1/8 38/1/6
f 48/2/7 46/2/3 36/1/7
f 38/1/3 36/1/7 46/2/3
f 44/2/9 37/1/7 43/2/7
f 37/1/7 44/2/9 39/1/9
f 43/2/8 37/1/8 44/2/10
f 39/1/10 44/2/10 37/1/8
f 48/2/2 42/2/2 47/2/2
f 42/2/2 48/2/2 41/2/2
f 41/2/2 48/2/2 46/2/2
f 41/2/2 46/2/2 43/2/2
f 43/2/2 46/2/2 45/2/2
f 43/2/2 45/2/2 44/2/2
f 47/2/1 42/2/1 48/2/1
f 41/2/1 48/2/1 42/2/1
f 46/2/1 48/2/1 41/2/1
f 43/2/1 46/2/1 41/2/1
f 45/2/1 46/2/1 43/2/1
f 44/2/1 45/2/1 43/2/1
f 51/1/1 50/1/1 49/1/1
f 50/1/1 51/1/1 52/1/1
f 52/1/1 51/1/1 53/1/1
f 52/1/1 53/1/1 54/1/1
f 54/1/1 53/1/1 55/1/1
f 54/1/1 55/1/1 56/1/1
f 49/1/2 50/1/2 51/1/2
f 52/1/2 51/1/2 50/1/2
f 53/1/2 51/1/2 52/1/2
f 54/1/2 53/1/2 52/1/2
f 55/1/2 53/1/2 54/1/2
f 56/1/2 55/1/2 54/1/2
f 49/1/4 57/2/3 51/1/3
f 57/2/3 49/1/4 58/2/4
f 51/1/6 57/2/6 49/1/5
f 58/2/5 49/1/5 57/2/6
f 53/1/7 57/2/3 59/2/7
f 57/2/3 53/1/7 51/1/3
f 59/2/8 57/2/6 53/1/8
f 51/1/6 53/1/8 57/2/6
f 61/2/5 55/1/9 60/2/9
f 55/1/9 61/2/5 56/1/5
f 60/2/10 55/1/10 61/2/4
f 56/1/4 61/2/4 55/1/10
f 62/2/6 56/1/5 61/2/5
f 56/1/5 62/2/6 54/1/6
f 61/2/4 56/1/4 62/2/3
f 54/1/3 62/2/3 56/1/4
f 52/1/8 63/2/10 50/1/10
f 63/2/10 52/1/8 64/2/8
f 50/1/9 63/2/9 52/1/7
f 64/2/7 52/1/7 63/2/9
f 50/1/10 58/2/4 49/1/4
f 58/2/4 50/1/10 63/2/10
f 49/1/5 58/2/5 50/1/9
f 63/2/9 50/1/9 58/2/5
f 52/1/8 62/2/6 64/2/8
f 62/2/6 52/1/8 54/1/6
f 64/2/7 62/2/3 52/1/7
f 54/1/3 52/1/7 62/2/3
f 60/2/9 53/1/7 59/2/7
f 53/1/7 60/2/9 55/1/9
f 59/2/8 53/1/8 60/2/10
f 55/1/10 60/2/10 53/1/8
f 64/2/2 58/2/2 63/2/2
f 58/2/2 64/2/2 57/2/2
f 57/2/2 64/2/2 62/2/2
f 57/2/2 62/2/2 59/2/2
f 59/2/2 62/2/2 61/2/2
f 59/2/2 61/2/2 60/2/2
f 63/2/1 58/2/1 64/2/1
f 57/2/1 64/2/1 58/2/1
f 62/2/1 64/2/1 57/2/1
f 59/2/1 62/2/1 57/2/1
f 61/2/1 62/2/1 59/2/1
f 60/2/1 61/2/1 59/2/1

