# Created by Kenney (www.kenney.nl)

mtllib tunnel-narrow.mtl

g tunnel-narrow

v 0.49995 0 -0.49995 1 1 1
v -0.49995 0 -0.49995 1 1 1
v 0.49995 0 0.49995 1 1 1
v -0.49995 0 0.49995 1 1 1
v 0.49995 0.146652 -0.49995 1 1 1
v 0.49995 0.146652 0.49995 1 1 1
v -0.49995 0.146652 -0.49995 1 1 1
v -0.49995 0.146652 0.49995 1 1 1
v 0.39996 0.146652 -0.49995 1 1 1
v 0.39996 0.146652 0.49995 1 1 1
v 0.39996 0.063327 -0.49995 1 1 1
v 0.39996 0.063327 0.49995 1 1 1
v -0.39996 0.146652 -0.49995 1 1 1
v -0.39996 0.063327 -0.49995 1 1 1
v -0.39996 0.146652 0.49995 1 1 1
v -0.39996 0.063327 0.49995 1 1 1
v -0.39996 0.063327 -0.39996 1 1 1
v -0.39996 0.296637 -0.39996 1 1 1
v -0.39996 0.063327 0.39996 1 1 1
v -0.39996 0.296637 0.39996 1 1 1
v 0.39996 0.296637 -0.39996 1 1 1
v 0.39996 0.063327 -0.39996 1 1 1
v 0.39996 0.296637 0.39996 1 1 1
v 0.39996 0.063327 0.39996 1 1 1
v 0.09999 0.063327 -0.39996 1 1 1
v 0.09999 0.129987 -0.39996 1 1 1
v 0.09999 0.063327 0.39996 1 1 1
v 0.09999 0.129987 0.39996 1 1 1
v -0.09999 0.063327 -0.39996 1 1 1
v -0.09999 0.063327 0.39996 1 1 1
v -0.09999 0.129987 -0.39996 1 1 1
v -0.09999 0.129987 0.39996 1 1 1
v -0.08659388 0.179982 -0.39996 1 1 1
v -0.049995 0.2165809 -0.39996 1 1 1
v 7.452898E-10 0.229977 -0.39996 1 1 1
v 0.049995 0.2165809 -0.39996 1 1 1
v 0.08659388 0.179982 -0.39996 1 1 1
v 0.08659388 0.179982 0.39996 1 1 1
v 0.049995 0.2165809 0.39996 1 1 1
v 7.45284E-10 0.229977 0.39996 1 1 1
v -0.049995 0.2165809 0.39996 1 1 1
v -0.08659388 0.179982 0.39996 1 1 1

vn 0 -1 0
vn 1 0 0
vn -1 0 0
vn 0 1 0
vn 0 0 -1
vn 0 0 1
vn -0.9914449 -0.1305262 0
vn 0.9914449 -0.1305262 0
vn -0.8660254 -0.5 0
vn -0.5 -0.8660254 0
vn 0.5 -0.8660254 0
vn 0.8660254 -0.5 0

vt 0.71875 0.025
vt 0.71875 0.225
vt 0.71875 0.1113636
vt 0.15625 0.375
vt 0.09375 0.325
vt 0.09375 0.425
vt 0.09375 0.3535714
vt 0.09375 0.375
vt 0.09375 0.3906868
vt 0.09375 0.3964286

usemtl colormap

f 3/1/1 2/1/1 1/1/1
f 2/1/1 3/1/1 4/1/1
f 6/2/2 1/1/2 5/2/2
f 1/1/2 6/2/2 3/1/2
f 4/1/3 7/2/3 2/1/3
f 7/2/3 4/1/3 8/2/3
f 9/2/4 6/2/4 5/2/4
f 6/2/4 9/2/4 10/2/4
f 12/3/3 9/2/3 11/3/3
f 9/2/3 12/3/3 10/2/3
f 14/3/5 7/2/5 13/2/5
f 14/3/5 2/1/5 7/2/5
f 2/1/5 14/3/5 1/1/5
f 11/3/5 1/1/5 14/3/5
f 1/1/5 11/3/5 5/2/5
f 5/2/5 11/3/5 9/2/5
f 15/2/2 14/3/2 13/2/2
f 14/3/2 15/2/2 16/3/2
f 12/3/6 6/2/6 10/2/6
f 12/3/6 3/1/6 6/2/6
f 3/1/6 12/3/6 4/1/6
f 16/3/6 4/1/6 12/3/6
f 4/1/6 16/3/6 8/2/6
f 8/2/6 16/3/6 15/2/6
f 7/2/4 15/2/4 13/2/4
f 15/2/4 7/2/4 8/2/4
f 14/4/4 12/4/4 11/4/4
f 12/4/4 14/4/4 16/4/4
f 19/5/3 18/6/3 17/5/3
f 18/6/3 19/5/3 20/6/3
f 23/6/2 22/5/2 21/6/2
f 22/5/2 23/6/2 24/5/2
f 27/5/3 26/7/7 25/5/3
f 26/7/7 27/5/3 28/7/7
f 18/6/4 23/6/4 21/6/4
f 23/6/4 18/6/4 20/6/4
f 31/7/8 30/5/2 29/5/2
f 30/5/2 31/7/8 32/7/8
f 18/6/5 29/5/5 17/5/5
f 29/5/5 18/6/5 31/7/5
f 31/7/5 18/6/5 33/8/5
f 33/8/5 18/6/5 34/9/5
f 34/9/5 18/6/5 35/10/5
f 21/6/5 35/10/5 18/6/5
f 21/6/5 36/9/5 35/10/5
f 21/6/5 37/8/5 36/9/5
f 21/6/5 26/7/5 37/8/5
f 22/5/5 26/7/5 21/6/5
f 26/7/5 22/5/5 25/5/5
f 23/6/6 27/5/6 24/5/6
f 27/5/6 23/6/6 28/7/6
f 28/7/6 23/6/6 38/8/6
f 38/8/6 23/6/6 39/9/6
f 39/9/6 23/6/6 40/10/6
f 20/6/6 40/10/6 23/6/6
f 20/6/6 41/9/6 40/10/6
f 20/6/6 42/8/6 41/9/6
f 20/6/6 32/7/6 42/8/6
f 19/5/6 32/7/6 20/6/6
f 32/7/6 19/5/6 30/5/6
f 28/7/7 37/8/9 26/7/7
f 37/8/9 28/7/7 38/8/9
f 38/8/9 36/9/10 37/8/9
f 36/9/10 38/8/9 39/9/10
f 39/9/10 35/10/1 36/9/10
f 35/10/1 39/9/10 40/10/1
f 40/10/1 34/9/11 35/10/1
f 34/9/11 40/10/1 41/9/11
f 41/9/11 33/8/12 34/9/11
f 33/8/12 41/9/11 42/8/12
f 42/8/12 31/7/8 33/8/12
f 31/7/8 42/8/12 32/7/8

g tunnel-narrow




usemtl colormap

f 3/1/1 2/1/1 1/1/1
f 2/1/1 3/1/1 4/1/1
f 6/2/2 1/1/2 5/2/2
f 1/1/2 6/2/2 3/1/2
f 4/1/3 7/2/3 2/1/3
f 7/2/3 4/1/3 8/2/3
f 9/2/4 6/2/4 5/2/4
f 6/2/4 9/2/4 10/2/4
f 12/3/3 9/2/3 11/3/3
f 9/2/3 12/3/3 10/2/3
f 14/3/5 7/2/5 13/2/5
f 14/3/5 2/1/5 7/2/5
f 2/1/5 14/3/5 1/1/5
f 11/3/5 1/1/5 14/3/5
f 1/1/5 11/3/5 5/2/5
f 5/2/5 11/3/5 9/2/5
f 15/2/2 14/3/2 13/2/2
f 14/3/2 15/2/2 16/3/2
f 12/3/6 6/2/6 10/2/6
f 12/3/6 3/1/6 6/2/6
f 3/1/6 12/3/6 4/1/6
f 16/3/6 4/1/6 12/3/6
f 4/1/6 16/3/6 8/2/6
f 8/2/6 16/3/6 15/2/6
f 7/2/4 15/2/4 13/2/4
f 15/2/4 7/2/4 8/2/4
f 14/4/4 12/4/4 11/4/4
f 12/4/4 14/4/4 16/4/4
f 19/5/3 18/6/3 17/5/3
f 18/6/3 19/5/3 20/6/3
f 23/6/2 22/5/2 21/6/2
f 22/5/2 23/6/2 24/5/2
f 27/5/3 26/7/7 25/5/3
f 26/7/7 27/5/3 28/7/7
f 18/6/4 23/6/4 21/6/4
f 23/6/4 18/6/4 20/6/4
f 31/7/8 30/5/2 29/5/2
f 30/5/2 31/7/8 32/7/8
f 18/6/5 29/5/5 17/5/5
f 29/5/5 18/6/5 31/7/5
f 31/7/5 18/6/5 33/8/5
f 33/8/5 18/6/5 34/9/5
f 34/9/5 18/6/5 35/10/5
f 21/6/5 35/10/5 18/6/5
f 21/6/5 36/9/5 35/10/5
f 21/6/5 37/8/5 36/9/5
f 21/6/5 26/7/5 37/8/5
f 22/5/5 26/7/5 21/6/5
f 26/7/5 22/5/5 25/5/5
f 23/6/6 27/5/6 24/5/6
f 27/5/6 23/6/6 28/7/6
f 28/7/6 23/6/6 38/8/6
f 38/8/6 23/6/6 39/9/6
f 39/9/6 23/6/6 40/10/6
f 20/6/6 40/10/6 23/6/6
f 20/6/6 41/9/6 40/10/6
f 20/6/6 42/8/6 41/9/6
f 20/6/6 32/7/6 42/8/6
f 19/5/6 32/7/6 20/6/6
f 32/7/6 19/5/6 30/5/6
f 28/7/7 37/8/9 26/7/7
f 37/8/9 28/7/7 38/8/9
f 38/8/9 36/9/10 37/8/9
f 36/9/10 38/8/9 39/9/10
f 39/9/10 35/10/1 36/9/10
f 35/10/1 39/9/10 40/10/1
f 40/10/1 34/9/11 35/10/1
f 34/9/11 40/10/1 41/9/11
f 41/9/11 33/8/12 34/9/11
f 33/8/12 41/9/11 42/8/12
f 42/8/12 31/7/8 33/8/12
f 31/7/8 42/8/12 32/7/8

