# Created by Kenney (www.kenney.nl)

mtllib walls-to-open.mtl

g walls-to-open

v 0.49995 0 -0.49995 1 1 1
v -0.49995 0 -0.49995 1 1 1
v 0.49995 0 0.49995 1 1 1
v -0.49995 0 0.49995 1 1 1
v 0.49995 0.146652 -0.49995 1 1 1
v 0.49995 0.146652 -0.39996 1 1 1
v 0.49995 0.063327 -0.39996 1 1 1
v 0.49995 0.063327 0.49995 1 1 1
v -0.49995 0.063327 0.49995 1 1 1
v -0.49995 0.063327 -0.39996 1 1 1
v -0.49995 0.146652 -0.49995 1 1 1
v -0.49995 0.146652 -0.39996 1 1 1
v -0.39996 0.146652 -0.49995 1 1 1
v -0.39996 0.063327 -0.49995 1 1 1
v 0.39996 0.063327 -0.49995 1 1 1
v 0.39996 0.146652 -0.49995 1 1 1
v 0.4292464 0.146652 -0.4292464 1 1 1
v -0.4292464 0.146652 -0.4292464 1 1 1
v -0.4292464 0.063327 -0.4292464 1 1 1
v 0.4292464 0.063327 -0.4292464 1 1 1
v 0.49995 0.063327 -0.49995 1 1 1
v -0.49995 0.063327 -0.49995 1 1 1

vn 0 -1 0
vn 1 0 0
vn -1 0 0
vn 0 0 -1
vn 0 1 0
vn 0 0 1
vn 0.3826834 0 0.9238795
vn 0.7071068 0 0.7071068
vn 0.9238795 0 0.3826834
vn -0.9238795 0 0.3826834
vn -0.7071068 0 0.7071068
vn -0.3826834 0 0.9238795

vt 0.71875 0.025
vt 0.71875 0.225
vt 0.71875 0.1113636
vt 0.15625 0.375

usemtl colormap

f 3/1/1 2/1/1 1/1/1
f 2/1/1 3/1/1 4/1/1
f 6/2/2 1/1/2 5/2/2
f 1/1/2 6/2/2 7/3/2
f 1/1/2 7/3/2 3/1/2
f 3/1/2 7/3/2 8/3/2
f 10/3/3 4/1/3 9/3/3
f 10/3/3 2/1/3 4/1/3
f 2/1/3 10/3/3 11/2/3
f 12/2/3 11/2/3 10/3/3
f 14/3/4 11/2/4 13/2/4
f 14/3/4 2/1/4 11/2/4
f 2/1/4 14/3/4 1/1/4
f 15/3/4 1/1/4 14/3/4
f 1/1/4 15/3/4 5/2/4
f 5/2/4 15/3/4 16/2/4
f 16/2/5 6/2/5 5/2/5
f 6/2/5 16/2/5 17/2/5
f 8/3/6 4/1/6 3/1/6
f 4/1/6 8/3/6 9/3/6
f 11/2/5 18/2/5 13/2/5
f 18/2/5 11/2/5 12/2/5
f 19/3/8 12/2/7 10/3/7
f 12/2/7 19/3/8 18/2/8
f 18/2/8 14/3/9 13/2/9
f 14/3/9 18/2/8 19/3/8
f 20/3/11 16/2/10 15/3/10
f 16/2/10 20/3/11 17/2/11
f 6/2/12 20/3/11 7/3/12
f 20/3/11 6/2/12 17/2/11
f 22/4/5 8/4/5 21/4/5
f 8/4/5 22/4/5 9/4/5

g walls-to-open




usemtl colormap

f 3/1/1 2/1/1 1/1/1
f 2/1/1 3/1/1 4/1/1
f 6/2/2 1/1/2 5/2/2
f 1/1/2 6/2/2 7/3/2
f 1/1/2 7/3/2 3/1/2
f 3/1/2 7/3/2 8/3/2
f 10/3/3 4/1/3 9/3/3
f 10/3/3 2/1/3 4/1/3
f 2/1/3 10/3/3 11/2/3
f 12/2/3 11/2/3 10/3/3
f 14/3/4 11/2/4 13/2/4
f 14/3/4 2/1/4 11/2/4
f 2/1/4 14/3/4 1/1/4
f 15/3/4 1/1/4 14/3/4
f 1/1/4 15/3/4 5/2/4
f 5/2/4 15/3/4 16/2/4
f 16/2/5 6/2/5 5/2/5
f 6/2/5 16/2/5 17/2/5
f 8/3/6 4/1/6 3/1/6
f 4/1/6 8/3/6 9/3/6
f 11/2/5 18/2/5 13/2/5
f 18/2/5 11/2/5 12/2/5
f 19/3/8 12/2/7 10/3/7
f 12/2/7 19/3/8 18/2/8
f 18/2/8 14/3/9 13/2/9
f 14/3/9 18/2/8 19/3/8
f 20/3/11 16/2/10 15/3/10
f 16/2/10 20/3/11 17/2/11
f 6/2/12 20/3/11 7/3/12
f 20/3/11 6/2/12 17/2/11
f 22/4/5 8/4/5 21/4/5
f 8/4/5 22/4/5 9/4/5

